<?xml version="1.0" standalone="no"?>
<!DOCTYPE svg PUBLIC "-//W3C//DTD SVG 1.1//EN" "http://www.w3.org/Graphics/SVG/1.1/DTD/svg11.dtd" >
<svg>
<metadata>
Created by FontForge 20120731 at Tue Feb 19 07:37:29 2019
 By www-data
Copyright 2012 The Encode Project Authors (impallari@gmail.com), with Reserved Font Name "Encode Sans".
</metadata>
<defs>
<font id="EncodeSans-Black" horiz-adv-x="1321" >
  <font-face 
    font-family="Encode Sans Black"
    font-weight="900"
    font-stretch="normal"
    units-per-em="2000"
    panose-1="0 0 10 0 0 0 0 0 0 0"
    ascent="1600"
    descent="-400"
    x-height="1100"
    cap-height="1480"
    bbox="-1167 -518 3141 2330"
    underline-thickness="50"
    underline-position="-50"
    unicode-range="U+000D-FB02"
  />
<missing-glyph horiz-adv-x="1028" 
d="M843 1616v-2056h-652v2056h652zM685 1478h-340v-68h134v-76h-136v-68h342v68h-136v76h136v68zM549 1213h-206v-214h342v70h-136v144zM479 1143v-74h-68v74h68zM685 944h-342v-68h136v-76h-136v-68h206v144h136v68zM685 820h-68v-135h-274v-70h342v205zM685 569h-206v-115
h70v48h68v-97h-206v164h-68v-232h342v232zM685 214h-342v-233h342v233zM617 146v-97h-206v97h206zM685 -66h-342v-68h144l-144 -96v-68h342v68h-210l144 96h66v68z" />
    <glyph glyph-name="f_j" unicode="fj" horiz-adv-x="1482" 
d="M612 769v-769h-423v769h-160v331h160v38q0 150 62.5 262.5t179.5 174t276 61.5q94 0 158 -17v-327q-37 11 -86 11q-82 0 -124.5 -37.5t-42.5 -105.5v-60h253v-331h-253zM911 1418q0 210 255 210t255 -210t-255 -210t-255 210zM958 1100h427v-904q0 -194 -67.5 -353.5
t-228.5 -318.5l-273 180q80 106 111 212t31 264v920z" />
    <glyph glyph-name="fi" unicode="fi" horiz-adv-x="1482" 
d="M251.5 1400.5q62.5 112.5 179.5 174t276 61.5q94 0 158 -17v-327q-37 11 -86 11q-82 0 -124.5 -37.5t-42.5 -105.5v-60h253v-331h-253v-769h-423v769h-160v331h160v38q0 150 62.5 262.5zM916 1418q0 210 255 210t255 -210t-255 -210t-255 210zM958 0v1100h427v-1100h-427
z" />
    <glyph glyph-name="fl" unicode="fl" horiz-adv-x="1481" 
d="M251.5 1400.5q62.5 112.5 179.5 174t276 61.5q94 0 158 -17v-327q-37 11 -86 11q-82 0 -124.5 -37.5t-42.5 -105.5v-60h253v-331h-253v-769h-423v769h-160v331h160v38q0 150 62.5 262.5zM958 1616h426v-1616h-426v1616z" />
    <glyph glyph-name=".notdef" horiz-adv-x="1028" 
d="M843 1616v-2056h-652v2056h652zM685 1478h-340v-68h134v-76h-136v-68h342v68h-136v76h136v68zM549 1213h-206v-214h342v70h-136v144zM479 1143v-74h-68v74h68zM685 944h-342v-68h136v-76h-136v-68h206v144h136v68zM685 820h-68v-135h-274v-70h342v205zM685 569h-206v-115
h70v48h68v-97h-206v164h-68v-232h342v232zM685 214h-342v-233h342v233zM617 146v-97h-206v97h206zM685 -66h-342v-68h144l-144 -96v-68h342v68h-210l144 96h66v68z" />
    <glyph glyph-name="NULL" horiz-adv-x="0" 
 />
    <glyph glyph-name="NULL" horiz-adv-x="0" 
 />
    <glyph glyph-name="nonmarkingreturn" unicode="&#xd;" horiz-adv-x="512" 
 />
    <glyph glyph-name="space" unicode=" " horiz-adv-x="512" 
 />
    <glyph glyph-name="A" unicode="A" horiz-adv-x="1531" 
d="M1102 0l-94 339h-490l-93 -339h-421l442 1480h639l442 -1480h-425zM612 679h302l-152 547z" />
    <glyph glyph-name="Aacute" unicode="&#xc1;" horiz-adv-x="1531" 
d="M1102 0l-94 339h-490l-93 -339h-421l442 1480h639l442 -1480h-425zM612 679h302l-152 547zM571 1586l183 316h445l-246 -316h-382z" />
    <glyph glyph-name="Abreve" unicode="&#x102;" horiz-adv-x="1531" 
d="M1102 0l-94 339h-490l-93 -339h-421l442 1480h639l442 -1480h-425zM612 679h302l-152 547zM465.5 1670q-107.5 84 -126.5 232h253q12 -59 54 -89t118 -30t118 30t54 89h253q-19 -148 -126.5 -232t-298.5 -84t-298.5 84z" />
    <glyph glyph-name="uni1EAE" unicode="&#x1eae;" horiz-adv-x="1531" 
d="M1102 0l-94 339h-490l-93 -339h-421l442 1480h639l442 -1480h-425zM612 679h302l-152 547zM654 1828l95 236h277l-152 -236h-220zM485 1658.5q-100 72.5 -121 199.5h218q15 -55 54 -81t128 -26q61 0 98 12.5t58 35t36 59.5h208q-21 -127 -121 -199.5t-279 -72.5
t-279 72.5z" />
    <glyph glyph-name="uni1EB6" unicode="&#x1eb6;" horiz-adv-x="1531" 
d="M1102 0l-94 339h-490l-93 -339h-421l442 1480h639l442 -1480h-425zM612 679h302l-152 547zM576 -417.5q-64 46.5 -64 133.5t64 133.5t189 46.5t189 -46.5t64 -133.5t-64 -133.5t-189 -46.5t-189 46.5zM465.5 1670q-107.5 84 -126.5 232h253q12 -59 54 -89t118 -30t118 30
t54 89h253q-19 -148 -126.5 -232t-298.5 -84t-298.5 84z" />
    <glyph glyph-name="uni1EB0" unicode="&#x1eb0;" horiz-adv-x="1531" 
d="M1102 0l-94 339h-490l-93 -339h-421l442 1480h639l442 -1480h-425zM612 679h302l-152 547zM654 1828l-152 236h277l95 -236h-220zM485 1658.5q-100 72.5 -121 199.5h208q15 -37 36 -59.5t58 -35t98 -12.5q89 0 128 26t54 81h218q-21 -127 -121 -199.5t-279 -72.5
t-279 72.5z" />
    <glyph glyph-name="uni1EB2" unicode="&#x1eb2;" horiz-adv-x="1531" 
d="M1102 0l-94 339h-490l-93 -339h-421l442 1480h639l442 -1480h-425zM612 679h302l-152 547zM695.5 1890q29.5 22 80.5 44q27 11 40 18.5t13 17.5q0 26 -105 26q-96 0 -191 -17v125q44 9 108.5 14.5t116.5 5.5q148 0 217 -31t69 -96q0 -37 -26.5 -59.5t-76.5 -46.5
q-37 -19 -55 -32t-21 -31h-202q3 40 32.5 62zM485 1658.5q-100 72.5 -121 199.5h218q15 -55 54 -81t128 -26q61 0 98 12.5t58 35t36 59.5h208q-21 -127 -121 -199.5t-279 -72.5t-279 72.5z" />
    <glyph glyph-name="uni1EB4" unicode="&#x1eb4;" horiz-adv-x="1531" 
d="M1102 0l-94 339h-490l-93 -339h-421l442 1480h639l442 -1480h-425zM612 679h302l-152 547zM843 1907q-38 7 -100 23q-46 13 -78.5 19.5t-64.5 6.5q-59 0 -110.5 -14.5t-125.5 -51.5v170q64 38 116.5 51t123.5 13q44 0 85.5 -8.5t95.5 -23.5q54 -14 83 -20t60 -6
q59 0 110.5 14.5t125.5 51.5v-170q-63 -38 -115.5 -50t-124.5 -12q-43 0 -81 7zM485 1658.5q-100 72.5 -121 199.5h218q15 -55 54 -81t128 -26t128 26t54 81h218q-21 -127 -121 -199.5t-279 -72.5t-279 72.5z" />
    <glyph glyph-name="Acircumflex" unicode="&#xc2;" horiz-adv-x="1531" 
d="M1102 0l-94 339h-490l-93 -339h-421l442 1480h639l442 -1480h-425zM612 679h302l-152 547zM1204 1586h-311l-129 166l-129 -166h-311l263 316h354z" />
    <glyph glyph-name="uni1EA4" unicode="&#x1ea4;" horiz-adv-x="1531" 
d="M1102 0l-94 339h-490l-93 -339h-421l442 1480h639l442 -1480h-425zM612 679h302l-152 547zM1126 2064h276l-151 -236h-221zM587 1858h354l263 -272h-311l-129 144l-129 -144h-311z" />
    <glyph glyph-name="uni1EAC" unicode="&#x1eac;" horiz-adv-x="1531" 
d="M1102 0l-94 339h-490l-93 -339h-421l442 1480h639l442 -1480h-425zM612 679h302l-152 547zM576 -417.5q-64 46.5 -64 133.5t64 133.5t189 46.5t189 -46.5t64 -133.5t-64 -133.5t-189 -46.5t-189 46.5zM1204 1586h-311l-129 166l-129 -166h-311l263 316h354z" />
    <glyph glyph-name="uni1EA6" unicode="&#x1ea6;" horiz-adv-x="1531" 
d="M1102 0l-94 339h-490l-93 -339h-421l442 1480h639l442 -1480h-425zM612 679h302l-152 547zM1291 1828h-221l-152 236h277zM587 1858h354l263 -272h-311l-129 144l-129 -144h-311z" />
    <glyph glyph-name="uni1EA8" unicode="&#x1ea8;" horiz-adv-x="1531" 
d="M1102 0l-94 339h-490l-93 -339h-421l442 1480h639l442 -1480h-425zM612 679h302l-152 547zM1341.5 2093q69.5 -31 69.5 -96q0 -37 -26.5 -59.5t-76.5 -46.5q-37 -18 -55.5 -31.5t-21.5 -31.5h-202q3 40 32.5 62t80.5 44q27 11 40 18.5t13 17.5q0 26 -105 26
q-96 0 -191 -17v125q44 9 108.5 14.5t116.5 5.5q148 0 217.5 -31zM587 1858h354l263 -272h-311l-129 144l-129 -144h-311z" />
    <glyph glyph-name="uni1EAA" unicode="&#x1eaa;" horiz-adv-x="1531" 
d="M1102 0l-94 339h-490l-93 -339h-421l442 1480h639l442 -1480h-425zM612 679h302l-152 547zM1074 2080.5q55 14.5 130 51.5v-170q-64 -38 -119.5 -50t-134.5 -12q-51 0 -95.5 7.5t-114.5 22.5q-51 13 -89.5 19.5t-76.5 6.5q-65 0 -120 -14.5t-130 -51.5v170
q64 38 120.5 51t133.5 13q52 0 98.5 -8t111.5 -23q54 -13 91 -20t75 -7q65 0 120 14.5zM587 1858h354l263 -272h-311l-129 144l-129 -144h-311z" />
    <glyph glyph-name="uni0200" unicode="&#x200;" horiz-adv-x="1531" 
d="M1102 0l-94 339h-490l-93 -339h-421l442 1480h639l442 -1480h-425zM612 679h302l-152 547zM383 1586l-163 316h331l142 -316h-310zM835 1586l-162 316h330l142 -316h-310z" />
    <glyph glyph-name="Adieresis" unicode="&#xc4;" horiz-adv-x="1531" 
d="M1102 0l-94 339h-490l-93 -339h-421l442 1480h639l442 -1480h-425zM612 679h302l-152 547zM327.5 1616.5q-55.5 46.5 -55.5 133.5t55.5 133.5t163.5 46.5t163 -46.5t55 -133.5t-55 -133.5t-163 -46.5t-163.5 46.5zM874 1616.5q-55 46.5 -55 133.5t55 133.5t163 46.5
t163.5 -46.5t55.5 -133.5t-55.5 -133.5t-163.5 -46.5t-163 46.5z" />
    <glyph glyph-name="uni1EA0" unicode="&#x1ea0;" horiz-adv-x="1531" 
d="M1102 0l-94 339h-490l-93 -339h-421l442 1480h639l442 -1480h-425zM612 679h302l-152 547zM576 -417.5q-64 46.5 -64 133.5t64 133.5t189 46.5t189 -46.5t64 -133.5t-64 -133.5t-189 -46.5t-189 46.5z" />
    <glyph glyph-name="Agrave" unicode="&#xc0;" horiz-adv-x="1531" 
d="M1102 0l-94 339h-490l-93 -339h-421l442 1480h639l442 -1480h-425zM612 679h302l-152 547zM573 1586l-246 316h445l183 -316h-382z" />
    <glyph glyph-name="uni1EA2" unicode="&#x1ea2;" horiz-adv-x="1531" 
d="M1102 0l-94 339h-490l-93 -339h-421l442 1480h639l442 -1480h-425zM612 679h302l-152 547zM682 1642q17 23 38.5 36.5t56.5 30.5q28 13 40 21.5t12 19.5q0 16 -26 23.5t-79 7.5q-95 0 -191 -20v147q43 10 107 16t118 6q147 0 216.5 -36t69.5 -111q0 -43 -26.5 -69.5
t-76.5 -54.5q-36 -22 -54.5 -37t-21.5 -36h-202q2 33 19 56z" />
    <glyph glyph-name="uni0202" unicode="&#x202;" horiz-adv-x="1531" 
d="M1102 0l-94 339h-490l-93 -339h-421l442 1480h639l442 -1480h-425zM612 679h302l-152 547zM465.5 1818q107.5 84 298.5 84t298.5 -84t126.5 -232h-253q-12 59 -54 89t-118 30t-118 -30t-54 -89h-253q19 148 126.5 232z" />
    <glyph glyph-name="Amacron" unicode="&#x100;" horiz-adv-x="1531" 
d="M1102 0l-94 339h-490l-93 -339h-421l442 1480h639l442 -1480h-425zM612 679h302l-152 547zM354 1621v248h820v-248h-820z" />
    <glyph glyph-name="Aogonek" unicode="&#x104;" horiz-adv-x="1531" 
d="M1550 -275v-155q-92 -30 -194 -30q-156 0 -234 59.5t-78 164.5q0 71 38 129.5t123 106.5h-103l-94 339h-490l-93 -339h-421l442 1480h639l442 -1480q-138 -46 -192 -96t-54 -110q0 -94 138 -94q59 0 131 25zM612 679h302l-152 547z" />
    <glyph glyph-name="Aring" unicode="&#xc5;" horiz-adv-x="1531" 
d="M1102 0l-94 339h-490l-93 -339h-421l442 1480h639l442 -1480h-425zM612 679h302l-152 547zM647 1598.5q-52 28.5 -81.5 78.5t-29.5 113t29.5 113t81.5 78.5t117 28.5t117 -28.5t81.5 -78.5t29.5 -113t-29.5 -113t-81.5 -78.5t-117 -28.5t-117 28.5zM820.5 1730.5
q21.5 22.5 21.5 59.5t-21.5 59.5t-56.5 22.5t-56.5 -22.5t-21.5 -59.5t21.5 -59.5t56.5 -22.5t56.5 22.5z" />
    <glyph glyph-name="Aringacute" unicode="&#x1fa;" horiz-adv-x="1531" 
d="M1102 0l-94 339h-490l-93 -339h-421l442 1480h639l442 -1480h-425zM612 679h302l-152 547zM968 1893q24 -45 24 -103q0 -63 -29.5 -113t-81.5 -78.5t-117 -28.5t-117 28.5t-81.5 78.5t-29.5 113t29.5 113t81.5 78.5t117 28.5q14 0 21 -1l97 127h296zM820.5 1730.5
q21.5 22.5 21.5 59.5t-21.5 59.5t-56.5 22.5t-56.5 -22.5t-21.5 -59.5t21.5 -59.5t56.5 -22.5t56.5 22.5z" />
    <glyph glyph-name="Atilde" unicode="&#xc3;" horiz-adv-x="1531" 
d="M1102 0l-94 339h-490l-93 -339h-421l442 1480h639l442 -1480h-425zM612 679h302l-152 547zM850.5 1596.5q-45.5 10.5 -104.5 29.5q-58 18 -95.5 27t-78.5 9q-65 0 -114.5 -16.5t-103.5 -53.5v233q46 40 99 58.5t127 18.5q51 0 95.5 -10.5t106.5 -30.5q56 -19 94 -28
t80 -9q65 0 114.5 16.5t103.5 53.5v-233q-45 -40 -98 -57.5t-128 -17.5q-52 0 -97.5 10.5z" />
    <glyph glyph-name="AE" unicode="&#xc6;" horiz-adv-x="2113" 
d="M1404 343h637v-343h-1038l-27 338h-455l-93 -338h-424l442 1480h1585v-343h-701l20 -211h576v-342h-544zM616 680h333l-37 457h-170z" />
    <glyph glyph-name="AEacute" unicode="&#x1fc;" horiz-adv-x="2113" 
d="M1404 343h637v-343h-1038l-27 338h-455l-93 -338h-424l442 1480h1585v-343h-701l20 -211h576v-342h-544zM616 680h333l-37 457h-170zM903 1586l183 316h445l-246 -316h-382z" />
    <glyph glyph-name="B" unicode="B" horiz-adv-x="1382" 
d="M1272 651q71 -85 71 -227q0 -145 -77 -243t-250 -149.5t-455 -51.5q-95 0 -225 9.5t-227 23.5v1428q113 26 255.5 42.5t264.5 16.5q349 0 511.5 -104.5t162.5 -319.5q0 -112 -60.5 -196.5t-159.5 -116.5q118 -27 189 -112zM533 1174v-260h159q113 0 159 33t46 105
t-47 104.5t-161 32.5q-73 0 -156 -15zM839.5 307q56.5 16 80.5 49t24 87q0 81 -50 116.5t-169 35.5h-192v-298q72 -6 150 -6q100 0 156.5 16z" />
    <glyph glyph-name="C" unicode="C" horiz-adv-x="1296" 
d="M69 736q0 245 99 416t290.5 259.5t467.5 88.5q171 0 317 -31v-353q-143 28 -279 28q-154 0 -250.5 -42.5t-143 -131.5t-46.5 -230q0 -144 45 -232.5t139.5 -130t245.5 -41.5q128 0 289 41v-353q-70 -20 -158.5 -32t-174.5 -12q-841 0 -841 756z" />
    <glyph glyph-name="Cacute" unicode="&#x106;" horiz-adv-x="1296" 
d="M69 736q0 245 99 416t290.5 259.5t467.5 88.5q171 0 317 -31v-353q-143 28 -279 28q-154 0 -250.5 -42.5t-143 -131.5t-46.5 -230q0 -144 45 -232.5t139.5 -130t245.5 -41.5q128 0 289 41v-353q-70 -20 -158.5 -32t-174.5 -12q-841 0 -841 756zM591 1586l183 316h445
l-246 -316h-382z" />
    <glyph glyph-name="Ccaron" unicode="&#x10c;" horiz-adv-x="1296" 
d="M69 736q0 245 99 416t290.5 259.5t467.5 88.5q171 0 317 -31v-353q-143 28 -279 28q-154 0 -250.5 -42.5t-143 -131.5t-46.5 -230q0 -144 45 -232.5t139.5 -130t245.5 -41.5q128 0 289 41v-353q-70 -20 -158.5 -32t-174.5 -12q-841 0 -841 756zM913 1902h311l-263 -316
h-354l-263 316h311l129 -166z" />
    <glyph glyph-name="Ccedilla" unicode="&#xc7;" horiz-adv-x="1296" 
d="M713.5 1101.5q-96.5 -42.5 -143 -131.5t-46.5 -230q0 -144 45 -232.5t139.5 -130t245.5 -41.5q128 0 289 41v-353q-70 -20 -158.5 -32t-174.5 -12q-38 0 -56 1v-57q94 -15 141 -62.5t47 -122.5q0 -94 -75.5 -146.5t-231.5 -52.5q-112 0 -209 29v152q41 -14 92 -21t95 -7
q59 0 86.5 14t27.5 47q0 34 -29 49.5t-86 15.5h-52v181q-591 103 -591 736q0 245 99 416t290.5 259.5t467.5 88.5q171 0 317 -31v-353q-143 28 -279 28q-154 0 -250.5 -42.5z" />
    <glyph glyph-name="uni1E08" unicode="&#x1e08;" horiz-adv-x="1296" 
d="M1219 1902l-246 -316h-382l183 316h445zM713.5 1101.5q-96.5 -42.5 -143 -131.5t-46.5 -230q0 -144 45 -232.5t139.5 -130t245.5 -41.5q128 0 289 41v-353q-70 -20 -158.5 -32t-174.5 -12q-38 0 -56 1v-57q94 -15 141 -62.5t47 -122.5q0 -94 -75.5 -146.5t-231.5 -52.5
q-112 0 -209 29v152q41 -14 92 -21t95 -7q59 0 86.5 14t27.5 47q0 34 -29 49.5t-86 15.5h-52v181q-591 103 -591 736q0 245 99 416t290.5 259.5t467.5 88.5q171 0 317 -31v-353q-143 28 -279 28q-154 0 -250.5 -42.5z" />
    <glyph glyph-name="Ccircumflex" unicode="&#x108;" horiz-adv-x="1296" 
d="M69 736q0 245 99 416t290.5 259.5t467.5 88.5q171 0 317 -31v-353q-143 28 -279 28q-154 0 -250.5 -42.5t-143 -131.5t-46.5 -230q0 -144 45 -232.5t139.5 -130t245.5 -41.5q128 0 289 41v-353q-70 -20 -158.5 -32t-174.5 -12q-841 0 -841 756zM1224 1586h-311l-129 166
l-129 -166h-311l263 316h354z" />
    <glyph glyph-name="Cdotaccent" unicode="&#x10a;" horiz-adv-x="1296" 
d="M69 736q0 245 99 416t290.5 259.5t467.5 88.5q171 0 317 -31v-353q-143 28 -279 28q-154 0 -250.5 -42.5t-143 -131.5t-46.5 -230q0 -144 45 -232.5t139.5 -130t245.5 -41.5q128 0 289 41v-353q-70 -20 -158.5 -32t-174.5 -12q-841 0 -841 756zM595 1616.5
q-64 46.5 -64 133.5t64 133.5t189 46.5t189 -46.5t64 -133.5t-64 -133.5t-189 -46.5t-189 46.5z" />
    <glyph glyph-name="D" unicode="D" horiz-adv-x="1567" 
d="M328.5 -10.5q-119.5 6.5 -219.5 18.5v1433q113 26 252.5 41t271.5 15q433 0 649 -185t216 -572q0 -266 -103.5 -433t-311.5 -245.5t-531 -78.5q-104 0 -223.5 6.5zM886.5 372q83.5 40 125 129.5t41.5 240.5q0 149 -43.5 238.5t-128 129.5t-213.5 40q-27 0 -63 -3.5
t-61 -8.5v-803q46 -3 127 -3q132 0 215.5 40z" />
    <glyph glyph-name="uni01F1" unicode="&#x1f1;" horiz-adv-x="2816" 
d="M328.5 -10.5q-119.5 6.5 -219.5 18.5v1433q113 26 252.5 41t271.5 15q433 0 649 -185t216 -572q0 -266 -103.5 -433t-311.5 -245.5t-531 -78.5q-104 0 -223.5 6.5zM886.5 372q83.5 40 125 129.5t41.5 240.5q0 149 -43.5 238.5t-128 129.5t-213.5 40q-27 0 -63 -3.5
t-61 -8.5v-803q46 -3 127 -3q132 0 215.5 40zM2137 358h621v-358h-1182v238l610 884h-600v358h1162v-238z" />
    <glyph glyph-name="uni01C4" unicode="&#x1c4;" horiz-adv-x="2816" 
d="M328.5 -10.5q-119.5 6.5 -219.5 18.5v1433q113 26 252.5 41t271.5 15q433 0 649 -185t216 -572q0 -266 -103.5 -433t-311.5 -245.5t-531 -78.5q-104 0 -223.5 6.5zM886.5 372q83.5 40 125 129.5t41.5 240.5q0 149 -43.5 238.5t-128 129.5t-213.5 40q-27 0 -63 -3.5
t-61 -8.5v-803q46 -3 127 -3q132 0 215.5 40zM2137 358h621v-358h-1182v238l610 884h-600v358h1162v-238zM2297 1902h311l-263 -316h-354l-263 316h311l129 -166z" />
    <glyph glyph-name="Eth" unicode="&#xd0;" horiz-adv-x="1567" 
d="M1282 1312q216 -185 216 -572q0 -266 -103.5 -433t-311.5 -245.5t-531 -78.5q-104 0 -223.5 6.5t-219.5 18.5v619h-105v270h105v544q113 26 252.5 41t271.5 15q433 0 649 -185zM886.5 372q83.5 40 125 129.5t41.5 240.5q0 149 -43.5 238.5t-128 129.5t-213.5 40
q-27 0 -63 -3.5t-61 -8.5v-241h234v-270h-234v-292q46 -3 127 -3q132 0 215.5 40z" />
    <glyph glyph-name="Dcaron" unicode="&#x10e;" horiz-adv-x="1567" 
d="M328.5 -10.5q-119.5 6.5 -219.5 18.5v1433q113 26 252.5 41t271.5 15q433 0 649 -185t216 -572q0 -266 -103.5 -433t-311.5 -245.5t-531 -78.5q-104 0 -223.5 6.5zM886.5 372q83.5 40 125 129.5t41.5 240.5q0 149 -43.5 238.5t-128 129.5t-213.5 40q-27 0 -63 -3.5
t-61 -8.5v-803q46 -3 127 -3q132 0 215.5 40zM825 1902h311l-263 -316h-354l-263 316h311l129 -166z" />
    <glyph glyph-name="Dcroat" unicode="&#x110;" horiz-adv-x="1567" 
d="M1282 1312q216 -185 216 -572q0 -266 -103.5 -433t-311.5 -245.5t-531 -78.5q-104 0 -223.5 6.5t-219.5 18.5v619h-105v270h105v544q113 26 252.5 41t271.5 15q433 0 649 -185zM886.5 372q83.5 40 125 129.5t41.5 240.5q0 149 -43.5 238.5t-128 129.5t-213.5 40
q-27 0 -63 -3.5t-61 -8.5v-241h234v-270h-234v-292q46 -3 127 -3q132 0 215.5 40z" />
    <glyph glyph-name="uni1E0C" unicode="&#x1e0c;" horiz-adv-x="1567" 
d="M328.5 -10.5q-119.5 6.5 -219.5 18.5v1433q113 26 252.5 41t271.5 15q433 0 649 -185t216 -572q0 -266 -103.5 -433t-311.5 -245.5t-531 -78.5q-104 0 -223.5 6.5zM886.5 372q83.5 40 125 129.5t41.5 240.5q0 149 -43.5 238.5t-128 129.5t-213.5 40q-27 0 -63 -3.5
t-61 -8.5v-803q46 -3 127 -3q132 0 215.5 40zM527 -417.5q-64 46.5 -64 133.5t64 133.5t189 46.5t189 -46.5t64 -133.5t-64 -133.5t-189 -46.5t-189 46.5z" />
    <glyph glyph-name="uni1E0E" unicode="&#x1e0e;" horiz-adv-x="1567" 
d="M328.5 -10.5q-119.5 6.5 -219.5 18.5v1433q113 26 252.5 41t271.5 15q433 0 649 -185t216 -572q0 -266 -103.5 -433t-311.5 -245.5t-531 -78.5q-104 0 -223.5 6.5zM886.5 372q83.5 40 125 129.5t41.5 240.5q0 149 -43.5 238.5t-128 129.5t-213.5 40q-27 0 -63 -3.5
t-61 -8.5v-803q46 -3 127 -3q132 0 215.5 40zM306 -397v248h820v-248h-820z" />
    <glyph glyph-name="uni01F2" unicode="&#x1f2;" horiz-adv-x="2643" 
d="M328.5 -10.5q-119.5 6.5 -219.5 18.5v1433q113 26 252.5 41t271.5 15q433 0 649 -185t216 -572q0 -266 -103.5 -433t-311.5 -245.5t-531 -78.5q-104 0 -223.5 6.5zM886.5 372q83.5 40 125 129.5t41.5 240.5q0 149 -43.5 238.5t-128 129.5t-213.5 40q-27 0 -63 -3.5
t-61 -8.5v-803q46 -3 127 -3q132 0 215.5 40zM2160 331h436v-331h-962v271l426 498h-416v331h942v-271z" />
    <glyph glyph-name="uni01C5" unicode="&#x1c5;" horiz-adv-x="2643" 
d="M328.5 -10.5q-119.5 6.5 -219.5 18.5v1433q113 26 252.5 41t271.5 15q433 0 649 -185t216 -572q0 -266 -103.5 -433t-311.5 -245.5t-531 -78.5q-104 0 -223.5 6.5zM886.5 372q83.5 40 125 129.5t41.5 240.5q0 149 -43.5 238.5t-128 129.5t-213.5 40q-27 0 -63 -3.5
t-61 -8.5v-803q46 -3 127 -3q132 0 215.5 40zM2160 331h436v-331h-962v271l426 498h-416v331h942v-271zM2244 1582h311l-263 -316h-354l-263 316h311l129 -166z" />
    <glyph glyph-name="E" unicode="E" horiz-adv-x="1314" 
d="M538 343h704v-343h-1133v1480h1123v-343h-694v-211h589v-342h-589v-241z" />
    <glyph glyph-name="Eacute" unicode="&#xc9;" horiz-adv-x="1314" 
d="M538 343h704v-343h-1133v1480h1123v-343h-694v-211h589v-342h-589v-241zM499 1586l183 316h445l-246 -316h-382z" />
    <glyph glyph-name="Ebreve" unicode="&#x114;" horiz-adv-x="1314" 
d="M538 343h704v-343h-1133v1480h1123v-343h-694v-211h589v-342h-589v-241zM393.5 1670q-107.5 84 -126.5 232h253q12 -59 54 -89t118 -30t118 30t54 89h253q-19 -148 -126.5 -232t-298.5 -84t-298.5 84z" />
    <glyph glyph-name="Ecaron" unicode="&#x11a;" horiz-adv-x="1314" 
d="M538 343h704v-343h-1133v1480h1123v-343h-694v-211h589v-342h-589v-241zM821 1902h311l-263 -316h-354l-263 316h311l129 -166z" />
    <glyph glyph-name="uni1E1C" unicode="&#x1e1c;" horiz-adv-x="1314" 
d="M393.5 1670q-107.5 84 -126.5 232h253q12 -59 54 -89t118 -30t118 30t54 89h253q-19 -148 -126.5 -232t-298.5 -84t-298.5 84zM762 0v-76q94 -15 141 -62.5t47 -122.5q0 -94 -75.5 -146.5t-231.5 -52.5q-112 0 -209 29v152q41 -14 92 -21t95 -7q59 0 86.5 14t27.5 47
q0 34 -29 49.5t-86 15.5h-52v181h-459v1480h1123v-343h-694v-211h589v-342h-589v-241h704v-343h-480z" />
    <glyph glyph-name="Ecircumflex" unicode="&#xca;" horiz-adv-x="1314" 
d="M538 343h704v-343h-1133v1480h1123v-343h-694v-211h589v-342h-589v-241zM1132 1586h-311l-129 166l-129 -166h-311l263 316h354z" />
    <glyph glyph-name="uni1EBE" unicode="&#x1ebe;" horiz-adv-x="1314" 
d="M538 343h704v-343h-1133v1480h1123v-343h-694v-211h589v-342h-589v-241zM1054 2064h276l-151 -236h-221zM515 1858h354l263 -272h-311l-129 144l-129 -144h-311z" />
    <glyph glyph-name="uni1EC6" unicode="&#x1ec6;" horiz-adv-x="1314" 
d="M538 343h704v-343h-1133v1480h1123v-343h-694v-211h589v-342h-589v-241zM503 -417.5q-64 46.5 -64 133.5t64 133.5t189 46.5t189 -46.5t64 -133.5t-64 -133.5t-189 -46.5t-189 46.5zM1132 1586h-311l-129 166l-129 -166h-311l263 316h354z" />
    <glyph glyph-name="uni1EC0" unicode="&#x1ec0;" horiz-adv-x="1314" 
d="M538 343h704v-343h-1133v1480h1123v-343h-694v-211h589v-342h-589v-241zM1219 1828h-221l-152 236h277zM515 1858h354l263 -272h-311l-129 144l-129 -144h-311z" />
    <glyph glyph-name="uni1EC2" unicode="&#x1ec2;" horiz-adv-x="1314" 
d="M538 343h704v-343h-1133v1480h1123v-343h-694v-211h589v-342h-589v-241zM1269.5 2093q69.5 -31 69.5 -96q0 -37 -26.5 -59.5t-76.5 -46.5q-37 -18 -55.5 -31.5t-21.5 -31.5h-202q3 40 32.5 62t80.5 44q27 11 40 18.5t13 17.5q0 26 -105 26q-96 0 -191 -17v125
q44 9 108.5 14.5t116.5 5.5q148 0 217.5 -31zM515 1858h354l263 -272h-311l-129 144l-129 -144h-311z" />
    <glyph glyph-name="uni1EC4" unicode="&#x1ec4;" horiz-adv-x="1314" 
d="M538 343h704v-343h-1133v1480h1123v-343h-694v-211h589v-342h-589v-241zM1002 2080.5q55 14.5 130 51.5v-170q-64 -38 -119.5 -50t-134.5 -12q-51 0 -95.5 7.5t-114.5 22.5q-51 13 -89.5 19.5t-76.5 6.5q-65 0 -120 -14.5t-130 -51.5v170q64 38 120.5 51t133.5 13
q52 0 98.5 -8t111.5 -23q54 -13 91 -20t75 -7q65 0 120 14.5zM515 1858h354l263 -272h-311l-129 144l-129 -144h-311z" />
    <glyph glyph-name="uni0204" unicode="&#x204;" horiz-adv-x="1314" 
d="M538 343h704v-343h-1133v1480h1123v-343h-694v-211h589v-342h-589v-241zM311 1586l-163 316h331l142 -316h-310zM763 1586l-162 316h330l142 -316h-310z" />
    <glyph glyph-name="Edieresis" unicode="&#xcb;" horiz-adv-x="1314" 
d="M538 343h704v-343h-1133v1480h1123v-343h-694v-211h589v-342h-589v-241zM255.5 1616.5q-55.5 46.5 -55.5 133.5t55.5 133.5t163.5 46.5t163 -46.5t55 -133.5t-55 -133.5t-163 -46.5t-163.5 46.5zM802 1616.5q-55 46.5 -55 133.5t55 133.5t163 46.5t163.5 -46.5
t55.5 -133.5t-55.5 -133.5t-163.5 -46.5t-163 46.5z" />
    <glyph glyph-name="Edotaccent" unicode="&#x116;" horiz-adv-x="1314" 
d="M538 343h704v-343h-1133v1480h1123v-343h-694v-211h589v-342h-589v-241zM503 1616.5q-64 46.5 -64 133.5t64 133.5t189 46.5t189 -46.5t64 -133.5t-64 -133.5t-189 -46.5t-189 46.5z" />
    <glyph glyph-name="uni1EB8" unicode="&#x1eb8;" horiz-adv-x="1314" 
d="M538 343h704v-343h-1133v1480h1123v-343h-694v-211h589v-342h-589v-241zM503 -417.5q-64 46.5 -64 133.5t64 133.5t189 46.5t189 -46.5t64 -133.5t-64 -133.5t-189 -46.5t-189 46.5z" />
    <glyph glyph-name="Egrave" unicode="&#xc8;" horiz-adv-x="1314" 
d="M538 343h704v-343h-1133v1480h1123v-343h-694v-211h589v-342h-589v-241zM501 1586l-246 316h445l183 -316h-382z" />
    <glyph glyph-name="uni1EBA" unicode="&#x1eba;" horiz-adv-x="1314" 
d="M538 343h704v-343h-1133v1480h1123v-343h-694v-211h589v-342h-589v-241zM610 1642q17 23 38.5 36.5t56.5 30.5q28 13 40 21.5t12 19.5q0 16 -26 23.5t-79 7.5q-95 0 -191 -20v147q43 10 107 16t118 6q147 0 216.5 -36t69.5 -111q0 -43 -26.5 -69.5t-76.5 -54.5
q-36 -22 -54.5 -37t-21.5 -36h-202q2 33 19 56z" />
    <glyph glyph-name="uni0206" unicode="&#x206;" horiz-adv-x="1314" 
d="M538 343h704v-343h-1133v1480h1123v-343h-694v-211h589v-342h-589v-241zM393.5 1818q107.5 84 298.5 84t298.5 -84t126.5 -232h-253q-12 59 -54 89t-118 30t-118 -30t-54 -89h-253q19 148 126.5 232z" />
    <glyph glyph-name="Emacron" unicode="&#x112;" horiz-adv-x="1314" 
d="M538 343h704v-343h-1133v1480h1123v-343h-694v-211h589v-342h-589v-241zM282 1621v248h820v-248h-820z" />
    <glyph glyph-name="uni1E16" unicode="&#x1e16;" horiz-adv-x="1314" 
d="M538 343h704v-343h-1133v1480h1123v-343h-694v-211h589v-342h-589v-241zM476 1986l183 232h494l-245 -232h-432zM282 1621v248h820v-248h-820z" />
    <glyph glyph-name="uni1E14" unicode="&#x1e14;" horiz-adv-x="1314" 
d="M538 343h704v-343h-1133v1480h1123v-343h-694v-211h589v-342h-589v-241zM476 1986l-245 232h494l183 -232h-432zM282 1621v248h820v-248h-820z" />
    <glyph glyph-name="Eogonek" unicode="&#x118;" horiz-adv-x="1314" 
d="M960 -96q-54 -50 -54 -110q0 -94 138 -94q59 0 131 25v-155q-92 -30 -194 -30q-156 0 -234 59.5t-78 164.5q0 71 38 129.5t123 106.5h-721v1480h1123v-343h-694v-211h589v-342h-589v-241h704v-343h-90q-138 -46 -192 -96z" />
    <glyph glyph-name="uni1EBC" unicode="&#x1ebc;" horiz-adv-x="1314" 
d="M538 343h704v-343h-1133v1480h1123v-343h-694v-211h589v-342h-589v-241zM778.5 1596.5q-45.5 10.5 -104.5 29.5q-58 18 -95.5 27t-78.5 9q-65 0 -114.5 -16.5t-103.5 -53.5v233q46 40 99 58.5t127 18.5q51 0 95.5 -10.5t106.5 -30.5q56 -19 94 -28t80 -9q65 0 114.5 16.5
t103.5 53.5v-233q-45 -40 -98 -57.5t-128 -17.5q-52 0 -97.5 10.5z" />
    <glyph glyph-name="F" unicode="F" horiz-adv-x="1273" 
d="M1232 1130h-688v-249h583v-350h-583v-531h-435v1480h1123v-350z" />
    <glyph glyph-name="G" unicode="G" horiz-adv-x="1479" 
d="M1369 720v-705q-217 -35 -396 -35q-455 0 -679.5 188t-224.5 568q0 372 232 568t685 196q180 0 335 -34v-353q-153 31 -294 31q-184 -1 -294 -44t-160.5 -133t-50.5 -238q0 -202 102 -299t313 -97h29v387h403z" />
    <glyph glyph-name="uni01F4" unicode="&#x1f4;" horiz-adv-x="1479" 
d="M1369 720v-705q-217 -35 -396 -35q-455 0 -679.5 188t-224.5 568q0 372 232 568t685 196q180 0 335 -34v-353q-153 31 -294 31q-184 -1 -294 -44t-160.5 -133t-50.5 -238q0 -202 102 -299t313 -97h29v387h403zM652 1586l183 316h445l-246 -316h-382z" />
    <glyph glyph-name="Gbreve" unicode="&#x11e;" horiz-adv-x="1479" 
d="M1369 720v-705q-217 -35 -396 -35q-455 0 -679.5 188t-224.5 568q0 372 232 568t685 196q180 0 335 -34v-353q-153 31 -294 31q-184 -1 -294 -44t-160.5 -133t-50.5 -238q0 -202 102 -299t313 -97h29v387h403zM546.5 1670q-107.5 84 -126.5 232h253q12 -59 54 -89
t118 -30t118 30t54 89h253q-19 -148 -126.5 -232t-298.5 -84t-298.5 84z" />
    <glyph glyph-name="Gcaron" unicode="&#x1e6;" horiz-adv-x="1479" 
d="M1369 720v-705q-217 -35 -396 -35q-455 0 -679.5 188t-224.5 568q0 372 232 568t685 196q180 0 335 -34v-353q-153 31 -294 31q-184 -1 -294 -44t-160.5 -133t-50.5 -238q0 -202 102 -299t313 -97h29v387h403zM974 1902h311l-263 -316h-354l-263 316h311l129 -166z" />
    <glyph glyph-name="Gcircumflex" unicode="&#x11c;" horiz-adv-x="1479" 
d="M1369 720v-705q-217 -35 -396 -35q-455 0 -679.5 188t-224.5 568q0 372 232 568t685 196q180 0 335 -34v-353q-153 31 -294 31q-184 -1 -294 -44t-160.5 -133t-50.5 -238q0 -202 102 -299t313 -97h29v387h403zM1285 1586h-311l-129 166l-129 -166h-311l263 316h354z" />
    <glyph glyph-name="Gcommaaccent" unicode="&#x122;" horiz-adv-x="1479" 
d="M1369 720v-705q-217 -35 -396 -35q-455 0 -679.5 188t-224.5 568q0 372 232 568t685 196q180 0 335 -34v-353q-153 31 -294 31q-184 -1 -294 -44t-160.5 -133t-50.5 -238q0 -202 102 -299t313 -97h29v387h403zM1073 -280q0 -60 -26 -126t-66 -112h-262q27 48 41.5 82.5
t21.5 66.5q-165 17 -165 131q0 134 228 134t228 -176z" />
    <glyph glyph-name="Gdotaccent" unicode="&#x120;" horiz-adv-x="1479" 
d="M1369 720v-705q-217 -35 -396 -35q-455 0 -679.5 188t-224.5 568q0 372 232 568t685 196q180 0 335 -34v-353q-153 31 -294 31q-184 -1 -294 -44t-160.5 -133t-50.5 -238q0 -202 102 -299t313 -97h29v387h403zM656 1616.5q-64 46.5 -64 133.5t64 133.5t189 46.5
t189 -46.5t64 -133.5t-64 -133.5t-189 -46.5t-189 46.5z" />
    <glyph glyph-name="uni1E20" unicode="&#x1e20;" horiz-adv-x="1479" 
d="M1369 720v-705q-217 -35 -396 -35q-455 0 -679.5 188t-224.5 568q0 372 232 568t685 196q180 0 335 -34v-353q-153 31 -294 31q-184 -1 -294 -44t-160.5 -133t-50.5 -238q0 -202 102 -299t313 -97h29v387h403zM435 1621v248h820v-248h-820z" />
    <glyph glyph-name="H" unicode="H" horiz-adv-x="1581" 
d="M109 0v1480h435v-535h493v535h435v-1480h-435v565h-493v-565h-435z" />
    <glyph glyph-name="Hbar" unicode="&#x126;" horiz-adv-x="1581" 
d="M1577 1342v-261h-105v-1081h-435v565h-493v-565h-435v1081h-105v261h105v138h435v-138h493v138h435v-138h105zM1037 945v136h-493v-136h493z" />
    <glyph glyph-name="uni1E2A" unicode="&#x1e2a;" horiz-adv-x="1581" 
d="M109 0v1480h435v-535h493v535h435v-1480h-435v565h-493v-565h-435zM492.5 -367q-107.5 84 -126.5 232h253q12 -59 54 -89t118 -30t118 30t54 89h253q-19 -148 -126.5 -232t-298.5 -84t-298.5 84z" />
    <glyph glyph-name="Hcircumflex" unicode="&#x124;" horiz-adv-x="1581" 
d="M109 0v1480h435v-535h493v535h435v-1480h-435v565h-493v-565h-435zM1231 1586h-311l-129 166l-129 -166h-311l263 316h354z" />
    <glyph glyph-name="uni1E24" unicode="&#x1e24;" horiz-adv-x="1581" 
d="M109 0v1480h435v-535h493v535h435v-1480h-435v565h-493v-565h-435zM602 -417.5q-64 46.5 -64 133.5t64 133.5t189 46.5t189 -46.5t64 -133.5t-64 -133.5t-189 -46.5t-189 46.5z" />
    <glyph glyph-name="I" unicode="I" horiz-adv-x="653" 
d="M109 0v1480h435v-1480h-435z" />
    <glyph glyph-name="Iacute" unicode="&#xcd;" horiz-adv-x="653" 
d="M109 0v1480h435v-1480h-435zM133 1586l183 316h445l-246 -316h-382z" />
    <glyph glyph-name="Ibreve" unicode="&#x12c;" horiz-adv-x="653" 
d="M109 0v1480h435v-1480h-435zM27.5 1670q-107.5 84 -126.5 232h253q12 -59 54 -89t118 -30t118 30t54 89h253q-19 -148 -126.5 -232t-298.5 -84t-298.5 84z" />
    <glyph glyph-name="Icircumflex" unicode="&#xce;" horiz-adv-x="653" 
d="M109 0v1480h435v-1480h-435zM766 1586h-311l-129 166l-129 -166h-311l263 316h354z" />
    <glyph glyph-name="uni0208" unicode="&#x208;" horiz-adv-x="653" 
d="M109 0v1480h435v-1480h-435zM-55 1586l-163 316h331l142 -316h-310zM397 1586l-162 316h330l142 -316h-310z" />
    <glyph glyph-name="Idieresis" unicode="&#xcf;" horiz-adv-x="653" 
d="M109 0v1480h435v-1480h-435zM-110.5 1616.5q-55.5 46.5 -55.5 133.5t55.5 133.5t163.5 46.5t163 -46.5t55 -133.5t-55 -133.5t-163 -46.5t-163.5 46.5zM436 1616.5q-55 46.5 -55 133.5t55 133.5t163 46.5t163.5 -46.5t55.5 -133.5t-55.5 -133.5t-163.5 -46.5t-163 46.5z
" />
    <glyph glyph-name="uni1E2E" unicode="&#x1e2e;" horiz-adv-x="653" 
d="M109 0v1480h435v-1480h-435zM110 1986l183 232h494l-245 -232h-432zM-110.5 1616.5q-55.5 46.5 -55.5 133.5t55.5 133.5t163.5 46.5t163 -46.5t55 -133.5t-55 -133.5t-163 -46.5t-163.5 46.5zM436 1616.5q-55 46.5 -55 133.5t55 133.5t163 46.5t163.5 -46.5t55.5 -133.5
t-55.5 -133.5t-163.5 -46.5t-163 46.5z" />
    <glyph glyph-name="Idotaccent" unicode="&#x130;" horiz-adv-x="653" 
d="M109 0v1480h435v-1480h-435zM137 1616.5q-64 46.5 -64 133.5t64 133.5t189 46.5t189 -46.5t64 -133.5t-64 -133.5t-189 -46.5t-189 46.5z" />
    <glyph glyph-name="uni1ECA" unicode="&#x1eca;" horiz-adv-x="653" 
d="M109 0v1480h435v-1480h-435zM136 -417.5q-64 46.5 -64 133.5t64 133.5t189 46.5t189 -46.5t64 -133.5t-64 -133.5t-189 -46.5t-189 46.5z" />
    <glyph glyph-name="Igrave" unicode="&#xcc;" horiz-adv-x="653" 
d="M109 0v1480h435v-1480h-435zM135 1586l-246 316h445l183 -316h-382z" />
    <glyph glyph-name="uni1EC8" unicode="&#x1ec8;" horiz-adv-x="653" 
d="M109 0v1480h435v-1480h-435zM244 1642q17 23 38.5 36.5t56.5 30.5q28 13 40 21.5t12 19.5q0 16 -26 23.5t-79 7.5q-95 0 -191 -20v147q43 10 107 16t118 6q147 0 216.5 -36t69.5 -111q0 -43 -26.5 -69.5t-76.5 -54.5q-36 -22 -54.5 -37t-21.5 -36h-202q2 33 19 56z" />
    <glyph glyph-name="uni020A" unicode="&#x20a;" horiz-adv-x="653" 
d="M109 0v1480h435v-1480h-435zM27.5 1818q107.5 84 298.5 84t298.5 -84t126.5 -232h-253q-12 59 -54 89t-118 30t-118 -30t-54 -89h-253q19 148 126.5 232z" />
    <glyph glyph-name="Imacron" unicode="&#x12a;" horiz-adv-x="653" 
d="M109 0v1480h435v-1480h-435zM-84 1621v248h820v-248h-820z" />
    <glyph glyph-name="Iogonek" unicode="&#x12e;" horiz-adv-x="653" 
d="M567 -275v-155q-92 -30 -194 -30q-156 0 -234 59.5t-78 164.5q0 71 38 129.5t123 106.5h-113v1480h435v-1480q-138 -46 -192 -96t-54 -110q0 -94 138 -94q59 0 131 25z" />
    <glyph glyph-name="Itilde" unicode="&#x128;" horiz-adv-x="653" 
d="M109 0v1480h435v-1480h-435zM412.5 1596.5q-45.5 10.5 -104.5 29.5q-58 18 -95.5 27t-78.5 9q-65 0 -114.5 -16.5t-103.5 -53.5v233q46 40 99 58.5t127 18.5q51 0 95.5 -10.5t106.5 -30.5q56 -19 94 -28t80 -9q65 0 114.5 16.5t103.5 53.5v-233q-45 -40 -98 -57.5
t-128 -17.5q-52 0 -97.5 10.5z" />
    <glyph glyph-name="J" unicode="J" horiz-adv-x="653" 
d="M-31 -172q80 106 111 212t31 264v1176h433v-1160q0 -195 -68.5 -355.5t-231.5 -318.5z" />
    <glyph glyph-name="Jcircumflex" unicode="&#x134;" horiz-adv-x="653" 
d="M-31 -172q80 106 111 212t31 264v1176h433v-1160q0 -195 -68.5 -355.5t-231.5 -318.5zM767 1586h-311l-129 166l-129 -166h-311l263 316h354z" />
    <glyph glyph-name="K" unicode="K" horiz-adv-x="1393" 
d="M986 0l-355 565h-87v-565h-435v1480h435v-535h87l327 535h453l-437 -714l480 -766h-468z" />
    <glyph glyph-name="Kcommaaccent" unicode="&#x136;" horiz-adv-x="1393" 
d="M986 0l-355 565h-87v-565h-435v1480h435v-535h87l327 535h453l-437 -714l480 -766h-468zM959 -280q0 -60 -26 -126t-66 -112h-262q27 48 41.5 82.5t21.5 66.5q-165 17 -165 131q0 134 228 134t228 -176z" />
    <glyph glyph-name="L" unicode="L" horiz-adv-x="1200" 
d="M109 0v1480h435v-1122h648v-358h-1083z" />
    <glyph glyph-name="uni01C7" unicode="&#x1c7;" horiz-adv-x="1853" 
d="M109 0v1480h435v-1122h648v-358h-1083zM1169 -172q80 106 111 212t31 264v1176h433v-1160q0 -195 -68.5 -355.5t-231.5 -318.5z" />
    <glyph glyph-name="Lacute" unicode="&#x139;" horiz-adv-x="1200" 
d="M109 0v1480h435v-1122h648v-358h-1083zM137 1586l183 316h445l-246 -316h-382z" />
    <glyph glyph-name="Lcaron" unicode="&#x13d;" horiz-adv-x="1200" 
d="M109 0v1480h435v-1122h648v-358h-1083zM789 1359.5q7 103.5 7 256.5h277q0 -290 -83 -476h-226q18 116 25 219.5z" />
    <glyph glyph-name="Lcommaaccent" unicode="&#x13b;" horiz-adv-x="1200" 
d="M109 0v1480h435v-1122h648v-358h-1083zM878 -280q0 -60 -26 -126t-66 -112h-262q27 48 41.5 82.5t21.5 66.5q-165 17 -165 131q0 134 228 134t228 -176z" />
    <glyph glyph-name="Ldot" unicode="&#x13f;" horiz-adv-x="1200" 
d="M109 0v1480h435v-1122h648v-358h-1083zM664 912q0 211 254 211q255 0 255 -211q0 -210 -255 -210q-254 0 -254 210z" />
    <glyph glyph-name="uni1E36" unicode="&#x1e36;" horiz-adv-x="1200" 
d="M109 0v1480h435v-1122h648v-358h-1083zM461 -417.5q-64 46.5 -64 133.5t64 133.5t189 46.5t189 -46.5t64 -133.5t-64 -133.5t-189 -46.5t-189 46.5z" />
    <glyph glyph-name="uni01C8" unicode="&#x1c8;" horiz-adv-x="1821" 
d="M109 0v1480h435v-1122h648v-358h-1083zM1155 -296q80 106 111 212t31 264v920h427v-904q0 -194 -67.5 -353.5t-228.5 -318.5zM1250 1418q0 210 255 210t255 -210t-255 -210t-255 210z" />
    <glyph glyph-name="uni1E3A" unicode="&#x1e3a;" horiz-adv-x="1200" 
d="M109 0v1480h435v-1122h648v-358h-1083zM240 -397v248h820v-248h-820z" />
    <glyph glyph-name="Lslash" unicode="&#x141;" horiz-adv-x="1219" 
d="M563 358h648v-358h-1083v598l-60 -29l-120 244l180 86v581h435v-372l262 125l121 -244l-383 -183v-448z" />
    <glyph glyph-name="M" unicode="M" horiz-adv-x="1957" 
d="M1312 1480h532v-1480h-405v914l-286 -694h-349l-286 660v-880h-405v1480h532l340 -812z" />
    <glyph glyph-name="uni1E42" unicode="&#x1e42;" horiz-adv-x="1957" 
d="M1312 1480h532v-1480h-405v914l-286 -694h-349l-286 660v-880h-405v1480h532l340 -812zM818 -417.5q-64 46.5 -64 133.5t64 133.5t189 46.5t189 -46.5t64 -133.5t-64 -133.5t-189 -46.5t-189 46.5z" />
    <glyph glyph-name="N" unicode="N" horiz-adv-x="1593" 
d="M1076 1480h408v-1480h-434l-533 828v-828h-408v1480h434l533 -828v828z" />
    <glyph glyph-name="uni01CA" unicode="&#x1ca;" horiz-adv-x="2246" 
d="M1076 1480h408v-1480h-434l-533 828v-828h-408v1480h434l533 -828v828zM1562 -172q80 106 111 212t31 264v1176h433v-1160q0 -195 -68.5 -355.5t-231.5 -318.5z" />
    <glyph glyph-name="Nacute" unicode="&#x143;" horiz-adv-x="1593" 
d="M1076 1480h408v-1480h-434l-533 828v-828h-408v1480h434l533 -828v828zM603 1586l183 316h445l-246 -316h-382z" />
    <glyph glyph-name="Ncaron" unicode="&#x147;" horiz-adv-x="1593" 
d="M1076 1480h408v-1480h-434l-533 828v-828h-408v1480h434l533 -828v828zM925 1902h311l-263 -316h-354l-263 316h311l129 -166z" />
    <glyph glyph-name="Ncommaaccent" unicode="&#x145;" horiz-adv-x="1593" 
d="M1076 1480h408v-1480h-434l-533 828v-828h-408v1480h434l533 -828v828zM1024 -280q0 -60 -26 -126t-66 -112h-262q27 48 41.5 82.5t21.5 66.5q-165 17 -165 131q0 134 228 134t228 -176z" />
    <glyph glyph-name="uni1E44" unicode="&#x1e44;" horiz-adv-x="1593" 
d="M1076 1480h408v-1480h-434l-533 828v-828h-408v1480h434l533 -828v828zM607 1616.5q-64 46.5 -64 133.5t64 133.5t189 46.5t189 -46.5t64 -133.5t-64 -133.5t-189 -46.5t-189 46.5z" />
    <glyph glyph-name="uni1E46" unicode="&#x1e46;" horiz-adv-x="1593" 
d="M1076 1480h408v-1480h-434l-533 828v-828h-408v1480h434l533 -828v828zM607 -417.5q-64 46.5 -64 133.5t64 133.5t189 46.5t189 -46.5t64 -133.5t-64 -133.5t-189 -46.5t-189 46.5z" />
    <glyph glyph-name="Eng" unicode="&#x14a;" horiz-adv-x="1593" 
d="M1484 1480v-1244q0 -149 -28.5 -268.5t-93.5 -227.5t-175 -216l-272 180q57 71 91.5 139t51.5 144l-541 841v-828h-408v1480h434l533 -822v822h408z" />
    <glyph glyph-name="uni01CB" unicode="&#x1cb;" horiz-adv-x="2214" 
d="M1076 1480h408v-1480h-434l-533 828v-828h-408v1480h434l533 -828v828zM1548 -296q80 106 111 212t31 264v920h427v-904q0 -194 -67.5 -353.5t-228.5 -318.5zM1643 1418q0 210 255 210t255 -210t-255 -210t-255 210z" />
    <glyph glyph-name="uni1E48" unicode="&#x1e48;" horiz-adv-x="1593" 
d="M1076 1480h408v-1480h-434l-533 828v-828h-408v1480h434l533 -828v828zM386 -397v248h820v-248h-820z" />
    <glyph glyph-name="Ntilde" unicode="&#xd1;" horiz-adv-x="1593" 
d="M1076 1480h408v-1480h-434l-533 828v-828h-408v1480h434l533 -828v828zM882.5 1596.5q-45.5 10.5 -104.5 29.5q-58 18 -95.5 27t-78.5 9q-65 0 -114.5 -16.5t-103.5 -53.5v233q46 40 99 58.5t127 18.5q51 0 95.5 -10.5t106.5 -30.5q56 -19 94 -28t80 -9q65 0 114.5 16.5
t103.5 53.5v-233q-45 -40 -98 -57.5t-128 -17.5q-52 0 -97.5 10.5z" />
    <glyph glyph-name="O" unicode="O" horiz-adv-x="1645" 
d="M422 66q-169 86 -261 256.5t-92 417.5t92 417.5t261 256.5t400 86t400.5 -86.5t261.5 -257t92 -416.5t-92 -416.5t-261.5 -257t-400.5 -86.5t-400 86zM1053 426q78 99 78 306q0 218 -78.5 319.5t-230.5 101.5q-151 0 -229.5 -98.5t-78.5 -306.5q0 -220 77.5 -320.5
t230.5 -100.5t231 99z" />
    <glyph glyph-name="Oacute" unicode="&#xd3;" horiz-adv-x="1645" 
d="M422 66q-169 86 -261 256.5t-92 417.5t92 417.5t261 256.5t400 86t400.5 -86.5t261.5 -257t92 -416.5t-92 -416.5t-261.5 -257t-400.5 -86.5t-400 86zM1053 426q78 99 78 306q0 218 -78.5 319.5t-230.5 101.5q-151 0 -229.5 -98.5t-78.5 -306.5q0 -220 77.5 -320.5
t230.5 -100.5t231 99zM629 1586l183 316h445l-246 -316h-382z" />
    <glyph glyph-name="Obreve" unicode="&#x14e;" horiz-adv-x="1645" 
d="M422 66q-169 86 -261 256.5t-92 417.5t92 417.5t261 256.5t400 86t400.5 -86.5t261.5 -257t92 -416.5t-92 -416.5t-261.5 -257t-400.5 -86.5t-400 86zM1053 426q78 99 78 306q0 218 -78.5 319.5t-230.5 101.5q-151 0 -229.5 -98.5t-78.5 -306.5q0 -220 77.5 -320.5
t230.5 -100.5t231 99zM523.5 1670q-107.5 84 -126.5 232h253q12 -59 54 -89t118 -30t118 30t54 89h253q-19 -148 -126.5 -232t-298.5 -84t-298.5 84z" />
    <glyph glyph-name="Ocircumflex" unicode="&#xd4;" horiz-adv-x="1645" 
d="M422 66q-169 86 -261 256.5t-92 417.5t92 417.5t261 256.5t400 86t400.5 -86.5t261.5 -257t92 -416.5t-92 -416.5t-261.5 -257t-400.5 -86.5t-400 86zM1053 426q78 99 78 306q0 218 -78.5 319.5t-230.5 101.5q-151 0 -229.5 -98.5t-78.5 -306.5q0 -220 77.5 -320.5
t230.5 -100.5t231 99zM1262 1586h-311l-129 166l-129 -166h-311l263 316h354z" />
    <glyph glyph-name="uni1ED0" unicode="&#x1ed0;" horiz-adv-x="1645" 
d="M422 66q-169 86 -261 256.5t-92 417.5t92 417.5t261 256.5t400 86t400.5 -86.5t261.5 -257t92 -416.5t-92 -416.5t-261.5 -257t-400.5 -86.5t-400 86zM1053 426q78 99 78 306q0 218 -78.5 319.5t-230.5 101.5q-151 0 -229.5 -98.5t-78.5 -306.5q0 -220 77.5 -320.5
t230.5 -100.5t231 99zM1184 2064h276l-151 -236h-221zM645 1858h354l263 -272h-311l-129 144l-129 -144h-311z" />
    <glyph glyph-name="uni1ED8" unicode="&#x1ed8;" horiz-adv-x="1645" 
d="M422 66q-169 86 -261 256.5t-92 417.5t92 417.5t261 256.5t400 86t400.5 -86.5t261.5 -257t92 -416.5t-92 -416.5t-261.5 -257t-400.5 -86.5t-400 86zM1053 426q78 99 78 306q0 218 -78.5 319.5t-230.5 101.5q-151 0 -229.5 -98.5t-78.5 -306.5q0 -220 77.5 -320.5
t230.5 -100.5t231 99zM633 -417.5q-64 46.5 -64 133.5t64 133.5t189 46.5t189 -46.5t64 -133.5t-64 -133.5t-189 -46.5t-189 46.5zM1262 1586h-311l-129 166l-129 -166h-311l263 316h354z" />
    <glyph glyph-name="uni1ED2" unicode="&#x1ed2;" horiz-adv-x="1645" 
d="M422 66q-169 86 -261 256.5t-92 417.5t92 417.5t261 256.5t400 86t400.5 -86.5t261.5 -257t92 -416.5t-92 -416.5t-261.5 -257t-400.5 -86.5t-400 86zM1053 426q78 99 78 306q0 218 -78.5 319.5t-230.5 101.5q-151 0 -229.5 -98.5t-78.5 -306.5q0 -220 77.5 -320.5
t230.5 -100.5t231 99zM1349 1828h-221l-152 236h277zM645 1858h354l263 -272h-311l-129 144l-129 -144h-311z" />
    <glyph glyph-name="uni1ED4" unicode="&#x1ed4;" horiz-adv-x="1645" 
d="M422 66q-169 86 -261 256.5t-92 417.5t92 417.5t261 256.5t400 86t400.5 -86.5t261.5 -257t92 -416.5t-92 -416.5t-261.5 -257t-400.5 -86.5t-400 86zM1053 426q78 99 78 306q0 218 -78.5 319.5t-230.5 101.5q-151 0 -229.5 -98.5t-78.5 -306.5q0 -220 77.5 -320.5
t230.5 -100.5t231 99zM1399.5 2093q69.5 -31 69.5 -96q0 -37 -26.5 -59.5t-76.5 -46.5q-37 -18 -55.5 -31.5t-21.5 -31.5h-202q3 40 32.5 62t80.5 44q27 11 40 18.5t13 17.5q0 26 -105 26q-96 0 -191 -17v125q44 9 108.5 14.5t116.5 5.5q148 0 217.5 -31zM645 1858h354
l263 -272h-311l-129 144l-129 -144h-311z" />
    <glyph glyph-name="uni1ED6" unicode="&#x1ed6;" horiz-adv-x="1645" 
d="M422 66q-169 86 -261 256.5t-92 417.5t92 417.5t261 256.5t400 86t400.5 -86.5t261.5 -257t92 -416.5t-92 -416.5t-261.5 -257t-400.5 -86.5t-400 86zM1053 426q78 99 78 306q0 218 -78.5 319.5t-230.5 101.5q-151 0 -229.5 -98.5t-78.5 -306.5q0 -220 77.5 -320.5
t230.5 -100.5t231 99zM1132 2080.5q55 14.5 130 51.5v-170q-64 -38 -119.5 -50t-134.5 -12q-51 0 -95.5 7.5t-114.5 22.5q-51 13 -89.5 19.5t-76.5 6.5q-65 0 -120 -14.5t-130 -51.5v170q64 38 120.5 51t133.5 13q52 0 98.5 -8t111.5 -23q54 -13 91 -20t75 -7q65 0 120 14.5
zM645 1858h354l263 -272h-311l-129 144l-129 -144h-311z" />
    <glyph glyph-name="uni020C" unicode="&#x20c;" horiz-adv-x="1645" 
d="M422 66q-169 86 -261 256.5t-92 417.5t92 417.5t261 256.5t400 86t400.5 -86.5t261.5 -257t92 -416.5t-92 -416.5t-261.5 -257t-400.5 -86.5t-400 86zM1053 426q78 99 78 306q0 218 -78.5 319.5t-230.5 101.5q-151 0 -229.5 -98.5t-78.5 -306.5q0 -220 77.5 -320.5
t230.5 -100.5t231 99zM441 1586l-163 316h331l142 -316h-310zM893 1586l-162 316h330l142 -316h-310z" />
    <glyph glyph-name="Odieresis" unicode="&#xd6;" horiz-adv-x="1645" 
d="M422 66q-169 86 -261 256.5t-92 417.5t92 417.5t261 256.5t400 86t400.5 -86.5t261.5 -257t92 -416.5t-92 -416.5t-261.5 -257t-400.5 -86.5t-400 86zM1053 426q78 99 78 306q0 218 -78.5 319.5t-230.5 101.5q-151 0 -229.5 -98.5t-78.5 -306.5q0 -220 77.5 -320.5
t230.5 -100.5t231 99zM385.5 1616.5q-55.5 46.5 -55.5 133.5t55.5 133.5t163.5 46.5t163 -46.5t55 -133.5t-55 -133.5t-163 -46.5t-163.5 46.5zM932 1616.5q-55 46.5 -55 133.5t55 133.5t163 46.5t163.5 -46.5t55.5 -133.5t-55.5 -133.5t-163.5 -46.5t-163 46.5z" />
    <glyph glyph-name="uni022A" unicode="&#x22a;" horiz-adv-x="1645" 
d="M422 66q-169 86 -261 256.5t-92 417.5t92 417.5t261 256.5t400 86t400.5 -86.5t261.5 -257t92 -416.5t-92 -416.5t-261.5 -257t-400.5 -86.5t-400 86zM1053 426q78 99 78 306q0 218 -78.5 319.5t-230.5 101.5q-151 0 -229.5 -98.5t-78.5 -306.5q0 -220 77.5 -320.5
t230.5 -100.5t231 99zM385.5 1616.5q-55.5 46.5 -55.5 133.5t55.5 133.5t163.5 46.5t163 -46.5t55 -133.5t-55 -133.5t-163 -46.5t-163.5 46.5zM932 1616.5q-55 46.5 -55 133.5t55 133.5t163 46.5t163.5 -46.5t55.5 -133.5t-55.5 -133.5t-163.5 -46.5t-163 46.5zM412 2021
v248h820v-248h-820z" />
    <glyph glyph-name="uni0230" unicode="&#x230;" horiz-adv-x="1645" 
d="M422 66q-169 86 -261 256.5t-92 417.5t92 417.5t261 256.5t400 86t400.5 -86.5t261.5 -257t92 -416.5t-92 -416.5t-261.5 -257t-400.5 -86.5t-400 86zM1053 426q78 99 78 306q0 218 -78.5 319.5t-230.5 101.5q-151 0 -229.5 -98.5t-78.5 -306.5q0 -220 77.5 -320.5
t230.5 -100.5t231 99zM633 1616.5q-64 46.5 -64 133.5t64 133.5t189 46.5t189 -46.5t64 -133.5t-64 -133.5t-189 -46.5t-189 46.5zM412 2021v248h820v-248h-820z" />
    <glyph glyph-name="uni1ECC" unicode="&#x1ecc;" horiz-adv-x="1645" 
d="M422 66q-169 86 -261 256.5t-92 417.5t92 417.5t261 256.5t400 86t400.5 -86.5t261.5 -257t92 -416.5t-92 -416.5t-261.5 -257t-400.5 -86.5t-400 86zM1053 426q78 99 78 306q0 218 -78.5 319.5t-230.5 101.5q-151 0 -229.5 -98.5t-78.5 -306.5q0 -220 77.5 -320.5
t230.5 -100.5t231 99zM633 -417.5q-64 46.5 -64 133.5t64 133.5t189 46.5t189 -46.5t64 -133.5t-64 -133.5t-189 -46.5t-189 46.5z" />
    <glyph glyph-name="Ograve" unicode="&#xd2;" horiz-adv-x="1645" 
d="M422 66q-169 86 -261 256.5t-92 417.5t92 417.5t261 256.5t400 86t400.5 -86.5t261.5 -257t92 -416.5t-92 -416.5t-261.5 -257t-400.5 -86.5t-400 86zM1053 426q78 99 78 306q0 218 -78.5 319.5t-230.5 101.5q-151 0 -229.5 -98.5t-78.5 -306.5q0 -220 77.5 -320.5
t230.5 -100.5t231 99zM631 1586l-246 316h445l183 -316h-382z" />
    <glyph glyph-name="uni1ECE" unicode="&#x1ece;" horiz-adv-x="1645" 
d="M422 66q-169 86 -261 256.5t-92 417.5t92 417.5t261 256.5t400 86t400.5 -86.5t261.5 -257t92 -416.5t-92 -416.5t-261.5 -257t-400.5 -86.5t-400 86zM1053 426q78 99 78 306q0 218 -78.5 319.5t-230.5 101.5q-151 0 -229.5 -98.5t-78.5 -306.5q0 -220 77.5 -320.5
t230.5 -100.5t231 99zM740 1642q17 23 38.5 36.5t56.5 30.5q28 13 40 21.5t12 19.5q0 16 -26 23.5t-79 7.5q-95 0 -191 -20v147q43 10 107 16t118 6q147 0 216.5 -36t69.5 -111q0 -43 -26.5 -69.5t-76.5 -54.5q-36 -22 -54.5 -37t-21.5 -36h-202q2 33 19 56z" />
    <glyph glyph-name="Ohorn" unicode="&#x1a0;" horiz-adv-x="1645" 
d="M1523.5 1067.5q52.5 -142.5 52.5 -327.5q0 -247 -91.5 -417t-261 -256.5t-401.5 -86.5t-401 86t-260.5 256.5t-91.5 417.5t92 417.5t261 256.5t400 86q53 0 107.5 -5t62.5 -6q86 -9 136 -9q94 0 138 35t44 121q0 65 -14 140h279q19 -68 19 -158q0 -131 -58.5 -208.5
t-164.5 -103.5q100 -96 152.5 -238.5zM1053 426q78 99 78 306q0 218 -78.5 319.5t-230.5 101.5q-151 0 -229.5 -98.5t-78.5 -306.5q0 -220 77.5 -320.5t230.5 -100.5t231 99z" />
    <glyph glyph-name="uni1EDA" unicode="&#x1eda;" horiz-adv-x="1645" 
d="M1523.5 1067.5q52.5 -142.5 52.5 -327.5q0 -247 -91.5 -417t-261 -256.5t-401.5 -86.5t-401 86t-260.5 256.5t-91.5 417.5t92 417.5t261 256.5t400 86q53 0 107.5 -5t62.5 -6q86 -9 136 -9q94 0 138 35t44 121q0 65 -14 140h279q19 -68 19 -158q0 -131 -58.5 -208.5
t-164.5 -103.5q100 -96 152.5 -238.5zM1053 426q78 99 78 306q0 218 -78.5 319.5t-230.5 101.5q-151 0 -229.5 -98.5t-78.5 -306.5q0 -220 77.5 -320.5t230.5 -100.5t231 99zM629 1586l183 316h445l-246 -316h-382z" />
    <glyph glyph-name="uni1EE2" unicode="&#x1ee2;" horiz-adv-x="1645" 
d="M1523.5 1067.5q52.5 -142.5 52.5 -327.5q0 -247 -91.5 -417t-261 -256.5t-401.5 -86.5t-401 86t-260.5 256.5t-91.5 417.5t92 417.5t261 256.5t400 86q53 0 107.5 -5t62.5 -6q86 -9 136 -9q94 0 138 35t44 121q0 65 -14 140h279q19 -68 19 -158q0 -131 -58.5 -208.5
t-164.5 -103.5q100 -96 152.5 -238.5zM1053 426q78 99 78 306q0 218 -78.5 319.5t-230.5 101.5q-151 0 -229.5 -98.5t-78.5 -306.5q0 -220 77.5 -320.5t230.5 -100.5t231 99zM633 -417.5q-64 46.5 -64 133.5t64 133.5t189 46.5t189 -46.5t64 -133.5t-64 -133.5t-189 -46.5
t-189 46.5z" />
    <glyph glyph-name="uni1EDC" unicode="&#x1edc;" horiz-adv-x="1645" 
d="M1523.5 1067.5q52.5 -142.5 52.5 -327.5q0 -247 -91.5 -417t-261 -256.5t-401.5 -86.5t-401 86t-260.5 256.5t-91.5 417.5t92 417.5t261 256.5t400 86q53 0 107.5 -5t62.5 -6q86 -9 136 -9q94 0 138 35t44 121q0 65 -14 140h279q19 -68 19 -158q0 -131 -58.5 -208.5
t-164.5 -103.5q100 -96 152.5 -238.5zM1053 426q78 99 78 306q0 218 -78.5 319.5t-230.5 101.5q-151 0 -229.5 -98.5t-78.5 -306.5q0 -220 77.5 -320.5t230.5 -100.5t231 99zM631 1586l-246 316h445l183 -316h-382z" />
    <glyph glyph-name="uni1EDE" unicode="&#x1ede;" horiz-adv-x="1645" 
d="M1523.5 1067.5q52.5 -142.5 52.5 -327.5q0 -247 -91.5 -417t-261 -256.5t-401.5 -86.5t-401 86t-260.5 256.5t-91.5 417.5t92 417.5t261 256.5t400 86q53 0 107.5 -5t62.5 -6q86 -9 136 -9q94 0 138 35t44 121q0 65 -14 140h279q19 -68 19 -158q0 -131 -58.5 -208.5
t-164.5 -103.5q100 -96 152.5 -238.5zM1053 426q78 99 78 306q0 218 -78.5 319.5t-230.5 101.5q-151 0 -229.5 -98.5t-78.5 -306.5q0 -220 77.5 -320.5t230.5 -100.5t231 99zM740 1642q17 23 38.5 36.5t56.5 30.5q28 13 40 21.5t12 19.5q0 16 -26 23.5t-79 7.5
q-95 0 -191 -20v147q43 10 107 16t118 6q147 0 216.5 -36t69.5 -111q0 -43 -26.5 -69.5t-76.5 -54.5q-36 -22 -54.5 -37t-21.5 -36h-202q2 33 19 56z" />
    <glyph glyph-name="uni1EE0" unicode="&#x1ee0;" horiz-adv-x="1645" 
d="M909 1596q-41 10 -105 30q-55 18 -90.5 27t-74.5 9q-62 0 -109 -16.5t-99 -53.5v233q43 40 94 58.5t122 18.5q49 0 91 -10.5t101 -30.5q52 -18 89.5 -27.5t77.5 -9.5q62 0 109 16.5t99 53.5v-233q-43 -40 -93.5 -57.5t-121.5 -17.5q-49 0 -90 10zM1523.5 1067.5
q52.5 -142.5 52.5 -327.5q0 -247 -91.5 -417t-261 -256.5t-401.5 -86.5t-401 86t-260.5 256.5t-91.5 417.5t92 417.5t261 256.5t400 86q53 0 107.5 -5t62.5 -6q86 -9 136 -9q94 0 138 35t44 121q0 65 -14 140h279q19 -68 19 -158q0 -131 -58.5 -208.5t-164.5 -103.5
q100 -96 152.5 -238.5zM1053 426q78 99 78 306q0 218 -78.5 319.5t-230.5 101.5q-151 0 -229.5 -98.5t-78.5 -306.5q0 -220 77.5 -320.5t230.5 -100.5t231 99z" />
    <glyph glyph-name="Ohungarumlaut" unicode="&#x150;" horiz-adv-x="1645" 
d="M422 66q-169 86 -261 256.5t-92 417.5t92 417.5t261 256.5t400 86t400.5 -86.5t261.5 -257t92 -416.5t-92 -416.5t-261.5 -257t-400.5 -86.5t-400 86zM1053 426q78 99 78 306q0 218 -78.5 319.5t-230.5 101.5q-151 0 -229.5 -98.5t-78.5 -306.5q0 -220 77.5 -320.5
t230.5 -100.5t231 99zM441 1586l142 316h330l-162 -316h-310zM893 1586l142 316h331l-163 -316h-310z" />
    <glyph glyph-name="uni020E" unicode="&#x20e;" horiz-adv-x="1645" 
d="M422 66q-169 86 -261 256.5t-92 417.5t92 417.5t261 256.5t400 86t400.5 -86.5t261.5 -257t92 -416.5t-92 -416.5t-261.5 -257t-400.5 -86.5t-400 86zM1053 426q78 99 78 306q0 218 -78.5 319.5t-230.5 101.5q-151 0 -229.5 -98.5t-78.5 -306.5q0 -220 77.5 -320.5
t230.5 -100.5t231 99zM523.5 1818q107.5 84 298.5 84t298.5 -84t126.5 -232h-253q-12 59 -54 89t-118 30t-118 -30t-54 -89h-253q19 148 126.5 232z" />
    <glyph glyph-name="Omacron" unicode="&#x14c;" horiz-adv-x="1645" 
d="M422 66q-169 86 -261 256.5t-92 417.5t92 417.5t261 256.5t400 86t400.5 -86.5t261.5 -257t92 -416.5t-92 -416.5t-261.5 -257t-400.5 -86.5t-400 86zM1053 426q78 99 78 306q0 218 -78.5 319.5t-230.5 101.5q-151 0 -229.5 -98.5t-78.5 -306.5q0 -220 77.5 -320.5
t230.5 -100.5t231 99zM412 1621v248h820v-248h-820z" />
    <glyph glyph-name="uni1E52" unicode="&#x1e52;" horiz-adv-x="1645" 
d="M422 66q-169 86 -261 256.5t-92 417.5t92 417.5t261 256.5t400 86t400.5 -86.5t261.5 -257t92 -416.5t-92 -416.5t-261.5 -257t-400.5 -86.5t-400 86zM1053 426q78 99 78 306q0 218 -78.5 319.5t-230.5 101.5q-151 0 -229.5 -98.5t-78.5 -306.5q0 -220 77.5 -320.5
t230.5 -100.5t231 99zM606 1986l183 232h494l-245 -232h-432zM412 1621v248h820v-248h-820z" />
    <glyph glyph-name="uni1E50" unicode="&#x1e50;" horiz-adv-x="1645" 
d="M422 66q-169 86 -261 256.5t-92 417.5t92 417.5t261 256.5t400 86t400.5 -86.5t261.5 -257t92 -416.5t-92 -416.5t-261.5 -257t-400.5 -86.5t-400 86zM1053 426q78 99 78 306q0 218 -78.5 319.5t-230.5 101.5q-151 0 -229.5 -98.5t-78.5 -306.5q0 -220 77.5 -320.5
t230.5 -100.5t231 99zM606 1986l-245 232h494l183 -232h-432zM412 1621v248h820v-248h-820z" />
    <glyph glyph-name="uni01EA" unicode="&#x1ea;" horiz-adv-x="1645" 
d="M1222.5 1413.5q169.5 -86.5 261.5 -257t92 -416.5q0 -209 -65.5 -359t-176.5 -239.5t-253 -128.5q-152 -44 -215.5 -99t-63.5 -120q0 -94 138 -94q59 0 131 25v-155q-92 -30 -193 -30q-156 0 -234 59.5t-78 164.5q0 67 32 122t103 100q-197 21 -338.5 113t-217.5 253.5
t-76 387.5q0 247 92 417.5t261 256.5t400 86t400.5 -86.5zM1053 426q78 99 78 306q0 218 -78.5 319.5t-230.5 101.5q-151 0 -229.5 -98.5t-78.5 -306.5q0 -220 77.5 -320.5t230.5 -100.5t231 99z" />
    <glyph glyph-name="Oslash" unicode="&#xd8;" horiz-adv-x="1645" 
d="M1529.5 1050q46.5 -136 46.5 -310q0 -246 -92 -416.5t-261.5 -257t-400.5 -86.5t-400 86l-103 -128l-169 134l100 125q-88 96 -134.5 232.5t-46.5 310.5q0 247 92 417.5t261 256.5t400 86q232 0 401 -86l102 128l170 -134l-100 -125q88 -97 134.5 -233zM535 553l448 561
q-65 39 -161 39q-151 0 -229.5 -98.5t-78.5 -306.5q0 -114 21 -195zM1053 426q78 99 78 306q0 113 -21 194l-449 -561q64 -38 161 -38q153 0 231 99z" />
    <glyph glyph-name="Oslashacute" unicode="&#x1fe;" horiz-adv-x="1645" 
d="M1529.5 1050q46.5 -136 46.5 -310q0 -246 -92 -416.5t-261.5 -257t-400.5 -86.5t-400 86l-103 -128l-169 134l100 125q-88 96 -134.5 232.5t-46.5 310.5q0 247 92 417.5t261 256.5t400 86q232 0 401 -86l102 128l170 -134l-100 -125q88 -97 134.5 -233zM535 553l448 561
q-65 39 -161 39q-151 0 -229.5 -98.5t-78.5 -306.5q0 -114 21 -195zM1053 426q78 99 78 306q0 113 -21 194l-449 -561q64 -38 161 -38q153 0 231 99zM628 1586l183 316h445l-246 -316h-382z" />
    <glyph glyph-name="Otilde" unicode="&#xd5;" horiz-adv-x="1645" 
d="M422 66q-169 86 -261 256.5t-92 417.5t92 417.5t261 256.5t400 86t400.5 -86.5t261.5 -257t92 -416.5t-92 -416.5t-261.5 -257t-400.5 -86.5t-400 86zM1053 426q78 99 78 306q0 218 -78.5 319.5t-230.5 101.5q-151 0 -229.5 -98.5t-78.5 -306.5q0 -220 77.5 -320.5
t230.5 -100.5t231 99zM908.5 1596.5q-45.5 10.5 -104.5 29.5q-58 18 -95.5 27t-78.5 9q-65 0 -114.5 -16.5t-103.5 -53.5v233q46 40 99 58.5t127 18.5q51 0 95.5 -10.5t106.5 -30.5q56 -19 94 -28t80 -9q65 0 114.5 16.5t103.5 53.5v-233q-45 -40 -98 -57.5t-128 -17.5
q-52 0 -97.5 10.5z" />
    <glyph glyph-name="uni1E4C" unicode="&#x1e4c;" horiz-adv-x="1645" 
d="M422 66q-169 86 -261 256.5t-92 417.5t92 417.5t261 256.5t400 86t400.5 -86.5t261.5 -257t92 -416.5t-92 -416.5t-261.5 -257t-400.5 -86.5t-400 86zM1053 426q78 99 78 306q0 218 -78.5 319.5t-230.5 101.5q-151 0 -229.5 -98.5t-78.5 -306.5q0 -220 77.5 -320.5
t230.5 -100.5t231 99zM606 1986l183 232h494l-245 -232h-432zM908.5 1596.5q-45.5 10.5 -104.5 29.5q-58 18 -95.5 27t-78.5 9q-65 0 -114.5 -16.5t-103.5 -53.5v233q46 40 99 58.5t127 18.5q51 0 95.5 -10.5t106.5 -30.5q56 -19 94 -28t80 -9q65 0 114.5 16.5t103.5 53.5
v-233q-45 -40 -98 -57.5t-128 -17.5q-52 0 -97.5 10.5z" />
    <glyph glyph-name="uni1E4E" unicode="&#x1e4e;" horiz-adv-x="1645" 
d="M422 66q-169 86 -261 256.5t-92 417.5t92 417.5t261 256.5t400 86t400.5 -86.5t261.5 -257t92 -416.5t-92 -416.5t-261.5 -257t-400.5 -86.5t-400 86zM1053 426q78 99 78 306q0 218 -78.5 319.5t-230.5 101.5q-151 0 -229.5 -98.5t-78.5 -306.5q0 -220 77.5 -320.5
t230.5 -100.5t231 99zM908.5 1596.5q-45.5 10.5 -104.5 29.5q-58 18 -95.5 27t-78.5 9q-65 0 -114.5 -16.5t-103.5 -53.5v233q46 40 99 58.5t127 18.5q51 0 95.5 -10.5t106.5 -30.5q56 -19 94 -28t80 -9q65 0 114.5 16.5t103.5 53.5v-233q-45 -40 -98 -57.5t-128 -17.5
q-52 0 -97.5 10.5zM385.5 2016.5q-55.5 46.5 -55.5 133.5t55.5 133.5t163.5 46.5t163 -46.5t55 -133.5t-55 -133.5t-163 -46.5t-163.5 46.5zM932 2016.5q-55 46.5 -55 133.5t55 133.5t163 46.5t163.5 -46.5t55.5 -133.5t-55.5 -133.5t-163.5 -46.5t-163 46.5z" />
    <glyph glyph-name="uni022C" unicode="&#x22c;" horiz-adv-x="1645" 
d="M422 66q-169 86 -261 256.5t-92 417.5t92 417.5t261 256.5t400 86t400.5 -86.5t261.5 -257t92 -416.5t-92 -416.5t-261.5 -257t-400.5 -86.5t-400 86zM1053 426q78 99 78 306q0 218 -78.5 319.5t-230.5 101.5q-151 0 -229.5 -98.5t-78.5 -306.5q0 -220 77.5 -320.5
t230.5 -100.5t231 99zM908.5 1596.5q-45.5 10.5 -104.5 29.5q-58 18 -95.5 27t-78.5 9q-65 0 -114.5 -16.5t-103.5 -53.5v233q46 40 99 58.5t127 18.5q51 0 95.5 -10.5t106.5 -30.5q56 -19 94 -28t80 -9q65 0 114.5 16.5t103.5 53.5v-233q-45 -40 -98 -57.5t-128 -17.5
q-52 0 -97.5 10.5zM412 2021v248h820v-248h-820z" />
    <glyph glyph-name="OE" unicode="&#x152;" horiz-adv-x="2186" 
d="M2114 343v-343h-810q-56 0 -172 -6q-108 -6 -154 -6q-310 0 -510.5 79t-299.5 245t-99 428q0 384 230.5 568t678.5 184q50 0 160 -6q112 -6 166 -6h800v-343h-662v-211h557v-342h-557v-241h672zM1013 1139q-46 3 -128 3q-126 0 -207.5 -39.5t-123 -128.5t-41.5 -236
q0 -146 41.5 -234t123 -127.5t207.5 -39.5q82 0 128 3v799z" />
    <glyph glyph-name="P" unicode="P" horiz-adv-x="1374" 
d="M109 1450q250 50 494 50q359 0 534 -134.5t175 -420.5q0 -273 -169 -413.5t-491 -140.5l-56 1q-17 1 -52 1v-393h-435v1450zM835 764q57 53 57 179q0 124 -59.5 180t-187.5 56q-58 0 -101 -8v-453q53 -7 112 -7q122 0 179 53z" />
    <glyph glyph-name="Thorn" unicode="&#xde;" horiz-adv-x="1384" 
d="M109 1480h435v-167l33 1q12 1 33 1q355 0 528.5 -134.5t173.5 -420.5q0 -274 -168 -414t-488 -140l-59 1q-18 1 -53 1v-208h-435v1480zM835 579q57 53 57 179q0 125 -59.5 181t-187.5 56q-58 0 -101 -8v-455q57 -6 112 -6q122 0 179 53z" />
    <glyph glyph-name="Q" unicode="Q" horiz-adv-x="1645" 
d="M1459 289q-117 -180 -345 -241q208 -56 446 -88l-72 -335q-535 89 -848 245.5t-442 368.5t-129 491q0 252 92 424.5t261 259t400 86.5t400.5 -86.5t261.5 -257t92 -416.5q0 -271 -117 -451zM590.5 427q76.5 -100 231.5 -100q153 0 231 99t78 306q0 218 -78.5 319.5
t-230.5 101.5q-151 0 -229.5 -98.5t-78.5 -306.5q0 -221 76.5 -321z" />
    <glyph glyph-name="R" unicode="R" horiz-adv-x="1425" 
d="M959 0l-327 497l-96 3v-500h-427v1441q115 27 250 43t258 16q340 0 512 -123.5t172 -377.5q0 -149 -67 -256t-191 -169l386 -574h-470zM536 822q69 -8 133 -8q113 0 169.5 43t56.5 142q0 187 -228 187q-66 0 -131 -12v-352z" />
    <glyph glyph-name="Racute" unicode="&#x154;" horiz-adv-x="1425" 
d="M959 0l-327 497l-96 3v-500h-427v1441q115 27 250 43t258 16q340 0 512 -123.5t172 -377.5q0 -149 -67 -256t-191 -169l386 -574h-470zM536 822q69 -8 133 -8q113 0 169.5 43t56.5 142q0 187 -228 187q-66 0 -131 -12v-352zM516 1586l183 316h445l-246 -316h-382z" />
    <glyph glyph-name="Rcaron" unicode="&#x158;" horiz-adv-x="1425" 
d="M959 0l-327 497l-96 3v-500h-427v1441q115 27 250 43t258 16q340 0 512 -123.5t172 -377.5q0 -149 -67 -256t-191 -169l386 -574h-470zM536 822q69 -8 133 -8q113 0 169.5 43t56.5 142q0 187 -228 187q-66 0 -131 -12v-352zM838 1902h311l-263 -316h-354l-263 316h311
l129 -166z" />
    <glyph glyph-name="Rcommaaccent" unicode="&#x156;" horiz-adv-x="1425" 
d="M959 0l-327 497l-96 3v-500h-427v1441q115 27 250 43t258 16q340 0 512 -123.5t172 -377.5q0 -149 -67 -256t-191 -169l386 -574h-470zM536 822q69 -8 133 -8q113 0 169.5 43t56.5 142q0 187 -228 187q-66 0 -131 -12v-352zM978 -280q0 -60 -26 -126t-66 -112h-262
q27 48 41.5 82.5t21.5 66.5q-165 17 -165 131q0 134 228 134t228 -176z" />
    <glyph glyph-name="uni0210" unicode="&#x210;" horiz-adv-x="1425" 
d="M959 0l-327 497l-96 3v-500h-427v1441q115 27 250 43t258 16q340 0 512 -123.5t172 -377.5q0 -149 -67 -256t-191 -169l386 -574h-470zM536 822q69 -8 133 -8q113 0 169.5 43t56.5 142q0 187 -228 187q-66 0 -131 -12v-352zM328 1586l-163 316h331l142 -316h-310z
M780 1586l-162 316h330l142 -316h-310z" />
    <glyph glyph-name="uni1E5A" unicode="&#x1e5a;" horiz-adv-x="1425" 
d="M959 0l-327 497l-96 3v-500h-427v1441q115 27 250 43t258 16q340 0 512 -123.5t172 -377.5q0 -149 -67 -256t-191 -169l386 -574h-470zM536 822q69 -8 133 -8q113 0 169.5 43t56.5 142q0 187 -228 187q-66 0 -131 -12v-352zM561 -417.5q-64 46.5 -64 133.5t64 133.5
t189 46.5t189 -46.5t64 -133.5t-64 -133.5t-189 -46.5t-189 46.5z" />
    <glyph glyph-name="uni0212" unicode="&#x212;" horiz-adv-x="1425" 
d="M959 0l-327 497l-96 3v-500h-427v1441q115 27 250 43t258 16q340 0 512 -123.5t172 -377.5q0 -149 -67 -256t-191 -169l386 -574h-470zM536 822q69 -8 133 -8q113 0 169.5 43t56.5 142q0 187 -228 187q-66 0 -131 -12v-352zM410.5 1818q107.5 84 298.5 84t298.5 -84
t126.5 -232h-253q-12 59 -54 89t-118 30t-118 -30t-54 -89h-253q19 148 126.5 232z" />
    <glyph glyph-name="uni1E5E" unicode="&#x1e5e;" horiz-adv-x="1425" 
d="M959 0l-327 497l-96 3v-500h-427v1441q115 27 250 43t258 16q340 0 512 -123.5t172 -377.5q0 -149 -67 -256t-191 -169l386 -574h-470zM536 822q69 -8 133 -8q113 0 169.5 43t56.5 142q0 187 -228 187q-66 0 -131 -12v-352zM340 -397v248h820v-248h-820z" />
    <glyph glyph-name="S" unicode="S" horiz-adv-x="1215" 
d="M296.5 -2.5q-115.5 17.5 -210.5 48.5v348q93 -31 215 -49.5t227 -18.5q117 0 165.5 27.5t48.5 77.5q0 28 -13 47t-48 35.5t-102 33.5l-132 34q-202 49 -303.5 157.5t-101.5 283.5q0 229 170 353.5t505 124.5q209 0 372 -43v-348q-68 21 -160.5 33t-182.5 12
q-151 0 -212 -29.5t-61 -79.5q0 -25 11 -42t39.5 -31.5t83.5 -29.5l133 -34q223 -54 328 -162t105 -285q0 -147 -77 -255.5t-222 -167t-343 -58.5q-119 0 -234.5 17.5z" />
    <glyph glyph-name="Sacute" unicode="&#x15a;" horiz-adv-x="1215" 
d="M296.5 -2.5q-115.5 17.5 -210.5 48.5v348q93 -31 215 -49.5t227 -18.5q117 0 165.5 27.5t48.5 77.5q0 28 -13 47t-48 35.5t-102 33.5l-132 34q-202 49 -303.5 157.5t-101.5 283.5q0 229 170 353.5t505 124.5q209 0 372 -43v-348q-68 21 -160.5 33t-182.5 12
q-151 0 -212 -29.5t-61 -79.5q0 -25 11 -42t39.5 -31.5t83.5 -29.5l133 -34q223 -54 328 -162t105 -285q0 -147 -77 -255.5t-222 -167t-343 -58.5q-119 0 -234.5 17.5zM427 1586l183 316h445l-246 -316h-382z" />
    <glyph glyph-name="uni1E64" unicode="&#x1e64;" horiz-adv-x="1215" 
d="M296.5 -2.5q-115.5 17.5 -210.5 48.5v348q93 -31 215 -49.5t227 -18.5q117 0 165.5 27.5t48.5 77.5q0 28 -13 47t-48 35.5t-102 33.5l-132 34q-202 49 -303.5 157.5t-101.5 283.5q0 229 170 353.5t505 124.5q209 0 372 -43v-348q-68 21 -160.5 33t-182.5 12
q-151 0 -212 -29.5t-61 -79.5q0 -25 11 -42t39.5 -31.5t83.5 -29.5l133 -34q223 -54 328 -162t105 -285q0 -147 -77 -255.5t-222 -167t-343 -58.5q-119 0 -234.5 17.5zM168.5 1899.5q-50.5 37.5 -50.5 106.5t50.5 106.5t150.5 37.5t151 -37.5t51 -106.5t-51 -106.5
t-151 -37.5t-150.5 37.5zM427 1586l183 316h445l-246 -316h-382z" />
    <glyph glyph-name="Scaron" unicode="&#x160;" horiz-adv-x="1215" 
d="M296.5 -2.5q-115.5 17.5 -210.5 48.5v348q93 -31 215 -49.5t227 -18.5q117 0 165.5 27.5t48.5 77.5q0 28 -13 47t-48 35.5t-102 33.5l-132 34q-202 49 -303.5 157.5t-101.5 283.5q0 229 170 353.5t505 124.5q209 0 372 -43v-348q-68 21 -160.5 33t-182.5 12
q-151 0 -212 -29.5t-61 -79.5q0 -25 11 -42t39.5 -31.5t83.5 -29.5l133 -34q223 -54 328 -162t105 -285q0 -147 -77 -255.5t-222 -167t-343 -58.5q-119 0 -234.5 17.5zM749 1902h311l-263 -316h-354l-263 316h311l129 -166z" />
    <glyph glyph-name="uni1E66" unicode="&#x1e66;" horiz-adv-x="1215" 
d="M296.5 -2.5q-115.5 17.5 -210.5 48.5v348q93 -31 215 -49.5t227 -18.5q117 0 165.5 27.5t48.5 77.5q0 28 -13 47t-48 35.5t-102 33.5l-132 34q-202 49 -303.5 157.5t-101.5 283.5q0 229 170 353.5t505 124.5q209 0 372 -43v-348q-68 21 -160.5 33t-182.5 12
q-151 0 -212 -29.5t-61 -79.5q0 -25 11 -42t39.5 -31.5t83.5 -29.5l133 -34q223 -54 328 -162t105 -285q0 -147 -77 -255.5t-222 -167t-343 -58.5q-119 0 -234.5 17.5zM469.5 1979.5q-50.5 37.5 -50.5 106.5t50.5 107t150.5 38t150.5 -38t50.5 -107t-50.5 -106.5
t-150.5 -37.5t-150.5 37.5zM749 1902h311l-263 -316h-354l-263 316h311l129 -166z" />
    <glyph glyph-name="Scedilla" unicode="&#x15e;" horiz-adv-x="1215" 
d="M1116 236.5q-57 -98.5 -165.5 -161.5t-260.5 -84v-67q94 -15 141 -62.5t47 -122.5q0 -94 -75.5 -146.5t-231.5 -52.5q-112 0 -209 29v152q41 -14 92 -21t95 -7q59 0 86.5 14t27.5 47q0 34 -29 49.5t-86 15.5h-52v161q-111 3 -216.5 20t-193.5 46v348q93 -31 215 -49.5
t227 -18.5q117 0 165.5 27.5t48.5 77.5q0 28 -13 47t-48 35.5t-102 33.5l-132 34q-202 49 -303.5 157.5t-101.5 283.5q0 229 170 353.5t505 124.5q209 0 372 -43v-348q-68 21 -160.5 33t-182.5 12q-151 0 -212 -29.5t-61 -79.5q0 -25 11 -42t39.5 -31.5t83.5 -29.5l133 -34
q223 -54 328 -162t105 -285q0 -126 -57 -224.5z" />
    <glyph glyph-name="Scircumflex" unicode="&#x15c;" horiz-adv-x="1215" 
d="M296.5 -2.5q-115.5 17.5 -210.5 48.5v348q93 -31 215 -49.5t227 -18.5q117 0 165.5 27.5t48.5 77.5q0 28 -13 47t-48 35.5t-102 33.5l-132 34q-202 49 -303.5 157.5t-101.5 283.5q0 229 170 353.5t505 124.5q209 0 372 -43v-348q-68 21 -160.5 33t-182.5 12
q-151 0 -212 -29.5t-61 -79.5q0 -25 11 -42t39.5 -31.5t83.5 -29.5l133 -34q223 -54 328 -162t105 -285q0 -147 -77 -255.5t-222 -167t-343 -58.5q-119 0 -234.5 17.5zM1060 1586h-311l-129 166l-129 -166h-311l263 316h354z" />
    <glyph glyph-name="Scommaaccent" unicode="&#x218;" horiz-adv-x="1215" 
d="M296.5 -2.5q-115.5 17.5 -210.5 48.5v348q93 -31 215 -49.5t227 -18.5q117 0 165.5 27.5t48.5 77.5q0 28 -13 47t-48 35.5t-102 33.5l-132 34q-202 49 -303.5 157.5t-101.5 283.5q0 229 170 353.5t505 124.5q209 0 372 -43v-348q-68 21 -160.5 33t-182.5 12
q-151 0 -212 -29.5t-61 -79.5q0 -25 11 -42t39.5 -31.5t83.5 -29.5l133 -34q223 -54 328 -162t105 -285q0 -147 -77 -255.5t-222 -167t-343 -58.5q-119 0 -234.5 17.5zM848 -280q0 -60 -26 -126t-66 -112h-262q27 48 41.5 82.5t21.5 66.5q-165 17 -165 131q0 134 228 134
t228 -176z" />
    <glyph glyph-name="uni1E60" unicode="&#x1e60;" horiz-adv-x="1215" 
d="M296.5 -2.5q-115.5 17.5 -210.5 48.5v348q93 -31 215 -49.5t227 -18.5q117 0 165.5 27.5t48.5 77.5q0 28 -13 47t-48 35.5t-102 33.5l-132 34q-202 49 -303.5 157.5t-101.5 283.5q0 229 170 353.5t505 124.5q209 0 372 -43v-348q-68 21 -160.5 33t-182.5 12
q-151 0 -212 -29.5t-61 -79.5q0 -25 11 -42t39.5 -31.5t83.5 -29.5l133 -34q223 -54 328 -162t105 -285q0 -147 -77 -255.5t-222 -167t-343 -58.5q-119 0 -234.5 17.5zM431 1616.5q-64 46.5 -64 133.5t64 133.5t189 46.5t189 -46.5t64 -133.5t-64 -133.5t-189 -46.5
t-189 46.5z" />
    <glyph glyph-name="uni1E62" unicode="&#x1e62;" horiz-adv-x="1215" 
d="M296.5 -2.5q-115.5 17.5 -210.5 48.5v348q93 -31 215 -49.5t227 -18.5q117 0 165.5 27.5t48.5 77.5q0 28 -13 47t-48 35.5t-102 33.5l-132 34q-202 49 -303.5 157.5t-101.5 283.5q0 229 170 353.5t505 124.5q209 0 372 -43v-348q-68 21 -160.5 33t-182.5 12
q-151 0 -212 -29.5t-61 -79.5q0 -25 11 -42t39.5 -31.5t83.5 -29.5l133 -34q223 -54 328 -162t105 -285q0 -147 -77 -255.5t-222 -167t-343 -58.5q-119 0 -234.5 17.5zM431 -417.5q-64 46.5 -64 133.5t64 133.5t189 46.5t189 -46.5t64 -133.5t-64 -133.5t-189 -46.5
t-189 46.5z" />
    <glyph glyph-name="uni1E68" unicode="&#x1e68;" horiz-adv-x="1215" 
d="M296.5 -2.5q-115.5 17.5 -210.5 48.5v348q93 -31 215 -49.5t227 -18.5q117 0 165.5 27.5t48.5 77.5q0 28 -13 47t-48 35.5t-102 33.5l-132 34q-202 49 -303.5 157.5t-101.5 283.5q0 229 170 353.5t505 124.5q209 0 372 -43v-348q-68 21 -160.5 33t-182.5 12
q-151 0 -212 -29.5t-61 -79.5q0 -25 11 -42t39.5 -31.5t83.5 -29.5l133 -34q223 -54 328 -162t105 -285q0 -147 -77 -255.5t-222 -167t-343 -58.5q-119 0 -234.5 17.5zM431 -417.5q-64 46.5 -64 133.5t64 133.5t189 46.5t189 -46.5t64 -133.5t-64 -133.5t-189 -46.5
t-189 46.5zM431 1616.5q-64 46.5 -64 133.5t64 133.5t189 46.5t189 -46.5t64 -133.5t-64 -133.5t-189 -46.5t-189 46.5z" />
    <glyph glyph-name="uni1E9E" unicode="&#x1e9e;" horiz-adv-x="1904" 
d="M1761.5 745q100.5 -108 100.5 -284q0 -147 -74 -255.5t-214.5 -167t-335.5 -58.5q-107 0 -216 16t-199 45v348q88 -28 203 -45.5t204 -17.5q114 0 160.5 27t46.5 78q0 42 -30 68t-113 48l-126 34q-193 49 -290.5 157.5t-97.5 283.5q0 65 14 126q-32 8 -65 8
q-90 0 -137.5 -52t-47.5 -150v-954h-435v901q0 286 155.5 442.5t464.5 156.5q187 0 327 -63q154 63 385 63q92 0 180.5 -10.5t160.5 -27.5v-348q-65 18 -151 29t-160 11q-148 0 -206.5 -29.5t-58.5 -79.5q0 -38 24 -61t92 -42l126 -34q213 -55 313.5 -163z" />
    <glyph glyph-name="uni018F" unicode="&#x18f;" horiz-adv-x="1615" 
d="M1316 1308q230 -192 230 -588q0 -233 -90 -400t-255.5 -253.5t-387.5 -86.5q-228 0 -398 85t-263 253.5t-93 411.5v135h1045q-25 107 -90 171t-171 92t-261 28q-101 0 -211.5 -11.5t-204.5 -32.5v346q103 21 222 31.5t231 10.5q467 0 697 -192zM1016 366.5
q70 55.5 92 190.5h-595q22 -132 94.5 -189t209.5 -57q129 0 199 55.5z" />
    <glyph glyph-name="T" unicode="T" horiz-adv-x="1360" 
d="M462 0v1122h-449v358h1334v-358h-449v-1122h-436z" />
    <glyph glyph-name="Tbar" unicode="&#x166;" horiz-adv-x="1360" 
d="M1347 1122h-449v-287h284v-270h-284v-565h-436v565h-285v270h285v287h-449v358h1334v-358z" />
    <glyph glyph-name="Tcaron" unicode="&#x164;" horiz-adv-x="1360" 
d="M462 0v1122h-449v358h1334v-358h-449v-1122h-436zM809 1902h311l-263 -316h-354l-263 316h311l129 -166z" />
    <glyph glyph-name="uni0162" unicode="&#x162;" horiz-adv-x="1360" 
d="M750 0v-76q94 -15 141 -62.5t47 -122.5q0 -94 -75.5 -146.5t-231.5 -52.5q-112 0 -209 29v152q41 -14 92 -21t95 -7q59 0 86.5 14t27.5 47q0 34 -29 49.5t-86 15.5h-52v181h-94v1122h-449v358h1334v-358h-449v-1122h-148z" />
    <glyph glyph-name="uni021A" unicode="&#x21a;" horiz-adv-x="1360" 
d="M462 0v1122h-449v358h1334v-358h-449v-1122h-436zM908 -280q0 -60 -26 -126t-66 -112h-262q27 48 41.5 82.5t21.5 66.5q-165 17 -165 131q0 134 228 134t228 -176z" />
    <glyph glyph-name="uni1E6C" unicode="&#x1e6c;" horiz-adv-x="1360" 
d="M462 0v1122h-449v358h1334v-358h-449v-1122h-436zM491 -417.5q-64 46.5 -64 133.5t64 133.5t189 46.5t189 -46.5t64 -133.5t-64 -133.5t-189 -46.5t-189 46.5z" />
    <glyph glyph-name="uni1E6E" unicode="&#x1e6e;" horiz-adv-x="1360" 
d="M462 0v1122h-449v358h1334v-358h-449v-1122h-436zM270 -397v248h820v-248h-820z" />
    <glyph glyph-name="U" unicode="U" horiz-adv-x="1548" 
d="M266.5 145.5q-163.5 165.5 -163.5 503.5v831h435v-872q0 -144 60 -209.5t180 -65.5t180 65.5t60 209.5v872h427v-831q0 -338 -162 -503.5t-505 -165.5q-348 0 -511.5 165.5z" />
    <glyph glyph-name="Uacute" unicode="&#xda;" horiz-adv-x="1548" 
d="M266.5 145.5q-163.5 165.5 -163.5 503.5v831h435v-872q0 -144 60 -209.5t180 -65.5t180 65.5t60 209.5v872h427v-831q0 -338 -162 -503.5t-505 -165.5q-348 0 -511.5 165.5zM585 1586l183 316h445l-246 -316h-382z" />
    <glyph glyph-name="Ubreve" unicode="&#x16c;" horiz-adv-x="1548" 
d="M266.5 145.5q-163.5 165.5 -163.5 503.5v831h435v-872q0 -144 60 -209.5t180 -65.5t180 65.5t60 209.5v872h427v-831q0 -338 -162 -503.5t-505 -165.5q-348 0 -511.5 165.5zM479.5 1670q-107.5 84 -126.5 232h253q12 -59 54 -89t118 -30t118 30t54 89h253
q-19 -148 -126.5 -232t-298.5 -84t-298.5 84z" />
    <glyph glyph-name="Ucircumflex" unicode="&#xdb;" horiz-adv-x="1548" 
d="M266.5 145.5q-163.5 165.5 -163.5 503.5v831h435v-872q0 -144 60 -209.5t180 -65.5t180 65.5t60 209.5v872h427v-831q0 -338 -162 -503.5t-505 -165.5q-348 0 -511.5 165.5zM1218 1586h-311l-129 166l-129 -166h-311l263 316h354z" />
    <glyph glyph-name="uni0214" unicode="&#x214;" horiz-adv-x="1548" 
d="M266.5 145.5q-163.5 165.5 -163.5 503.5v831h435v-872q0 -144 60 -209.5t180 -65.5t180 65.5t60 209.5v872h427v-831q0 -338 -162 -503.5t-505 -165.5q-348 0 -511.5 165.5zM397 1586l-163 316h331l142 -316h-310zM849 1586l-162 316h330l142 -316h-310z" />
    <glyph glyph-name="Udieresis" unicode="&#xdc;" horiz-adv-x="1548" 
d="M266.5 145.5q-163.5 165.5 -163.5 503.5v831h435v-872q0 -144 60 -209.5t180 -65.5t180 65.5t60 209.5v872h427v-831q0 -338 -162 -503.5t-505 -165.5q-348 0 -511.5 165.5zM341.5 1616.5q-55.5 46.5 -55.5 133.5t55.5 133.5t163.5 46.5t163 -46.5t55 -133.5t-55 -133.5
t-163 -46.5t-163.5 46.5zM888 1616.5q-55 46.5 -55 133.5t55 133.5t163 46.5t163.5 -46.5t55.5 -133.5t-55.5 -133.5t-163.5 -46.5t-163 46.5z" />
    <glyph glyph-name="uni1EE4" unicode="&#x1ee4;" horiz-adv-x="1548" 
d="M266.5 145.5q-163.5 165.5 -163.5 503.5v831h435v-872q0 -144 60 -209.5t180 -65.5t180 65.5t60 209.5v872h427v-831q0 -338 -162 -503.5t-505 -165.5q-348 0 -511.5 165.5zM589 -417.5q-64 46.5 -64 133.5t64 133.5t189 46.5t189 -46.5t64 -133.5t-64 -133.5t-189 -46.5
t-189 46.5z" />
    <glyph glyph-name="Ugrave" unicode="&#xd9;" horiz-adv-x="1548" 
d="M266.5 145.5q-163.5 165.5 -163.5 503.5v831h435v-872q0 -144 60 -209.5t180 -65.5t180 65.5t60 209.5v872h427v-831q0 -338 -162 -503.5t-505 -165.5q-348 0 -511.5 165.5zM587 1586l-246 316h445l183 -316h-382z" />
    <glyph glyph-name="uni1EE6" unicode="&#x1ee6;" horiz-adv-x="1548" 
d="M266.5 145.5q-163.5 165.5 -163.5 503.5v831h435v-872q0 -144 60 -209.5t180 -65.5t180 65.5t60 209.5v872h427v-831q0 -338 -162 -503.5t-505 -165.5q-348 0 -511.5 165.5zM696 1642q17 23 38.5 36.5t56.5 30.5q28 13 40 21.5t12 19.5q0 16 -26 23.5t-79 7.5
q-95 0 -191 -20v147q43 10 107 16t118 6q147 0 216.5 -36t69.5 -111q0 -43 -26.5 -69.5t-76.5 -54.5q-36 -22 -54.5 -37t-21.5 -36h-202q2 33 19 56z" />
    <glyph glyph-name="Uhorn" unicode="&#x1af;" horiz-adv-x="1553" 
d="M266.5 145.5q-163.5 165.5 -163.5 503.5v831h435v-872q0 -144 60 -209.5t180 -65.5t180 65.5t60 209.5v872h135q94 0 138 35t44 121q0 65 -14 140h279q19 -68 19 -158q0 -115 -45.5 -189t-128.5 -107v-673q0 -338 -162 -503.5t-505 -165.5q-348 0 -511.5 165.5z" />
    <glyph glyph-name="uni1EE8" unicode="&#x1ee8;" horiz-adv-x="1553" 
d="M266.5 145.5q-163.5 165.5 -163.5 503.5v831h435v-872q0 -144 60 -209.5t180 -65.5t180 65.5t60 209.5v872h135q94 0 138 35t44 121q0 65 -14 140h279q19 -68 19 -158q0 -115 -45.5 -189t-128.5 -107v-673q0 -338 -162 -503.5t-505 -165.5q-348 0 -511.5 165.5zM581 1586
l183 316h445l-246 -316h-382z" />
    <glyph glyph-name="uni1EF0" unicode="&#x1ef0;" horiz-adv-x="1553" 
d="M266.5 145.5q-163.5 165.5 -163.5 503.5v831h435v-872q0 -144 60 -209.5t180 -65.5t180 65.5t60 209.5v872h135q94 0 138 35t44 121q0 65 -14 140h279q19 -68 19 -158q0 -115 -45.5 -189t-128.5 -107v-673q0 -338 -162 -503.5t-505 -165.5q-348 0 -511.5 165.5z
M585 -417.5q-64 46.5 -64 133.5t64 133.5t189 46.5t189 -46.5t64 -133.5t-64 -133.5t-189 -46.5t-189 46.5z" />
    <glyph glyph-name="uni1EEA" unicode="&#x1eea;" horiz-adv-x="1553" 
d="M266.5 145.5q-163.5 165.5 -163.5 503.5v831h435v-872q0 -144 60 -209.5t180 -65.5t180 65.5t60 209.5v872h135q94 0 138 35t44 121q0 65 -14 140h279q19 -68 19 -158q0 -115 -45.5 -189t-128.5 -107v-673q0 -338 -162 -503.5t-505 -165.5q-348 0 -511.5 165.5zM583 1586
l-246 316h445l183 -316h-382z" />
    <glyph glyph-name="uni1EEC" unicode="&#x1eec;" horiz-adv-x="1553" 
d="M266.5 145.5q-163.5 165.5 -163.5 503.5v831h435v-872q0 -144 60 -209.5t180 -65.5t180 65.5t60 209.5v872h135q94 0 138 35t44 121q0 65 -14 140h279q19 -68 19 -158q0 -115 -45.5 -189t-128.5 -107v-673q0 -338 -162 -503.5t-505 -165.5q-348 0 -511.5 165.5zM692 1642
q17 23 38.5 36.5t56.5 30.5q28 13 40 21.5t12 19.5q0 16 -26 23.5t-79 7.5q-95 0 -191 -20v147q43 10 107 16t118 6q147 0 216.5 -36t69.5 -111q0 -43 -26.5 -69.5t-76.5 -54.5q-36 -22 -54.5 -37t-21.5 -36h-202q2 33 19 56z" />
    <glyph glyph-name="uni1EEE" unicode="&#x1eee;" horiz-adv-x="1553" 
d="M266.5 145.5q-163.5 165.5 -163.5 503.5v831h435v-872q0 -144 60 -209.5t180 -65.5t180 65.5t60 209.5v872h135q94 0 138 35t44 121q0 65 -14 140h279q19 -68 19 -158q0 -115 -45.5 -189t-128.5 -107v-673q0 -338 -162 -503.5t-505 -165.5q-348 0 -511.5 165.5z
M860.5 1596.5q-45.5 10.5 -104.5 29.5q-58 18 -95.5 27t-78.5 9q-65 0 -114.5 -16.5t-103.5 -53.5v233q46 40 99 58.5t127 18.5q51 0 95.5 -10.5t106.5 -30.5q56 -19 94 -28t80 -9q65 0 114.5 16.5t103.5 53.5v-233q-45 -40 -98 -57.5t-128 -17.5q-52 0 -97.5 10.5z" />
    <glyph glyph-name="Uhungarumlaut" unicode="&#x170;" horiz-adv-x="1548" 
d="M266.5 145.5q-163.5 165.5 -163.5 503.5v831h435v-872q0 -144 60 -209.5t180 -65.5t180 65.5t60 209.5v872h427v-831q0 -338 -162 -503.5t-505 -165.5q-348 0 -511.5 165.5zM397 1586l142 316h330l-162 -316h-310zM849 1586l142 316h331l-163 -316h-310z" />
    <glyph glyph-name="uni0216" unicode="&#x216;" horiz-adv-x="1548" 
d="M266.5 145.5q-163.5 165.5 -163.5 503.5v831h435v-872q0 -144 60 -209.5t180 -65.5t180 65.5t60 209.5v872h427v-831q0 -338 -162 -503.5t-505 -165.5q-348 0 -511.5 165.5zM479.5 1818q107.5 84 298.5 84t298.5 -84t126.5 -232h-253q-12 59 -54 89t-118 30t-118 -30
t-54 -89h-253q19 148 126.5 232z" />
    <glyph glyph-name="Umacron" unicode="&#x16a;" horiz-adv-x="1548" 
d="M266.5 145.5q-163.5 165.5 -163.5 503.5v831h435v-872q0 -144 60 -209.5t180 -65.5t180 65.5t60 209.5v872h427v-831q0 -338 -162 -503.5t-505 -165.5q-348 0 -511.5 165.5zM368 1621v248h820v-248h-820z" />
    <glyph glyph-name="uni1E7A" unicode="&#x1e7a;" horiz-adv-x="1548" 
d="M266.5 145.5q-163.5 165.5 -163.5 503.5v831h435v-872q0 -144 60 -209.5t180 -65.5t180 65.5t60 209.5v872h427v-831q0 -338 -162 -503.5t-505 -165.5q-348 0 -511.5 165.5zM368 1621v248h820v-248h-820zM341.5 2016.5q-55.5 46.5 -55.5 133.5t55.5 133.5t163.5 46.5
t163 -46.5t55 -133.5t-55 -133.5t-163 -46.5t-163.5 46.5zM888 2016.5q-55 46.5 -55 133.5t55 133.5t163 46.5t163.5 -46.5t55.5 -133.5t-55.5 -133.5t-163.5 -46.5t-163 46.5z" />
    <glyph glyph-name="Uogonek" unicode="&#x172;" horiz-adv-x="1548" 
d="M1445 1480v-831q0 -255 -90.5 -411t-278.5 -217q-115 -38 -178.5 -75.5t-87 -74t-23.5 -77.5q0 -94 138 -94q59 0 131 25v-155q-92 -30 -193 -30q-156 0 -234 59.5t-78 164.5q0 65 31.5 119t101.5 100q-299 22 -440 186.5t-141 479.5v831h435v-872q0 -144 60 -209.5
t180 -65.5t180 65.5t60 209.5v872h427z" />
    <glyph glyph-name="Uring" unicode="&#x16e;" horiz-adv-x="1548" 
d="M266.5 145.5q-163.5 165.5 -163.5 503.5v831h435v-872q0 -144 60 -209.5t180 -65.5t180 65.5t60 209.5v872h427v-831q0 -338 -162 -503.5t-505 -165.5q-348 0 -511.5 165.5zM661 1598.5q-52 28.5 -81.5 78.5t-29.5 113t29.5 113t81.5 78.5t117 28.5t117 -28.5t81.5 -78.5
t29.5 -113t-29.5 -113t-81.5 -78.5t-117 -28.5t-117 28.5zM834.5 1730.5q21.5 22.5 21.5 59.5t-21.5 59.5t-56.5 22.5t-56.5 -22.5t-21.5 -59.5t21.5 -59.5t56.5 -22.5t56.5 22.5z" />
    <glyph glyph-name="Utilde" unicode="&#x168;" horiz-adv-x="1548" 
d="M266.5 145.5q-163.5 165.5 -163.5 503.5v831h435v-872q0 -144 60 -209.5t180 -65.5t180 65.5t60 209.5v872h427v-831q0 -338 -162 -503.5t-505 -165.5q-348 0 -511.5 165.5zM864.5 1596.5q-45.5 10.5 -104.5 29.5q-58 18 -95.5 27t-78.5 9q-65 0 -114.5 -16.5
t-103.5 -53.5v233q46 40 99 58.5t127 18.5q51 0 95.5 -10.5t106.5 -30.5q56 -19 94 -28t80 -9q65 0 114.5 16.5t103.5 53.5v-233q-45 -40 -98 -57.5t-128 -17.5q-52 0 -97.5 10.5z" />
    <glyph glyph-name="uni1E78" unicode="&#x1e78;" horiz-adv-x="1548" 
d="M266.5 145.5q-163.5 165.5 -163.5 503.5v831h435v-872q0 -144 60 -209.5t180 -65.5t180 65.5t60 209.5v872h427v-831q0 -338 -162 -503.5t-505 -165.5q-348 0 -511.5 165.5zM562 1986l183 232h494l-245 -232h-432zM864.5 1596.5q-45.5 10.5 -104.5 29.5q-58 18 -95.5 27
t-78.5 9q-65 0 -114.5 -16.5t-103.5 -53.5v233q46 40 99 58.5t127 18.5q51 0 95.5 -10.5t106.5 -30.5q56 -19 94 -28t80 -9q65 0 114.5 16.5t103.5 53.5v-233q-45 -40 -98 -57.5t-128 -17.5q-52 0 -97.5 10.5z" />
    <glyph glyph-name="V" unicode="V" horiz-adv-x="1511" 
d="M1095 1480h422l-439 -1480h-645l-439 1480h453l320 -1140z" />
    <glyph glyph-name="W" unicode="W" horiz-adv-x="2389" 
d="M1965 1480h410l-373 -1480h-555l-245 990l-260 -990h-555l-373 1480h438l247 -1065l272 1065h473l261 -1087z" />
    <glyph glyph-name="Wacute" unicode="&#x1e82;" horiz-adv-x="2389" 
d="M1965 1480h410l-373 -1480h-555l-245 990l-260 -990h-555l-373 1480h438l247 -1065l272 1065h473l261 -1087zM1002 1586l183 316h445l-246 -316h-382z" />
    <glyph glyph-name="Wcircumflex" unicode="&#x174;" horiz-adv-x="2389" 
d="M1965 1480h410l-373 -1480h-555l-245 990l-260 -990h-555l-373 1480h438l247 -1065l272 1065h473l261 -1087zM1635 1586h-311l-129 166l-129 -166h-311l263 316h354z" />
    <glyph glyph-name="Wdieresis" unicode="&#x1e84;" horiz-adv-x="2389" 
d="M1965 1480h410l-373 -1480h-555l-245 990l-260 -990h-555l-373 1480h438l247 -1065l272 1065h473l261 -1087zM758.5 1616.5q-55.5 46.5 -55.5 133.5t55.5 133.5t163.5 46.5t163 -46.5t55 -133.5t-55 -133.5t-163 -46.5t-163.5 46.5zM1305 1616.5q-55 46.5 -55 133.5
t55 133.5t163 46.5t163.5 -46.5t55.5 -133.5t-55.5 -133.5t-163.5 -46.5t-163 46.5z" />
    <glyph glyph-name="Wgrave" unicode="&#x1e80;" horiz-adv-x="2389" 
d="M1965 1480h410l-373 -1480h-555l-245 990l-260 -990h-555l-373 1480h438l247 -1065l272 1065h473l261 -1087zM1004 1586l-246 316h445l183 -316h-382z" />
    <glyph glyph-name="X" unicode="X" horiz-adv-x="1442" 
d="M973 780l525 -780h-476l-306 466l-305 -466h-471l525 775l-479 705h479l256 -388l256 388h466z" />
    <glyph glyph-name="Y" unicode="Y" horiz-adv-x="1360" 
d="M1413 1480l-513 -871v-609h-435v605l-531 875h457l301 -509l298 509h423z" />
    <glyph glyph-name="Yacute" unicode="&#xdd;" horiz-adv-x="1360" 
d="M1413 1480l-513 -871v-609h-435v605l-531 875h457l301 -509l298 509h423zM487 1586l183 316h445l-246 -316h-382z" />
    <glyph glyph-name="Ycircumflex" unicode="&#x176;" horiz-adv-x="1360" 
d="M1413 1480l-513 -871v-609h-435v605l-531 875h457l301 -509l298 509h423zM1120 1586h-311l-129 166l-129 -166h-311l263 316h354z" />
    <glyph glyph-name="Ydieresis" unicode="&#x178;" horiz-adv-x="1360" 
d="M1413 1480l-513 -871v-609h-435v605l-531 875h457l301 -509l298 509h423zM243.5 1616.5q-55.5 46.5 -55.5 133.5t55.5 133.5t163.5 46.5t163 -46.5t55 -133.5t-55 -133.5t-163 -46.5t-163.5 46.5zM790 1616.5q-55 46.5 -55 133.5t55 133.5t163 46.5t163.5 -46.5
t55.5 -133.5t-55.5 -133.5t-163.5 -46.5t-163 46.5z" />
    <glyph glyph-name="uni1E8E" unicode="&#x1e8e;" horiz-adv-x="1360" 
d="M1413 1480l-513 -871v-609h-435v605l-531 875h457l301 -509l298 509h423zM491 1616.5q-64 46.5 -64 133.5t64 133.5t189 46.5t189 -46.5t64 -133.5t-64 -133.5t-189 -46.5t-189 46.5z" />
    <glyph glyph-name="uni1EF4" unicode="&#x1ef4;" horiz-adv-x="1360" 
d="M1413 1480l-513 -871v-609h-435v605l-531 875h457l301 -509l298 509h423zM490 -417.5q-64 46.5 -64 133.5t64 133.5t189 46.5t189 -46.5t64 -133.5t-64 -133.5t-189 -46.5t-189 46.5z" />
    <glyph glyph-name="Ygrave" unicode="&#x1ef2;" horiz-adv-x="1360" 
d="M1413 1480l-513 -871v-609h-435v605l-531 875h457l301 -509l298 509h423zM489 1586l-246 316h445l183 -316h-382z" />
    <glyph glyph-name="uni1EF6" unicode="&#x1ef6;" horiz-adv-x="1360" 
d="M1413 1480l-513 -871v-609h-435v605l-531 875h457l301 -509l298 509h423zM598 1642q17 23 38.5 36.5t56.5 30.5q28 13 40 21.5t12 19.5q0 16 -26 23.5t-79 7.5q-95 0 -191 -20v147q43 10 107 16t118 6q147 0 216.5 -36t69.5 -111q0 -43 -26.5 -69.5t-76.5 -54.5
q-36 -22 -54.5 -37t-21.5 -36h-202q2 33 19 56z" />
    <glyph glyph-name="uni0232" unicode="&#x232;" horiz-adv-x="1360" 
d="M1413 1480l-513 -871v-609h-435v605l-531 875h457l301 -509l298 509h423zM270 1621v248h820v-248h-820z" />
    <glyph glyph-name="uni1EF8" unicode="&#x1ef8;" horiz-adv-x="1360" 
d="M1413 1480l-513 -871v-609h-435v605l-531 875h457l301 -509l298 509h423zM766.5 1596.5q-45.5 10.5 -104.5 29.5q-58 18 -95.5 27t-78.5 9q-65 0 -114.5 -16.5t-103.5 -53.5v233q46 40 99 58.5t127 18.5q51 0 95.5 -10.5t106.5 -30.5q56 -19 94 -28t80 -9
q65 0 114.5 16.5t103.5 53.5v-233q-45 -40 -98 -57.5t-128 -17.5q-52 0 -97.5 10.5z" />
    <glyph glyph-name="Z" unicode="Z" horiz-adv-x="1298" 
d="M619 358h621v-358h-1182v238l610 884h-600v358h1162v-238z" />
    <glyph glyph-name="Zacute" unicode="&#x179;" horiz-adv-x="1298" 
d="M619 358h621v-358h-1182v238l610 884h-600v358h1162v-238zM457 1586l183 316h445l-246 -316h-382z" />
    <glyph glyph-name="Zcaron" unicode="&#x17d;" horiz-adv-x="1298" 
d="M619 358h621v-358h-1182v238l610 884h-600v358h1162v-238zM779 1902h311l-263 -316h-354l-263 316h311l129 -166z" />
    <glyph glyph-name="Zdotaccent" unicode="&#x17b;" horiz-adv-x="1298" 
d="M619 358h621v-358h-1182v238l610 884h-600v358h1162v-238zM461 1616.5q-64 46.5 -64 133.5t64 133.5t189 46.5t189 -46.5t64 -133.5t-64 -133.5t-189 -46.5t-189 46.5z" />
    <glyph glyph-name="uni1E92" unicode="&#x1e92;" horiz-adv-x="1298" 
d="M619 358h621v-358h-1182v238l610 884h-600v358h1162v-238zM457 -417.5q-64 46.5 -64 133.5t64 133.5t189 46.5t189 -46.5t64 -133.5t-64 -133.5t-189 -46.5t-189 46.5z" />
    <glyph glyph-name="Iacute_J.loclNLD" horiz-adv-x="1306" 
d="M109 0v1480h435v-1480h-435zM133 1586l183 316h445l-246 -316h-382zM622 -172q80 106 111 212t31 264v1176h433v-1160q0 -195 -68.5 -355.5t-231.5 -318.5zM787 1586l183 316h445l-246 -316h-382z" />
    <glyph glyph-name="a" unicode="a" horiz-adv-x="1177" 
d="M849 1069.5q122 -48.5 179.5 -159t57.5 -300.5v-610h-349l-29 101h-18q-86 -123 -274 -123q-116 0 -200 42t-128 117t-44 172q0 166 119 256.5t376 104.5l130 7q-6 45 -29.5 72t-70.5 39t-126 12q-67 0 -148 -10.5t-151 -30.5v314q86 22 187.5 33.5t192.5 11.5
q203 0 325 -48.5zM671 292v159l-85 -4q-125 -7 -125 -97q0 -40 26.5 -61.5t75.5 -21.5q66 0 108 25z" />
    <glyph glyph-name="aacute" unicode="&#xe1;" horiz-adv-x="1177" 
d="M849 1069.5q122 -48.5 179.5 -159t57.5 -300.5v-610h-349l-29 101h-18q-86 -123 -274 -123q-116 0 -200 42t-128 117t-44 172q0 166 119 256.5t376 104.5l130 7q-6 45 -29.5 72t-70.5 39t-126 12q-67 0 -148 -10.5t-151 -30.5v314q86 22 187.5 33.5t192.5 11.5
q203 0 325 -48.5zM671 292v159l-85 -4q-125 -7 -125 -97q0 -40 26.5 -61.5t75.5 -21.5q66 0 108 25zM391 1220l233 396h449l-294 -396h-388z" />
    <glyph glyph-name="abreve" unicode="&#x103;" horiz-adv-x="1177" 
d="M849 1069.5q122 -48.5 179.5 -159t57.5 -300.5v-610h-349l-29 101h-18q-86 -123 -274 -123q-116 0 -200 42t-128 117t-44 172q0 166 119 256.5t376 104.5l130 7q-6 45 -29.5 72t-70.5 39t-126 12q-67 0 -148 -10.5t-151 -30.5v314q86 22 187.5 33.5t192.5 11.5
q203 0 325 -48.5zM671 292v159l-85 -4q-125 -7 -125 -97q0 -40 26.5 -61.5t75.5 -21.5q66 0 108 25zM293.5 1321.5q-105.5 93.5 -115.5 274.5h251q7 -82 45.5 -121.5t110.5 -39.5t110.5 39.5t45.5 121.5h251q-10 -181 -115.5 -274.5t-291.5 -93.5t-291.5 93.5z" />
    <glyph glyph-name="uni1EAF" unicode="&#x1eaf;" horiz-adv-x="1177" 
d="M849 1069.5q122 -48.5 179.5 -159t57.5 -300.5v-610h-349l-29 101h-18q-86 -123 -274 -123q-116 0 -200 42t-128 117t-44 172q0 166 119 256.5t376 104.5l130 7q-6 45 -29.5 72t-70.5 39t-126 12q-67 0 -148 -10.5t-151 -30.5v314q86 22 187.5 33.5t192.5 11.5
q203 0 325 -48.5zM671 292v159l-85 -4q-125 -7 -125 -97q0 -40 26.5 -61.5t75.5 -21.5q66 0 108 25zM438 1598l183 270h352l-245 -270h-290zM286.5 1316q-107.5 84 -126.5 232h253q12 -59 54 -89t118 -30t118 30t54 89h253q-19 -148 -126.5 -232t-298.5 -84t-298.5 84z" />
    <glyph glyph-name="uni1EB7" unicode="&#x1eb7;" horiz-adv-x="1177" 
d="M849 1069.5q122 -48.5 179.5 -159t57.5 -300.5v-610h-349l-29 101h-18q-86 -123 -274 -123q-116 0 -200 42t-128 117t-44 172q0 166 119 256.5t376 104.5l130 7q-6 45 -29.5 72t-70.5 39t-126 12q-67 0 -148 -10.5t-151 -30.5v314q86 22 187.5 33.5t192.5 11.5
q203 0 325 -48.5zM671 292v159l-85 -4q-125 -7 -125 -97q0 -40 26.5 -61.5t75.5 -21.5q66 0 108 25zM422.5 -447.5q-56.5 52.5 -56.5 145.5t56.5 145.5t162.5 52.5t162.5 -52.5t56.5 -145.5t-56.5 -145.5t-162.5 -52.5t-162.5 52.5zM293.5 1321.5q-105.5 93.5 -115.5 274.5
h251q7 -82 45.5 -121.5t110.5 -39.5t110.5 39.5t45.5 121.5h251q-10 -181 -115.5 -274.5t-291.5 -93.5t-291.5 93.5z" />
    <glyph glyph-name="uni1EB1" unicode="&#x1eb1;" horiz-adv-x="1177" 
d="M849 1069.5q122 -48.5 179.5 -159t57.5 -300.5v-610h-349l-29 101h-18q-86 -123 -274 -123q-116 0 -200 42t-128 117t-44 172q0 166 119 256.5t376 104.5l130 7q-6 45 -29.5 72t-70.5 39t-126 12q-67 0 -148 -10.5t-151 -30.5v314q86 22 187.5 33.5t192.5 11.5
q203 0 325 -48.5zM671 292v159l-85 -4q-125 -7 -125 -97q0 -40 26.5 -61.5t75.5 -21.5q66 0 108 25zM442 1598l-245 270h352l183 -270h-290zM286.5 1316q-107.5 84 -126.5 232h253q12 -59 54 -89t118 -30t118 30t54 89h253q-19 -148 -126.5 -232t-298.5 -84t-298.5 84z" />
    <glyph glyph-name="uni1EB3" unicode="&#x1eb3;" horiz-adv-x="1177" 
d="M849 1069.5q122 -48.5 179.5 -159t57.5 -300.5v-610h-349l-29 101h-18q-86 -123 -274 -123q-116 0 -200 42t-128 117t-44 172q0 166 119 256.5t376 104.5l130 7q-6 45 -29.5 72t-70.5 39t-126 12q-67 0 -148 -10.5t-151 -30.5v314q86 22 187.5 33.5t192.5 11.5
q203 0 325 -48.5zM671 292v159l-85 -4q-125 -7 -125 -97q0 -40 26.5 -61.5t75.5 -21.5q66 0 108 25zM516.5 1660q29.5 22 80.5 44q27 11 40 18.5t13 17.5q0 26 -105 26q-96 0 -191 -17v125q44 9 108.5 14.5t116.5 5.5q148 0 217 -31t69 -96q0 -37 -26.5 -59.5t-76.5 -46.5
q-37 -19 -55 -32t-21 -31h-202q3 40 32.5 62zM286.5 1316q-107.5 84 -126.5 232h253q12 -59 54 -89t118 -30t118 30t54 89h253q-19 -148 -126.5 -232t-298.5 -84t-298.5 84z" />
    <glyph glyph-name="uni1EB5" unicode="&#x1eb5;" horiz-adv-x="1177" 
d="M849 1069.5q122 -48.5 179.5 -159t57.5 -300.5v-610h-349l-29 101h-18q-86 -123 -274 -123q-116 0 -200 42t-128 117t-44 172q0 166 119 256.5t376 104.5l130 7q-6 45 -29.5 72t-70.5 39t-126 12q-67 0 -148 -10.5t-151 -30.5v314q86 22 187.5 33.5t192.5 11.5
q203 0 325 -48.5zM671 292v159l-85 -4q-125 -7 -125 -97q0 -40 26.5 -61.5t75.5 -21.5q66 0 108 25zM676.5 1604.5q-46.5 8.5 -109.5 25.5q-57 15 -97 23t-84 8q-67 0 -118.5 -14.5t-107.5 -45.5v200q47 35 101.5 51t132.5 16q53 0 97.5 -8.5t111.5 -26.5q60 -16 99 -24
t82 -8q67 0 118.5 14.5t107.5 45.5v-200q-46 -35 -100.5 -50t-133.5 -15q-53 0 -99.5 8.5zM286.5 1316q-107.5 84 -126.5 232h253q12 -59 54 -89t118 -30t118 30t54 89h253q-19 -148 -126.5 -232t-298.5 -84t-298.5 84z" />
    <glyph glyph-name="acircumflex" unicode="&#xe2;" horiz-adv-x="1177" 
d="M849 1069.5q122 -48.5 179.5 -159t57.5 -300.5v-610h-349l-29 101h-18q-86 -123 -274 -123q-116 0 -200 42t-128 117t-44 172q0 166 119 256.5t376 104.5l130 7q-6 45 -29.5 72t-70.5 39t-126 12q-67 0 -148 -10.5t-151 -30.5v314q86 22 187.5 33.5t192.5 11.5
q203 0 325 -48.5zM671 292v159l-85 -4q-125 -7 -125 -97q0 -40 26.5 -61.5t75.5 -21.5q66 0 108 25zM994 1220h-295l-114 204l-114 -204h-295l239 396h340z" />
    <glyph glyph-name="uni1EA5" unicode="&#x1ea5;" horiz-adv-x="1177" 
d="M849 1069.5q122 -48.5 179.5 -159t57.5 -300.5v-610h-349l-29 101h-18q-86 -123 -274 -123q-116 0 -200 42t-128 117t-44 172q0 166 119 256.5t376 104.5l130 7q-6 45 -29.5 72t-70.5 39t-126 12q-67 0 -148 -10.5t-151 -30.5v314q86 22 187.5 33.5t192.5 11.5
q203 0 325 -48.5zM671 292v159l-85 -4q-125 -7 -125 -97q0 -40 26.5 -61.5t75.5 -21.5q66 0 108 25zM1008 1868h353l-245 -270h-291zM415 1616h340l239 -396h-295l-114 204l-114 -204h-295z" />
    <glyph glyph-name="uni1EAD" unicode="&#x1ead;" horiz-adv-x="1177" 
d="M849 1069.5q122 -48.5 179.5 -159t57.5 -300.5v-610h-349l-29 101h-18q-86 -123 -274 -123q-116 0 -200 42t-128 117t-44 172q0 166 119 256.5t376 104.5l130 7q-6 45 -29.5 72t-70.5 39t-126 12q-67 0 -148 -10.5t-151 -30.5v314q86 22 187.5 33.5t192.5 11.5
q203 0 325 -48.5zM671 292v159l-85 -4q-125 -7 -125 -97q0 -40 26.5 -61.5t75.5 -21.5q66 0 108 25zM422.5 -447.5q-56.5 52.5 -56.5 145.5t56.5 145.5t162.5 52.5t162.5 -52.5t56.5 -145.5t-56.5 -145.5t-162.5 -52.5t-162.5 52.5zM994 1220h-295l-114 204l-114 -204h-295
l239 396h340z" />
    <glyph glyph-name="uni1EA7" unicode="&#x1ea7;" horiz-adv-x="1177" 
d="M849 1069.5q122 -48.5 179.5 -159t57.5 -300.5v-610h-349l-29 101h-18q-86 -123 -274 -123q-116 0 -200 42t-128 117t-44 172q0 166 119 256.5t376 104.5l130 7q-6 45 -29.5 72t-70.5 39t-126 12q-67 0 -148 -10.5t-151 -30.5v314q86 22 187.5 33.5t192.5 11.5
q203 0 325 -48.5zM671 292v159l-85 -4q-125 -7 -125 -97q0 -40 26.5 -61.5t75.5 -21.5q66 0 108 25zM1156 1598h-291l-245 270h353zM415 1616h340l239 -396h-295l-114 204l-114 -204h-295z" />
    <glyph glyph-name="uni1EA9" unicode="&#x1ea9;" horiz-adv-x="1177" 
d="M849 1069.5q122 -48.5 179.5 -159t57.5 -300.5v-610h-349l-29 101h-18q-86 -123 -274 -123q-116 0 -200 42t-128 117t-44 172q0 166 119 256.5t376 104.5l130 7q-6 45 -29.5 72t-70.5 39t-126 12q-67 0 -148 -10.5t-151 -30.5v314q86 22 187.5 33.5t192.5 11.5
q203 0 325 -48.5zM671 292v159l-85 -4q-125 -7 -125 -97q0 -40 26.5 -61.5t75.5 -21.5q66 0 108 25zM1114.5 1864.5q63.5 -29.5 63.5 -96.5q0 -31 -21.5 -50.5t-62.5 -41.5q-37 -20 -57 -36.5t-25 -41.5h-188q2 32 19 53.5t37.5 34t51.5 26.5q22 10 31 15.5t9 12.5
q0 15 -22.5 21.5t-71.5 6.5q-93 0 -176 -16v122q38 9 99.5 14.5t110.5 5.5q139 0 202.5 -29.5zM415 1616h340l239 -396h-295l-114 204l-114 -204h-295z" />
    <glyph glyph-name="uni1EAB" unicode="&#x1eab;" horiz-adv-x="1177" 
d="M849 1069.5q122 -48.5 179.5 -159t57.5 -300.5v-610h-349l-29 101h-18q-86 -123 -274 -123q-116 0 -200 42t-128 117t-44 172q0 166 119 256.5t376 104.5l130 7q-6 45 -29.5 72t-70.5 39t-126 12q-67 0 -148 -10.5t-151 -30.5v314q86 22 187.5 33.5t192.5 11.5
q203 0 325 -48.5zM671 292v159l-85 -4q-125 -7 -125 -97q0 -40 26.5 -61.5t75.5 -21.5q66 0 108 25zM671.5 1604.5q-45.5 8.5 -104.5 25.5q-55 15 -93.5 23t-80.5 8q-64 0 -114 -14.5t-104 -45.5v201q46 34 99 50t127 16q51 0 95.5 -9t106.5 -26q58 -16 95.5 -24t78.5 -8
q64 0 114 14.5t104 45.5v-201q-45 -34 -98 -49t-128 -15q-52 0 -97.5 8.5zM1025 1222h-311l-129 166l-129 -166h-311l263 316h354z" />
    <glyph glyph-name="uni0201" unicode="&#x201;" horiz-adv-x="1177" 
d="M849 1069.5q122 -48.5 179.5 -159t57.5 -300.5v-610h-349l-29 101h-18q-86 -123 -274 -123q-116 0 -200 42t-128 117t-44 172q0 166 119 256.5t376 104.5l130 7q-6 45 -29.5 72t-70.5 39t-126 12q-67 0 -148 -10.5t-151 -30.5v314q86 22 187.5 33.5t192.5 11.5
q203 0 325 -48.5zM671 292v159l-85 -4q-125 -7 -125 -97q0 -40 26.5 -61.5t75.5 -21.5q66 0 108 25zM204 1220l-172 396h330l152 -396h-310zM656 1220l-172 396h331l151 -396h-310z" />
    <glyph glyph-name="adieresis" unicode="&#xe4;" horiz-adv-x="1177" 
d="M849 1069.5q122 -48.5 179.5 -159t57.5 -300.5v-610h-349l-29 101h-18q-86 -123 -274 -123q-116 0 -200 42t-128 117t-44 172q0 166 119 256.5t376 104.5l130 7q-6 45 -29.5 72t-70.5 39t-126 12q-67 0 -148 -10.5t-151 -30.5v314q86 22 187.5 33.5t192.5 11.5
q203 0 325 -48.5zM671 292v159l-85 -4q-125 -7 -125 -97q0 -40 26.5 -61.5t75.5 -21.5q66 0 108 25zM158 1268.5q-57 53.5 -57 149.5t57 149.5t163 53.5t162.5 -53.5t56.5 -149.5t-56.5 -149.5t-162.5 -53.5t-163 53.5zM686.5 1268.5q-56.5 53.5 -56.5 149.5t56.5 149.5
t162.5 53.5t163 -53.5t57 -149.5t-57 -149.5t-163 -53.5t-162.5 53.5z" />
    <glyph glyph-name="uni1EA1" unicode="&#x1ea1;" horiz-adv-x="1177" 
d="M849 1069.5q122 -48.5 179.5 -159t57.5 -300.5v-610h-349l-29 101h-18q-86 -123 -274 -123q-116 0 -200 42t-128 117t-44 172q0 166 119 256.5t376 104.5l130 7q-6 45 -29.5 72t-70.5 39t-126 12q-67 0 -148 -10.5t-151 -30.5v314q86 22 187.5 33.5t192.5 11.5
q203 0 325 -48.5zM671 292v159l-85 -4q-125 -7 -125 -97q0 -40 26.5 -61.5t75.5 -21.5q66 0 108 25zM422.5 -447.5q-56.5 52.5 -56.5 145.5t56.5 145.5t162.5 52.5t162.5 -52.5t56.5 -145.5t-56.5 -145.5t-162.5 -52.5t-162.5 52.5z" />
    <glyph glyph-name="agrave" unicode="&#xe0;" horiz-adv-x="1177" 
d="M849 1069.5q122 -48.5 179.5 -159t57.5 -300.5v-610h-349l-29 101h-18q-86 -123 -274 -123q-116 0 -200 42t-128 117t-44 172q0 166 119 256.5t376 104.5l130 7q-6 45 -29.5 72t-70.5 39t-126 12q-67 0 -148 -10.5t-151 -30.5v314q86 22 187.5 33.5t192.5 11.5
q203 0 325 -48.5zM671 292v159l-85 -4q-125 -7 -125 -97q0 -40 26.5 -61.5t75.5 -21.5q66 0 108 25zM391 1220l-294 396h449l233 -396h-388z" />
    <glyph glyph-name="uni1EA3" unicode="&#x1ea3;" horiz-adv-x="1177" 
d="M849 1069.5q122 -48.5 179.5 -159t57.5 -300.5v-610h-349l-29 101h-18q-86 -123 -274 -123q-116 0 -200 42t-128 117t-44 172q0 166 119 256.5t376 104.5l130 7q-6 45 -29.5 72t-70.5 39t-126 12q-67 0 -148 -10.5t-151 -30.5v314q86 22 187.5 33.5t192.5 11.5
q203 0 325 -48.5zM671 292v159l-85 -4q-125 -7 -125 -97q0 -40 26.5 -61.5t75.5 -21.5q66 0 108 25zM513.5 1313.5q26.5 34.5 69.5 66.5q26 20 36.5 31.5t10.5 26.5q0 20 -20 28.5t-65 8.5q-82 0 -171 -24v151q40 12 98 19t107 7q136 0 201 -39t65 -123q0 -37 -12 -63
t-28.5 -43t-44.5 -39q-35 -27 -52.5 -47.5t-21.5 -53.5h-202q3 59 29.5 93.5z" />
    <glyph glyph-name="uni0203" unicode="&#x203;" horiz-adv-x="1177" 
d="M849 1069.5q122 -48.5 179.5 -159t57.5 -300.5v-610h-349l-29 101h-18q-86 -123 -274 -123q-116 0 -200 42t-128 117t-44 172q0 166 119 256.5t376 104.5l130 7q-6 45 -29.5 72t-70.5 39t-126 12q-67 0 -148 -10.5t-151 -30.5v314q86 22 187.5 33.5t192.5 11.5
q203 0 325 -48.5zM671 292v159l-85 -4q-125 -7 -125 -97q0 -40 26.5 -61.5t75.5 -21.5q66 0 108 25zM293 1523q105 93 292 93q185 0 291 -93.5t116 -274.5h-251q-7 84 -45.5 124t-110.5 40q-75 0 -112 -39.5t-44 -124.5h-251q10 182 115 275z" />
    <glyph glyph-name="amacron" unicode="&#x101;" horiz-adv-x="1177" 
d="M849 1069.5q122 -48.5 179.5 -159t57.5 -300.5v-610h-349l-29 101h-18q-86 -123 -274 -123q-116 0 -200 42t-128 117t-44 172q0 166 119 256.5t376 104.5l130 7q-6 45 -29.5 72t-70.5 39t-126 12q-67 0 -148 -10.5t-151 -30.5v314q86 22 187.5 33.5t192.5 11.5
q203 0 325 -48.5zM671 292v159l-85 -4q-125 -7 -125 -97q0 -40 26.5 -61.5t75.5 -21.5q66 0 108 25zM199 1295v248h772v-248h-772z" />
    <glyph glyph-name="aogonek" unicode="&#x105;" horiz-adv-x="1177" 
d="M1096 -275v-155q-43 -15 -84.5 -22.5t-96.5 -7.5q-143 0 -217.5 59.5t-74.5 164.5q0 72 35 130.5t115 105.5h-36l-29 101h-18q-86 -123 -274 -123q-116 0 -200 42t-128 117t-44 172q0 166 119 256.5t376 104.5l130 7q-6 45 -29.5 72t-70.5 39t-126 12q-67 0 -148 -10.5
t-151 -30.5v314q86 22 187.5 33.5t192.5 11.5q203 0 325 -48.5t179.5 -159t57.5 -300.5v-610q-128 -47 -177 -96.5t-49 -111.5q0 -43 30 -67.5t88 -24.5q54 0 118 25zM671 292v159l-85 -4q-125 -7 -125 -97q0 -40 26.5 -61.5t75.5 -21.5q66 0 108 25z" />
    <glyph glyph-name="aring" unicode="&#xe5;" horiz-adv-x="1177" 
d="M849 1069.5q122 -48.5 179.5 -159t57.5 -300.5v-610h-349l-29 101h-18q-86 -123 -274 -123q-116 0 -200 42t-128 117t-44 172q0 166 119 256.5t376 104.5l130 7q-6 45 -29.5 72t-70.5 39t-126 12q-67 0 -148 -10.5t-151 -30.5v314q86 22 187.5 33.5t192.5 11.5
q203 0 325 -48.5zM671 292v159l-85 -4q-125 -7 -125 -97q0 -40 26.5 -61.5t75.5 -21.5q66 0 108 25zM468 1242.5q-52 28.5 -81.5 78.5t-29.5 113t29.5 113t81.5 78.5t117 28.5t117 -28.5t81.5 -78.5t29.5 -113t-29.5 -113t-81.5 -78.5t-117 -28.5t-117 28.5zM641.5 1374.5
q21.5 22.5 21.5 59.5t-21.5 59.5t-56.5 22.5t-56.5 -22.5t-21.5 -59.5t21.5 -59.5t56.5 -22.5t56.5 22.5z" />
    <glyph glyph-name="aringacute" unicode="&#x1fb;" horiz-adv-x="1177" 
d="M849 1069.5q122 -48.5 179.5 -159t57.5 -300.5v-610h-349l-29 101h-18q-86 -123 -274 -123q-116 0 -200 42t-128 117t-44 172q0 166 119 256.5t376 104.5l130 7q-6 45 -29.5 72t-70.5 39t-126 12q-67 0 -148 -10.5t-151 -30.5v314q86 22 187.5 33.5t192.5 11.5
q203 0 325 -48.5zM671 292v159l-85 -4q-125 -7 -125 -97q0 -40 26.5 -61.5t75.5 -21.5q66 0 108 25zM789 1537q24 -45 24 -103q0 -63 -29.5 -113t-81.5 -78.5t-117 -28.5t-117 28.5t-81.5 78.5t-29.5 113t29.5 113t81.5 78.5t117 28.5q14 0 21 -1l97 127h296zM641.5 1374.5
q21.5 22.5 21.5 59.5t-21.5 59.5t-56.5 22.5t-56.5 -22.5t-21.5 -59.5t21.5 -59.5t56.5 -22.5t56.5 22.5z" />
    <glyph glyph-name="atilde" unicode="&#xe3;" horiz-adv-x="1177" 
d="M849 1069.5q122 -48.5 179.5 -159t57.5 -300.5v-610h-349l-29 101h-18q-86 -123 -274 -123q-116 0 -200 42t-128 117t-44 172q0 166 119 256.5t376 104.5l130 7q-6 45 -29.5 72t-70.5 39t-126 12q-67 0 -148 -10.5t-151 -30.5v314q86 22 187.5 33.5t192.5 11.5
q203 0 325 -48.5zM671 292v159l-85 -4q-125 -7 -125 -97q0 -40 26.5 -61.5t75.5 -21.5q66 0 108 25zM665.5 1258.5q-41.5 13.5 -98.5 39.5q-55 24 -88.5 35t-69.5 11q-60 0 -109 -21.5t-101 -69.5v256q45 44 97 64t121 20q46 0 87.5 -13.5t98.5 -39.5q55 -24 88.5 -35
t69.5 -11q60 0 109 21.5t101 69.5v-256q-45 -44 -97 -64t-121 -20q-46 0 -87.5 13.5z" />
    <glyph glyph-name="ae" unicode="&#xe6;" horiz-adv-x="1764" 
d="M1722 431h-634q6 -53 33 -82t87 -42t169 -13q123 0 280 29v-312q-173 -33 -341 -33q-174 0 -297 35t-200 108q-140 -143 -363 -143q-135 0 -227.5 41.5t-138.5 117t-46 176.5q0 166 122 259t374 93h134q-5 50 -29.5 79.5t-73.5 42.5t-130 13q-65 0 -146 -11t-150 -30v314
q179 45 360 45q140 0 237.5 -29t159.5 -89q63 57 146.5 87.5t184.5 30.5q154 0 264 -68t167.5 -198.5t57.5 -314.5v-106zM1117 815q-29 -43 -31 -150h243q-2 107 -30.5 150t-90.5 43t-91 -43zM488 288.5q27 -20.5 79 -20.5q40 0 72.5 10t65.5 35q-19 66 -24 127h-95
q-125 0 -125 -93q0 -38 27 -58.5z" />
    <glyph glyph-name="aeacute" unicode="&#x1fd;" horiz-adv-x="1764" 
d="M1722 431h-634q6 -53 33 -82t87 -42t169 -13q123 0 280 29v-312q-173 -33 -341 -33q-174 0 -297 35t-200 108q-140 -143 -363 -143q-135 0 -227.5 41.5t-138.5 117t-46 176.5q0 166 122 259t374 93h134q-5 50 -29.5 79.5t-73.5 42.5t-130 13q-65 0 -146 -11t-150 -30v314
q179 45 360 45q140 0 237.5 -29t159.5 -89q63 57 146.5 87.5t184.5 30.5q154 0 264 -68t167.5 -198.5t57.5 -314.5v-106zM1117 815q-29 -43 -31 -150h243q-2 107 -30.5 150t-90.5 43t-91 -43zM488 288.5q27 -20.5 79 -20.5q40 0 72.5 10t65.5 35q-19 66 -24 127h-95
q-125 0 -125 -93q0 -38 27 -58.5zM693 1220l233 396h449l-294 -396h-388z" />
    <glyph glyph-name="b" unicode="b" horiz-adv-x="1298" 
d="M328 -4q-127 17 -231 52v1568h426v-619h19q47 60 115.5 90.5t156.5 30.5q119 0 217 -60.5t156 -183.5t58 -301q0 -290 -165 -442t-500 -152q-125 0 -252 17zM768.5 352q49.5 56 49.5 188q0 130 -43.5 181.5t-132.5 51.5q-66 0 -119 -24v-443q43 -10 91 -10
q105 0 154.5 56z" />
    <glyph glyph-name="c" unicode="c" horiz-adv-x="1020" 
d="M213.5 122.5q-160.5 144.5 -160.5 424.5q0 283 169.5 427t484.5 144q143 0 260 -24v-331q-110 16 -197 16q-147 0 -213 -55.5t-66 -173.5q0 -122 63.5 -177.5t193.5 -55.5q49 0 98.5 7.5t120.5 23.5v-331q-60 -18 -134.5 -28.5t-153.5 -10.5q-305 0 -465.5 144.5z" />
    <glyph glyph-name="cacute" unicode="&#x107;" horiz-adv-x="1020" 
d="M213.5 122.5q-160.5 144.5 -160.5 424.5q0 283 169.5 427t484.5 144q143 0 260 -24v-331q-110 16 -197 16q-147 0 -213 -55.5t-66 -173.5q0 -122 63.5 -177.5t193.5 -55.5q49 0 98.5 7.5t120.5 23.5v-331q-60 -18 -134.5 -28.5t-153.5 -10.5q-305 0 -465.5 144.5z
M359 1220l233 396h449l-294 -396h-388z" />
    <glyph glyph-name="ccaron" unicode="&#x10d;" horiz-adv-x="1020" 
d="M213.5 122.5q-160.5 144.5 -160.5 424.5q0 283 169.5 427t484.5 144q143 0 260 -24v-331q-110 16 -197 16q-147 0 -213 -55.5t-66 -173.5q0 -122 63.5 -177.5t193.5 -55.5q49 0 98.5 7.5t120.5 23.5v-331q-60 -18 -134.5 -28.5t-153.5 -10.5q-305 0 -465.5 144.5z
M667 1616h295l-239 -396h-340l-239 396h295l114 -204z" />
    <glyph glyph-name="ccedilla" unicode="&#xe7;" horiz-adv-x="1020" 
d="M557 723.5q-66 -55.5 -66 -173.5q0 -122 63.5 -177.5t193.5 -55.5q49 0 98.5 7.5t120.5 23.5v-331q-58 -18 -130.5 -28t-149.5 -11v-55q83 -17 125.5 -65t42.5 -122q0 -93 -72 -144.5t-215 -51.5q-100 0 -189 29v152q37 -13 83.5 -20.5t83.5 -7.5q48 0 71 14t23 48
q0 64 -95 64h-52v175q-216 40 -328 179.5t-112 373.5q0 283 169.5 427t484.5 144q143 0 260 -24v-331q-110 16 -197 16q-147 0 -213 -55.5z" />
    <glyph glyph-name="uni1E09" unicode="&#x1e09;" horiz-adv-x="1020" 
d="M1041 1616l-294 -396h-388l233 396h449zM222.5 974q169.5 144 484.5 144q143 0 260 -24v-331q-110 16 -197 16q-147 0 -213 -55.5t-66 -173.5q0 -122 63.5 -177.5t193.5 -55.5q49 0 98.5 7.5t120.5 23.5v-331q-58 -18 -130.5 -28t-149.5 -11v-55q83 -17 125.5 -65
t42.5 -122q0 -93 -72 -144.5t-215 -51.5q-100 0 -189 29v152q37 -13 83.5 -20.5t83.5 -7.5q48 0 71 14t23 48q0 64 -95 64h-52v175q-216 40 -328 179.5t-112 373.5q0 283 169.5 427z" />
    <glyph glyph-name="ccircumflex" unicode="&#x109;" horiz-adv-x="1020" 
d="M213.5 122.5q-160.5 144.5 -160.5 424.5q0 283 169.5 427t484.5 144q143 0 260 -24v-331q-110 16 -197 16q-147 0 -213 -55.5t-66 -173.5q0 -122 63.5 -177.5t193.5 -55.5q49 0 98.5 7.5t120.5 23.5v-331q-60 -18 -134.5 -28.5t-153.5 -10.5q-305 0 -465.5 144.5z
M962 1220h-295l-114 204l-114 -204h-295l239 396h340z" />
    <glyph glyph-name="cdotaccent" unicode="&#x10b;" horiz-adv-x="1020" 
d="M213.5 122.5q-160.5 144.5 -160.5 424.5q0 283 169.5 427t484.5 144q143 0 260 -24v-331q-110 16 -197 16q-147 0 -213 -55.5t-66 -173.5q0 -122 63.5 -177.5t193.5 -55.5q49 0 98.5 7.5t120.5 23.5v-331q-60 -18 -134.5 -28.5t-153.5 -10.5q-305 0 -465.5 144.5z
M298 1418q0 210 255 210t255 -210t-255 -210t-255 210z" />
    <glyph glyph-name="d" unicode="d" horiz-adv-x="1298" 
d="M282.5 39q-104.5 59 -167 181.5t-62.5 306.5q0 188 71.5 320.5t212 202t345.5 69.5q37 0 93 -4v501h426v-1616h-357l-25 113h-18q-47 -63 -119 -98t-166 -35q-129 0 -233.5 59zM716.5 332.5q33.5 8.5 58.5 24.5v436q-52 8 -92 8q-105 0 -154 -55.5t-49 -186.5
q0 -130 43 -182.5t125 -52.5q35 0 68.5 8.5z" />
    <glyph glyph-name="eth" unicode="&#xf0;" horiz-adv-x="1267" 
d="M1156.5 971.5q60.5 -176.5 60.5 -346.5q0 -330 -149.5 -489.5t-434.5 -159.5q-181 0 -311.5 66t-199.5 193.5t-69 310.5q0 184 67 310t188 189t284 63q45 0 94 -11q-39 73 -87 136l-424 -78l-45 223l293 54q-103 99 -222 184h497q64 -49 125 -110l314 58l45 -223
l-194 -36q108 -157 168.5 -333.5zM720.5 316q33.5 23 50 77.5t16.5 149.5q0 98 -17 154t-50.5 79.5t-86.5 23.5t-86 -23.5t-50 -79t-17 -152.5q0 -96 16.5 -151t49.5 -78t87 -23t87.5 23z" />
    <glyph glyph-name="dcaron" unicode="&#x10f;" horiz-adv-x="1298" 
d="M282.5 39q-104.5 59 -167 181.5t-62.5 306.5q0 188 71.5 320.5t212 202t345.5 69.5q37 0 93 -4v501h426v-1616h-357l-25 113h-18q-47 -63 -119 -98t-166 -35q-129 0 -233.5 59zM716.5 332.5q33.5 8.5 58.5 24.5v436q-52 8 -92 8q-105 0 -154 -55.5t-49 -186.5
q0 -130 43 -182.5t125 -52.5q35 0 68.5 8.5zM1283.5 1393.5q7.5 98.5 7.5 222.5h277q0 -125 -22.5 -238.5t-62.5 -197.5h-226q19 115 26.5 213.5z" />
    <glyph glyph-name="dcroat" unicode="&#x111;" horiz-adv-x="1298" 
d="M1297 1223h-96v-1223h-357l-25 113h-18q-47 -63 -119 -98t-166 -35q-129 0 -233.5 59t-167 181.5t-62.5 306.5q0 188 71.5 320.5t212 202t345.5 69.5q37 0 93 -4v108h-326v260h326v133h426v-133h96v-260zM775 793q-52 8 -92 8q-105 0 -154 -55.5t-49 -186.5
q0 -130 43 -182.5t125 -52.5q35 0 68.5 8.5t58.5 24.5v436z" />
    <glyph glyph-name="uni1E0D" unicode="&#x1e0d;" horiz-adv-x="1298" 
d="M282.5 39q-104.5 59 -167 181.5t-62.5 306.5q0 188 71.5 320.5t212 202t345.5 69.5q37 0 93 -4v501h426v-1616h-357l-25 113h-18q-47 -63 -119 -98t-166 -35q-129 0 -233.5 59zM716.5 332.5q33.5 8.5 58.5 24.5v436q-52 8 -92 8q-105 0 -154 -55.5t-49 -186.5
q0 -130 43 -182.5t125 -52.5q35 0 68.5 8.5zM498.5 -447.5q-56.5 52.5 -56.5 145.5t56.5 145.5t162.5 52.5t162.5 -52.5t56.5 -145.5t-56.5 -145.5t-162.5 -52.5t-162.5 52.5z" />
    <glyph glyph-name="uni1E0F" unicode="&#x1e0f;" horiz-adv-x="1298" 
d="M282.5 39q-104.5 59 -167 181.5t-62.5 306.5q0 188 71.5 320.5t212 202t345.5 69.5q37 0 93 -4v501h426v-1616h-357l-25 113h-18q-47 -63 -119 -98t-166 -35q-129 0 -233.5 59zM716.5 332.5q33.5 8.5 58.5 24.5v436q-52 8 -92 8q-105 0 -154 -55.5t-49 -186.5
q0 -130 43 -182.5t125 -52.5q35 0 68.5 8.5zM275 -421v246h772v-246h-772z" />
    <glyph glyph-name="uni01F3" unicode="&#x1f3;" horiz-adv-x="2374" 
d="M282.5 39q-104.5 59 -167 181.5t-62.5 306.5q0 188 71.5 320.5t212 202t345.5 69.5q37 0 93 -4v501h426v-1616h-357l-25 113h-18q-47 -63 -119 -98t-166 -35q-129 0 -233.5 59zM716.5 332.5q33.5 8.5 58.5 24.5v436q-52 8 -92 8q-105 0 -154 -55.5t-49 -186.5
q0 -130 43 -182.5t125 -52.5q35 0 68.5 8.5zM1891 331h436v-331h-962v271l426 498h-416v331h942v-271z" />
    <glyph glyph-name="uni01C6" unicode="&#x1c6;" horiz-adv-x="2374" 
d="M282.5 39q-104.5 59 -167 181.5t-62.5 306.5q0 188 71.5 320.5t212 202t345.5 69.5q37 0 93 -4v501h426v-1616h-357l-25 113h-18q-47 -63 -119 -98t-166 -35q-129 0 -233.5 59zM716.5 332.5q33.5 8.5 58.5 24.5v436q-52 8 -92 8q-105 0 -154 -55.5t-49 -186.5
q0 -130 43 -182.5t125 -52.5q35 0 68.5 8.5zM1891 331h436v-331h-962v271l426 498h-416v331h942v-271zM1960 1616h295l-239 -396h-340l-239 396h295l114 -204z" />
    <glyph glyph-name="e" unicode="e" horiz-adv-x="1163" 
d="M1120 431h-642q6 -53 34 -82t89.5 -42t173.5 -13q123 0 280 29v-312q-172 -33 -343 -33q-232 0 -377 60.5t-213.5 186t-68.5 326.5q0 176 63.5 303t188 195.5t302.5 68.5q252 0 382.5 -152t130.5 -429v-106zM531.5 840q-26.5 -18 -40.5 -60t-15 -115h251q-1 73 -14.5 115
t-40 60t-70.5 18t-70.5 -18z" />
    <glyph glyph-name="eacute" unicode="&#xe9;" horiz-adv-x="1163" 
d="M1120 431h-642q6 -53 34 -82t89.5 -42t173.5 -13q123 0 280 29v-312q-172 -33 -343 -33q-232 0 -377 60.5t-213.5 186t-68.5 326.5q0 176 63.5 303t188 195.5t302.5 68.5q252 0 382.5 -152t130.5 -429v-106zM531.5 840q-26.5 -18 -40.5 -60t-15 -115h251q-1 73 -14.5 115
t-40 60t-70.5 18t-70.5 -18zM404 1220l233 396h449l-294 -396h-388z" />
    <glyph glyph-name="ebreve" unicode="&#x115;" horiz-adv-x="1163" 
d="M1120 431h-642q6 -53 34 -82t89.5 -42t173.5 -13q123 0 280 29v-312q-172 -33 -343 -33q-232 0 -377 60.5t-213.5 186t-68.5 326.5q0 176 63.5 303t188 195.5t302.5 68.5q252 0 382.5 -152t130.5 -429v-106zM531.5 840q-26.5 -18 -40.5 -60t-15 -115h251q-1 73 -14.5 115
t-40 60t-70.5 18t-70.5 -18zM306.5 1321.5q-105.5 93.5 -115.5 274.5h251q7 -82 45.5 -121.5t110.5 -39.5t110.5 39.5t45.5 121.5h251q-10 -181 -115.5 -274.5t-291.5 -93.5t-291.5 93.5z" />
    <glyph glyph-name="ecaron" unicode="&#x11b;" horiz-adv-x="1163" 
d="M1120 431h-642q6 -53 34 -82t89.5 -42t173.5 -13q123 0 280 29v-312q-172 -33 -343 -33q-232 0 -377 60.5t-213.5 186t-68.5 326.5q0 176 63.5 303t188 195.5t302.5 68.5q252 0 382.5 -152t130.5 -429v-106zM531.5 840q-26.5 -18 -40.5 -60t-15 -115h251q-1 73 -14.5 115
t-40 60t-70.5 18t-70.5 -18zM712 1616h295l-239 -396h-340l-239 396h295l114 -204z" />
    <glyph glyph-name="uni1E1D" unicode="&#x1e1d;" horiz-adv-x="1163" 
d="M306.5 1321.5q-105.5 93.5 -115.5 274.5h251q7 -82 45.5 -121.5t110.5 -39.5t110.5 39.5t45.5 121.5h251q-10 -181 -115.5 -274.5t-291.5 -93.5t-291.5 93.5zM1120 431h-642q6 -53 34 -82t89.5 -42t173.5 -13q123 0 280 29v-312q-172 -33 -343 -33h-4v-55
q83 -17 125.5 -65t42.5 -122q0 -93 -72 -144.5t-215 -51.5q-100 0 -189 29v152q37 -13 83.5 -20.5t83.5 -7.5q48 0 71 14t23 48q0 64 -95 64h-52v172q-240 35 -350.5 170.5t-110.5 389.5q0 176 63.5 303t188 195.5t302.5 68.5q252 0 382.5 -152t130.5 -429v-106zM531.5 840
q-26.5 -18 -40.5 -60t-15 -115h251q-1 73 -14.5 115t-40 60t-70.5 18t-70.5 -18z" />
    <glyph glyph-name="ecircumflex" unicode="&#xea;" horiz-adv-x="1163" 
d="M1120 431h-642q6 -53 34 -82t89.5 -42t173.5 -13q123 0 280 29v-312q-172 -33 -343 -33q-232 0 -377 60.5t-213.5 186t-68.5 326.5q0 176 63.5 303t188 195.5t302.5 68.5q252 0 382.5 -152t130.5 -429v-106zM531.5 840q-26.5 -18 -40.5 -60t-15 -115h251q-1 73 -14.5 115
t-40 60t-70.5 18t-70.5 -18zM1007 1220h-295l-114 204l-114 -204h-295l239 396h340z" />
    <glyph glyph-name="uni1EBF" unicode="&#x1ebf;" horiz-adv-x="1163" 
d="M1120 431h-642q6 -53 34 -82t89.5 -42t173.5 -13q123 0 280 29v-312q-172 -33 -343 -33q-232 0 -377 60.5t-213.5 186t-68.5 326.5q0 176 63.5 303t188 195.5t302.5 68.5q252 0 382.5 -152t130.5 -429v-106zM531.5 840q-26.5 -18 -40.5 -60t-15 -115h251q-1 73 -14.5 115
t-40 60t-70.5 18t-70.5 -18zM1021 1868h353l-245 -270h-291zM428 1616h340l239 -396h-295l-114 204l-114 -204h-295z" />
    <glyph glyph-name="uni1EC7" unicode="&#x1ec7;" horiz-adv-x="1163" 
d="M1120 431h-642q6 -53 34 -82t89.5 -42t173.5 -13q123 0 280 29v-312q-172 -33 -343 -33q-232 0 -377 60.5t-213.5 186t-68.5 326.5q0 176 63.5 303t188 195.5t302.5 68.5q252 0 382.5 -152t130.5 -429v-106zM531.5 840q-26.5 -18 -40.5 -60t-15 -115h251q-1 73 -14.5 115
t-40 60t-70.5 18t-70.5 -18zM435.5 -447.5q-56.5 52.5 -56.5 145.5t56.5 145.5t162.5 52.5t162.5 -52.5t56.5 -145.5t-56.5 -145.5t-162.5 -52.5t-162.5 52.5zM1007 1220h-295l-114 204l-114 -204h-295l239 396h340z" />
    <glyph glyph-name="uni1EC1" unicode="&#x1ec1;" horiz-adv-x="1163" 
d="M1120 431h-642q6 -53 34 -82t89.5 -42t173.5 -13q123 0 280 29v-312q-172 -33 -343 -33q-232 0 -377 60.5t-213.5 186t-68.5 326.5q0 176 63.5 303t188 195.5t302.5 68.5q252 0 382.5 -152t130.5 -429v-106zM531.5 840q-26.5 -18 -40.5 -60t-15 -115h251q-1 73 -14.5 115
t-40 60t-70.5 18t-70.5 -18zM1169 1598h-291l-245 270h353zM428 1616h340l239 -396h-295l-114 204l-114 -204h-295z" />
    <glyph glyph-name="uni1EC3" unicode="&#x1ec3;" horiz-adv-x="1163" 
d="M1120 431h-642q6 -53 34 -82t89.5 -42t173.5 -13q123 0 280 29v-312q-172 -33 -343 -33q-232 0 -377 60.5t-213.5 186t-68.5 326.5q0 176 63.5 303t188 195.5t302.5 68.5q252 0 382.5 -152t130.5 -429v-106zM531.5 840q-26.5 -18 -40.5 -60t-15 -115h251q-1 73 -14.5 115
t-40 60t-70.5 18t-70.5 -18zM1127.5 1864.5q63.5 -29.5 63.5 -96.5q0 -31 -21.5 -50.5t-62.5 -41.5q-37 -20 -57 -36.5t-25 -41.5h-188q2 32 19 53.5t37.5 34t51.5 26.5q22 10 31 15.5t9 12.5q0 15 -22.5 21.5t-71.5 6.5q-93 0 -176 -16v122q38 9 99.5 14.5t110.5 5.5
q139 0 202.5 -29.5zM428 1616h340l239 -396h-295l-114 204l-114 -204h-295z" />
    <glyph glyph-name="uni1EC5" unicode="&#x1ec5;" horiz-adv-x="1163" 
d="M1120 431h-642q6 -53 34 -82t89.5 -42t173.5 -13q123 0 280 29v-312q-172 -33 -343 -33q-232 0 -377 60.5t-213.5 186t-68.5 326.5q0 176 63.5 303t188 195.5t302.5 68.5q252 0 382.5 -152t130.5 -429v-106zM531.5 840q-26.5 -18 -40.5 -60t-15 -115h251q-1 73 -14.5 115
t-40 60t-70.5 18t-70.5 -18zM684.5 1604.5q-45.5 8.5 -104.5 25.5q-55 15 -93.5 23t-80.5 8q-64 0 -114 -14.5t-104 -45.5v201q46 34 99 50t127 16q51 0 95.5 -9t106.5 -26q58 -16 95.5 -24t78.5 -8q64 0 114 14.5t104 45.5v-201q-45 -34 -98 -49t-128 -15q-52 0 -97.5 8.5z
M1038 1222h-311l-129 166l-129 -166h-311l263 316h354z" />
    <glyph glyph-name="uni0205" unicode="&#x205;" horiz-adv-x="1163" 
d="M1120 431h-642q6 -53 34 -82t89.5 -42t173.5 -13q123 0 280 29v-312q-172 -33 -343 -33q-232 0 -377 60.5t-213.5 186t-68.5 326.5q0 176 63.5 303t188 195.5t302.5 68.5q252 0 382.5 -152t130.5 -429v-106zM531.5 840q-26.5 -18 -40.5 -60t-15 -115h251q-1 73 -14.5 115
t-40 60t-70.5 18t-70.5 -18zM217 1220l-172 396h330l152 -396h-310zM669 1220l-172 396h331l151 -396h-310z" />
    <glyph glyph-name="edieresis" unicode="&#xeb;" horiz-adv-x="1163" 
d="M1120 431h-642q6 -53 34 -82t89.5 -42t173.5 -13q123 0 280 29v-312q-172 -33 -343 -33q-232 0 -377 60.5t-213.5 186t-68.5 326.5q0 176 63.5 303t188 195.5t302.5 68.5q252 0 382.5 -152t130.5 -429v-106zM531.5 840q-26.5 -18 -40.5 -60t-15 -115h251q-1 73 -14.5 115
t-40 60t-70.5 18t-70.5 -18zM171 1268.5q-57 53.5 -57 149.5t57 149.5t163 53.5t162.5 -53.5t56.5 -149.5t-56.5 -149.5t-162.5 -53.5t-163 53.5zM699.5 1268.5q-56.5 53.5 -56.5 149.5t56.5 149.5t162.5 53.5t163 -53.5t57 -149.5t-57 -149.5t-163 -53.5t-162.5 53.5z" />
    <glyph glyph-name="edotaccent" unicode="&#x117;" horiz-adv-x="1163" 
d="M1120 431h-642q6 -53 34 -82t89.5 -42t173.5 -13q123 0 280 29v-312q-172 -33 -343 -33q-232 0 -377 60.5t-213.5 186t-68.5 326.5q0 176 63.5 303t188 195.5t302.5 68.5q252 0 382.5 -152t130.5 -429v-106zM531.5 840q-26.5 -18 -40.5 -60t-15 -115h251q-1 73 -14.5 115
t-40 60t-70.5 18t-70.5 -18zM343 1418q0 210 255 210t255 -210t-255 -210t-255 210z" />
    <glyph glyph-name="uni1EB9" unicode="&#x1eb9;" horiz-adv-x="1163" 
d="M1120 431h-642q6 -53 34 -82t89.5 -42t173.5 -13q123 0 280 29v-312q-172 -33 -343 -33q-232 0 -377 60.5t-213.5 186t-68.5 326.5q0 176 63.5 303t188 195.5t302.5 68.5q252 0 382.5 -152t130.5 -429v-106zM531.5 840q-26.5 -18 -40.5 -60t-15 -115h251q-1 73 -14.5 115
t-40 60t-70.5 18t-70.5 -18zM435.5 -447.5q-56.5 52.5 -56.5 145.5t56.5 145.5t162.5 52.5t162.5 -52.5t56.5 -145.5t-56.5 -145.5t-162.5 -52.5t-162.5 52.5z" />
    <glyph glyph-name="egrave" unicode="&#xe8;" horiz-adv-x="1163" 
d="M1120 431h-642q6 -53 34 -82t89.5 -42t173.5 -13q123 0 280 29v-312q-172 -33 -343 -33q-232 0 -377 60.5t-213.5 186t-68.5 326.5q0 176 63.5 303t188 195.5t302.5 68.5q252 0 382.5 -152t130.5 -429v-106zM531.5 840q-26.5 -18 -40.5 -60t-15 -115h251q-1 73 -14.5 115
t-40 60t-70.5 18t-70.5 -18zM404 1220l-294 396h449l233 -396h-388z" />
    <glyph glyph-name="uni1EBB" unicode="&#x1ebb;" horiz-adv-x="1163" 
d="M1120 431h-642q6 -53 34 -82t89.5 -42t173.5 -13q123 0 280 29v-312q-172 -33 -343 -33q-232 0 -377 60.5t-213.5 186t-68.5 326.5q0 176 63.5 303t188 195.5t302.5 68.5q252 0 382.5 -152t130.5 -429v-106zM531.5 840q-26.5 -18 -40.5 -60t-15 -115h251q-1 73 -14.5 115
t-40 60t-70.5 18t-70.5 -18zM526.5 1313.5q26.5 34.5 69.5 66.5q26 20 36.5 31.5t10.5 26.5q0 20 -20 28.5t-65 8.5q-82 0 -171 -24v151q40 12 98 19t107 7q136 0 201 -39t65 -123q0 -37 -12 -63t-28.5 -43t-44.5 -39q-35 -27 -52.5 -47.5t-21.5 -53.5h-202q3 59 29.5 93.5z
" />
    <glyph glyph-name="uni0207" unicode="&#x207;" horiz-adv-x="1163" 
d="M1120 431h-642q6 -53 34 -82t89.5 -42t173.5 -13q123 0 280 29v-312q-172 -33 -343 -33q-232 0 -377 60.5t-213.5 186t-68.5 326.5q0 176 63.5 303t188 195.5t302.5 68.5q252 0 382.5 -152t130.5 -429v-106zM531.5 840q-26.5 -18 -40.5 -60t-15 -115h251q-1 73 -14.5 115
t-40 60t-70.5 18t-70.5 -18zM306 1523q105 93 292 93q185 0 291 -93.5t116 -274.5h-251q-7 84 -45.5 124t-110.5 40q-75 0 -112 -39.5t-44 -124.5h-251q10 182 115 275z" />
    <glyph glyph-name="emacron" unicode="&#x113;" horiz-adv-x="1163" 
d="M1120 431h-642q6 -53 34 -82t89.5 -42t173.5 -13q123 0 280 29v-312q-172 -33 -343 -33q-232 0 -377 60.5t-213.5 186t-68.5 326.5q0 176 63.5 303t188 195.5t302.5 68.5q252 0 382.5 -152t130.5 -429v-106zM531.5 840q-26.5 -18 -40.5 -60t-15 -115h251q-1 73 -14.5 115
t-40 60t-70.5 18t-70.5 -18zM212 1295v248h772v-248h-772z" />
    <glyph glyph-name="uni1E17" unicode="&#x1e17;" horiz-adv-x="1163" 
d="M1120 431h-642q6 -53 34 -82t89.5 -42t173.5 -13q123 0 280 29v-312q-172 -33 -343 -33q-232 0 -377 60.5t-213.5 186t-68.5 326.5q0 176 63.5 303t188 195.5t302.5 68.5q252 0 382.5 -152t130.5 -429v-106zM531.5 840q-26.5 -18 -40.5 -60t-15 -115h251q-1 73 -14.5 115
t-40 60t-70.5 18t-70.5 -18zM212 1295v248h772v-248h-772zM405 1682l183 316h445l-246 -316h-382z" />
    <glyph glyph-name="uni1E15" unicode="&#x1e15;" horiz-adv-x="1163" 
d="M1120 431h-642q6 -53 34 -82t89.5 -42t173.5 -13q123 0 280 29v-312q-172 -33 -343 -33q-232 0 -377 60.5t-213.5 186t-68.5 326.5q0 176 63.5 303t188 195.5t302.5 68.5q252 0 382.5 -152t130.5 -429v-106zM531.5 840q-26.5 -18 -40.5 -60t-15 -115h251q-1 73 -14.5 115
t-40 60t-70.5 18t-70.5 -18zM212 1295v248h772v-248h-772zM407 1682l-246 316h445l183 -316h-382z" />
    <glyph glyph-name="eogonek" unicode="&#x119;" horiz-adv-x="1163" 
d="M1120 431h-642q6 -53 34 -82t89.5 -42t173.5 -13q123 0 280 29v-312q-132 -48 -184 -102t-52 -117q0 -43 30 -67.5t88 -24.5q54 0 118 25v-155q-43 -15 -84 -22.5t-96 -7.5q-144 0 -218.5 59.5t-74.5 164.5q0 64 27 117t89 97q-227 2 -369 63t-209 186.5t-67 323.5
q0 176 63.5 303t188 195.5t302.5 68.5q252 0 382.5 -152t130.5 -429v-106zM531.5 830q-26.5 -18 -40.5 -60t-15 -115h251q-1 73 -14.5 115t-40 60t-70.5 18t-70.5 -18z" />
    <glyph glyph-name="uni1EBD" unicode="&#x1ebd;" horiz-adv-x="1163" 
d="M1120 431h-642q6 -53 34 -82t89.5 -42t173.5 -13q123 0 280 29v-312q-172 -33 -343 -33q-232 0 -377 60.5t-213.5 186t-68.5 326.5q0 176 63.5 303t188 195.5t302.5 68.5q252 0 382.5 -152t130.5 -429v-106zM531.5 840q-26.5 -18 -40.5 -60t-15 -115h251q-1 73 -14.5 115
t-40 60t-70.5 18t-70.5 -18zM678.5 1258.5q-41.5 13.5 -98.5 39.5q-55 24 -88.5 35t-69.5 11q-60 0 -109 -21.5t-101 -69.5v256q45 44 97 64t121 20q46 0 87.5 -13.5t98.5 -39.5q55 -24 88.5 -35t69.5 -11q60 0 109 21.5t101 69.5v-256q-45 -44 -97 -64t-121 -20
q-46 0 -87.5 13.5z" />
    <glyph glyph-name="uni0259" unicode="&#x259;" horiz-adv-x="1163" 
d="M828 1061.5q145 -60.5 213.5 -186t68.5 -326.5q0 -176 -63.5 -303t-188 -195.5t-302.5 -68.5q-252 0 -382.5 152t-130.5 429v106h642q-6 53 -34 82t-89.5 42t-173.5 13q-123 0 -280 -29v312q172 33 343 33q232 0 377 -60.5zM631.5 260q26.5 18 40.5 60t15 115h-251
q1 -73 14.5 -115t40 -60t70.5 -18t70.5 18z" />
    <glyph glyph-name="f" unicode="f" horiz-adv-x="861" 
d="M660.5 1263q-48.5 -40 -48.5 -122v-41h253v-331h-253v-769h-423v769h-160v331h160v21q0 159 64.5 275t189.5 178t302 62q85 0 169 -12v-327q-54 6 -97 6q-108 0 -156.5 -40z" />
    <glyph glyph-name="g" unicode="g" horiz-adv-x="1298" 
d="M134 -418v327q94 -23 187.5 -35t173.5 -12q149 0 214.5 49t65.5 158v50h-19q-47 -60 -115.5 -90.5t-156.5 -30.5q-116 0 -214 60t-157.5 180t-59.5 290q0 283 166.5 436t501.5 154q122 0 251.5 -18t228.5 -51v-899q0 -213 -72.5 -347.5t-220 -198.5t-377.5 -64
q-217 0 -397 42zM775 364v428q-47 9 -92 9q-101 0 -152 -55.5t-51 -182.5q0 -124 43 -173.5t132 -49.5q68 0 120 24z" />
    <glyph glyph-name="uni01F5" unicode="&#x1f5;" horiz-adv-x="1298" 
d="M134 -418v327q94 -23 187.5 -35t173.5 -12q149 0 214.5 49t65.5 158v50h-19q-47 -60 -115.5 -90.5t-156.5 -30.5q-116 0 -214 60t-157.5 180t-59.5 290q0 283 166.5 436t501.5 154q122 0 251.5 -18t228.5 -51v-899q0 -213 -72.5 -347.5t-220 -198.5t-377.5 -64
q-217 0 -397 42zM775 364v428q-47 9 -92 9q-101 0 -152 -55.5t-51 -182.5q0 -124 43 -173.5t132 -49.5q68 0 120 24zM482 1220l233 396h449l-294 -396h-388z" />
    <glyph glyph-name="gbreve" unicode="&#x11f;" horiz-adv-x="1298" 
d="M134 -418v327q94 -23 187.5 -35t173.5 -12q149 0 214.5 49t65.5 158v50h-19q-47 -60 -115.5 -90.5t-156.5 -30.5q-116 0 -214 60t-157.5 180t-59.5 290q0 283 166.5 436t501.5 154q122 0 251.5 -18t228.5 -51v-899q0 -213 -72.5 -347.5t-220 -198.5t-377.5 -64
q-217 0 -397 42zM775 364v428q-47 9 -92 9q-101 0 -152 -55.5t-51 -182.5q0 -124 43 -173.5t132 -49.5q68 0 120 24zM384.5 1321.5q-105.5 93.5 -115.5 274.5h251q7 -82 45.5 -121.5t110.5 -39.5t110.5 39.5t45.5 121.5h251q-10 -181 -115.5 -274.5t-291.5 -93.5
t-291.5 93.5z" />
    <glyph glyph-name="gcaron" unicode="&#x1e7;" horiz-adv-x="1298" 
d="M134 -418v327q94 -23 187.5 -35t173.5 -12q149 0 214.5 49t65.5 158v50h-19q-47 -60 -115.5 -90.5t-156.5 -30.5q-116 0 -214 60t-157.5 180t-59.5 290q0 283 166.5 436t501.5 154q122 0 251.5 -18t228.5 -51v-899q0 -213 -72.5 -347.5t-220 -198.5t-377.5 -64
q-217 0 -397 42zM775 364v428q-47 9 -92 9q-101 0 -152 -55.5t-51 -182.5q0 -124 43 -173.5t132 -49.5q68 0 120 24zM790 1616h295l-239 -396h-340l-239 396h295l114 -204z" />
    <glyph glyph-name="gcircumflex" unicode="&#x11d;" horiz-adv-x="1298" 
d="M134 -418v327q94 -23 187.5 -35t173.5 -12q149 0 214.5 49t65.5 158v50h-19q-47 -60 -115.5 -90.5t-156.5 -30.5q-116 0 -214 60t-157.5 180t-59.5 290q0 283 166.5 436t501.5 154q122 0 251.5 -18t228.5 -51v-899q0 -213 -72.5 -347.5t-220 -198.5t-377.5 -64
q-217 0 -397 42zM775 364v428q-47 9 -92 9q-101 0 -152 -55.5t-51 -182.5q0 -124 43 -173.5t132 -49.5q68 0 120 24zM1085 1220h-295l-114 204l-114 -204h-295l239 396h340z" />
    <glyph glyph-name="gcommaaccent" unicode="&#x123;" horiz-adv-x="1298" 
d="M134 -418v327q94 -23 187.5 -35t173.5 -12q149 0 214.5 49t65.5 158v50h-19q-47 -60 -115.5 -90.5t-156.5 -30.5q-116 0 -214 60t-157.5 180t-59.5 290q0 283 166.5 436t501.5 154q122 0 251.5 -18t228.5 -51v-899q0 -213 -72.5 -347.5t-220 -198.5t-377.5 -64
q-217 0 -397 42zM775 364v428q-47 9 -92 9q-101 0 -152 -55.5t-51 -182.5q0 -124 43 -173.5t132 -49.5q68 0 120 24zM904 1346q0 -134 -228 -134t-228 176q0 60 26 126t66 112h262q-27 -48 -41.5 -82.5t-21.5 -66.5q165 -17 165 -131z" />
    <glyph glyph-name="gdotaccent" unicode="&#x121;" horiz-adv-x="1298" 
d="M134 -418v327q94 -23 187.5 -35t173.5 -12q149 0 214.5 49t65.5 158v50h-19q-47 -60 -115.5 -90.5t-156.5 -30.5q-116 0 -214 60t-157.5 180t-59.5 290q0 283 166.5 436t501.5 154q122 0 251.5 -18t228.5 -51v-899q0 -213 -72.5 -347.5t-220 -198.5t-377.5 -64
q-217 0 -397 42zM775 364v428q-47 9 -92 9q-101 0 -152 -55.5t-51 -182.5q0 -124 43 -173.5t132 -49.5q68 0 120 24zM421 1418q0 210 255 210t255 -210t-255 -210t-255 210z" />
    <glyph glyph-name="uni1E21" unicode="&#x1e21;" horiz-adv-x="1298" 
d="M134 -418v327q94 -23 187.5 -35t173.5 -12q149 0 214.5 49t65.5 158v50h-19q-47 -60 -115.5 -90.5t-156.5 -30.5q-116 0 -214 60t-157.5 180t-59.5 290q0 283 166.5 436t501.5 154q122 0 251.5 -18t228.5 -51v-899q0 -213 -72.5 -347.5t-220 -198.5t-377.5 -64
q-217 0 -397 42zM775 364v428q-47 9 -92 9q-101 0 -152 -55.5t-51 -182.5q0 -124 43 -173.5t132 -49.5q68 0 120 24zM290 1295v248h772v-248h-772z" />
    <glyph glyph-name="h" unicode="h" horiz-adv-x="1281" 
d="M97 1616h426v-619h19q104 121 281 121q106 0 188.5 -47.5t130.5 -150.5t48 -262v-658h-426v627q0 70 -26.5 98.5t-79.5 28.5q-38 0 -74.5 -14t-60.5 -37v-703h-426v1616z" />
    <glyph glyph-name="hbar" unicode="&#x127;" horiz-adv-x="1281" 
d="M1011.5 1070.5q82.5 -47.5 130.5 -150.5t48 -262v-658h-426v627q0 70 -26.5 98.5t-79.5 28.5q-38 0 -74.5 -14t-60.5 -37v-703h-426v1220h-95v260h95v136h426v-136h326v-260h-326v-223h19q104 121 281 121q106 0 188.5 -47.5z" />
    <glyph glyph-name="uni1E2B" unicode="&#x1e2b;" horiz-adv-x="1281" 
d="M97 1616h426v-619h19q104 121 281 121q106 0 188.5 -47.5t130.5 -150.5t48 -262v-658h-426v627q0 70 -26.5 98.5t-79.5 28.5q-38 0 -74.5 -14t-60.5 -37v-703h-426v1616zM349 -391q-106 90 -112 252h251q3 -70 41.5 -104t114.5 -34q75 0 113.5 34t42.5 104h251
q-6 -162 -112 -252t-295 -90t-295 90z" />
    <glyph glyph-name="hcircumflex" unicode="&#x125;" horiz-adv-x="1281" 
d="M97 1616h426v-619h19q104 121 281 121q106 0 188.5 -47.5t130.5 -150.5t48 -262v-658h-426v627q0 70 -26.5 98.5t-79.5 28.5q-38 0 -74.5 -14t-60.5 -37v-703h-426v1616zM1084 1682h-311l-129 166l-129 -166h-311l263 316h354z" />
    <glyph glyph-name="uni1E25" unicode="&#x1e25;" horiz-adv-x="1281" 
d="M97 1616h426v-619h19q104 121 281 121q106 0 188.5 -47.5t130.5 -150.5t48 -262v-658h-426v627q0 70 -26.5 98.5t-79.5 28.5q-38 0 -74.5 -14t-60.5 -37v-703h-426v1616zM481.5 -447.5q-56.5 52.5 -56.5 145.5t56.5 145.5t162.5 52.5t162.5 -52.5t56.5 -145.5
t-56.5 -145.5t-162.5 -52.5t-162.5 52.5z" />
    <glyph glyph-name="i" unicode="i" horiz-adv-x="621" 
d="M97 0v1100h427v-1100h-427zM55 1418q0 210 255 210t255 -210t-255 -210t-255 210z" />
    <glyph glyph-name="dotlessi" unicode="&#x131;" horiz-adv-x="621" 
d="M97 0v1100h427v-1100h-427z" />
    <glyph glyph-name="iacute" unicode="&#xed;" horiz-adv-x="621" 
d="M97 0v1100h427v-1100h-427zM116 1220l233 396h449l-294 -396h-388z" />
    <glyph glyph-name="ibreve" unicode="&#x12d;" horiz-adv-x="621" 
d="M97 0v1100h427v-1100h-427zM18.5 1321.5q-105.5 93.5 -115.5 274.5h251q7 -82 45.5 -121.5t110.5 -39.5t110.5 39.5t45.5 121.5h251q-10 -181 -115.5 -274.5t-291.5 -93.5t-291.5 93.5z" />
    <glyph glyph-name="icircumflex" unicode="&#xee;" horiz-adv-x="621" 
d="M97 0v1100h427v-1100h-427zM719 1220h-295l-114 204l-114 -204h-295l239 396h340z" />
    <glyph glyph-name="uni0209" unicode="&#x209;" horiz-adv-x="621" 
d="M97 0v1100h427v-1100h-427zM-71 1220l-172 396h330l152 -396h-310zM381 1220l-172 396h331l151 -396h-310z" />
    <glyph glyph-name="idieresis" unicode="&#xef;" horiz-adv-x="621" 
d="M97 0v1100h427v-1100h-427zM-117 1268.5q-57 53.5 -57 149.5t57 149.5t163 53.5t162.5 -53.5t56.5 -149.5t-56.5 -149.5t-162.5 -53.5t-163 53.5zM411.5 1268.5q-56.5 53.5 -56.5 149.5t56.5 149.5t162.5 53.5t163 -53.5t57 -149.5t-57 -149.5t-163 -53.5t-162.5 53.5z
" />
    <glyph glyph-name="uni1E2F" unicode="&#x1e2f;" horiz-adv-x="621" 
d="M97 0v1100h427v-1100h-427zM-117 1268.5q-57 53.5 -57 149.5t57 149.5t163 53.5t162.5 -53.5t56.5 -149.5t-56.5 -149.5t-162.5 -53.5t-163 53.5zM411.5 1268.5q-56.5 53.5 -56.5 149.5t56.5 149.5t162.5 53.5t163 -53.5t57 -149.5t-57 -149.5t-163 -53.5t-162.5 53.5z
M117 1682l183 316h445l-246 -316h-382z" />
    <glyph glyph-name="i.loclTRK" horiz-adv-x="621" 
d="M97 0v1100h427v-1100h-427zM55 1418q0 210 255 210t255 -210t-255 -210t-255 210z" />
    <glyph glyph-name="uni1ECB" unicode="&#x1ecb;" horiz-adv-x="621" 
d="M97 0v1100h427v-1100h-427zM55 1418q0 210 255 210t255 -210t-255 -210t-255 210zM147.5 -447.5q-56.5 52.5 -56.5 145.5t56.5 145.5t162.5 52.5t162.5 -52.5t56.5 -145.5t-56.5 -145.5t-162.5 -52.5t-162.5 52.5z" />
    <glyph glyph-name="igrave" unicode="&#xec;" horiz-adv-x="621" 
d="M97 0v1100h427v-1100h-427zM116 1220l-294 396h449l233 -396h-388z" />
    <glyph glyph-name="uni1EC9" unicode="&#x1ec9;" horiz-adv-x="621" 
d="M97 0v1100h427v-1100h-427zM238.5 1313.5q26.5 34.5 69.5 66.5q26 20 36.5 31.5t10.5 26.5q0 20 -20 28.5t-65 8.5q-82 0 -171 -24v151q40 12 98 19t107 7q136 0 201 -39t65 -123q0 -37 -12 -63t-28.5 -43t-44.5 -39q-35 -27 -52.5 -47.5t-21.5 -53.5h-202
q3 59 29.5 93.5z" />
    <glyph glyph-name="uni020B" unicode="&#x20b;" horiz-adv-x="621" 
d="M97 0v1100h427v-1100h-427zM18 1523q105 93 292 93q185 0 291 -93.5t116 -274.5h-251q-7 84 -45.5 124t-110.5 40q-75 0 -112 -39.5t-44 -124.5h-251q10 182 115 275z" />
    <glyph glyph-name="imacron" unicode="&#x12b;" horiz-adv-x="621" 
d="M97 0v1100h427v-1100h-427zM-76 1295v248h772v-248h-772z" />
    <glyph glyph-name="iogonek" unicode="&#x12f;" horiz-adv-x="621" 
d="M55 1418q0 210 255 210t255 -210t-255 -210t-255 210zM328 -275.5q30 -24.5 88 -24.5q54 0 118 25v-155q-43 -15 -84.5 -22.5t-96.5 -7.5q-143 0 -217.5 59.5t-74.5 164.5q0 72 35 130.5t115 105.5h-114v1100h427v-1100q-128 -47 -177 -96.5t-49 -111.5q0 -43 30 -67.5z
" />
    <glyph glyph-name="itilde" unicode="&#x129;" horiz-adv-x="621" 
d="M97 0v1100h427v-1100h-427zM390.5 1258.5q-41.5 13.5 -98.5 39.5q-55 24 -88.5 35t-69.5 11q-60 0 -109 -21.5t-101 -69.5v256q45 44 97 64t121 20q46 0 87.5 -13.5t98.5 -39.5q55 -24 88.5 -35t69.5 -11q60 0 109 21.5t101 69.5v-256q-45 -44 -97 -64t-121 -20
q-46 0 -87.5 13.5z" />
    <glyph glyph-name="j" unicode="j" horiz-adv-x="621" 
d="M-45 -296q80 106 111 212t31 264v920h427v-904q0 -194 -67.5 -353.5t-228.5 -318.5zM50 1418q0 210 255 210t255 -210t-255 -210t-255 210z" />
    <glyph glyph-name="uni0237" unicode="&#x237;" horiz-adv-x="621" 
d="M-45 -296q80 106 111 212t31 264v920h427v-904q0 -194 -67.5 -353.5t-228.5 -318.5z" />
    <glyph glyph-name="jcircumflex" unicode="&#x135;" horiz-adv-x="621" 
d="M-45 -296q80 106 111 212t31 264v920h427v-904q0 -194 -67.5 -353.5t-228.5 -318.5zM714 1220h-295l-114 204l-114 -204h-295l239 396h340z" />
    <glyph glyph-name="k" unicode="k" horiz-adv-x="1274" 
d="M856 0l-249 398h-84v-398h-426v1616h426v-882h82l224 366h449l-315 -524l352 -576h-459z" />
    <glyph glyph-name="kcommaaccent" unicode="&#x137;" horiz-adv-x="1274" 
d="M856 0l-249 398h-84v-398h-426v1616h426v-882h82l224 366h449l-315 -524l352 -576h-459zM895 -280q0 -60 -26 -126t-66 -112h-262q27 48 41.5 82.5t21.5 66.5q-165 17 -165 131q0 134 228 134t228 -176z" />
    <glyph glyph-name="kgreenlandic" unicode="&#x138;" horiz-adv-x="1274" 
d="M856 0l-249 398h-84v-398h-426v1100h426v-366h82l224 366h449l-315 -524l352 -576h-459z" />
    <glyph glyph-name="l" unicode="l" horiz-adv-x="620" 
d="M97 0v1616h426v-1616h-426z" />
    <glyph glyph-name="lacute" unicode="&#x13a;" horiz-adv-x="620" 
d="M97 0v1616h426v-1616h-426zM117 1682l183 316h445l-246 -316h-382z" />
    <glyph glyph-name="lcaron" unicode="&#x13e;" horiz-adv-x="620" 
d="M97 0v1616h426v-1616h-426zM605.5 1393.5q7.5 98.5 7.5 222.5h277q0 -125 -22.5 -238.5t-62.5 -197.5h-226q19 115 26.5 213.5z" />
    <glyph glyph-name="lcommaaccent" unicode="&#x13c;" horiz-adv-x="620" 
d="M97 0v1616h426v-1616h-426zM537 -280q0 -60 -26 -126t-66 -112h-262q27 48 41.5 82.5t21.5 66.5q-165 17 -165 131q0 134 228 134t228 -176z" />
    <glyph glyph-name="ldot" unicode="&#x140;" horiz-adv-x="1057" 
d="M97 0v1616h426v-1616h-426zM583 794q0 210 254 210q255 0 255 -210t-255 -210q-254 0 -254 210z" />
    <glyph glyph-name="uni1E37" unicode="&#x1e37;" horiz-adv-x="620" 
d="M97 0v1616h426v-1616h-426zM146.5 -447.5q-56.5 52.5 -56.5 145.5t56.5 145.5t162.5 52.5t162.5 -52.5t56.5 -145.5t-56.5 -145.5t-162.5 -52.5t-162.5 52.5z" />
    <glyph glyph-name="uni01C9" unicode="&#x1c9;" horiz-adv-x="1241" 
d="M97 0v1616h426v-1616h-426zM575 -296q80 106 111 212t31 264v920h427v-904q0 -194 -67.5 -353.5t-228.5 -318.5zM670 1418q0 210 255 210t255 -210t-255 -210t-255 210z" />
    <glyph glyph-name="uni1E3B" unicode="&#x1e3b;" horiz-adv-x="620" 
d="M97 0v1616h426v-1616h-426zM-77 -421v246h772v-246h-772z" />
    <glyph glyph-name="lslash" unicode="&#x142;" horiz-adv-x="710" 
d="M754 761l-186 -89v-672h-426v469l-71 -34l-115 232l186 89v860h426v-657l71 34z" />
    <glyph glyph-name="m" unicode="m" horiz-adv-x="1878" 
d="M1683 1006q104 -112 104 -350v-656h-425v632q0 66 -26 94t-74 28q-63 0 -108 -35q1 -15 1 -48v-671h-417v632q0 67 -23.5 94.5t-70.5 27.5q-37 0 -69 -14t-52 -37v-703h-426v1100h350l28 -104h18q113 122 302 122q90 0 162 -33t119 -101q66 67 149.5 100.5t174.5 33.5
q179 0 283 -112z" />
    <glyph glyph-name="uni1E43" unicode="&#x1e43;" horiz-adv-x="1878" 
d="M1683 1006q104 -112 104 -350v-656h-425v632q0 66 -26 94t-74 28q-63 0 -108 -35q1 -15 1 -48v-671h-417v632q0 67 -23.5 94.5t-70.5 27.5q-37 0 -69 -14t-52 -37v-703h-426v1100h350l28 -104h18q113 122 302 122q90 0 162 -33t119 -101q66 67 149.5 100.5t174.5 33.5
q179 0 283 -112zM784.5 -447.5q-56.5 52.5 -56.5 145.5t56.5 145.5t162.5 52.5t162.5 -52.5t56.5 -145.5t-56.5 -145.5t-162.5 -52.5t-162.5 52.5z" />
    <glyph glyph-name="n" unicode="n" horiz-adv-x="1281" 
d="M97 1100h350l28 -104h18q56 59 135 90.5t173 31.5q179 0 284 -112t105 -348v-658h-426v630q0 68 -26.5 96t-79.5 28q-40 0 -75.5 -14t-59.5 -37v-703h-426v1100z" />
    <glyph glyph-name="nacute" unicode="&#x144;" horiz-adv-x="1281" 
d="M97 1100h350l28 -104h18q56 59 135 90.5t173 31.5q179 0 284 -112t105 -348v-658h-426v630q0 68 -26.5 96t-79.5 28q-40 0 -75.5 -14t-59.5 -37v-703h-426v1100zM450 1220l233 396h449l-294 -396h-388z" />
    <glyph glyph-name="napostrophe" unicode="&#x149;" horiz-adv-x="1281" 
d="M97 1100h350l28 -104h18q56 59 135 90.5t173 31.5q179 0 284 -112t105 -348v-658h-426v630q0 68 -26.5 96t-79.5 28q-40 0 -75.5 -14t-59.5 -37v-703h-426v1100zM468 1450q0 -60 -26 -126t-66 -112h-263q27 48 41.5 82.5t21.5 66.5q-165 17 -165 131q0 134 228 134
q229 0 229 -176z" />
    <glyph glyph-name="ncaron" unicode="&#x148;" horiz-adv-x="1281" 
d="M97 1100h350l28 -104h18q56 59 135 90.5t173 31.5q179 0 284 -112t105 -348v-658h-426v630q0 68 -26.5 96t-79.5 28q-40 0 -75.5 -14t-59.5 -37v-703h-426v1100zM758 1616h295l-239 -396h-340l-239 396h295l114 -204z" />
    <glyph glyph-name="ncommaaccent" unicode="&#x146;" horiz-adv-x="1281" 
d="M97 1100h350l28 -104h18q56 59 135 90.5t173 31.5q179 0 284 -112t105 -348v-658h-426v630q0 68 -26.5 96t-79.5 28q-40 0 -75.5 -14t-59.5 -37v-703h-426v1100zM872 -280q0 -60 -26 -126t-66 -112h-262q27 48 41.5 82.5t21.5 66.5q-165 17 -165 131q0 134 228 134
t228 -176z" />
    <glyph glyph-name="uni1E45" unicode="&#x1e45;" horiz-adv-x="1281" 
d="M97 1100h350l28 -104h18q56 59 135 90.5t173 31.5q179 0 284 -112t105 -348v-658h-426v630q0 68 -26.5 96t-79.5 28q-40 0 -75.5 -14t-59.5 -37v-703h-426v1100zM389 1418q0 210 255 210t255 -210t-255 -210t-255 210z" />
    <glyph glyph-name="uni1E47" unicode="&#x1e47;" horiz-adv-x="1281" 
d="M97 1100h350l28 -104h18q56 59 135 90.5t173 31.5q179 0 284 -112t105 -348v-658h-426v630q0 68 -26.5 96t-79.5 28q-40 0 -75.5 -14t-59.5 -37v-703h-426v1100zM481.5 -447.5q-56.5 52.5 -56.5 145.5t56.5 145.5t162.5 52.5t162.5 -52.5t56.5 -145.5t-56.5 -145.5
t-162.5 -52.5t-162.5 52.5z" />
    <glyph glyph-name="eng" unicode="&#x14b;" horiz-adv-x="1281" 
d="M622 -296q80 106 111 212t31 264v452q0 70 -26.5 98.5t-79.5 28.5q-38 0 -74.5 -14t-60.5 -37v-708h-426v1100h350l28 -104h18q58 60 136 91t172 31q179 0 284 -111.5t105 -348.5v-462q0 -195 -67.5 -354.5t-228.5 -317.5z" />
    <glyph glyph-name="uni01CC" unicode="&#x1cc;" horiz-adv-x="1902" 
d="M97 1100h350l28 -104h18q56 59 135 90.5t173 31.5q179 0 284 -112t105 -348v-658h-426v630q0 68 -26.5 96t-79.5 28q-40 0 -75.5 -14t-59.5 -37v-703h-426v1100zM1236 -296q80 106 111 212t31 264v920h427v-904q0 -194 -67.5 -353.5t-228.5 -318.5zM1331 1418
q0 210 255 210t255 -210t-255 -210t-255 210z" />
    <glyph glyph-name="uni1E49" unicode="&#x1e49;" horiz-adv-x="1281" 
d="M97 1100h350l28 -104h18q56 59 135 90.5t173 31.5q179 0 284 -112t105 -348v-658h-426v630q0 68 -26.5 96t-79.5 28q-40 0 -75.5 -14t-59.5 -37v-703h-426v1100zM258 -421v246h772v-246h-772z" />
    <glyph glyph-name="ntilde" unicode="&#xf1;" horiz-adv-x="1281" 
d="M97 1100h350l28 -104h18q56 59 135 90.5t173 31.5q179 0 284 -112t105 -348v-658h-426v630q0 68 -26.5 96t-79.5 28q-40 0 -75.5 -14t-59.5 -37v-703h-426v1100zM724.5 1258.5q-41.5 13.5 -98.5 39.5q-55 24 -88.5 35t-69.5 11q-60 0 -109 -21.5t-101 -69.5v256
q45 44 97 64t121 20q46 0 87.5 -13.5t98.5 -39.5q55 -24 88.5 -35t69.5 -11q60 0 109 21.5t101 69.5v-256q-45 -44 -97 -64t-121 -20q-46 0 -87.5 13.5z" />
    <glyph glyph-name="o" unicode="o" horiz-adv-x="1267" 
d="M322.5 43q-130.5 65 -200 192.5t-69.5 310.5q0 279 150.5 425.5t429.5 146.5q185 0 315 -66t198 -193.5t68 -310.5q0 -184 -70 -311.5t-200 -193t-311 -65.5q-180 0 -310.5 65zM719.5 317.5q33.5 22.5 50.5 77.5t17 151q0 98 -17.5 154t-50.5 78.5t-86 22.5
q-52 0 -85.5 -22.5t-50.5 -78t-17 -152.5t17 -152.5t50 -78t86 -22.5t86.5 22.5z" />
    <glyph glyph-name="oacute" unicode="&#xf3;" horiz-adv-x="1267" 
d="M322.5 43q-130.5 65 -200 192.5t-69.5 310.5q0 279 150.5 425.5t429.5 146.5q185 0 315 -66t198 -193.5t68 -310.5q0 -184 -70 -311.5t-200 -193t-311 -65.5q-180 0 -310.5 65zM719.5 317.5q33.5 22.5 50.5 77.5t17 151q0 98 -17.5 154t-50.5 78.5t-86 22.5
q-52 0 -85.5 -22.5t-50.5 -78t-17 -152.5t17 -152.5t50 -78t86 -22.5t86.5 22.5zM439 1220l233 396h449l-294 -396h-388z" />
    <glyph glyph-name="obreve" unicode="&#x14f;" horiz-adv-x="1267" 
d="M322.5 43q-130.5 65 -200 192.5t-69.5 310.5q0 279 150.5 425.5t429.5 146.5q185 0 315 -66t198 -193.5t68 -310.5q0 -184 -70 -311.5t-200 -193t-311 -65.5q-180 0 -310.5 65zM719.5 317.5q33.5 22.5 50.5 77.5t17 151q0 98 -17.5 154t-50.5 78.5t-86 22.5
q-52 0 -85.5 -22.5t-50.5 -78t-17 -152.5t17 -152.5t50 -78t86 -22.5t86.5 22.5zM341.5 1321.5q-105.5 93.5 -115.5 274.5h251q7 -82 45.5 -121.5t110.5 -39.5t110.5 39.5t45.5 121.5h251q-10 -181 -115.5 -274.5t-291.5 -93.5t-291.5 93.5z" />
    <glyph glyph-name="ocircumflex" unicode="&#xf4;" horiz-adv-x="1267" 
d="M322.5 43q-130.5 65 -200 192.5t-69.5 310.5q0 279 150.5 425.5t429.5 146.5q185 0 315 -66t198 -193.5t68 -310.5q0 -184 -70 -311.5t-200 -193t-311 -65.5q-180 0 -310.5 65zM719.5 317.5q33.5 22.5 50.5 77.5t17 151q0 98 -17.5 154t-50.5 78.5t-86 22.5
q-52 0 -85.5 -22.5t-50.5 -78t-17 -152.5t17 -152.5t50 -78t86 -22.5t86.5 22.5zM1042 1220h-295l-114 204l-114 -204h-295l239 396h340z" />
    <glyph glyph-name="uni1ED1" unicode="&#x1ed1;" horiz-adv-x="1267" 
d="M322.5 43q-130.5 65 -200 192.5t-69.5 310.5q0 279 150.5 425.5t429.5 146.5q185 0 315 -66t198 -193.5t68 -310.5q0 -184 -70 -311.5t-200 -193t-311 -65.5q-180 0 -310.5 65zM719.5 317.5q33.5 22.5 50.5 77.5t17 151q0 98 -17.5 154t-50.5 78.5t-86 22.5
q-52 0 -85.5 -22.5t-50.5 -78t-17 -152.5t17 -152.5t50 -78t86 -22.5t86.5 22.5zM1056 1868h353l-245 -270h-291zM463 1616h340l239 -396h-295l-114 204l-114 -204h-295z" />
    <glyph glyph-name="uni1ED9" unicode="&#x1ed9;" horiz-adv-x="1267" 
d="M322.5 43q-130.5 65 -200 192.5t-69.5 310.5q0 279 150.5 425.5t429.5 146.5q185 0 315 -66t198 -193.5t68 -310.5q0 -184 -70 -311.5t-200 -193t-311 -65.5q-180 0 -310.5 65zM719.5 317.5q33.5 22.5 50.5 77.5t17 151q0 98 -17.5 154t-50.5 78.5t-86 22.5
q-52 0 -85.5 -22.5t-50.5 -78t-17 -152.5t17 -152.5t50 -78t86 -22.5t86.5 22.5zM470.5 -447.5q-56.5 52.5 -56.5 145.5t56.5 145.5t162.5 52.5t162.5 -52.5t56.5 -145.5t-56.5 -145.5t-162.5 -52.5t-162.5 52.5zM1042 1220h-295l-114 204l-114 -204h-295l239 396h340z" />
    <glyph glyph-name="uni1ED3" unicode="&#x1ed3;" horiz-adv-x="1267" 
d="M322.5 43q-130.5 65 -200 192.5t-69.5 310.5q0 279 150.5 425.5t429.5 146.5q185 0 315 -66t198 -193.5t68 -310.5q0 -184 -70 -311.5t-200 -193t-311 -65.5q-180 0 -310.5 65zM719.5 317.5q33.5 22.5 50.5 77.5t17 151q0 98 -17.5 154t-50.5 78.5t-86 22.5
q-52 0 -85.5 -22.5t-50.5 -78t-17 -152.5t17 -152.5t50 -78t86 -22.5t86.5 22.5zM1204 1598h-291l-245 270h353zM463 1616h340l239 -396h-295l-114 204l-114 -204h-295z" />
    <glyph glyph-name="uni1ED5" unicode="&#x1ed5;" horiz-adv-x="1267" 
d="M322.5 43q-130.5 65 -200 192.5t-69.5 310.5q0 279 150.5 425.5t429.5 146.5q185 0 315 -66t198 -193.5t68 -310.5q0 -184 -70 -311.5t-200 -193t-311 -65.5q-180 0 -310.5 65zM719.5 317.5q33.5 22.5 50.5 77.5t17 151q0 98 -17.5 154t-50.5 78.5t-86 22.5
q-52 0 -85.5 -22.5t-50.5 -78t-17 -152.5t17 -152.5t50 -78t86 -22.5t86.5 22.5zM1162.5 1864.5q63.5 -29.5 63.5 -96.5q0 -31 -21.5 -50.5t-62.5 -41.5q-37 -20 -57 -36.5t-25 -41.5h-188q2 32 19 53.5t37.5 34t51.5 26.5q22 10 31 15.5t9 12.5q0 15 -22.5 21.5t-71.5 6.5
q-93 0 -176 -16v122q38 9 99.5 14.5t110.5 5.5q139 0 202.5 -29.5zM463 1616h340l239 -396h-295l-114 204l-114 -204h-295z" />
    <glyph glyph-name="uni1ED7" unicode="&#x1ed7;" horiz-adv-x="1267" 
d="M322.5 43q-130.5 65 -200 192.5t-69.5 310.5q0 279 150.5 425.5t429.5 146.5q185 0 315 -66t198 -193.5t68 -310.5q0 -184 -70 -311.5t-200 -193t-311 -65.5q-180 0 -310.5 65zM719.5 317.5q33.5 22.5 50.5 77.5t17 151q0 98 -17.5 154t-50.5 78.5t-86 22.5
q-52 0 -85.5 -22.5t-50.5 -78t-17 -152.5t17 -152.5t50 -78t86 -22.5t86.5 22.5zM719.5 1604.5q-45.5 8.5 -104.5 25.5q-55 15 -93.5 23t-80.5 8q-64 0 -114 -14.5t-104 -45.5v201q46 34 99 50t127 16q51 0 95.5 -9t106.5 -26q58 -16 95.5 -24t78.5 -8q64 0 114 14.5
t104 45.5v-201q-45 -34 -98 -49t-128 -15q-52 0 -97.5 8.5zM1073 1222h-311l-129 166l-129 -166h-311l263 316h354z" />
    <glyph glyph-name="uni020D" unicode="&#x20d;" horiz-adv-x="1267" 
d="M322.5 43q-130.5 65 -200 192.5t-69.5 310.5q0 279 150.5 425.5t429.5 146.5q185 0 315 -66t198 -193.5t68 -310.5q0 -184 -70 -311.5t-200 -193t-311 -65.5q-180 0 -310.5 65zM719.5 317.5q33.5 22.5 50.5 77.5t17 151q0 98 -17.5 154t-50.5 78.5t-86 22.5
q-52 0 -85.5 -22.5t-50.5 -78t-17 -152.5t17 -152.5t50 -78t86 -22.5t86.5 22.5zM252 1220l-172 396h330l152 -396h-310zM704 1220l-172 396h331l151 -396h-310z" />
    <glyph glyph-name="odieresis" unicode="&#xf6;" horiz-adv-x="1267" 
d="M322.5 43q-130.5 65 -200 192.5t-69.5 310.5q0 279 150.5 425.5t429.5 146.5q185 0 315 -66t198 -193.5t68 -310.5q0 -184 -70 -311.5t-200 -193t-311 -65.5q-180 0 -310.5 65zM719.5 317.5q33.5 22.5 50.5 77.5t17 151q0 98 -17.5 154t-50.5 78.5t-86 22.5
q-52 0 -85.5 -22.5t-50.5 -78t-17 -152.5t17 -152.5t50 -78t86 -22.5t86.5 22.5zM206 1268.5q-57 53.5 -57 149.5t57 149.5t163 53.5t162.5 -53.5t56.5 -149.5t-56.5 -149.5t-162.5 -53.5t-163 53.5zM734.5 1268.5q-56.5 53.5 -56.5 149.5t56.5 149.5t162.5 53.5t163 -53.5
t57 -149.5t-57 -149.5t-163 -53.5t-162.5 53.5z" />
    <glyph glyph-name="uni022B" unicode="&#x22b;" horiz-adv-x="1267" 
d="M322.5 43q-130.5 65 -200 192.5t-69.5 310.5q0 279 150.5 425.5t429.5 146.5q185 0 315 -66t198 -193.5t68 -310.5q0 -184 -70 -311.5t-200 -193t-311 -65.5q-180 0 -310.5 65zM719.5 317.5q33.5 22.5 50.5 77.5t17 151q0 98 -17.5 154t-50.5 78.5t-86 22.5
q-52 0 -85.5 -22.5t-50.5 -78t-17 -152.5t17 -152.5t50 -78t86 -22.5t86.5 22.5zM206 1268.5q-57 53.5 -57 149.5t57 149.5t163 53.5t162.5 -53.5t56.5 -149.5t-56.5 -149.5t-162.5 -53.5t-163 53.5zM734.5 1268.5q-56.5 53.5 -56.5 149.5t56.5 149.5t162.5 53.5t163 -53.5
t57 -149.5t-57 -149.5t-163 -53.5t-162.5 53.5zM247 1711v248h772v-248h-772z" />
    <glyph glyph-name="uni0231" unicode="&#x231;" horiz-adv-x="1267" 
d="M322.5 43q-130.5 65 -200 192.5t-69.5 310.5q0 279 150.5 425.5t429.5 146.5q185 0 315 -66t198 -193.5t68 -310.5q0 -184 -70 -311.5t-200 -193t-311 -65.5q-180 0 -310.5 65zM719.5 317.5q33.5 22.5 50.5 77.5t17 151q0 98 -17.5 154t-50.5 78.5t-86 22.5
q-52 0 -85.5 -22.5t-50.5 -78t-17 -152.5t17 -152.5t50 -78t86 -22.5t86.5 22.5zM378 1418q0 210 255 210t255 -210t-255 -210t-255 210zM247 1715v248h772v-248h-772z" />
    <glyph glyph-name="uni1ECD" unicode="&#x1ecd;" horiz-adv-x="1267" 
d="M322.5 43q-130.5 65 -200 192.5t-69.5 310.5q0 279 150.5 425.5t429.5 146.5q185 0 315 -66t198 -193.5t68 -310.5q0 -184 -70 -311.5t-200 -193t-311 -65.5q-180 0 -310.5 65zM719.5 317.5q33.5 22.5 50.5 77.5t17 151q0 98 -17.5 154t-50.5 78.5t-86 22.5
q-52 0 -85.5 -22.5t-50.5 -78t-17 -152.5t17 -152.5t50 -78t86 -22.5t86.5 22.5zM470.5 -447.5q-56.5 52.5 -56.5 145.5t56.5 145.5t162.5 52.5t162.5 -52.5t56.5 -145.5t-56.5 -145.5t-162.5 -52.5t-162.5 52.5z" />
    <glyph glyph-name="ograve" unicode="&#xf2;" horiz-adv-x="1267" 
d="M322.5 43q-130.5 65 -200 192.5t-69.5 310.5q0 279 150.5 425.5t429.5 146.5q185 0 315 -66t198 -193.5t68 -310.5q0 -184 -70 -311.5t-200 -193t-311 -65.5q-180 0 -310.5 65zM719.5 317.5q33.5 22.5 50.5 77.5t17 151q0 98 -17.5 154t-50.5 78.5t-86 22.5
q-52 0 -85.5 -22.5t-50.5 -78t-17 -152.5t17 -152.5t50 -78t86 -22.5t86.5 22.5zM439 1220l-294 396h449l233 -396h-388z" />
    <glyph glyph-name="uni1ECF" unicode="&#x1ecf;" horiz-adv-x="1267" 
d="M322.5 43q-130.5 65 -200 192.5t-69.5 310.5q0 279 150.5 425.5t429.5 146.5q185 0 315 -66t198 -193.5t68 -310.5q0 -184 -70 -311.5t-200 -193t-311 -65.5q-180 0 -310.5 65zM719.5 317.5q33.5 22.5 50.5 77.5t17 151q0 98 -17.5 154t-50.5 78.5t-86 22.5
q-52 0 -85.5 -22.5t-50.5 -78t-17 -152.5t17 -152.5t50 -78t86 -22.5t86.5 22.5zM561.5 1313.5q26.5 34.5 69.5 66.5q26 20 36.5 31.5t10.5 26.5q0 20 -20 28.5t-65 8.5q-82 0 -171 -24v151q40 12 98 19t107 7q136 0 201 -39t65 -123q0 -37 -12 -63t-28.5 -43t-44.5 -39
q-35 -27 -52.5 -47.5t-21.5 -53.5h-202q3 59 29.5 93.5z" />
    <glyph glyph-name="ohorn" unicode="&#x1a1;" horiz-adv-x="1267" 
d="M1222.5 1049.5q-48.5 -73.5 -137.5 -105.5q129 -143 129 -396q0 -184 -70 -311.5t-200 -193t-311 -65.5q-180 0 -310.5 65t-200 192.5t-69.5 310.5q0 280 152 426t438 146q45 0 124 -7q52 -4 67 -4q87 0 129.5 34.5t42.5 116.5q0 63 -14 138h261q18 -68 18 -156
q0 -117 -48.5 -190.5zM719.5 317.5q33.5 22.5 50.5 77.5t17 151q0 98 -17.5 154t-50.5 78.5t-86 22.5q-52 0 -85.5 -22.5t-50.5 -78t-17 -152.5t17 -152.5t50 -78t86 -22.5t86.5 22.5z" />
    <glyph glyph-name="uni1EDB" unicode="&#x1edb;" horiz-adv-x="1267" 
d="M1074 1616l-272 -396h-358l215 396h415zM1222.5 1049.5q-48.5 -73.5 -137.5 -105.5q129 -143 129 -396q0 -184 -70 -311.5t-200 -193t-311 -65.5q-180 0 -310.5 65t-200 192.5t-69.5 310.5q0 280 152 426t438 146q45 0 124 -7q52 -4 67 -4q87 0 129.5 34.5t42.5 116.5
q0 63 -14 138h261q18 -68 18 -156q0 -117 -48.5 -190.5zM719.5 317.5q33.5 22.5 50.5 77.5t17 151q0 98 -17.5 154t-50.5 78.5t-86 22.5q-52 0 -85.5 -22.5t-50.5 -78t-17 -152.5t17 -152.5t50 -78t86 -22.5t86.5 22.5z" />
    <glyph glyph-name="uni1EE3" unicode="&#x1ee3;" horiz-adv-x="1267" 
d="M1222.5 1049.5q-48.5 -73.5 -137.5 -105.5q129 -143 129 -396q0 -184 -70 -311.5t-200 -193t-311 -65.5q-180 0 -310.5 65t-200 192.5t-69.5 310.5q0 280 152 426t438 146q45 0 124 -7q52 -4 67 -4q87 0 129.5 34.5t42.5 116.5q0 63 -14 138h261q18 -68 18 -156
q0 -117 -48.5 -190.5zM719.5 317.5q33.5 22.5 50.5 77.5t17 151q0 98 -17.5 154t-50.5 78.5t-86 22.5q-52 0 -85.5 -22.5t-50.5 -78t-17 -152.5t17 -152.5t50 -78t86 -22.5t86.5 22.5zM470.5 -447.5q-56.5 52.5 -56.5 145.5t56.5 145.5t162.5 52.5t162.5 -52.5t56.5 -145.5
t-56.5 -145.5t-162.5 -52.5t-162.5 52.5z" />
    <glyph glyph-name="uni1EDD" unicode="&#x1edd;" horiz-adv-x="1267" 
d="M1222.5 1049.5q-48.5 -73.5 -137.5 -105.5q129 -143 129 -396q0 -184 -70 -311.5t-200 -193t-311 -65.5q-180 0 -310.5 65t-200 192.5t-69.5 310.5q0 280 152 426t438 146q45 0 124 -7q52 -4 67 -4q87 0 129.5 34.5t42.5 116.5q0 63 -14 138h261q18 -68 18 -156
q0 -117 -48.5 -190.5zM719.5 317.5q33.5 22.5 50.5 77.5t17 151q0 98 -17.5 154t-50.5 78.5t-86 22.5q-52 0 -85.5 -22.5t-50.5 -78t-17 -152.5t17 -152.5t50 -78t86 -22.5t86.5 22.5zM429 1220l-294 396h449l233 -396h-388z" />
    <glyph glyph-name="uni1EDF" unicode="&#x1edf;" horiz-adv-x="1267" 
d="M1222.5 1049.5q-48.5 -73.5 -137.5 -105.5q129 -143 129 -396q0 -184 -70 -311.5t-200 -193t-311 -65.5q-180 0 -310.5 65t-200 192.5t-69.5 310.5q0 280 152 426t438 146q45 0 124 -7q52 -4 67 -4q87 0 129.5 34.5t42.5 116.5q0 63 -14 138h261q18 -68 18 -156
q0 -117 -48.5 -190.5zM719.5 317.5q33.5 22.5 50.5 77.5t17 151q0 98 -17.5 154t-50.5 78.5t-86 22.5q-52 0 -85.5 -22.5t-50.5 -78t-17 -152.5t17 -152.5t50 -78t86 -22.5t86.5 22.5zM551.5 1313.5q26.5 34.5 69.5 66.5q26 20 36.5 31.5t10.5 26.5q0 20 -20 28.5t-65 8.5
q-82 0 -171 -24v151q40 12 98 19t107 7q136 0 201 -39t65 -123q0 -37 -12 -63t-28.5 -43t-44.5 -39q-35 -27 -52.5 -47.5t-21.5 -53.5h-202q3 59 29.5 93.5z" />
    <glyph glyph-name="uni1EE1" unicode="&#x1ee1;" horiz-adv-x="1267" 
d="M674 1258.5q-38 13.5 -88 39.5q-49 24 -79 35t-65 11q-52 0 -98 -21.5t-97 -69.5v256q44 44 93 64t109 20q45 0 83 -13.5t88 -39.5q49 -24 79 -35t65 -11q52 0 98.5 21.5t97.5 69.5v-256q-45 -44 -94 -64t-109 -20q-45 0 -83 13.5zM1222.5 1049.5
q-48.5 -73.5 -137.5 -105.5q129 -143 129 -396q0 -184 -70 -311.5t-200 -193t-311 -65.5q-180 0 -310.5 65t-200 192.5t-69.5 310.5q0 280 152 426t438 146q45 0 124 -7q52 -4 67 -4q87 0 129.5 34.5t42.5 116.5q0 63 -14 138h261q18 -68 18 -156q0 -117 -48.5 -190.5z
M719.5 317.5q33.5 22.5 50.5 77.5t17 151q0 98 -17.5 154t-50.5 78.5t-86 22.5q-52 0 -85.5 -22.5t-50.5 -78t-17 -152.5t17 -152.5t50 -78t86 -22.5t86.5 22.5z" />
    <glyph glyph-name="ohungarumlaut" unicode="&#x151;" horiz-adv-x="1267" 
d="M322.5 43q-130.5 65 -200 192.5t-69.5 310.5q0 279 150.5 425.5t429.5 146.5q185 0 315 -66t198 -193.5t68 -310.5q0 -184 -70 -311.5t-200 -193t-311 -65.5q-180 0 -310.5 65zM719.5 317.5q33.5 22.5 50.5 77.5t17 151q0 98 -17.5 154t-50.5 78.5t-86 22.5
q-52 0 -85.5 -22.5t-50.5 -78t-17 -152.5t17 -152.5t50 -78t86 -22.5t86.5 22.5zM251 1220l152 396h331l-172 -396h-311zM704 1220l152 396h331l-172 -396h-311z" />
    <glyph glyph-name="uni020F" unicode="&#x20f;" horiz-adv-x="1267" 
d="M322.5 43q-130.5 65 -200 192.5t-69.5 310.5q0 279 150.5 425.5t429.5 146.5q185 0 315 -66t198 -193.5t68 -310.5q0 -184 -70 -311.5t-200 -193t-311 -65.5q-180 0 -310.5 65zM719.5 317.5q33.5 22.5 50.5 77.5t17 151q0 98 -17.5 154t-50.5 78.5t-86 22.5
q-52 0 -85.5 -22.5t-50.5 -78t-17 -152.5t17 -152.5t50 -78t86 -22.5t86.5 22.5zM341 1523q105 93 292 93q185 0 291 -93.5t116 -274.5h-251q-7 84 -45.5 124t-110.5 40q-75 0 -112 -39.5t-44 -124.5h-251q10 182 115 275z" />
    <glyph glyph-name="omacron" unicode="&#x14d;" horiz-adv-x="1267" 
d="M322.5 43q-130.5 65 -200 192.5t-69.5 310.5q0 279 150.5 425.5t429.5 146.5q185 0 315 -66t198 -193.5t68 -310.5q0 -184 -70 -311.5t-200 -193t-311 -65.5q-180 0 -310.5 65zM719.5 317.5q33.5 22.5 50.5 77.5t17 151q0 98 -17.5 154t-50.5 78.5t-86 22.5
q-52 0 -85.5 -22.5t-50.5 -78t-17 -152.5t17 -152.5t50 -78t86 -22.5t86.5 22.5zM247 1295v248h772v-248h-772z" />
    <glyph glyph-name="uni1E53" unicode="&#x1e53;" horiz-adv-x="1267" 
d="M322.5 43q-130.5 65 -200 192.5t-69.5 310.5q0 279 150.5 425.5t429.5 146.5q185 0 315 -66t198 -193.5t68 -310.5q0 -184 -70 -311.5t-200 -193t-311 -65.5q-180 0 -310.5 65zM719.5 317.5q33.5 22.5 50.5 77.5t17 151q0 98 -17.5 154t-50.5 78.5t-86 22.5
q-52 0 -85.5 -22.5t-50.5 -78t-17 -152.5t17 -152.5t50 -78t86 -22.5t86.5 22.5zM247 1295v248h772v-248h-772zM440 1682l183 316h445l-246 -316h-382z" />
    <glyph glyph-name="uni1E51" unicode="&#x1e51;" horiz-adv-x="1267" 
d="M322.5 43q-130.5 65 -200 192.5t-69.5 310.5q0 279 150.5 425.5t429.5 146.5q185 0 315 -66t198 -193.5t68 -310.5q0 -184 -70 -311.5t-200 -193t-311 -65.5q-180 0 -310.5 65zM719.5 317.5q33.5 22.5 50.5 77.5t17 151q0 98 -17.5 154t-50.5 78.5t-86 22.5
q-52 0 -85.5 -22.5t-50.5 -78t-17 -152.5t17 -152.5t50 -78t86 -22.5t86.5 22.5zM247 1295v248h772v-248h-772zM442 1682l-246 316h445l183 -316h-382z" />
    <glyph glyph-name="uni01EB" unicode="&#x1eb;" horiz-adv-x="1267" 
d="M948 1052q130 -66 198 -193.5t68 -310.5q0 -204 -85 -338t-245 -193q-99 -37 -154 -73t-75 -70.5t-20 -75.5q0 -45 30 -71.5t88 -26.5q55 0 117 25v-155q-43 -15 -84 -22.5t-96 -7.5q-143 0 -217.5 59.5t-74.5 164.5q0 69 30 123t95 98q-223 28 -346.5 172t-123.5 389
q0 279 150.5 425.5t429.5 146.5q185 0 315 -66zM719.5 317.5q33.5 22.5 50.5 77.5t17 151q0 98 -17.5 154t-50.5 78.5t-86 22.5q-52 0 -85.5 -22.5t-50.5 -78t-17 -152.5t17 -152.5t50 -78t86 -22.5t86.5 22.5z" />
    <glyph glyph-name="oslash" unicode="&#xf8;" horiz-adv-x="1267" 
d="M1214 548q0 -184 -70 -311.5t-200 -193t-311 -65.5q-148 0 -259 43l-72 -97l-164 122l63 85q-73 72 -110.5 176.5t-37.5 238.5q0 279 150.5 425.5t429.5 146.5q143 0 255 -40l73 98l164 -122l-62 -84q151 -146 151 -422zM541 784q-36 -23 -55 -80t-19 -156q0 -48 4 -80
l236 326q-32 13 -74 13q-56 0 -92 -23zM727 312q36 23 54.5 79.5t18.5 154.5q0 47 -5 90l-240 -332q30 -15 78 -15q58 0 94 23z" />
    <glyph glyph-name="oslashacute" unicode="&#x1ff;" horiz-adv-x="1267" 
d="M1214 548q0 -184 -70 -311.5t-200 -193t-311 -65.5q-148 0 -259 43l-72 -97l-164 122l63 85q-73 72 -110.5 176.5t-37.5 238.5q0 279 150.5 425.5t429.5 146.5q143 0 255 -40l73 98l164 -122l-62 -84q151 -146 151 -422zM541 784q-36 -23 -55 -80t-19 -156q0 -48 4 -80
l236 326q-32 13 -74 13q-56 0 -92 -23zM727 312q36 23 54.5 79.5t18.5 154.5q0 47 -5 90l-240 -332q30 -15 78 -15q58 0 94 23zM437 1220l233 396h449l-294 -396h-388z" />
    <glyph glyph-name="otilde" unicode="&#xf5;" horiz-adv-x="1267" 
d="M322.5 43q-130.5 65 -200 192.5t-69.5 310.5q0 279 150.5 425.5t429.5 146.5q185 0 315 -66t198 -193.5t68 -310.5q0 -184 -70 -311.5t-200 -193t-311 -65.5q-180 0 -310.5 65zM719.5 317.5q33.5 22.5 50.5 77.5t17 151q0 98 -17.5 154t-50.5 78.5t-86 22.5
q-52 0 -85.5 -22.5t-50.5 -78t-17 -152.5t17 -152.5t50 -78t86 -22.5t86.5 22.5zM713.5 1258.5q-41.5 13.5 -98.5 39.5q-55 24 -88.5 35t-69.5 11q-60 0 -109 -21.5t-101 -69.5v256q45 44 97 64t121 20q46 0 87.5 -13.5t98.5 -39.5q55 -24 88.5 -35t69.5 -11q60 0 109 21.5
t101 69.5v-256q-45 -44 -97 -64t-121 -20q-46 0 -87.5 13.5z" />
    <glyph glyph-name="uni1E4D" unicode="&#x1e4d;" horiz-adv-x="1267" 
d="M322.5 43q-130.5 65 -200 192.5t-69.5 310.5q0 279 150.5 425.5t429.5 146.5q185 0 315 -66t198 -193.5t68 -310.5q0 -184 -70 -311.5t-200 -193t-311 -65.5q-180 0 -310.5 65zM719.5 317.5q33.5 22.5 50.5 77.5t17 151q0 98 -17.5 154t-50.5 78.5t-86 22.5
q-52 0 -85.5 -22.5t-50.5 -78t-17 -152.5t17 -152.5t50 -78t86 -22.5t86.5 22.5zM713.5 1258.5q-41.5 13.5 -98.5 39.5q-55 24 -88.5 35t-69.5 11q-60 0 -109 -21.5t-101 -69.5v256q45 44 97 64t121 20q46 0 87.5 -13.5t98.5 -39.5q55 -24 88.5 -35t69.5 -11q60 0 109 21.5
t101 69.5v-256q-45 -44 -97 -64t-121 -20q-46 0 -87.5 13.5zM440 1682l183 316h445l-246 -316h-382z" />
    <glyph glyph-name="uni1E4F" unicode="&#x1e4f;" horiz-adv-x="1267" 
d="M322.5 43q-130.5 65 -200 192.5t-69.5 310.5q0 279 150.5 425.5t429.5 146.5q185 0 315 -66t198 -193.5t68 -310.5q0 -184 -70 -311.5t-200 -193t-311 -65.5q-180 0 -310.5 65zM719.5 317.5q33.5 22.5 50.5 77.5t17 151q0 98 -17.5 154t-50.5 78.5t-86 22.5
q-52 0 -85.5 -22.5t-50.5 -78t-17 -152.5t17 -152.5t50 -78t86 -22.5t86.5 22.5zM713.5 1258.5q-41.5 13.5 -98.5 39.5q-55 24 -88.5 35t-69.5 11q-60 0 -109 -21.5t-101 -69.5v256q45 44 97 64t121 20q46 0 87.5 -13.5t98.5 -39.5q55 -24 88.5 -35t69.5 -11q60 0 109 21.5
t101 69.5v-256q-45 -44 -97 -64t-121 -20q-46 0 -87.5 13.5zM206 1684.5q-57 53.5 -57 149.5t57 149.5t163 53.5t162.5 -53.5t56.5 -149.5t-56.5 -149.5t-162.5 -53.5t-163 53.5zM734.5 1684.5q-56.5 53.5 -56.5 149.5t56.5 149.5t162.5 53.5t163 -53.5t57 -149.5
t-57 -149.5t-163 -53.5t-162.5 53.5z" />
    <glyph glyph-name="uni022D" unicode="&#x22d;" horiz-adv-x="1267" 
d="M322.5 43q-130.5 65 -200 192.5t-69.5 310.5q0 279 150.5 425.5t429.5 146.5q185 0 315 -66t198 -193.5t68 -310.5q0 -184 -70 -311.5t-200 -193t-311 -65.5q-180 0 -310.5 65zM719.5 317.5q33.5 22.5 50.5 77.5t17 151q0 98 -17.5 154t-50.5 78.5t-86 22.5
q-52 0 -85.5 -22.5t-50.5 -78t-17 -152.5t17 -152.5t50 -78t86 -22.5t86.5 22.5zM713.5 1258.5q-41.5 13.5 -98.5 39.5q-55 24 -88.5 35t-69.5 11q-60 0 -109 -21.5t-101 -69.5v256q45 44 97 64t121 20q46 0 87.5 -13.5t98.5 -39.5q55 -24 88.5 -35t69.5 -11q60 0 109 21.5
t101 69.5v-256q-45 -44 -97 -64t-121 -20q-46 0 -87.5 13.5zM247 1711v248h772v-248h-772z" />
    <glyph glyph-name="oe" unicode="&#x153;" horiz-adv-x="1892" 
d="M1849 431h-634q6 -53 33 -82t87.5 -42t168.5 -13q123 0 280 29v-312q-172 -33 -341 -33q-162 0 -276.5 32.5t-186.5 97.5q-135 -130 -367 -130q-170 0 -296.5 65.5t-195 193t-68.5 309.5q0 185 66.5 313.5t192 193.5t301.5 65q254 0 388 -150q64 72 155 111t204 39
q154 0 264 -68t167.5 -198.5t57.5 -314.5v-106zM1244 815q-29 -43 -31 -150h243q-2 107 -30.5 150t-90.5 43t-91 -43zM719.5 317.5q33.5 22.5 50.5 77.5t17 151q0 98 -17.5 154t-50.5 78.5t-86 22.5q-52 0 -85.5 -22.5t-50.5 -78t-17 -152.5t17 -152.5t50 -78t86 -22.5
t86.5 22.5z" />
    <glyph glyph-name="p" unicode="p" horiz-adv-x="1298" 
d="M97 1100h357l25 -115h18q47 63 119 98t166 35q129 0 233.5 -59t167 -181.5t62.5 -306.5q0 -188 -71.5 -320.5t-212 -202t-345.5 -69.5q-37 0 -93 4v-423h-426v1540zM768.5 352.5q49.5 55.5 49.5 186.5q0 130 -43 182.5t-126 52.5q-34 0 -67.5 -8.5t-58.5 -24.5v-436
q52 -8 91 -8q105 0 154.5 55.5z" />
    <glyph glyph-name="thorn" unicode="&#xfe;" horiz-adv-x="1298" 
d="M97 1616h426v-619h19q47 60 115.5 90.5t156.5 30.5q119 0 217 -60.5t156 -184t58 -302.5q0 -188 -71.5 -320.5t-212 -202t-345.5 -69.5q-37 0 -93 4v-423h-426v2056zM768.5 352.5q49.5 55.5 49.5 186.5q0 130 -44 182t-131 52q-32 0 -64 -7.5t-56 -21.5v-439q52 -8 91 -8
q105 0 154.5 55.5z" />
    <glyph glyph-name="q" unicode="q" horiz-adv-x="1298" 
d="M775 100h-19q-47 -60 -115.5 -90.5t-156.5 -30.5q-119 0 -217 60.5t-156 183.5t-58 301q0 290 165.5 442t501.5 152q123 0 252.5 -18t228.5 -51v-1489h-426v540zM775 348v444q-47 9 -93 9q-101 0 -151.5 -56.5t-50.5 -187.5q0 -129 43.5 -181t131.5 -52q68 0 120 24z" />
    <glyph glyph-name="r" unicode="r" horiz-adv-x="868" 
d="M97 1100h347l33 -139h18q74 157 271 157q45 0 91 -8v-383q-46 10 -118 10q-64 0 -124 -19.5t-92 -52.5v-665h-426v1100z" />
    <glyph glyph-name="racute" unicode="&#x155;" horiz-adv-x="868" 
d="M97 1100h347l33 -139h18q74 157 271 157q45 0 91 -8v-383q-46 10 -118 10q-64 0 -124 -19.5t-92 -52.5v-665h-426v1100zM284 1220l233 396h449l-294 -396h-388z" />
    <glyph glyph-name="rcaron" unicode="&#x159;" horiz-adv-x="868" 
d="M97 1100h347l33 -139h18q74 157 271 157q45 0 91 -8v-383q-46 10 -118 10q-64 0 -124 -19.5t-92 -52.5v-665h-426v1100zM592 1616h295l-239 -396h-340l-239 396h295l114 -204z" />
    <glyph glyph-name="rcommaaccent" unicode="&#x157;" horiz-adv-x="868" 
d="M97 1100h347l33 -139h18q74 157 271 157q45 0 91 -8v-383q-46 10 -118 10q-64 0 -124 -19.5t-92 -52.5v-665h-426v1100zM538 -280q0 -60 -26 -126t-66 -112h-262q27 48 41.5 82.5t21.5 66.5q-165 17 -165 131q0 134 228 134t228 -176z" />
    <glyph glyph-name="uni0211" unicode="&#x211;" horiz-adv-x="868" 
d="M97 1100h347l33 -139h18q74 157 271 157q45 0 91 -8v-383q-46 10 -118 10q-64 0 -124 -19.5t-92 -52.5v-665h-426v1100zM97 1220l-172 396h330l152 -396h-310zM549 1220l-172 396h331l151 -396h-310z" />
    <glyph glyph-name="uni1E5B" unicode="&#x1e5b;" horiz-adv-x="868" 
d="M97 1100h347l33 -139h18q74 157 271 157q45 0 91 -8v-383q-46 10 -118 10q-64 0 -124 -19.5t-92 -52.5v-665h-426v1100zM147.5 -447.5q-56.5 52.5 -56.5 145.5t56.5 145.5t162.5 52.5t162.5 -52.5t56.5 -145.5t-56.5 -145.5t-162.5 -52.5t-162.5 52.5z" />
    <glyph glyph-name="uni0213" unicode="&#x213;" horiz-adv-x="868" 
d="M97 1100h347l33 -139h18q74 157 271 157q45 0 91 -8v-383q-46 10 -118 10q-64 0 -124 -19.5t-92 -52.5v-665h-426v1100zM186 1523q105 93 292 93q185 0 291 -93.5t116 -274.5h-251q-7 84 -45.5 124t-110.5 40q-75 0 -112 -39.5t-44 -124.5h-251q10 182 115 275z" />
    <glyph glyph-name="uni1E5F" unicode="&#x1e5f;" horiz-adv-x="868" 
d="M97 1100h347l33 -139h18q74 157 271 157q45 0 91 -8v-383q-46 10 -118 10q-64 0 -124 -19.5t-92 -52.5v-665h-426v1100zM-76 -421v246h772v-246h-772z" />
    <glyph glyph-name="s" unicode="s" horiz-adv-x="1031" 
d="M78 29v305q81 -24 179 -38t196 -14q83 0 116 14.5t33 42.5q0 18 -11.5 27.5t-41.5 14.5l-198 34q-157 26 -232 107t-75 222q0 116 63 199.5t191 129t318 45.5q85 0 169 -10t148 -27v-305q-63 18 -143.5 28t-160.5 10q-111 0 -151.5 -17t-40.5 -44q0 -16 12 -24.5
t42 -13.5l199 -34q152 -26 228.5 -101.5t76.5 -226.5q0 -116 -63.5 -200.5t-184 -129.5t-286.5 -45q-216 0 -383 51z" />
    <glyph glyph-name="sacute" unicode="&#x15b;" horiz-adv-x="1031" 
d="M78 29v305q81 -24 179 -38t196 -14q83 0 116 14.5t33 42.5q0 18 -11.5 27.5t-41.5 14.5l-198 34q-157 26 -232 107t-75 222q0 116 63 199.5t191 129t318 45.5q85 0 169 -10t148 -27v-305q-63 18 -143.5 28t-160.5 10q-111 0 -151.5 -17t-40.5 -44q0 -16 12 -24.5
t42 -13.5l199 -34q152 -26 228.5 -101.5t76.5 -226.5q0 -116 -63.5 -200.5t-184 -129.5t-286.5 -45q-216 0 -383 51zM325 1220l233 396h449l-294 -396h-388z" />
    <glyph glyph-name="uni1E65" unicode="&#x1e65;" horiz-adv-x="1031" 
d="M78 29v305q81 -24 179 -38t196 -14q83 0 116 14.5t33 42.5q0 18 -11.5 27.5t-41.5 14.5l-198 34q-157 26 -232 107t-75 222q0 116 63 199.5t191 129t318 45.5q85 0 169 -10t148 -27v-305q-63 18 -143.5 28t-160.5 10q-111 0 -151.5 -17t-40.5 -44q0 -16 12 -24.5
t42 -13.5l199 -34q152 -26 228.5 -101.5t76.5 -226.5q0 -116 -63.5 -200.5t-184 -129.5t-286.5 -45q-216 0 -383 51zM147.5 1613.5q-50.5 37.5 -50.5 106.5t50.5 106.5t150.5 37.5t151 -37.5t51 -106.5t-51 -106.5t-151 -37.5t-150.5 37.5zM325 1220l233 396h449l-294 -396
h-388z" />
    <glyph glyph-name="scaron" unicode="&#x161;" horiz-adv-x="1031" 
d="M78 29v305q81 -24 179 -38t196 -14q83 0 116 14.5t33 42.5q0 18 -11.5 27.5t-41.5 14.5l-198 34q-157 26 -232 107t-75 222q0 116 63 199.5t191 129t318 45.5q85 0 169 -10t148 -27v-305q-63 18 -143.5 28t-160.5 10q-111 0 -151.5 -17t-40.5 -44q0 -16 12 -24.5
t42 -13.5l199 -34q152 -26 228.5 -101.5t76.5 -226.5q0 -116 -63.5 -200.5t-184 -129.5t-286.5 -45q-216 0 -383 51zM633 1616h295l-239 -396h-340l-239 396h295l114 -204z" />
    <glyph glyph-name="uni1E67" unicode="&#x1e67;" horiz-adv-x="1031" 
d="M78 29v305q81 -24 179 -38t196 -14q83 0 116 14.5t33 42.5q0 18 -11.5 27.5t-41.5 14.5l-198 34q-157 26 -232 107t-75 222q0 116 63 199.5t191 129t318 45.5q85 0 169 -10t148 -27v-305q-63 18 -143.5 28t-160.5 10q-111 0 -151.5 -17t-40.5 -44q0 -16 12 -24.5
t42 -13.5l199 -34q152 -26 228.5 -101.5t76.5 -226.5q0 -116 -63.5 -200.5t-184 -129.5t-286.5 -45q-216 0 -383 51zM368.5 1693.5q-50.5 37.5 -50.5 106.5t50.5 107t150.5 38t150.5 -38t50.5 -107t-50.5 -106.5t-150.5 -37.5t-150.5 37.5zM633 1616h295l-239 -396h-340
l-239 396h295l114 -204z" />
    <glyph glyph-name="scedilla" unicode="&#x15f;" horiz-adv-x="1031" 
d="M899 116q-96 -94 -270 -124v-69q83 -17 125.5 -65t42.5 -122q0 -93 -72 -144.5t-215 -51.5q-100 0 -189 29v152q37 -13 83.5 -20.5t83.5 -7.5q48 0 71 14t23 48q0 64 -95 64h-52v159q-201 3 -357 51v305q81 -24 179 -38t196 -14q83 0 116 14.5t33 42.5q0 18 -11.5 27.5
t-41.5 14.5l-198 34q-157 26 -232 107t-75 222q0 116 63 199.5t191 129t318 45.5q85 0 169 -10t148 -27v-305q-63 18 -143.5 28t-160.5 10q-111 0 -151.5 -17t-40.5 -44q0 -16 12 -24.5t42 -13.5l199 -34q152 -26 228.5 -101.5t76.5 -226.5q0 -143 -96 -237z" />
    <glyph glyph-name="scircumflex" unicode="&#x15d;" horiz-adv-x="1031" 
d="M78 29v305q81 -24 179 -38t196 -14q83 0 116 14.5t33 42.5q0 18 -11.5 27.5t-41.5 14.5l-198 34q-157 26 -232 107t-75 222q0 116 63 199.5t191 129t318 45.5q85 0 169 -10t148 -27v-305q-63 18 -143.5 28t-160.5 10q-111 0 -151.5 -17t-40.5 -44q0 -16 12 -24.5
t42 -13.5l199 -34q152 -26 228.5 -101.5t76.5 -226.5q0 -116 -63.5 -200.5t-184 -129.5t-286.5 -45q-216 0 -383 51zM928 1220h-295l-114 204l-114 -204h-295l239 396h340z" />
    <glyph glyph-name="scommaaccent" unicode="&#x219;" horiz-adv-x="1031" 
d="M78 29v305q81 -24 179 -38t196 -14q83 0 116 14.5t33 42.5q0 18 -11.5 27.5t-41.5 14.5l-198 34q-157 26 -232 107t-75 222q0 116 63 199.5t191 129t318 45.5q85 0 169 -10t148 -27v-305q-63 18 -143.5 28t-160.5 10q-111 0 -151.5 -17t-40.5 -44q0 -16 12 -24.5
t42 -13.5l199 -34q152 -26 228.5 -101.5t76.5 -226.5q0 -116 -63.5 -200.5t-184 -129.5t-286.5 -45q-216 0 -383 51zM747 -280q0 -60 -26 -126t-66 -112h-262q27 48 41.5 82.5t21.5 66.5q-165 17 -165 131q0 134 228 134t228 -176z" />
    <glyph glyph-name="uni1E61" unicode="&#x1e61;" horiz-adv-x="1031" 
d="M78 29v305q81 -24 179 -38t196 -14q83 0 116 14.5t33 42.5q0 18 -11.5 27.5t-41.5 14.5l-198 34q-157 26 -232 107t-75 222q0 116 63 199.5t191 129t318 45.5q85 0 169 -10t148 -27v-305q-63 18 -143.5 28t-160.5 10q-111 0 -151.5 -17t-40.5 -44q0 -16 12 -24.5
t42 -13.5l199 -34q152 -26 228.5 -101.5t76.5 -226.5q0 -116 -63.5 -200.5t-184 -129.5t-286.5 -45q-216 0 -383 51zM264 1418q0 210 255 210t255 -210t-255 -210t-255 210z" />
    <glyph glyph-name="uni1E63" unicode="&#x1e63;" horiz-adv-x="1031" 
d="M78 29v305q81 -24 179 -38t196 -14q83 0 116 14.5t33 42.5q0 18 -11.5 27.5t-41.5 14.5l-198 34q-157 26 -232 107t-75 222q0 116 63 199.5t191 129t318 45.5q85 0 169 -10t148 -27v-305q-63 18 -143.5 28t-160.5 10q-111 0 -151.5 -17t-40.5 -44q0 -16 12 -24.5
t42 -13.5l199 -34q152 -26 228.5 -101.5t76.5 -226.5q0 -116 -63.5 -200.5t-184 -129.5t-286.5 -45q-216 0 -383 51zM356.5 -447.5q-56.5 52.5 -56.5 145.5t56.5 145.5t162.5 52.5t162.5 -52.5t56.5 -145.5t-56.5 -145.5t-162.5 -52.5t-162.5 52.5z" />
    <glyph glyph-name="uni1E69" unicode="&#x1e69;" horiz-adv-x="1031" 
d="M78 29v305q81 -24 179 -38t196 -14q83 0 116 14.5t33 42.5q0 18 -11.5 27.5t-41.5 14.5l-198 34q-157 26 -232 107t-75 222q0 116 63 199.5t191 129t318 45.5q85 0 169 -10t148 -27v-305q-63 18 -143.5 28t-160.5 10q-111 0 -151.5 -17t-40.5 -44q0 -16 12 -24.5
t42 -13.5l199 -34q152 -26 228.5 -101.5t76.5 -226.5q0 -116 -63.5 -200.5t-184 -129.5t-286.5 -45q-216 0 -383 51zM356.5 -447.5q-56.5 52.5 -56.5 145.5t56.5 145.5t162.5 52.5t162.5 -52.5t56.5 -145.5t-56.5 -145.5t-162.5 -52.5t-162.5 52.5zM264 1418q0 210 255 210
t255 -210t-255 -210t-255 210z" />
    <glyph glyph-name="germandbls" unicode="&#xdf;" horiz-adv-x="1687" 
d="M1574.5 579.5q76.5 -75.5 76.5 -226.5q0 -117 -65 -201t-190.5 -129t-304.5 -45q-84 0 -180 11t-176 31v305q74 -19 171 -31t179 -12q99 0 136 14t37 43q0 18 -11 27.5t-41 14.5l-198 34q-157 26 -232 107t-75 222q0 167 130 261t380 101q-1 124 -74 183.5t-202 59.5
q-164 0 -242 -87t-78 -263v-999h-426v763h-160v337h167q22 167 111.5 287.5t240.5 184.5t353 64q184 0 319.5 -61t211 -188t75.5 -319q0 -66 -9.5 -126.5t-28.5 -134.5q-67 7 -160 7q-127 0 -171.5 -16.5t-44.5 -44.5q0 -16 12 -24.5t43 -13.5l198 -34q152 -26 228.5 -101.5
z" />
    <glyph glyph-name="t" unicode="t" horiz-adv-x="907" 
d="M607 769v-278q0 -64 14 -99.5t46 -50.5t89 -15q35 0 103 10v-331q-48 -11 -109.5 -18.5t-116.5 -7.5q-223 0 -337.5 109t-114.5 337v344h-160v331h160l79 380h347v-380h252v-331h-252z" />
    <glyph glyph-name="tbar" unicode="&#x167;" horiz-adv-x="907" 
d="M607 769v-87h200v-250h-196q9 -59 42 -82.5t103 -23.5q35 0 103 10v-331q-48 -11 -109.5 -18.5t-116.5 -7.5q-223 0 -337.5 109t-114.5 337v7h-105v250h105v87h-160v331h160l79 380h347v-380h252v-331h-252z" />
    <glyph glyph-name="tcaron" unicode="&#x165;" horiz-adv-x="907" 
d="M607 769v-278q0 -64 14 -99.5t46 -50.5t89 -15q35 0 103 10v-331q-48 -11 -109.5 -18.5t-116.5 -7.5q-223 0 -337.5 109t-114.5 337v344h-160v331h160l79 380h347v-380h252v-331h-252zM702.5 1393.5q7.5 98.5 7.5 222.5h277q0 -125 -22.5 -238.5t-62.5 -197.5h-226
q19 115 26.5 213.5z" />
    <glyph glyph-name="uni0163" unicode="&#x163;" horiz-adv-x="907" 
d="M607 769v-278q0 -64 14 -99.5t46 -50.5t89 -15q35 0 103 10v-331q-48 -11 -109.5 -18.5t-116.5 -7.5h-3v-56q83 -17 125.5 -65t42.5 -122q0 -93 -72 -144.5t-215 -51.5q-100 0 -189 29v152q37 -13 83.5 -20.5t83.5 -7.5q48 0 71 14t23 48q0 64 -95 64h-52v187
q-255 82 -255 419v344h-160v331h160l79 380h347v-380h252v-331h-252z" />
    <glyph glyph-name="uni021B" unicode="&#x21b;" horiz-adv-x="907" 
d="M607 769v-278q0 -64 14 -99.5t46 -50.5t89 -15q35 0 103 10v-331q-48 -11 -109.5 -18.5t-116.5 -7.5q-223 0 -337.5 109t-114.5 337v344h-160v331h160l79 380h347v-380h252v-331h-252zM748 -280q0 -60 -26 -126t-66 -112h-262q27 48 41.5 82.5t21.5 66.5
q-165 17 -165 131q0 134 228 134t228 -176z" />
    <glyph glyph-name="uni1E97" unicode="&#x1e97;" horiz-adv-x="907" 
d="M607 769v-278q0 -64 14 -99.5t46 -50.5t89 -15q35 0 103 10v-331q-48 -11 -109.5 -18.5t-116.5 -7.5q-223 0 -337.5 109t-114.5 337v344h-160v331h160l79 380h347v-380h252v-331h-252zM-33 1588.5q-57 53.5 -57 149.5t57 149.5t163 53.5t162.5 -53.5t56.5 -149.5
t-56.5 -149.5t-162.5 -53.5t-163 53.5zM495.5 1588.5q-56.5 53.5 -56.5 149.5t56.5 149.5t162.5 53.5t163 -53.5t57 -149.5t-57 -149.5t-163 -53.5t-162.5 53.5z" />
    <glyph glyph-name="uni1E6D" unicode="&#x1e6d;" horiz-adv-x="907" 
d="M607 769v-278q0 -64 14 -99.5t46 -50.5t89 -15q35 0 103 10v-331q-48 -11 -109.5 -18.5t-116.5 -7.5q-223 0 -337.5 109t-114.5 337v344h-160v331h160l79 380h347v-380h252v-331h-252zM357.5 -447.5q-56.5 52.5 -56.5 145.5t56.5 145.5t162.5 52.5t162.5 -52.5
t56.5 -145.5t-56.5 -145.5t-162.5 -52.5t-162.5 52.5z" />
    <glyph glyph-name="uni1E6F" unicode="&#x1e6f;" horiz-adv-x="907" 
d="M607 769v-278q0 -64 14 -99.5t46 -50.5t89 -15q35 0 103 10v-331q-48 -11 -109.5 -18.5t-116.5 -7.5q-223 0 -337.5 109t-114.5 337v344h-160v331h160l79 380h347v-380h252v-331h-252zM134 -421v246h772v-246h-772z" />
    <glyph glyph-name="u" unicode="u" horiz-adv-x="1272" 
d="M197.5 92.5q-106.5 111.5 -106.5 346.5v661h426v-630q0 -68 25.5 -96.5t74.5 -28.5q36 0 72.5 14.5t59.5 37.5v703h426v-1100h-350l-28 104h-16q-60 -60 -134 -91.5t-160 -31.5q-183 0 -289.5 111.5z" />
    <glyph glyph-name="uacute" unicode="&#xfa;" horiz-adv-x="1272" 
d="M197.5 92.5q-106.5 111.5 -106.5 346.5v661h426v-630q0 -68 25.5 -96.5t74.5 -28.5q36 0 72.5 14.5t59.5 37.5v703h426v-1100h-350l-28 104h-16q-60 -60 -134 -91.5t-160 -31.5q-183 0 -289.5 111.5zM439 1220l233 396h449l-294 -396h-388z" />
    <glyph glyph-name="ubreve" unicode="&#x16d;" horiz-adv-x="1272" 
d="M197.5 92.5q-106.5 111.5 -106.5 346.5v661h426v-630q0 -68 25.5 -96.5t74.5 -28.5q36 0 72.5 14.5t59.5 37.5v703h426v-1100h-350l-28 104h-16q-60 -60 -134 -91.5t-160 -31.5q-183 0 -289.5 111.5zM341.5 1321.5q-105.5 93.5 -115.5 274.5h251q7 -82 45.5 -121.5
t110.5 -39.5t110.5 39.5t45.5 121.5h251q-10 -181 -115.5 -274.5t-291.5 -93.5t-291.5 93.5z" />
    <glyph glyph-name="ucircumflex" unicode="&#xfb;" horiz-adv-x="1272" 
d="M197.5 92.5q-106.5 111.5 -106.5 346.5v661h426v-630q0 -68 25.5 -96.5t74.5 -28.5q36 0 72.5 14.5t59.5 37.5v703h426v-1100h-350l-28 104h-16q-60 -60 -134 -91.5t-160 -31.5q-183 0 -289.5 111.5zM1042 1220h-295l-114 204l-114 -204h-295l239 396h340z" />
    <glyph glyph-name="uni0215" unicode="&#x215;" horiz-adv-x="1272" 
d="M197.5 92.5q-106.5 111.5 -106.5 346.5v661h426v-630q0 -68 25.5 -96.5t74.5 -28.5q36 0 72.5 14.5t59.5 37.5v703h426v-1100h-350l-28 104h-16q-60 -60 -134 -91.5t-160 -31.5q-183 0 -289.5 111.5zM252 1220l-172 396h330l152 -396h-310zM704 1220l-172 396h331
l151 -396h-310z" />
    <glyph glyph-name="udieresis" unicode="&#xfc;" horiz-adv-x="1272" 
d="M197.5 92.5q-106.5 111.5 -106.5 346.5v661h426v-630q0 -68 25.5 -96.5t74.5 -28.5q36 0 72.5 14.5t59.5 37.5v703h426v-1100h-350l-28 104h-16q-60 -60 -134 -91.5t-160 -31.5q-183 0 -289.5 111.5zM206 1268.5q-57 53.5 -57 149.5t57 149.5t163 53.5t162.5 -53.5
t56.5 -149.5t-56.5 -149.5t-162.5 -53.5t-163 53.5zM734.5 1268.5q-56.5 53.5 -56.5 149.5t56.5 149.5t162.5 53.5t163 -53.5t57 -149.5t-57 -149.5t-163 -53.5t-162.5 53.5z" />
    <glyph glyph-name="uni1EE5" unicode="&#x1ee5;" horiz-adv-x="1272" 
d="M197.5 92.5q-106.5 111.5 -106.5 346.5v661h426v-630q0 -68 25.5 -96.5t74.5 -28.5q36 0 72.5 14.5t59.5 37.5v703h426v-1100h-350l-28 104h-16q-60 -60 -134 -91.5t-160 -31.5q-183 0 -289.5 111.5zM470.5 -447.5q-56.5 52.5 -56.5 145.5t56.5 145.5t162.5 52.5
t162.5 -52.5t56.5 -145.5t-56.5 -145.5t-162.5 -52.5t-162.5 52.5z" />
    <glyph glyph-name="ugrave" unicode="&#xf9;" horiz-adv-x="1272" 
d="M197.5 92.5q-106.5 111.5 -106.5 346.5v661h426v-630q0 -68 25.5 -96.5t74.5 -28.5q36 0 72.5 14.5t59.5 37.5v703h426v-1100h-350l-28 104h-16q-60 -60 -134 -91.5t-160 -31.5q-183 0 -289.5 111.5zM439 1220l-294 396h449l233 -396h-388z" />
    <glyph glyph-name="uni1EE7" unicode="&#x1ee7;" horiz-adv-x="1272" 
d="M197.5 92.5q-106.5 111.5 -106.5 346.5v661h426v-630q0 -68 25.5 -96.5t74.5 -28.5q36 0 72.5 14.5t59.5 37.5v703h426v-1100h-350l-28 104h-16q-60 -60 -134 -91.5t-160 -31.5q-183 0 -289.5 111.5zM561.5 1313.5q26.5 34.5 69.5 66.5q26 20 36.5 31.5t10.5 26.5
q0 20 -20 28.5t-65 8.5q-82 0 -171 -24v151q40 12 98 19t107 7q136 0 201 -39t65 -123q0 -37 -12 -63t-28.5 -43t-44.5 -39q-35 -27 -52.5 -47.5t-21.5 -53.5h-202q3 59 29.5 93.5z" />
    <glyph glyph-name="uhorn" unicode="&#x1b0;" horiz-adv-x="1312" 
d="M1303 1048.5q-45 -72.5 -128 -106.5v-942h-350l-28 104h-16q-60 -60 -134 -91.5t-160 -31.5q-183 0 -289.5 111.5t-106.5 346.5v661h426v-630q0 -68 25.5 -96.5t74.5 -28.5q36 0 72.5 14.5t59.5 37.5v703h162q87 0 129.5 34.5t42.5 116.5q0 63 -14 138h260
q19 -68 19 -156q0 -112 -45 -184.5z" />
    <glyph glyph-name="uni1EE9" unicode="&#x1ee9;" horiz-adv-x="1312" 
d="M1303 1048.5q-45 -72.5 -128 -106.5v-942h-350l-28 104h-16q-60 -60 -134 -91.5t-160 -31.5q-183 0 -289.5 111.5t-106.5 346.5v661h426v-630q0 -68 25.5 -96.5t74.5 -28.5q36 0 72.5 14.5t59.5 37.5v703h162q87 0 129.5 34.5t42.5 116.5q0 63 -14 138h260
q19 -68 19 -156q0 -112 -45 -184.5zM439 1220l233 396h449l-294 -396h-388z" />
    <glyph glyph-name="uni1EF1" unicode="&#x1ef1;" horiz-adv-x="1312" 
d="M1303 1048.5q-45 -72.5 -128 -106.5v-942h-350l-28 104h-16q-60 -60 -134 -91.5t-160 -31.5q-183 0 -289.5 111.5t-106.5 346.5v661h426v-630q0 -68 25.5 -96.5t74.5 -28.5q36 0 72.5 14.5t59.5 37.5v703h162q87 0 129.5 34.5t42.5 116.5q0 63 -14 138h260
q19 -68 19 -156q0 -112 -45 -184.5zM470.5 -447.5q-56.5 52.5 -56.5 145.5t56.5 145.5t162.5 52.5t162.5 -52.5t56.5 -145.5t-56.5 -145.5t-162.5 -52.5t-162.5 52.5z" />
    <glyph glyph-name="uni1EEB" unicode="&#x1eeb;" horiz-adv-x="1312" 
d="M1303 1048.5q-45 -72.5 -128 -106.5v-942h-350l-28 104h-16q-60 -60 -134 -91.5t-160 -31.5q-183 0 -289.5 111.5t-106.5 346.5v661h426v-630q0 -68 25.5 -96.5t74.5 -28.5q36 0 72.5 14.5t59.5 37.5v703h162q87 0 129.5 34.5t42.5 116.5q0 63 -14 138h260
q19 -68 19 -156q0 -112 -45 -184.5zM439 1220l-294 396h449l233 -396h-388z" />
    <glyph glyph-name="uni1EED" unicode="&#x1eed;" horiz-adv-x="1312" 
d="M1303 1048.5q-45 -72.5 -128 -106.5v-942h-350l-28 104h-16q-60 -60 -134 -91.5t-160 -31.5q-183 0 -289.5 111.5t-106.5 346.5v661h426v-630q0 -68 25.5 -96.5t74.5 -28.5q36 0 72.5 14.5t59.5 37.5v703h162q87 0 129.5 34.5t42.5 116.5q0 63 -14 138h260
q19 -68 19 -156q0 -112 -45 -184.5zM561.5 1313.5q26.5 34.5 69.5 66.5q26 20 36.5 31.5t10.5 26.5q0 20 -20 28.5t-65 8.5q-82 0 -171 -24v151q40 12 98 19t107 7q136 0 201 -39t65 -123q0 -37 -12 -63t-28.5 -43t-44.5 -39q-35 -27 -52.5 -47.5t-21.5 -53.5h-202
q3 59 29.5 93.5z" />
    <glyph glyph-name="uni1EEF" unicode="&#x1eef;" horiz-adv-x="1312" 
d="M712 1258q-38 13 -96 39q-49 23 -82.5 35t-68.5 12q-57 0 -103.5 -21.5t-96.5 -69.5v256q43 44 92.5 64t115.5 20q44 0 83 -13.5t95 -39.5q52 -24 84 -35t66 -11q57 0 104 21.5t97 69.5v-256q-43 -44 -93 -64t-116 -20q-43 0 -81 13zM1303 1048.5q-45 -72.5 -128 -106.5
v-942h-350l-28 104h-16q-60 -60 -134 -91.5t-160 -31.5q-183 0 -289.5 111.5t-106.5 346.5v661h426v-630q0 -68 25.5 -96.5t74.5 -28.5q36 0 72.5 14.5t59.5 37.5v703h162q87 0 129.5 34.5t42.5 116.5q0 63 -14 138h260q19 -68 19 -156q0 -112 -45 -184.5z" />
    <glyph glyph-name="uhungarumlaut" unicode="&#x171;" horiz-adv-x="1272" 
d="M197.5 92.5q-106.5 111.5 -106.5 346.5v661h426v-630q0 -68 25.5 -96.5t74.5 -28.5q36 0 72.5 14.5t59.5 37.5v703h426v-1100h-350l-28 104h-16q-60 -60 -134 -91.5t-160 -31.5q-183 0 -289.5 111.5zM251 1220l152 396h331l-172 -396h-311zM704 1220l152 396h331
l-172 -396h-311z" />
    <glyph glyph-name="uni0217" unicode="&#x217;" horiz-adv-x="1272" 
d="M197.5 92.5q-106.5 111.5 -106.5 346.5v661h426v-630q0 -68 25.5 -96.5t74.5 -28.5q36 0 72.5 14.5t59.5 37.5v703h426v-1100h-350l-28 104h-16q-60 -60 -134 -91.5t-160 -31.5q-183 0 -289.5 111.5zM341 1523q105 93 292 93q185 0 291 -93.5t116 -274.5h-251
q-7 84 -45.5 124t-110.5 40q-75 0 -112 -39.5t-44 -124.5h-251q10 182 115 275z" />
    <glyph glyph-name="umacron" unicode="&#x16b;" horiz-adv-x="1272" 
d="M197.5 92.5q-106.5 111.5 -106.5 346.5v661h426v-630q0 -68 25.5 -96.5t74.5 -28.5q36 0 72.5 14.5t59.5 37.5v703h426v-1100h-350l-28 104h-16q-60 -60 -134 -91.5t-160 -31.5q-183 0 -289.5 111.5zM247 1295v248h772v-248h-772z" />
    <glyph glyph-name="uni1E7B" unicode="&#x1e7b;" horiz-adv-x="1272" 
d="M197.5 92.5q-106.5 111.5 -106.5 346.5v661h426v-630q0 -68 25.5 -96.5t74.5 -28.5q36 0 72.5 14.5t59.5 37.5v703h426v-1100h-350l-28 104h-16q-60 -60 -134 -91.5t-160 -31.5q-183 0 -289.5 111.5zM247 1295v248h772v-248h-772zM206 1684.5q-57 53.5 -57 149.5
t57 149.5t163 53.5t162.5 -53.5t56.5 -149.5t-56.5 -149.5t-162.5 -53.5t-163 53.5zM734.5 1684.5q-56.5 53.5 -56.5 149.5t56.5 149.5t162.5 53.5t163 -53.5t57 -149.5t-57 -149.5t-163 -53.5t-162.5 53.5z" />
    <glyph glyph-name="uogonek" unicode="&#x173;" horiz-adv-x="1272" 
d="M1185 -275v-155q-43 -15 -84.5 -22.5t-96.5 -7.5q-143 0 -217.5 59.5t-74.5 164.5q0 72 35 130.5t115 105.5h-37l-28 104h-16q-60 -60 -134 -91.5t-160 -31.5q-183 0 -289.5 111.5t-106.5 346.5v661h426v-630q0 -68 25.5 -96.5t74.5 -28.5q36 0 72.5 14.5t59.5 37.5v703
h426v-1100q-128 -47 -177 -96.5t-49 -111.5q0 -43 30 -67.5t88 -24.5q54 0 118 25z" />
    <glyph glyph-name="uring" unicode="&#x16f;" horiz-adv-x="1272" 
d="M197.5 92.5q-106.5 111.5 -106.5 346.5v661h426v-630q0 -68 25.5 -96.5t74.5 -28.5q36 0 72.5 14.5t59.5 37.5v703h426v-1100h-350l-28 104h-16q-60 -60 -134 -91.5t-160 -31.5q-183 0 -289.5 111.5zM516 1242.5q-52 28.5 -81.5 78.5t-29.5 113t29.5 113t81.5 78.5
t117 28.5t117 -28.5t81.5 -78.5t29.5 -113t-29.5 -113t-81.5 -78.5t-117 -28.5t-117 28.5zM689.5 1374.5q21.5 22.5 21.5 59.5t-21.5 59.5t-56.5 22.5t-56.5 -22.5t-21.5 -59.5t21.5 -59.5t56.5 -22.5t56.5 22.5z" />
    <glyph glyph-name="utilde" unicode="&#x169;" horiz-adv-x="1272" 
d="M197.5 92.5q-106.5 111.5 -106.5 346.5v661h426v-630q0 -68 25.5 -96.5t74.5 -28.5q36 0 72.5 14.5t59.5 37.5v703h426v-1100h-350l-28 104h-16q-60 -60 -134 -91.5t-160 -31.5q-183 0 -289.5 111.5zM713.5 1258.5q-41.5 13.5 -98.5 39.5q-55 24 -88.5 35t-69.5 11
q-60 0 -109 -21.5t-101 -69.5v256q45 44 97 64t121 20q46 0 87.5 -13.5t98.5 -39.5q55 -24 88.5 -35t69.5 -11q60 0 109 21.5t101 69.5v-256q-45 -44 -97 -64t-121 -20q-46 0 -87.5 13.5z" />
    <glyph glyph-name="uni1E79" unicode="&#x1e79;" horiz-adv-x="1272" 
d="M197.5 92.5q-106.5 111.5 -106.5 346.5v661h426v-630q0 -68 25.5 -96.5t74.5 -28.5q36 0 72.5 14.5t59.5 37.5v703h426v-1100h-350l-28 104h-16q-60 -60 -134 -91.5t-160 -31.5q-183 0 -289.5 111.5zM713.5 1258.5q-41.5 13.5 -98.5 39.5q-55 24 -88.5 35t-69.5 11
q-60 0 -109 -21.5t-101 -69.5v256q45 44 97 64t121 20q46 0 87.5 -13.5t98.5 -39.5q55 -24 88.5 -35t69.5 -11q60 0 109 21.5t101 69.5v-256q-45 -44 -97 -64t-121 -20q-46 0 -87.5 13.5zM440 1682l183 316h445l-246 -316h-382z" />
    <glyph glyph-name="v" unicode="v" horiz-adv-x="1239" 
d="M834 1100h417l-367 -1100h-530l-366 1100h443l201 -709z" />
    <glyph glyph-name="w" unicode="w" horiz-adv-x="1891" 
d="M1476 1100h383l-277 -1100h-463l-170 697l-175 -697h-463l-279 1100h400l137 -641l155 641h463l146 -622z" />
    <glyph glyph-name="wacute" unicode="&#x1e83;" horiz-adv-x="1891" 
d="M1476 1100h383l-277 -1100h-463l-170 697l-175 -697h-463l-279 1100h400l137 -641l155 641h463l146 -622zM752 1220l233 396h449l-294 -396h-388z" />
    <glyph glyph-name="wcircumflex" unicode="&#x175;" horiz-adv-x="1891" 
d="M1476 1100h383l-277 -1100h-463l-170 697l-175 -697h-463l-279 1100h400l137 -641l155 641h463l146 -622zM1355 1220h-295l-114 204l-114 -204h-295l239 396h340z" />
    <glyph glyph-name="wdieresis" unicode="&#x1e85;" horiz-adv-x="1891" 
d="M1476 1100h383l-277 -1100h-463l-170 697l-175 -697h-463l-279 1100h400l137 -641l155 641h463l146 -622zM519 1268.5q-57 53.5 -57 149.5t57 149.5t163 53.5t162.5 -53.5t56.5 -149.5t-56.5 -149.5t-162.5 -53.5t-163 53.5zM1047.5 1268.5q-56.5 53.5 -56.5 149.5
t56.5 149.5t162.5 53.5t163 -53.5t57 -149.5t-57 -149.5t-163 -53.5t-162.5 53.5z" />
    <glyph glyph-name="wgrave" unicode="&#x1e81;" horiz-adv-x="1891" 
d="M1476 1100h383l-277 -1100h-463l-170 697l-175 -697h-463l-279 1100h400l137 -641l155 641h463l146 -622zM752 1220l-294 396h449l233 -396h-388z" />
    <glyph glyph-name="x" unicode="x" horiz-adv-x="1205" 
d="M850 559l379 -559h-464l-166 264l-171 -264h-451l375 554l-368 546h464l159 -249l157 249h451z" />
    <glyph glyph-name="y" unicode="y" horiz-adv-x="1239" 
d="M834 1100h417l-515 -1540h-415l149 440h-116l-366 1100h443l202 -704z" />
    <glyph glyph-name="yacute" unicode="&#xfd;" horiz-adv-x="1239" 
d="M834 1100h417l-515 -1540h-415l149 440h-116l-366 1100h443l202 -704zM425 1220l233 396h449l-294 -396h-388z" />
    <glyph glyph-name="ycircumflex" unicode="&#x177;" horiz-adv-x="1239" 
d="M834 1100h417l-515 -1540h-415l149 440h-116l-366 1100h443l202 -704zM1028 1220h-295l-114 204l-114 -204h-295l239 396h340z" />
    <glyph glyph-name="ydieresis" unicode="&#xff;" horiz-adv-x="1239" 
d="M834 1100h417l-515 -1540h-415l149 440h-116l-366 1100h443l202 -704zM192 1268.5q-57 53.5 -57 149.5t57 149.5t163 53.5t162.5 -53.5t56.5 -149.5t-56.5 -149.5t-162.5 -53.5t-163 53.5zM720.5 1268.5q-56.5 53.5 -56.5 149.5t56.5 149.5t162.5 53.5t163 -53.5
t57 -149.5t-57 -149.5t-163 -53.5t-162.5 53.5z" />
    <glyph glyph-name="uni1E8F" unicode="&#x1e8f;" horiz-adv-x="1239" 
d="M834 1100h417l-515 -1540h-415l149 440h-116l-366 1100h443l202 -704zM364 1418q0 210 255 210t255 -210t-255 -210t-255 210z" />
    <glyph glyph-name="uni1EF5" unicode="&#x1ef5;" horiz-adv-x="1239" 
d="M834 1100h417l-515 -1540h-415l149 440h-116l-366 1100h443l202 -704zM918.5 -447.5q-56.5 52.5 -56.5 145.5t56.5 145.5t162.5 52.5t162.5 -52.5t56.5 -145.5t-56.5 -145.5t-162.5 -52.5t-162.5 52.5z" />
    <glyph glyph-name="ygrave" unicode="&#x1ef3;" horiz-adv-x="1239" 
d="M834 1100h417l-515 -1540h-415l149 440h-116l-366 1100h443l202 -704zM425 1220l-294 396h449l233 -396h-388z" />
    <glyph glyph-name="uni1EF7" unicode="&#x1ef7;" horiz-adv-x="1239" 
d="M834 1100h417l-515 -1540h-415l149 440h-116l-366 1100h443l202 -704zM547.5 1313.5q26.5 34.5 69.5 66.5q26 20 36.5 31.5t10.5 26.5q0 20 -20 28.5t-65 8.5q-82 0 -171 -24v151q40 12 98 19t107 7q136 0 201 -39t65 -123q0 -37 -12 -63t-28.5 -43t-44.5 -39
q-35 -27 -52.5 -47.5t-21.5 -53.5h-202q3 59 29.5 93.5z" />
    <glyph glyph-name="uni0233" unicode="&#x233;" horiz-adv-x="1239" 
d="M834 1100h417l-515 -1540h-415l149 440h-116l-366 1100h443l202 -704zM233 1295v248h772v-248h-772z" />
    <glyph glyph-name="uni1EF9" unicode="&#x1ef9;" horiz-adv-x="1239" 
d="M834 1100h417l-515 -1540h-415l149 440h-116l-366 1100h443l202 -704zM699.5 1258.5q-41.5 13.5 -98.5 39.5q-55 24 -88.5 35t-69.5 11q-60 0 -109 -21.5t-101 -69.5v256q45 44 97 64t121 20q46 0 87.5 -13.5t98.5 -39.5q55 -24 88.5 -35t69.5 -11q60 0 109 21.5
t101 69.5v-256q-45 -44 -97 -64t-121 -20q-46 0 -87.5 13.5z" />
    <glyph glyph-name="z" unicode="z" horiz-adv-x="1076" 
d="M593 331h436v-331h-962v271l426 498h-416v331h942v-271z" />
    <glyph glyph-name="zacute" unicode="&#x17a;" horiz-adv-x="1076" 
d="M593 331h436v-331h-962v271l426 498h-416v331h942v-271zM354 1220l233 396h449l-294 -396h-388z" />
    <glyph glyph-name="zcaron" unicode="&#x17e;" horiz-adv-x="1076" 
d="M593 331h436v-331h-962v271l426 498h-416v331h942v-271zM662 1616h295l-239 -396h-340l-239 396h295l114 -204z" />
    <glyph glyph-name="zdotaccent" unicode="&#x17c;" horiz-adv-x="1076" 
d="M593 331h436v-331h-962v271l426 498h-416v331h942v-271zM293 1418q0 210 255 210t255 -210t-255 -210t-255 210z" />
    <glyph glyph-name="uni1E93" unicode="&#x1e93;" horiz-adv-x="1076" 
d="M593 331h436v-331h-962v271l426 498h-416v331h942v-271zM385.5 -447.5q-56.5 52.5 -56.5 145.5t56.5 145.5t162.5 52.5t162.5 -52.5t56.5 -145.5t-56.5 -145.5t-162.5 -52.5t-162.5 52.5z" />
    <glyph glyph-name="iacute_j.loclNLD" horiz-adv-x="1242" 
d="M97 0v1100h427v-1100h-427zM116 1220l233 396h449l-294 -396h-388zM576 -296q80 106 111 212t31 264v920h427v-904q0 -194 -67.5 -353.5t-228.5 -318.5zM732 1220l233 396h449l-294 -396h-388z" />
    <glyph glyph-name="f_i" horiz-adv-x="1482" 
d="M251.5 1400.5q62.5 112.5 179.5 174t276 61.5q94 0 158 -17v-327q-37 11 -86 11q-82 0 -124.5 -37.5t-42.5 -105.5v-60h253v-331h-253v-769h-423v769h-160v331h160v38q0 150 62.5 262.5zM916 1418q0 210 255 210t255 -210t-255 -210t-255 210zM958 0v1100h427v-1100h-427
z" />
    <glyph glyph-name="f_l" horiz-adv-x="1481" 
d="M251.5 1400.5q62.5 112.5 179.5 174t276 61.5q94 0 158 -17v-327q-37 11 -86 11q-82 0 -124.5 -37.5t-42.5 -105.5v-60h253v-331h-253v-769h-423v769h-160v331h160v38q0 150 62.5 262.5zM958 1616h426v-1616h-426v1616z" />
    <glyph glyph-name="I_J.loclNLD" horiz-adv-x="1306" 
d="M109 0v1480h435v-1480h-435zM622 -172q80 106 111 212t31 264v1176h433v-1160q0 -195 -68.5 -355.5t-231.5 -318.5z" />
    <glyph glyph-name="i_j.loclNLD" horiz-adv-x="1242" 
d="M97 0v1100h427v-1100h-427zM55 1418q0 210 255 210t255 -210t-255 -210t-255 210zM576 -296q80 106 111 212t31 264v920h427v-904q0 -194 -67.5 -353.5t-228.5 -318.5zM671 1418q0 210 255 210t255 -210t-255 -210t-255 210z" />
    <glyph glyph-name="a.sc" horiz-adv-x="1363" 
d="M936 0l-65 242h-384l-64 -242h-417l357 1190h637l357 -1190h-421zM570 552h218l-110 407z" />
    <glyph glyph-name="aacute.sc" horiz-adv-x="1363" 
d="M936 0l-65 242h-384l-64 -242h-417l357 1190h637l357 -1190h-421zM570 552h218l-110 407zM487 1296l183 316h445l-246 -316h-382z" />
    <glyph glyph-name="abreve.sc" horiz-adv-x="1363" 
d="M936 0l-65 242h-384l-64 -242h-417l357 1190h637l357 -1190h-421zM570 552h218l-110 407zM381.5 1380q-107.5 84 -126.5 232h253q12 -59 54 -89t118 -30t118 30t54 89h253q-19 -148 -126.5 -232t-298.5 -84t-298.5 84z" />
    <glyph glyph-name="uni1EAF.sc" horiz-adv-x="1363" 
d="M936 0l-65 242h-384l-64 -242h-417l357 1190h637l357 -1190h-421zM570 552h218l-110 407zM570 1538l95 236h277l-152 -236h-220zM401 1368.5q-100 72.5 -121 199.5h218q15 -55 54 -81t128 -26q61 0 98 12.5t58 35t36 59.5h208q-21 -127 -121 -199.5t-279 -72.5t-279 72.5
z" />
    <glyph glyph-name="uni1EB7.sc" horiz-adv-x="1363" 
d="M936 0l-65 242h-384l-64 -242h-417l357 1190h637l357 -1190h-421zM570 552h218l-110 407zM492 -417.5q-64 46.5 -64 133.5t64 133.5t189 46.5t189 -46.5t64 -133.5t-64 -133.5t-189 -46.5t-189 46.5zM381.5 1380q-107.5 84 -126.5 232h253q12 -59 54 -89t118 -30t118 30
t54 89h253q-19 -148 -126.5 -232t-298.5 -84t-298.5 84z" />
    <glyph glyph-name="uni1EB1.sc" horiz-adv-x="1363" 
d="M936 0l-65 242h-384l-64 -242h-417l357 1190h637l357 -1190h-421zM570 552h218l-110 407zM570 1538l-152 236h277l95 -236h-220zM401 1368.5q-100 72.5 -121 199.5h208q15 -37 36 -59.5t58 -35t98 -12.5q89 0 128 26t54 81h218q-21 -127 -121 -199.5t-279 -72.5
t-279 72.5z" />
    <glyph glyph-name="uni1EB3.sc" horiz-adv-x="1363" 
d="M936 0l-65 242h-384l-64 -242h-417l357 1190h637l357 -1190h-421zM570 552h218l-110 407zM611.5 1600q29.5 22 80.5 44q27 11 40 18.5t13 17.5q0 26 -105 26q-96 0 -191 -17v125q44 9 108.5 14.5t116.5 5.5q148 0 217 -31t69 -96q0 -37 -26.5 -59.5t-76.5 -46.5
q-37 -19 -55 -32t-21 -31h-202q3 40 32.5 62zM401 1368.5q-100 72.5 -121 199.5h218q15 -55 54 -81t128 -26q61 0 98 12.5t58 35t36 59.5h208q-21 -127 -121 -199.5t-279 -72.5t-279 72.5z" />
    <glyph glyph-name="uni1EB5.sc" horiz-adv-x="1363" 
d="M936 0l-65 242h-384l-64 -242h-417l357 1190h637l357 -1190h-421zM570 552h218l-110 407zM759 1617q-38 7 -100 23q-46 13 -78.5 19.5t-64.5 6.5q-59 0 -110.5 -14.5t-125.5 -51.5v170q64 38 116.5 51t123.5 13q44 0 85.5 -8.5t95.5 -23.5q54 -14 83 -20t60 -6
q59 0 110.5 14.5t125.5 51.5v-170q-63 -38 -115.5 -50t-124.5 -12q-43 0 -81 7zM401 1368.5q-100 72.5 -121 199.5h218q15 -55 54 -81t128 -26t128 26t54 81h218q-21 -127 -121 -199.5t-279 -72.5t-279 72.5z" />
    <glyph glyph-name="acircumflex.sc" horiz-adv-x="1363" 
d="M936 0l-65 242h-384l-64 -242h-417l357 1190h637l357 -1190h-421zM570 552h218l-110 407zM1120 1296h-311l-129 166l-129 -166h-311l263 316h354z" />
    <glyph glyph-name="uni1EA5.sc" horiz-adv-x="1363" 
d="M936 0l-65 242h-384l-64 -242h-417l357 1190h637l357 -1190h-421zM570 552h218l-110 407zM1042 1774h276l-151 -236h-221zM503 1568h354l263 -272h-311l-129 144l-129 -144h-311z" />
    <glyph glyph-name="uni1EAD.sc" horiz-adv-x="1363" 
d="M936 0l-65 242h-384l-64 -242h-417l357 1190h637l357 -1190h-421zM570 552h218l-110 407zM492 -417.5q-64 46.5 -64 133.5t64 133.5t189 46.5t189 -46.5t64 -133.5t-64 -133.5t-189 -46.5t-189 46.5zM1120 1296h-311l-129 166l-129 -166h-311l263 316h354z" />
    <glyph glyph-name="uni1EA7.sc" horiz-adv-x="1363" 
d="M936 0l-65 242h-384l-64 -242h-417l357 1190h637l357 -1190h-421zM570 552h218l-110 407zM1207 1538h-221l-152 236h277zM503 1568h354l263 -272h-311l-129 144l-129 -144h-311z" />
    <glyph glyph-name="uni1EA9.sc" horiz-adv-x="1363" 
d="M936 0l-65 242h-384l-64 -242h-417l357 1190h637l357 -1190h-421zM570 552h218l-110 407zM1257.5 1803q69.5 -31 69.5 -96q0 -37 -26.5 -59.5t-76.5 -46.5q-37 -18 -55.5 -31.5t-21.5 -31.5h-202q3 40 32.5 62t80.5 44q27 11 40 18.5t13 17.5q0 26 -105 26
q-96 0 -191 -17v125q44 9 108.5 14.5t116.5 5.5q148 0 217.5 -31zM503 1568h354l263 -272h-311l-129 144l-129 -144h-311z" />
    <glyph glyph-name="uni1EAB.sc" horiz-adv-x="1363" 
d="M936 0l-65 242h-384l-64 -242h-417l357 1190h637l357 -1190h-421zM570 552h218l-110 407zM990 1790.5q55 14.5 130 51.5v-170q-64 -38 -119.5 -50t-134.5 -12q-51 0 -95.5 7.5t-114.5 22.5q-51 13 -89.5 19.5t-76.5 6.5q-65 0 -120 -14.5t-130 -51.5v170q64 38 120.5 51
t133.5 13q52 0 98.5 -8t111.5 -23q54 -13 91 -20t75 -7q65 0 120 14.5zM503 1568h354l263 -272h-311l-129 144l-129 -144h-311z" />
    <glyph glyph-name="uni0201.sc" horiz-adv-x="1363" 
d="M936 0l-65 242h-384l-64 -242h-417l357 1190h637l357 -1190h-421zM570 552h218l-110 407zM299 1296l-163 316h331l142 -316h-310zM751 1296l-162 316h330l142 -316h-310z" />
    <glyph glyph-name="adieresis.sc" horiz-adv-x="1363" 
d="M936 0l-65 242h-384l-64 -242h-417l357 1190h637l357 -1190h-421zM570 552h218l-110 407zM243.5 1326.5q-55.5 46.5 -55.5 133.5t55.5 133.5t163.5 46.5t163 -46.5t55 -133.5t-55 -133.5t-163 -46.5t-163.5 46.5zM790 1326.5q-55 46.5 -55 133.5t55 133.5t163 46.5
t163.5 -46.5t55.5 -133.5t-55.5 -133.5t-163.5 -46.5t-163 46.5z" />
    <glyph glyph-name="uni1EA1.sc" horiz-adv-x="1363" 
d="M936 0l-65 242h-384l-64 -242h-417l357 1190h637l357 -1190h-421zM570 552h218l-110 407zM492 -417.5q-64 46.5 -64 133.5t64 133.5t189 46.5t189 -46.5t64 -133.5t-64 -133.5t-189 -46.5t-189 46.5z" />
    <glyph glyph-name="agrave.sc" horiz-adv-x="1363" 
d="M936 0l-65 242h-384l-64 -242h-417l357 1190h637l357 -1190h-421zM570 552h218l-110 407zM489 1296l-246 316h445l183 -316h-382z" />
    <glyph glyph-name="uni1EA3.sc" horiz-adv-x="1363" 
d="M936 0l-65 242h-384l-64 -242h-417l357 1190h637l357 -1190h-421zM570 552h218l-110 407zM598 1352q17 23 38.5 36.5t56.5 30.5q28 13 40 21.5t12 19.5q0 16 -26 23.5t-79 7.5q-95 0 -191 -20v147q43 10 107 16t118 6q147 0 216.5 -36t69.5 -111q0 -43 -26.5 -69.5
t-76.5 -54.5q-36 -22 -54.5 -37t-21.5 -36h-202q2 33 19 56z" />
    <glyph glyph-name="uni0203.sc" horiz-adv-x="1363" 
d="M936 0l-65 242h-384l-64 -242h-417l357 1190h637l357 -1190h-421zM570 552h218l-110 407zM381.5 1528q107.5 84 298.5 84t298.5 -84t126.5 -232h-253q-12 59 -54 89t-118 30t-118 -30t-54 -89h-253q19 148 126.5 232z" />
    <glyph glyph-name="amacron.sc" horiz-adv-x="1363" 
d="M936 0l-65 242h-384l-64 -242h-417l357 1190h637l357 -1190h-421zM570 552h218l-110 407zM270 1331v248h820v-248h-820z" />
    <glyph glyph-name="aogonek.sc" horiz-adv-x="1363" 
d="M1380 -275v-155q-92 -30 -194 -30q-156 0 -234 59.5t-78 164.5q0 71 38 129.5t123 106.5h-99l-65 242h-384l-64 -242h-417l357 1190h637l357 -1190q-138 -46 -192 -96t-54 -110q0 -94 138 -94q59 0 131 25zM570 552h218l-110 407z" />
    <glyph glyph-name="aring.sc" horiz-adv-x="1363" 
d="M936 0l-65 242h-384l-64 -242h-417l357 1190h637l357 -1190h-421zM570 552h218l-110 407zM563 1308.5q-52 28.5 -81.5 78.5t-29.5 113t29.5 113t81.5 78.5t117 28.5t117 -28.5t81.5 -78.5t29.5 -113t-29.5 -113t-81.5 -78.5t-117 -28.5t-117 28.5zM736.5 1440.5
q21.5 22.5 21.5 59.5t-21.5 59.5t-56.5 22.5t-56.5 -22.5t-21.5 -59.5t21.5 -59.5t56.5 -22.5t56.5 22.5z" />
    <glyph glyph-name="aringacute.sc" horiz-adv-x="1363" 
d="M936 0l-65 242h-384l-64 -242h-417l357 1190h637l357 -1190h-421zM570 552h218l-110 407zM884 1603q24 -45 24 -103q0 -63 -29.5 -113t-81.5 -78.5t-117 -28.5t-117 28.5t-81.5 78.5t-29.5 113t29.5 113t81.5 78.5t117 28.5q14 0 21 -1l97 127h296zM736.5 1440.5
q21.5 22.5 21.5 59.5t-21.5 59.5t-56.5 22.5t-56.5 -22.5t-21.5 -59.5t21.5 -59.5t56.5 -22.5t56.5 22.5z" />
    <glyph glyph-name="atilde.sc" horiz-adv-x="1363" 
d="M936 0l-65 242h-384l-64 -242h-417l357 1190h637l357 -1190h-421zM570 552h218l-110 407zM766.5 1306.5q-45.5 10.5 -104.5 29.5q-58 18 -95.5 27t-78.5 9q-65 0 -114.5 -16.5t-103.5 -53.5v233q46 40 99 58.5t127 18.5q51 0 95.5 -10.5t106.5 -30.5q56 -19 94 -28t80 -9
q65 0 114.5 16.5t103.5 53.5v-233q-45 -40 -98 -57.5t-128 -17.5q-52 0 -97.5 10.5z" />
    <glyph glyph-name="ae.sc" horiz-adv-x="1883" 
d="M1265 309h544v-309h-931l-22 245h-366l-65 -245h-419l355 1190h1440v-309h-592l12 -124h488v-308h-458zM571 553h258l-29 328h-142z" />
    <glyph glyph-name="aeacute.sc" horiz-adv-x="1883" 
d="M1265 309h544v-309h-931l-22 245h-366l-65 -245h-419l355 1190h1440v-309h-592l12 -124h488v-308h-458zM571 553h258l-29 328h-142zM789 1296l183 316h445l-246 -316h-382z" />
    <glyph glyph-name="b.sc" horiz-adv-x="1254" 
d="M1154 525q59 -66 59 -180q0 -178 -159 -270.5t-517 -92.5q-99 0 -220.5 8t-205.5 21v1145q100 22 231 36.5t238 14.5q310 0 455 -86t145 -262q0 -87 -51 -153.5t-128 -92.5q94 -22 153 -88zM521 919v-171h120q76 0 107 21t31 69q0 49 -32.5 70t-110.5 21q-52 0 -115 -10z
M746 270.5q40 10.5 57 33t17 60.5q0 55 -35 77.5t-118 22.5h-146v-199q61 -5 114 -5q71 0 111 10.5z" />
    <glyph glyph-name="c.sc" horiz-adv-x="1155" 
d="M251 136.5q-191 152.5 -191 455.5q0 192 88.5 330t261 211t420.5 73q148 0 270 -22v-330q-127 20 -229 20q-190 0 -274 -68t-84 -212q0 -97 35 -157.5t111.5 -90.5t202.5 -30q109 0 238 31v-330q-58 -15 -135 -24t-149 -9q-374 0 -565 152.5z" />
    <glyph glyph-name="cacute.sc" horiz-adv-x="1155" 
d="M251 136.5q-191 152.5 -191 455.5q0 192 88.5 330t261 211t420.5 73q148 0 270 -22v-330q-127 20 -229 20q-190 0 -274 -68t-84 -212q0 -97 35 -157.5t111.5 -90.5t202.5 -30q109 0 238 31v-330q-58 -15 -135 -24t-149 -9q-374 0 -565 152.5zM504 1296l183 316h445
l-246 -316h-382z" />
    <glyph glyph-name="ccaron.sc" horiz-adv-x="1155" 
d="M251 136.5q-191 152.5 -191 455.5q0 192 88.5 330t261 211t420.5 73q148 0 270 -22v-330q-127 20 -229 20q-190 0 -274 -68t-84 -212q0 -97 35 -157.5t111.5 -90.5t202.5 -30q109 0 238 31v-330q-58 -15 -135 -24t-149 -9q-374 0 -565 152.5zM826 1612h311l-263 -316
h-354l-263 316h311l129 -166z" />
    <glyph glyph-name="ccedilla.sc" horiz-adv-x="1155" 
d="M597 806q-84 -68 -84 -212q0 -97 35 -157.5t111.5 -90.5t202.5 -30q109 0 238 31v-330q-58 -15 -135 -24t-149 -9q-35 0 -52 1v-61q94 -15 141 -62.5t47 -122.5q0 -94 -75.5 -146.5t-231.5 -52.5q-112 0 -209 29v152q41 -14 92 -21t95 -7q59 0 86.5 14t27.5 47
q0 34 -29 49.5t-86 15.5h-52v185q-253 45 -381.5 192.5t-128.5 395.5q0 192 88.5 330t261 211t420.5 73q148 0 270 -22v-330q-127 20 -229 20q-190 0 -274 -68z" />
    <glyph glyph-name="uni1E09.sc" horiz-adv-x="1155" 
d="M1132 1612l-246 -316h-382l183 316h445zM148.5 922q88.5 138 261 211t420.5 73q148 0 270 -22v-330q-127 20 -229 20q-190 0 -274 -68t-84 -212q0 -97 35 -157.5t111.5 -90.5t202.5 -30q109 0 238 31v-330q-58 -15 -135 -24t-149 -9q-35 0 -52 1v-61q94 -15 141 -62.5
t47 -122.5q0 -94 -75.5 -146.5t-231.5 -52.5q-112 0 -209 29v152q41 -14 92 -21t95 -7q59 0 86.5 14t27.5 47q0 34 -29 49.5t-86 15.5h-52v185q-253 45 -381.5 192.5t-128.5 395.5q0 192 88.5 330z" />
    <glyph glyph-name="ccircumflex.sc" horiz-adv-x="1155" 
d="M251 136.5q-191 152.5 -191 455.5q0 192 88.5 330t261 211t420.5 73q148 0 270 -22v-330q-127 20 -229 20q-190 0 -274 -68t-84 -212q0 -97 35 -157.5t111.5 -90.5t202.5 -30q109 0 238 31v-330q-58 -15 -135 -24t-149 -9q-374 0 -565 152.5zM1137 1296h-311l-129 166
l-129 -166h-311l263 316h354z" />
    <glyph glyph-name="cdotaccent.sc" horiz-adv-x="1155" 
d="M251 136.5q-191 152.5 -191 455.5q0 192 88.5 330t261 211t420.5 73q148 0 270 -22v-330q-127 20 -229 20q-190 0 -274 -68t-84 -212q0 -97 35 -157.5t111.5 -90.5t202.5 -30q109 0 238 31v-330q-58 -15 -135 -24t-149 -9q-374 0 -565 152.5zM508 1326.5
q-64 46.5 -64 133.5t64 133.5t189 46.5t189 -46.5t64 -133.5t-64 -133.5t-189 -46.5t-189 46.5z" />
    <glyph glyph-name="d.sc" horiz-adv-x="1415" 
d="M309.5 -9.5q-110.5 5.5 -198.5 15.5v1149q101 23 228 36.5t243 13.5q389 0 581 -149.5t192 -461.5q0 -214 -91.5 -348.5t-275.5 -197.5t-468 -63q-100 0 -210.5 5.5zM793.5 337q62.5 27 93.5 90t31 169q0 155 -72 219.5t-220 64.5q-43 0 -83 -7v-561q35 -2 88 -2
q100 0 162.5 27z" />
    <glyph glyph-name="eth.sc" horiz-adv-x="1415" 
d="M1163 1055.5q192 -149.5 192 -461.5q0 -214 -91.5 -348.5t-275.5 -197.5t-468 -63q-100 0 -210.5 5.5t-198.5 15.5v480h-110v244h110v425q101 23 228 36.5t243 13.5q389 0 581 -149.5zM793.5 337q62.5 27 93.5 90t31 169q0 155 -72 219.5t-220 64.5q-43 0 -83 -7v-143
h174v-244h-174v-174q35 -2 88 -2q100 0 162.5 27z" />
    <glyph glyph-name="dcaron.sc" horiz-adv-x="1415" 
d="M309.5 -9.5q-110.5 5.5 -198.5 15.5v1149q101 23 228 36.5t243 13.5q389 0 581 -149.5t192 -461.5q0 -214 -91.5 -348.5t-275.5 -197.5t-468 -63q-100 0 -210.5 5.5zM793.5 337q62.5 27 93.5 90t31 169q0 155 -72 219.5t-220 64.5q-43 0 -83 -7v-561q35 -2 88 -2
q100 0 162.5 27zM769 1612h311l-263 -316h-354l-263 316h311l129 -166z" />
    <glyph glyph-name="dcroat.sc" horiz-adv-x="1415" 
d="M1163 1055.5q192 -149.5 192 -461.5q0 -214 -91.5 -348.5t-275.5 -197.5t-468 -63q-100 0 -210.5 5.5t-198.5 15.5v480h-110v244h110v425q101 23 228 36.5t243 13.5q389 0 581 -149.5zM793.5 337q62.5 27 93.5 90t31 169q0 155 -72 219.5t-220 64.5q-43 0 -83 -7v-143
h174v-244h-174v-174q35 -2 88 -2q100 0 162.5 27z" />
    <glyph glyph-name="uni1E0D.sc" horiz-adv-x="1415" 
d="M309.5 -9.5q-110.5 5.5 -198.5 15.5v1149q101 23 228 36.5t243 13.5q389 0 581 -149.5t192 -461.5q0 -214 -91.5 -348.5t-275.5 -197.5t-468 -63q-100 0 -210.5 5.5zM793.5 337q62.5 27 93.5 90t31 169q0 155 -72 219.5t-220 64.5q-43 0 -83 -7v-561q35 -2 88 -2
q100 0 162.5 27zM472 -417.5q-64 46.5 -64 133.5t64 133.5t189 46.5t189 -46.5t64 -133.5t-64 -133.5t-189 -46.5t-189 46.5z" />
    <glyph glyph-name="uni1E0F.sc" horiz-adv-x="1415" 
d="M309.5 -9.5q-110.5 5.5 -198.5 15.5v1149q101 23 228 36.5t243 13.5q389 0 581 -149.5t192 -461.5q0 -214 -91.5 -348.5t-275.5 -197.5t-468 -63q-100 0 -210.5 5.5zM793.5 337q62.5 27 93.5 90t31 169q0 155 -72 219.5t-220 64.5q-43 0 -83 -7v-561q35 -2 88 -2
q100 0 162.5 27zM251 -397v248h820v-248h-820z" />
    <glyph glyph-name="uni01F3.sc" horiz-adv-x="2529" 
d="M309.5 -9.5q-110.5 5.5 -198.5 15.5v1149q101 23 228 36.5t243 13.5q389 0 581 -149.5t192 -461.5q0 -214 -91.5 -348.5t-275.5 -197.5t-468 -63q-100 0 -210.5 5.5zM793.5 337q62.5 27 93.5 90t31 169q0 155 -72 219.5t-220 64.5q-43 0 -83 -7v-561q35 -2 88 -2
q100 0 162.5 27zM1978 332h491v-332h-1043v224l483 634h-475v332h1027v-223z" />
    <glyph glyph-name="uni01C6.sc" horiz-adv-x="2529" 
d="M309.5 -9.5q-110.5 5.5 -198.5 15.5v1149q101 23 228 36.5t243 13.5q389 0 581 -149.5t192 -461.5q0 -214 -91.5 -348.5t-275.5 -197.5t-468 -63q-100 0 -210.5 5.5zM793.5 337q62.5 27 93.5 90t31 169q0 155 -72 219.5t-220 64.5q-43 0 -83 -7v-561q35 -2 88 -2
q100 0 162.5 27zM1978 332h491v-332h-1043v224l483 634h-475v332h1027v-223zM2077 1612h311l-263 -316h-354l-263 316h311l129 -166z" />
    <glyph glyph-name="e.sc" horiz-adv-x="1198" 
d="M533 309h591v-309h-1013v1190h1005v-309h-583v-124h492v-308h-492v-140z" />
    <glyph glyph-name="eacute.sc" horiz-adv-x="1198" 
d="M533 309h591v-309h-1013v1190h1005v-309h-583v-124h492v-308h-492v-140zM439 1296l183 316h445l-246 -316h-382z" />
    <glyph glyph-name="ebreve.sc" horiz-adv-x="1198" 
d="M533 309h591v-309h-1013v1190h1005v-309h-583v-124h492v-308h-492v-140zM333.5 1380q-107.5 84 -126.5 232h253q12 -59 54 -89t118 -30t118 30t54 89h253q-19 -148 -126.5 -232t-298.5 -84t-298.5 84z" />
    <glyph glyph-name="ecaron.sc" horiz-adv-x="1198" 
d="M533 309h591v-309h-1013v1190h1005v-309h-583v-124h492v-308h-492v-140zM761 1612h311l-263 -316h-354l-263 316h311l129 -166z" />
    <glyph glyph-name="uni1E1D.sc" horiz-adv-x="1198" 
d="M333.5 1380q-107.5 84 -126.5 232h253q12 -59 54 -89t118 -30t118 30t54 89h253q-19 -148 -126.5 -232t-298.5 -84t-298.5 84zM702 0v-76q94 -15 141 -62.5t47 -122.5q0 -94 -75.5 -146.5t-231.5 -52.5q-112 0 -209 29v152q41 -14 92 -21t95 -7q59 0 86.5 14t27.5 47
q0 34 -29 49.5t-86 15.5h-52v181h-397v1190h1005v-309h-583v-124h492v-308h-492v-140h591v-309h-422z" />
    <glyph glyph-name="ecircumflex.sc" horiz-adv-x="1198" 
d="M533 309h591v-309h-1013v1190h1005v-309h-583v-124h492v-308h-492v-140zM1072 1296h-311l-129 166l-129 -166h-311l263 316h354z" />
    <glyph glyph-name="uni1EBF.sc" horiz-adv-x="1198" 
d="M533 309h591v-309h-1013v1190h1005v-309h-583v-124h492v-308h-492v-140zM994 1774h276l-151 -236h-221zM455 1568h354l263 -272h-311l-129 144l-129 -144h-311z" />
    <glyph glyph-name="uni1EC7.sc" horiz-adv-x="1198" 
d="M533 309h591v-309h-1013v1190h1005v-309h-583v-124h492v-308h-492v-140zM443 -417.5q-64 46.5 -64 133.5t64 133.5t189 46.5t189 -46.5t64 -133.5t-64 -133.5t-189 -46.5t-189 46.5zM1072 1296h-311l-129 166l-129 -166h-311l263 316h354z" />
    <glyph glyph-name="uni1EC1.sc" horiz-adv-x="1198" 
d="M533 309h591v-309h-1013v1190h1005v-309h-583v-124h492v-308h-492v-140zM1159 1538h-221l-152 236h277zM455 1568h354l263 -272h-311l-129 144l-129 -144h-311z" />
    <glyph glyph-name="uni1EC3.sc" horiz-adv-x="1198" 
d="M533 309h591v-309h-1013v1190h1005v-309h-583v-124h492v-308h-492v-140zM1209.5 1803q69.5 -31 69.5 -96q0 -37 -26.5 -59.5t-76.5 -46.5q-37 -18 -55.5 -31.5t-21.5 -31.5h-202q3 40 32.5 62t80.5 44q27 11 40 18.5t13 17.5q0 26 -105 26q-96 0 -191 -17v125
q44 9 108.5 14.5t116.5 5.5q148 0 217.5 -31zM455 1568h354l263 -272h-311l-129 144l-129 -144h-311z" />
    <glyph glyph-name="uni1EC5.sc" horiz-adv-x="1198" 
d="M533 309h591v-309h-1013v1190h1005v-309h-583v-124h492v-308h-492v-140zM942 1790.5q55 14.5 130 51.5v-170q-64 -38 -119.5 -50t-134.5 -12q-51 0 -95.5 7.5t-114.5 22.5q-51 13 -89.5 19.5t-76.5 6.5q-65 0 -120 -14.5t-130 -51.5v170q64 38 120.5 51t133.5 13
q52 0 98.5 -8t111.5 -23q54 -13 91 -20t75 -7q65 0 120 14.5zM455 1568h354l263 -272h-311l-129 144l-129 -144h-311z" />
    <glyph glyph-name="uni0205.sc" horiz-adv-x="1198" 
d="M533 309h591v-309h-1013v1190h1005v-309h-583v-124h492v-308h-492v-140zM251 1296l-163 316h331l142 -316h-310zM703 1296l-162 316h330l142 -316h-310z" />
    <glyph glyph-name="edieresis.sc" horiz-adv-x="1198" 
d="M533 309h591v-309h-1013v1190h1005v-309h-583v-124h492v-308h-492v-140zM195.5 1326.5q-55.5 46.5 -55.5 133.5t55.5 133.5t163.5 46.5t163 -46.5t55 -133.5t-55 -133.5t-163 -46.5t-163.5 46.5zM742 1326.5q-55 46.5 -55 133.5t55 133.5t163 46.5t163.5 -46.5
t55.5 -133.5t-55.5 -133.5t-163.5 -46.5t-163 46.5z" />
    <glyph glyph-name="edotaccent.sc" horiz-adv-x="1198" 
d="M533 309h591v-309h-1013v1190h1005v-309h-583v-124h492v-308h-492v-140zM443 1326.5q-64 46.5 -64 133.5t64 133.5t189 46.5t189 -46.5t64 -133.5t-64 -133.5t-189 -46.5t-189 46.5z" />
    <glyph glyph-name="uni1EB9.sc" horiz-adv-x="1198" 
d="M533 309h591v-309h-1013v1190h1005v-309h-583v-124h492v-308h-492v-140zM443 -417.5q-64 46.5 -64 133.5t64 133.5t189 46.5t189 -46.5t64 -133.5t-64 -133.5t-189 -46.5t-189 46.5z" />
    <glyph glyph-name="egrave.sc" horiz-adv-x="1198" 
d="M533 309h591v-309h-1013v1190h1005v-309h-583v-124h492v-308h-492v-140zM441 1296l-246 316h445l183 -316h-382z" />
    <glyph glyph-name="uni1EBB.sc" horiz-adv-x="1198" 
d="M533 309h591v-309h-1013v1190h1005v-309h-583v-124h492v-308h-492v-140zM550 1352q17 23 38.5 36.5t56.5 30.5q28 13 40 21.5t12 19.5q0 16 -26 23.5t-79 7.5q-95 0 -191 -20v147q43 10 107 16t118 6q147 0 216.5 -36t69.5 -111q0 -43 -26.5 -69.5t-76.5 -54.5
q-36 -22 -54.5 -37t-21.5 -36h-202q2 33 19 56z" />
    <glyph glyph-name="uni0207.sc" horiz-adv-x="1198" 
d="M533 309h591v-309h-1013v1190h1005v-309h-583v-124h492v-308h-492v-140zM333.5 1528q107.5 84 298.5 84t298.5 -84t126.5 -232h-253q-12 59 -54 89t-118 30t-118 -30t-54 -89h-253q19 148 126.5 232z" />
    <glyph glyph-name="emacron.sc" horiz-adv-x="1198" 
d="M533 309h591v-309h-1013v1190h1005v-309h-583v-124h492v-308h-492v-140zM222 1331v248h820v-248h-820z" />
    <glyph glyph-name="uni1E17.sc" horiz-adv-x="1198" 
d="M533 309h591v-309h-1013v1190h1005v-309h-583v-124h492v-308h-492v-140zM416 1696l183 232h494l-245 -232h-432zM222 1331v248h820v-248h-820z" />
    <glyph glyph-name="uni1E15.sc" horiz-adv-x="1198" 
d="M533 309h591v-309h-1013v1190h1005v-309h-583v-124h492v-308h-492v-140zM416 1696l-245 232h494l183 -232h-432zM222 1331v248h820v-248h-820z" />
    <glyph glyph-name="eogonek.sc" horiz-adv-x="1198" 
d="M854 -96q-54 -50 -54 -110q0 -94 138 -94q59 0 131 25v-155q-92 -30 -194 -30q-156 0 -234 59.5t-78 164.5q0 71 38 129.5t123 106.5h-613v1190h1005v-309h-583v-124h492v-308h-492v-140h591v-309h-78q-138 -46 -192 -96z" />
    <glyph glyph-name="uni1EBD.sc" horiz-adv-x="1198" 
d="M533 309h591v-309h-1013v1190h1005v-309h-583v-124h492v-308h-492v-140zM718.5 1306.5q-45.5 10.5 -104.5 29.5q-58 18 -95.5 27t-78.5 9q-65 0 -114.5 -16.5t-103.5 -53.5v233q46 40 99 58.5t127 18.5q51 0 95.5 -10.5t106.5 -30.5q56 -19 94 -28t80 -9q65 0 114.5 16.5
t103.5 53.5v-233q-45 -40 -98 -57.5t-128 -17.5q-52 0 -97.5 10.5z" />
    <glyph glyph-name="uni0259.sc" horiz-adv-x="1436" 
d="M1169.5 1050q206.5 -156 206.5 -474q0 -182 -81 -315.5t-229 -205t-345 -71.5q-201 0 -352.5 69.5t-235 205t-83.5 328.5v118h886q-36 98 -137 139.5t-281 41.5q-93 0 -191 -10t-181 -27v324q87 16 192.5 24.5t198.5 8.5q426 0 632.5 -156zM874.5 319.5
q51.5 32.5 70.5 113.5h-448q20 -78 74 -112t156 -34q96 0 147.5 32.5z" />
    <glyph glyph-name="f.sc" horiz-adv-x="1161" 
d="M1118 871h-575v-158h483v-318h-483v-395h-432v1190h1007v-319z" />
    <glyph glyph-name="g.sc" horiz-adv-x="1311" 
d="M1217 578v-566q-187 -30 -345 -30q-812 0 -812 609q0 191 91 329t275.5 212t459.5 74q166 0 287 -25v-330q-126 23 -245 23q-156 0 -247.5 -31.5t-131.5 -94t-40 -163.5q0 -271 311 -274v267h397z" />
    <glyph glyph-name="uni01F5.sc" horiz-adv-x="1311" 
d="M1217 578v-566q-187 -30 -345 -30q-812 0 -812 609q0 191 91 329t275.5 212t459.5 74q166 0 287 -25v-330q-126 23 -245 23q-156 0 -247.5 -31.5t-131.5 -94t-40 -163.5q0 -271 311 -274v267h397zM561 1296l183 316h445l-246 -316h-382z" />
    </font>
</defs>
</svg>
