<?xml version="1.0" standalone="no"?>
<!DOCTYPE svg PUBLIC "-//W3C//DTD SVG 1.1//EN" "http://www.w3.org/Graphics/SVG/1.1/DTD/svg11.dtd" >
<svg>
<metadata>
Created by FontForge 20120731 at Tue Feb 19 08:04:01 2019
 By www-data
Copyright 2012 The Encode Project Authors (impallari@gmail.com), with Reserved Font Name "Encode Sans".
</metadata>
<defs>
<font id="EncodeSans-ExtraLight" horiz-adv-x="1112" >
  <font-face 
    font-family="Encode Sans ExtraLight"
    font-weight="275"
    font-stretch="normal"
    units-per-em="2000"
    panose-1="0 0 3 0 0 0 0 0 0 0"
    ascent="1600"
    descent="-400"
    x-height="1081"
    cap-height="1480"
    bbox="-840 -461 2459 2122"
    underline-thickness="50"
    underline-position="-50"
    unicode-range="U+000D-FB02"
  />
<missing-glyph horiz-adv-x="1028" 
d="M843 1616v-2056h-652v2056h652zM685 1478h-340v-68h134v-76h-136v-68h342v68h-136v76h136v68zM549 1213h-206v-214h342v70h-136v144zM479 1143v-74h-68v74h68zM685 944h-342v-68h136v-76h-136v-68h206v144h136v68zM685 820h-68v-135h-274v-70h342v205zM685 569h-206v-115
h70v48h68v-97h-206v164h-68v-232h342v232zM685 214h-342v-233h342v233zM617 146v-97h-206v97h206zM685 -66h-342v-68h144l-144 -96v-68h342v68h-210l144 96h66v68z" />
    <glyph glyph-name="f_j" unicode="fj" horiz-adv-x="1098" 
d="M320 1002v-1002h-88v1002h-216v79h216v203q0 176 87.5 264t260.5 88q73 0 141 -12v-83q-73 14 -140 14q-134 0 -197.5 -62t-63.5 -205v-207h365v-79h-365zM941 1480q20 -20 20 -52q0 -33 -20 -52t-53 -19t-52.5 19t-19.5 52q0 32 19.5 52t52.5 20t53 -20zM844 1081h88
v-907q0 -191 -50.5 -337t-164.5 -298l-61 43q100 138 144 273.5t44 311.5v914z" />
    <glyph glyph-name="fi" unicode="fi" horiz-adv-x="1098" 
d="M319.5 1548q87.5 88 260.5 88q73 0 141 -12v-83q-73 14 -140 14q-134 0 -197.5 -62t-63.5 -205v-207h365v-79h-365v-1002h-88v1002h-216v79h216v203q0 176 87.5 264zM941 1474q20 -20 20 -52q0 -33 -20 -52t-53 -19t-52.5 19t-19.5 52q0 32 19.5 52t52.5 20t53 -20z
M844 0v1081h88v-1081h-88z" />
    <glyph glyph-name="fl" unicode="fl" horiz-adv-x="1098" 
d="M319.5 1548q87.5 88 260.5 88q73 0 141 -12v-83q-73 14 -140 14q-134 0 -197.5 -62t-63.5 -205v-207h365v-79h-365v-1002h-88v1002h-216v79h216v203q0 176 87.5 264zM844 1616h88v-1616h-88v1616z" />
    <glyph glyph-name=".notdef" horiz-adv-x="1028" 
d="M843 1616v-2056h-652v2056h652zM685 1478h-340v-68h134v-76h-136v-68h342v68h-136v76h136v68zM549 1213h-206v-214h342v70h-136v144zM479 1143v-74h-68v74h68zM685 944h-342v-68h136v-76h-136v-68h206v144h136v68zM685 820h-68v-135h-274v-70h342v205zM685 569h-206v-115
h70v48h68v-97h-206v164h-68v-232h342v232zM685 214h-342v-233h342v233zM617 146v-97h-206v97h206zM685 -66h-342v-68h144l-144 -96v-68h342v68h-210l144 96h66v68z" />
    <glyph glyph-name="NULL" horiz-adv-x="0" 
 />
    <glyph glyph-name="NULL" horiz-adv-x="0" 
 />
    <glyph glyph-name="nonmarkingreturn" unicode="&#xd;" horiz-adv-x="483" 
 />
    <glyph glyph-name="space" unicode=" " horiz-adv-x="483" 
 />
    <glyph glyph-name="A" unicode="A" horiz-adv-x="1299" 
d="M1170 0l-193 517h-657l-192 -517h-93l556 1480h117l556 -1480h-94zM351 599h596l-298 799z" />
    <glyph glyph-name="Aacute" unicode="&#xc1;" horiz-adv-x="1299" 
d="M1170 0l-193 517h-657l-192 -517h-93l556 1480h117l556 -1480h-94zM351 599h596l-298 799zM610 1614l176 275h99l-193 -275h-82z" />
    <glyph glyph-name="Abreve" unicode="&#x102;" horiz-adv-x="1299" 
d="M1170 0l-193 517h-657l-192 -517h-93l556 1480h117l556 -1480h-94zM351 599h596l-298 799zM445 1689q-74 63 -84 173h69q12 -86 63.5 -128t159.5 -42t158.5 42t60.5 128h69q-9 -112 -81 -174t-207 -62q-134 0 -208 63z" />
    <glyph glyph-name="uni1EAE" unicode="&#x1eae;" horiz-adv-x="1299" 
d="M1170 0l-193 517h-657l-192 -517h-93l556 1480h117l556 -1480h-94zM351 599h596l-298 799zM615 1845l171 251h90l-188 -251h-73zM444.5 1688q-72.5 62 -81.5 172h67q10 -86 61.5 -127.5t160.5 -41.5t159 41.5t63 127.5h66q-10 -110 -82.5 -172t-205.5 -62
q-135 0 -207.5 62z" />
    <glyph glyph-name="uni1EB6" unicode="&#x1eb6;" horiz-adv-x="1299" 
d="M1170 0l-193 517h-657l-192 -517h-93l556 1480h117l556 -1480h-94zM351 599h596l-298 799zM599 -300q-20 19 -20 50q0 32 20 51.5t52 19.5q33 0 53 -19.5t20 -51.5q0 -31 -20 -50t-53 -19q-32 0 -52 19zM445 1689q-74 63 -84 173h69q12 -86 63.5 -128t159.5 -42t158.5 42
t60.5 128h69q-9 -112 -81 -174t-207 -62q-134 0 -208 63z" />
    <glyph glyph-name="uni1EB0" unicode="&#x1eb0;" horiz-adv-x="1299" 
d="M1170 0l-193 517h-657l-192 -517h-93l556 1480h117l556 -1480h-94zM351 599h596l-298 799zM615 1845l-188 251h90l171 -251h-73zM443.5 1687.5q-71.5 61.5 -80.5 172.5h66q11 -86 61.5 -127.5t159.5 -41.5t160 41.5t63 127.5h67q-10 -110 -83.5 -172t-206.5 -62
q-135 0 -206.5 61.5z" />
    <glyph glyph-name="uni1EB2" unicode="&#x1eb2;" horiz-adv-x="1299" 
d="M1170 0l-193 517h-657l-192 -517h-93l556 1480h117l556 -1480h-94zM351 599h596l-298 799zM630.5 1892.5q14.5 19.5 33.5 30.5t50 25q35 14 52 26.5t17 34.5q0 25 -26.5 38t-93.5 13q-52 0 -99 -8.5t-97 -27.5v59q81 35 198 35q93 0 139.5 -29t46.5 -78q0 -39 -23 -59
t-67 -39q-37 -17 -54.5 -30.5t-20.5 -37.5h-71q1 28 15.5 47.5zM443.5 1687.5q-71.5 61.5 -80.5 172.5h67q10 -86 60.5 -127.5t158.5 -41.5q109 0 161 41.5t64 127.5h66q-10 -110 -83.5 -172t-207.5 -62t-205.5 61.5z" />
    <glyph glyph-name="uni1EB4" unicode="&#x1eb4;" horiz-adv-x="1299" 
d="M1170 0l-193 517h-657l-192 -517h-93l556 1480h117l556 -1480h-94zM351 599h596l-298 799zM717 1942.5q-33 10.5 -81 30.5q-42 17 -68 25.5t-52 8.5q-45 0 -82 -17.5t-71 -53.5v73q58 61 154 61q36 0 69.5 -10.5t79.5 -30.5q45 -18 69.5 -26t50.5 -8q45 0 82.5 17.5
t71.5 53.5v-73q-58 -61 -154 -61q-36 0 -69 10.5zM443.5 1687.5q-71.5 61.5 -80.5 172.5h67q10 -86 60.5 -127.5t158.5 -41.5q109 0 160.5 41.5t63.5 127.5h67q-10 -110 -83.5 -172t-207.5 -62t-205.5 61.5z" />
    <glyph glyph-name="Acircumflex" unicode="&#xc2;" horiz-adv-x="1299" 
d="M1170 0l-193 517h-657l-192 -517h-93l556 1480h117l556 -1480h-94zM351 599h596l-298 799zM938 1614h-94l-193 225l-193 -225h-94l242 275h91z" />
    <glyph glyph-name="uni1EA4" unicode="&#x1ea4;" horiz-adv-x="1299" 
d="M1170 0l-193 517h-657l-192 -517h-93l556 1480h117l556 -1480h-94zM351 599h596l-298 799zM1039 2064h90l-188 -270h-73zM606 1886h91l241 -272h-94l-193 224l-193 -224h-94z" />
    <glyph glyph-name="uni1EAC" unicode="&#x1eac;" horiz-adv-x="1299" 
d="M1170 0l-193 517h-657l-192 -517h-93l556 1480h117l556 -1480h-94zM351 599h596l-298 799zM599 -300q-20 19 -20 50q0 32 20 51.5t52 19.5q33 0 53 -19.5t20 -51.5q0 -31 -20 -50t-53 -19q-32 0 -52 19zM938 1614h-94l-193 225l-193 -225h-94l242 275h91z" />
    <glyph glyph-name="uni1EA6" unicode="&#x1ea6;" horiz-adv-x="1299" 
d="M1170 0l-193 517h-657l-192 -517h-93l556 1480h117l556 -1480h-94zM351 599h596l-298 799zM962 1794h-73l-188 270h90zM606 1886h91l241 -272h-94l-193 224l-193 -224h-94z" />
    <glyph glyph-name="uni1EA8" unicode="&#x1ea8;" horiz-adv-x="1299" 
d="M1170 0l-193 517h-657l-192 -517h-93l556 1480h117l556 -1480h-94zM351 599h596l-298 799zM1057.5 2038q46.5 -29 46.5 -78q0 -39 -23 -59t-67 -39q-37 -17 -54.5 -30.5t-20.5 -37.5h-71q1 28 15.5 47.5t33.5 30.5t50 25q35 14 52 26.5t17 34.5q0 25 -26.5 38t-93.5 13
q-53 0 -100 -8.5t-97 -27.5v59q83 35 199 35q93 0 139.5 -29zM606 1886h91l241 -272h-94l-193 224l-193 -224h-94z" />
    <glyph glyph-name="uni1EAA" unicode="&#x1eaa;" horiz-adv-x="1299" 
d="M1170 0l-193 517h-657l-192 -517h-93l556 1480h117l556 -1480h-94zM351 599h596l-298 799zM867 2012.5q37 17.5 71 53.5v-73q-56 -61 -153 -61q-36 0 -69.5 10.5t-79.5 30.5q-45 18 -69.5 26t-49.5 8q-45 0 -81.5 -17.5t-71.5 -53.5v73q58 61 153 61q37 0 70.5 -10.5
t79.5 -30.5q43 -18 68 -26t50 -8q45 0 82 17.5zM606 1886h91l241 -272h-94l-193 224l-193 -224h-94z" />
    <glyph glyph-name="uni0200" unicode="&#x200;" horiz-adv-x="1299" 
d="M1170 0l-193 517h-657l-192 -517h-93l556 1480h117l556 -1480h-94zM351 599h596l-298 799zM462 1614l-132 275h83l124 -275h-75zM766 1614l-132 275h83l124 -275h-75z" />
    <glyph glyph-name="Adieresis" unicode="&#xc4;" horiz-adv-x="1299" 
d="M1170 0l-193 517h-657l-192 -517h-93l556 1480h117l556 -1480h-94zM351 599h596l-298 799zM376.5 1702q-19.5 19 -19.5 50t19.5 50.5t51.5 19.5t51.5 -19.5t19.5 -50.5t-19.5 -50t-51.5 -19t-51.5 19zM823 1702q-19 19 -19 50q0 32 19 51t51 19t51.5 -19t19.5 -51
q0 -31 -19.5 -50t-51.5 -19t-51 19z" />
    <glyph glyph-name="uni1EA0" unicode="&#x1ea0;" horiz-adv-x="1299" 
d="M1170 0l-193 517h-657l-192 -517h-93l556 1480h117l556 -1480h-94zM351 599h596l-298 799zM599 -300q-20 19 -20 50q0 32 20 51.5t52 19.5q33 0 53 -19.5t20 -51.5q0 -31 -20 -50t-53 -19q-32 0 -52 19z" />
    <glyph glyph-name="Agrave" unicode="&#xc0;" horiz-adv-x="1299" 
d="M1170 0l-193 517h-657l-192 -517h-93l556 1480h117l556 -1480h-94zM351 599h596l-298 799zM610 1614l-193 275h100l175 -275h-82z" />
    <glyph glyph-name="uni1EA2" unicode="&#x1ea2;" horiz-adv-x="1299" 
d="M1170 0l-193 517h-657l-192 -517h-93l556 1480h117l556 -1480h-94zM351 599h596l-298 799zM630.5 1662.5q14.5 19.5 33.5 30.5t50 25q35 14 52 26.5t17 34.5q0 25 -26.5 38.5t-93.5 13.5q-52 0 -99 -8.5t-97 -27.5v60q81 35 198 35q93 0 139.5 -29.5t46.5 -78.5
q0 -39 -23 -59.5t-67 -39.5q-37 -17 -54.5 -30.5t-20.5 -38.5h-71q1 29 15.5 48.5z" />
    <glyph glyph-name="uni0202" unicode="&#x202;" horiz-adv-x="1299" 
d="M1170 0l-193 517h-657l-192 -517h-93l556 1480h117l556 -1480h-94zM351 599h596l-298 799zM443 1815q72 62 206 62q135 0 209 -63t83 -173h-69q-12 86 -63.5 128t-159.5 42t-158.5 -42t-60.5 -128h-69q10 112 82 174z" />
    <glyph glyph-name="Amacron" unicode="&#x100;" horiz-adv-x="1299" 
d="M1170 0l-193 517h-657l-192 -517h-93l556 1480h117l556 -1480h-94zM351 599h596l-298 799zM373 1717v70h556v-70h-556z" />
    <glyph glyph-name="Aogonek" unicode="&#x104;" horiz-adv-x="1299" 
d="M1293 -336q39 9 90 31v-60q-85 -38 -169 -38q-103 0 -159 44.5t-56 127.5q0 69 39.5 128t127.5 114l-189 506h-657l-192 -517h-93l556 1480h117l556 -1480q-110 -57 -154 -110.5t-44 -116.5q0 -58 37.5 -88t111.5 -30q39 0 78 9zM351 599h596l-298 799z" />
    <glyph glyph-name="Aring" unicode="&#xc5;" horiz-adv-x="1299" 
d="M977 517h-657l-192 -517h-93l546 1452q-52 21 -83 66.5t-31 106.5q0 53 24 95.5t66.5 66.5t95.5 24t96 -24t67 -66.5t24 -95.5q0 -62 -33 -109t-88 -66l545 -1450h-94zM561.5 1531q35.5 -35 91.5 -35q57 0 92 35t35 94t-35 94t-92 35q-56 0 -91.5 -35t-35.5 -94t35.5 -94
zM351 599h596l-298 799z" />
    <glyph glyph-name="Aringacute" unicode="&#x1fa;" horiz-adv-x="1299" 
d="M977 517h-657l-192 -517h-93l546 1453q-52 21 -83 66.5t-31 106.5q0 53 24 95.5t66.5 66.5t95.5 24q56 0 100 -27l135 136h93l-180 -177q39 -50 39 -118q0 -63 -33 -110t-88 -65l545 -1451h-94zM561.5 1531q35.5 -35 91.5 -35q57 0 92 35t35 95q0 59 -35 94t-92 35
q-56 0 -91.5 -35t-35.5 -94q0 -60 35.5 -95zM351 599h596l-298 799z" />
    <glyph glyph-name="Atilde" unicode="&#xc3;" horiz-adv-x="1299" 
d="M1170 0l-193 517h-657l-192 -517h-93l556 1480h117l556 -1480h-94zM351 599h596l-298 799zM722 1701.5q-36 10.5 -85 30.5q-45 18 -73.5 26.5t-58.5 8.5q-50 0 -87.5 -17t-71.5 -54v76q56 62 159 62q40 0 76 -10.5t85 -30.5q45 -18 73.5 -26.5t58.5 -8.5q49 0 87 17
t72 54v-76q-57 -62 -159 -62q-40 0 -76 10.5z" />
    <glyph glyph-name="AE" unicode="&#xc6;" horiz-adv-x="1775" 
d="M1006 82h698v-82h-781l-34 517h-564l-197 -517h-93l567 1480h1092v-82h-775l39 -597h640v-81h-634zM356 599h528l-52 799h-172z" />
    <glyph glyph-name="AEacute" unicode="&#x1fc;" horiz-adv-x="1775" 
d="M1006 82h698v-82h-781l-34 517h-564l-197 -517h-93l567 1480h1092v-82h-775l39 -597h640v-81h-634zM356 599h528l-52 799h-172zM832 1614l176 275h99l-193 -275h-82z" />
    <glyph glyph-name="B" unicode="B" horiz-adv-x="1225" 
d="M1066 641q78 -96 78 -244q0 -136 -62.5 -226t-199 -136t-355.5 -46q-167 0 -342 21v1449q89 18 178 26.5t198 8.5q281 0 410.5 -94.5t129.5 -291.5q0 -130 -65 -220.5t-207 -122.5q159 -28 237 -124zM273 1392v-591h326q219 0 316.5 74.5t97.5 231.5q0 111 -45 178
t-143 98.5t-261 31.5q-165 0 -291 -23zM843 104.5q114 35.5 163 107.5t49 186q0 165 -104.5 243.5t-324.5 78.5h-353v-635q111 -16 263 -16q193 0 307 35.5z" />
    <glyph glyph-name="C" unicode="C" 
d="M278.5 158.5q-163.5 176.5 -163.5 579.5q0 396 165 578t475 182q161 0 320 -46v-84q-154 48 -323 48q-178 0 -297.5 -66t-182.5 -215t-63 -393q0 -252 64 -401.5t181 -213t288 -63.5q86 0 164 13.5t169 45.5v-84q-160 -57 -336 -57q-297 0 -460.5 176.5z" />
    <glyph glyph-name="Cacute" unicode="&#x106;" 
d="M278.5 158.5q-163.5 176.5 -163.5 579.5q0 396 165 578t475 182q161 0 320 -46v-84q-154 48 -323 48q-178 0 -297.5 -66t-182.5 -215t-63 -393q0 -252 64 -401.5t181 -213t288 -63.5q86 0 164 13.5t169 45.5v-84q-160 -57 -336 -57q-297 0 -460.5 176.5zM639 1614
l176 275h99l-193 -275h-82z" />
    <glyph glyph-name="Ccaron" unicode="&#x10c;" 
d="M278.5 158.5q-163.5 176.5 -163.5 579.5q0 396 165 578t475 182q161 0 320 -46v-84q-154 48 -323 48q-178 0 -297.5 -66t-182.5 -215t-63 -393q0 -252 64 -401.5t181 -213t288 -63.5q86 0 164 13.5t169 45.5v-84q-160 -57 -336 -57q-297 0 -460.5 176.5zM873 1889h94
l-241 -275h-91l-242 275h94l193 -225z" />
    <glyph glyph-name="Ccedilla" unicode="&#xc7;" 
d="M454.5 1350q-119.5 -66 -182.5 -215t-63 -393q0 -252 64 -401.5t181 -213t288 -63.5q86 0 164 13.5t169 45.5v-84q-160 -57 -336 -57h-14v-92q82 -4 128.5 -41.5t46.5 -104.5q0 -72 -52.5 -109.5t-144.5 -37.5q-49 0 -98 9.5t-90 28.5v61q53 -23 97.5 -32.5t89.5 -9.5
q64 0 98.5 22.5t34.5 68.5q0 90 -135 90h-39v150q-261 21 -403.5 199t-142.5 554q0 396 165 578t475 182q161 0 320 -46v-84q-154 48 -323 48q-178 0 -297.5 -66z" />
    <glyph glyph-name="uni1E08" unicode="&#x1e08;" 
d="M914 1889l-193 -275h-82l176 275h99zM454.5 1350q-119.5 -66 -182.5 -215t-63 -393q0 -252 64 -401.5t181 -213t288 -63.5q86 0 164 13.5t169 45.5v-84q-160 -57 -336 -57h-14v-92q82 -4 128.5 -41.5t46.5 -104.5q0 -72 -52.5 -109.5t-144.5 -37.5q-49 0 -98 9.5
t-90 28.5v61q53 -23 97.5 -32.5t89.5 -9.5q64 0 98.5 22.5t34.5 68.5q0 90 -135 90h-39v150q-261 21 -403.5 199t-142.5 554q0 396 165 578t475 182q161 0 320 -46v-84q-154 48 -323 48q-178 0 -297.5 -66z" />
    <glyph glyph-name="Ccircumflex" unicode="&#x108;" 
d="M278.5 158.5q-163.5 176.5 -163.5 579.5q0 396 165 578t475 182q161 0 320 -46v-84q-154 48 -323 48q-178 0 -297.5 -66t-182.5 -215t-63 -393q0 -252 64 -401.5t181 -213t288 -63.5q86 0 164 13.5t169 45.5v-84q-160 -57 -336 -57q-297 0 -460.5 176.5zM967 1614h-94
l-193 225l-193 -225h-94l242 275h91z" />
    <glyph glyph-name="Cdotaccent" unicode="&#x10a;" 
d="M278.5 158.5q-163.5 176.5 -163.5 579.5q0 396 165 578t475 182q161 0 320 -46v-84q-154 48 -323 48q-178 0 -297.5 -66t-182.5 -215t-63 -393q0 -252 64 -401.5t181 -213t288 -63.5q86 0 164 13.5t169 45.5v-84q-160 -57 -336 -57q-297 0 -460.5 176.5zM628 1702
q-20 19 -20 50t20 50.5t52 19.5q33 0 53 -19t20 -51q0 -31 -20 -50t-53 -19q-32 0 -52 19z" />
    <glyph glyph-name="D" unicode="D" horiz-adv-x="1355" 
d="M355 -5.5q-74 4.5 -170 15.5v1450q175 34 350 34q351 0 528 -186.5t177 -567.5q0 -385 -182 -567.5t-547 -182.5q-82 0 -156 4.5zM869.5 140.5q138.5 69.5 208 217.5t69.5 382q0 347 -151 509.5t-464 162.5q-121 0 -258 -21v-1304q108 -16 245 -16q212 0 350.5 69.5z" />
    <glyph glyph-name="uni01F1" unicode="&#x1f1;" horiz-adv-x="2420" 
d="M355 -5.5q-74 4.5 -170 15.5v1450q175 34 350 34q351 0 528 -186.5t177 -567.5q0 -385 -182 -567.5t-547 -182.5q-82 0 -156 4.5zM869.5 140.5q138.5 69.5 208 217.5t69.5 382q0 347 -151 509.5t-464 162.5q-121 0 -258 -21v-1304q108 -16 245 -16q212 0 350.5 69.5z
M1489 81h868v-81h-988v51l856 1348h-845v81h965v-51z" />
    <glyph glyph-name="uni01C4" unicode="&#x1c4;" horiz-adv-x="2420" 
d="M355 -5.5q-74 4.5 -170 15.5v1450q175 34 350 34q351 0 528 -186.5t177 -567.5q0 -385 -182 -567.5t-547 -182.5q-82 0 -156 4.5zM869.5 140.5q138.5 69.5 208 217.5t69.5 382q0 347 -151 509.5t-464 162.5q-121 0 -258 -21v-1304q108 -16 245 -16q212 0 350.5 69.5z
M1489 81h868v-81h-988v51l856 1348h-845v81h965v-51zM2056 1889h94l-241 -275h-91l-242 275h94l193 -225z" />
    <glyph glyph-name="Eth" unicode="&#xd0;" horiz-adv-x="1355" 
d="M1063 1307.5q177 -186.5 177 -567.5q0 -385 -182 -567.5t-547 -182.5q-82 0 -156 4.5t-170 15.5v716h-183v72h183v662q175 34 350 34q351 0 528 -186.5zM869.5 140.5q138.5 69.5 208 217.5t69.5 382q0 347 -151 509.5t-464 162.5q-121 0 -258 -21v-593h357v-72h-357v-639
q108 -16 245 -16q212 0 350.5 69.5z" />
    <glyph glyph-name="Dcaron" unicode="&#x10e;" horiz-adv-x="1355" 
d="M355 -5.5q-74 4.5 -170 15.5v1450q175 34 350 34q351 0 528 -186.5t177 -567.5q0 -385 -182 -567.5t-547 -182.5q-82 0 -156 4.5zM869.5 140.5q138.5 69.5 208 217.5t69.5 382q0 347 -151 509.5t-464 162.5q-121 0 -258 -21v-1304q108 -16 245 -16q212 0 350.5 69.5z
M809 1889h94l-241 -275h-91l-242 275h94l193 -225z" />
    <glyph glyph-name="Dcroat" unicode="&#x110;" horiz-adv-x="1355" 
d="M1063 1307.5q177 -186.5 177 -567.5q0 -385 -182 -567.5t-547 -182.5q-82 0 -156 4.5t-170 15.5v716h-183v72h183v662q175 34 350 34q351 0 528 -186.5zM869.5 140.5q138.5 69.5 208 217.5t69.5 382q0 347 -151 509.5t-464 162.5q-121 0 -258 -21v-593h357v-72h-357v-639
q108 -16 245 -16q212 0 350.5 69.5z" />
    <glyph glyph-name="uni1E0C" unicode="&#x1e0c;" horiz-adv-x="1355" 
d="M355 -5.5q-74 4.5 -170 15.5v1450q175 34 350 34q351 0 528 -186.5t177 -567.5q0 -385 -182 -567.5t-547 -182.5q-82 0 -156 4.5zM869.5 140.5q138.5 69.5 208 217.5t69.5 382q0 347 -151 509.5t-464 162.5q-121 0 -258 -21v-1304q108 -16 245 -16q212 0 350.5 69.5z
M565 -300q-20 19 -20 50q0 32 20 51.5t52 19.5q33 0 53 -19.5t20 -51.5q0 -31 -20 -50t-53 -19q-32 0 -52 19z" />
    <glyph glyph-name="uni1E0E" unicode="&#x1e0e;" horiz-adv-x="1355" 
d="M355 -5.5q-74 4.5 -170 15.5v1450q175 34 350 34q351 0 528 -186.5t177 -567.5q0 -385 -182 -567.5t-547 -182.5q-82 0 -156 4.5zM869.5 140.5q138.5 69.5 208 217.5t69.5 382q0 347 -151 509.5t-464 162.5q-121 0 -258 -21v-1304q108 -16 245 -16q212 0 350.5 69.5z
M339 -285v70h556v-70h-556z" />
    <glyph glyph-name="uni01F2" unicode="&#x1f2;" horiz-adv-x="2231" 
d="M355 -5.5q-74 4.5 -170 15.5v1450q175 34 350 34q351 0 528 -186.5t177 -567.5q0 -385 -182 -567.5t-547 -182.5q-82 0 -156 4.5zM869.5 140.5q138.5 69.5 208 217.5t69.5 382q0 347 -151 509.5t-464 162.5q-121 0 -258 -21v-1304q108 -16 245 -16q212 0 350.5 69.5z
M1534 79h641v-79h-759v53l630 949h-618v79h735v-53z" />
    <glyph glyph-name="uni01C5" unicode="&#x1c5;" horiz-adv-x="2231" 
d="M355 -5.5q-74 4.5 -170 15.5v1450q175 34 350 34q351 0 528 -186.5t177 -567.5q0 -385 -182 -567.5t-547 -182.5q-82 0 -156 4.5zM869.5 140.5q138.5 69.5 208 217.5t69.5 382q0 347 -151 509.5t-464 162.5q-121 0 -258 -21v-1304q108 -16 245 -16q212 0 350.5 69.5z
M1534 79h641v-79h-759v53l630 949h-618v79h735v-53zM1989 1569h94l-241 -275h-91l-242 275h94l193 -225z" />
    <glyph glyph-name="E" unicode="E" horiz-adv-x="1126" 
d="M274 82h781v-82h-870v1480h860v-82h-771v-597h675v-81h-675v-638z" />
    <glyph glyph-name="Eacute" unicode="&#xc9;" horiz-adv-x="1126" 
d="M274 82h781v-82h-870v1480h860v-82h-771v-597h675v-81h-675v-638zM596 1614l176 275h99l-193 -275h-82z" />
    <glyph glyph-name="Ebreve" unicode="&#x114;" horiz-adv-x="1126" 
d="M274 82h781v-82h-870v1480h860v-82h-771v-597h675v-81h-675v-638zM431 1689q-74 63 -84 173h69q12 -86 63.5 -128t159.5 -42t158.5 42t60.5 128h69q-9 -112 -81 -174t-207 -62q-134 0 -208 63z" />
    <glyph glyph-name="Ecaron" unicode="&#x11a;" horiz-adv-x="1126" 
d="M274 82h781v-82h-870v1480h860v-82h-771v-597h675v-81h-675v-638zM830 1889h94l-241 -275h-91l-242 275h94l193 -225z" />
    <glyph glyph-name="uni1E1C" unicode="&#x1e1c;" horiz-adv-x="1126" 
d="M431 1689q-74 63 -84 173h69q12 -86 63.5 -128t159.5 -42t158.5 42t60.5 128h69q-9 -112 -81 -174t-207 -62q-134 0 -208 63zM670 0v-110q82 -4 128.5 -41.5t46.5 -104.5q0 -72 -52.5 -109.5t-144.5 -37.5q-49 0 -98 9.5t-90 28.5v61q53 -23 97.5 -32.5t89.5 -9.5
q64 0 98.5 22.5t34.5 68.5q0 90 -135 90h-39v165h-421v1480h860v-82h-771v-597h675v-81h-675v-638h781v-82h-385z" />
    <glyph glyph-name="Ecircumflex" unicode="&#xca;" horiz-adv-x="1126" 
d="M274 82h781v-82h-870v1480h860v-82h-771v-597h675v-81h-675v-638zM924 1614h-94l-193 225l-193 -225h-94l242 275h91z" />
    <glyph glyph-name="uni1EBE" unicode="&#x1ebe;" horiz-adv-x="1126" 
d="M274 82h781v-82h-870v1480h860v-82h-771v-597h675v-81h-675v-638zM1025 2064h90l-188 -270h-73zM592 1886h91l241 -272h-94l-193 224l-193 -224h-94z" />
    <glyph glyph-name="uni1EC6" unicode="&#x1ec6;" horiz-adv-x="1126" 
d="M274 82h781v-82h-870v1480h860v-82h-771v-597h675v-81h-675v-638zM587 -300q-20 19 -20 50q0 32 20 51.5t52 19.5q33 0 53 -19.5t20 -51.5q0 -31 -20 -50t-53 -19q-32 0 -52 19zM924 1614h-94l-193 225l-193 -225h-94l242 275h91z" />
    <glyph glyph-name="uni1EC0" unicode="&#x1ec0;" horiz-adv-x="1126" 
d="M274 82h781v-82h-870v1480h860v-82h-771v-597h675v-81h-675v-638zM948 1794h-73l-188 270h90zM592 1886h91l241 -272h-94l-193 224l-193 -224h-94z" />
    <glyph glyph-name="uni1EC2" unicode="&#x1ec2;" horiz-adv-x="1126" 
d="M274 82h781v-82h-870v1480h860v-82h-771v-597h675v-81h-675v-638zM1043.5 2038q46.5 -29 46.5 -78q0 -39 -23 -59t-67 -39q-37 -17 -54.5 -30.5t-20.5 -37.5h-71q1 28 15.5 47.5t33.5 30.5t50 25q35 14 52 26.5t17 34.5q0 25 -26.5 38t-93.5 13q-53 0 -100 -8.5
t-97 -27.5v59q83 35 199 35q93 0 139.5 -29zM592 1886h91l241 -272h-94l-193 224l-193 -224h-94z" />
    <glyph glyph-name="uni1EC4" unicode="&#x1ec4;" horiz-adv-x="1126" 
d="M274 82h781v-82h-870v1480h860v-82h-771v-597h675v-81h-675v-638zM853 2012.5q37 17.5 71 53.5v-73q-56 -61 -153 -61q-36 0 -69.5 10.5t-79.5 30.5q-45 18 -69.5 26t-49.5 8q-45 0 -81.5 -17.5t-71.5 -53.5v73q58 61 153 61q37 0 70.5 -10.5t79.5 -30.5q43 -18 68 -26
t50 -8q45 0 82 17.5zM592 1886h91l241 -272h-94l-193 224l-193 -224h-94z" />
    <glyph glyph-name="uni0204" unicode="&#x204;" horiz-adv-x="1126" 
d="M274 82h781v-82h-870v1480h860v-82h-771v-597h675v-81h-675v-638zM448 1614l-132 275h83l124 -275h-75zM752 1614l-132 275h83l124 -275h-75z" />
    <glyph glyph-name="Edieresis" unicode="&#xcb;" horiz-adv-x="1126" 
d="M274 82h781v-82h-870v1480h860v-82h-771v-597h675v-81h-675v-638zM362.5 1702q-19.5 19 -19.5 50t19.5 50.5t51.5 19.5t51.5 -19.5t19.5 -50.5t-19.5 -50t-51.5 -19t-51.5 19zM809 1702q-19 19 -19 50q0 32 19 51t51 19t51.5 -19t19.5 -51q0 -31 -19.5 -50t-51.5 -19
t-51 19z" />
    <glyph glyph-name="Edotaccent" unicode="&#x116;" horiz-adv-x="1126" 
d="M274 82h781v-82h-870v1480h860v-82h-771v-597h675v-81h-675v-638zM585 1702q-20 19 -20 50t20 50.5t52 19.5q33 0 53 -19t20 -51q0 -31 -20 -50t-53 -19q-32 0 -52 19z" />
    <glyph glyph-name="uni1EB8" unicode="&#x1eb8;" horiz-adv-x="1126" 
d="M274 82h781v-82h-870v1480h860v-82h-771v-597h675v-81h-675v-638zM587 -300q-20 19 -20 50q0 32 20 51.5t52 19.5q33 0 53 -19.5t20 -51.5q0 -31 -20 -50t-53 -19q-32 0 -52 19z" />
    <glyph glyph-name="Egrave" unicode="&#xc8;" horiz-adv-x="1126" 
d="M274 82h781v-82h-870v1480h860v-82h-771v-597h675v-81h-675v-638zM596 1614l-193 275h100l175 -275h-82z" />
    <glyph glyph-name="uni1EBA" unicode="&#x1eba;" horiz-adv-x="1126" 
d="M274 82h781v-82h-870v1480h860v-82h-771v-597h675v-81h-675v-638zM616.5 1662.5q14.5 19.5 33.5 30.5t50 25q35 14 52 26.5t17 34.5q0 25 -26.5 38.5t-93.5 13.5q-52 0 -99 -8.5t-97 -27.5v60q81 35 198 35q93 0 139.5 -29.5t46.5 -78.5q0 -39 -23 -59.5t-67 -39.5
q-37 -17 -54.5 -30.5t-20.5 -38.5h-71q1 29 15.5 48.5z" />
    <glyph glyph-name="uni0206" unicode="&#x206;" horiz-adv-x="1126" 
d="M274 82h781v-82h-870v1480h860v-82h-771v-597h675v-81h-675v-638zM429 1815q72 62 206 62q135 0 209 -63t83 -173h-69q-12 86 -63.5 128t-159.5 42t-158.5 -42t-60.5 -128h-69q10 112 82 174z" />
    <glyph glyph-name="Emacron" unicode="&#x112;" horiz-adv-x="1126" 
d="M274 82h781v-82h-870v1480h860v-82h-771v-597h675v-81h-675v-638zM359 1717v70h556v-70h-556z" />
    <glyph glyph-name="uni1E16" unicode="&#x1e16;" horiz-adv-x="1126" 
d="M274 82h781v-82h-870v1480h860v-82h-771v-597h675v-81h-675v-638zM595 1890l175 232h103l-193 -232h-85zM359 1717v70h556v-70h-556z" />
    <glyph glyph-name="uni1E14" unicode="&#x1e14;" horiz-adv-x="1126" 
d="M274 82h781v-82h-870v1480h860v-82h-771v-597h675v-81h-675v-638zM595 1890l-193 232h102l176 -232h-85zM359 1717v70h556v-70h-556z" />
    <glyph glyph-name="Eogonek" unicode="&#x118;" horiz-adv-x="1126" 
d="M1003 -336q39 9 90 31v-60q-85 -38 -169 -38q-103 0 -159 44.5t-56 127.5q0 66 35 122t114 109h-673v1480h860v-82h-771v-597h675v-81h-675v-638h781v-82h-81q-110 -57 -154 -110.5t-44 -116.5q0 -58 37.5 -88t111.5 -30q39 0 78 9z" />
    <glyph glyph-name="uni1EBC" unicode="&#x1ebc;" horiz-adv-x="1126" 
d="M274 82h781v-82h-870v1480h860v-82h-771v-597h675v-81h-675v-638zM708 1701.5q-36 10.5 -85 30.5q-45 18 -73.5 26.5t-58.5 8.5q-50 0 -87.5 -17t-71.5 -54v76q56 62 159 62q40 0 76 -10.5t85 -30.5q45 -18 73.5 -26.5t58.5 -8.5q49 0 87 17t72 54v-76q-57 -62 -159 -62
q-40 0 -76 10.5z" />
    <glyph glyph-name="F" unicode="F" horiz-adv-x="1085" 
d="M1035 1398h-761v-599h666v-82h-666v-717h-89v1480h850v-82z" />
    <glyph glyph-name="G" unicode="G" horiz-adv-x="1311" 
d="M1149 720v-703q-91 -15 -163 -21.5t-151 -6.5q-360 0 -539.5 180t-180.5 569q-1 394 178 577t496 183q158 0 330 -46v-84q-90 26 -169.5 37t-159.5 11q-278 0 -430 -158.5t-151 -518.5q0 -237 69.5 -384t206.5 -215t348 -68q133 0 229 17v631h87z" />
    <glyph glyph-name="uni01F4" unicode="&#x1f4;" horiz-adv-x="1311" 
d="M1149 720v-703q-91 -15 -163 -21.5t-151 -6.5q-360 0 -539.5 180t-180.5 569q-1 394 178 577t496 183q158 0 330 -46v-84q-90 26 -169.5 37t-159.5 11q-278 0 -430 -158.5t-151 -518.5q0 -237 69.5 -384t206.5 -215t348 -68q133 0 229 17v631h87zM676 1614l176 275h99
l-193 -275h-82z" />
    <glyph glyph-name="Gbreve" unicode="&#x11e;" horiz-adv-x="1311" 
d="M1149 720v-703q-91 -15 -163 -21.5t-151 -6.5q-360 0 -539.5 180t-180.5 569q-1 394 178 577t496 183q158 0 330 -46v-84q-90 26 -169.5 37t-159.5 11q-278 0 -430 -158.5t-151 -518.5q0 -237 69.5 -384t206.5 -215t348 -68q133 0 229 17v631h87zM511 1689
q-74 63 -84 173h69q12 -86 63.5 -128t159.5 -42t158.5 42t60.5 128h69q-9 -112 -81 -174t-207 -62q-134 0 -208 63z" />
    <glyph glyph-name="Gcaron" unicode="&#x1e6;" horiz-adv-x="1311" 
d="M1149 720v-703q-91 -15 -163 -21.5t-151 -6.5q-360 0 -539.5 180t-180.5 569q-1 394 178 577t496 183q158 0 330 -46v-84q-90 26 -169.5 37t-159.5 11q-278 0 -430 -158.5t-151 -518.5q0 -237 69.5 -384t206.5 -215t348 -68q133 0 229 17v631h87zM910 1889h94l-241 -275
h-91l-242 275h94l193 -225z" />
    <glyph glyph-name="Gcircumflex" unicode="&#x11c;" horiz-adv-x="1311" 
d="M1149 720v-703q-91 -15 -163 -21.5t-151 -6.5q-360 0 -539.5 180t-180.5 569q-1 394 178 577t496 183q158 0 330 -46v-84q-90 26 -169.5 37t-159.5 11q-278 0 -430 -158.5t-151 -518.5q0 -237 69.5 -384t206.5 -215t348 -68q133 0 229 17v631h87zM1004 1614h-94l-193 225
l-193 -225h-94l242 275h91z" />
    <glyph glyph-name="Gcommaaccent" unicode="&#x122;" horiz-adv-x="1311" 
d="M1149 720v-703q-91 -15 -163 -21.5t-151 -6.5q-360 0 -539.5 180t-180.5 569q-1 394 178 577t496 183q158 0 330 -46v-84q-90 26 -169.5 37t-159.5 11q-278 0 -430 -158.5t-151 -518.5q0 -237 69.5 -384t206.5 -215t348 -68q133 0 229 17v631h87zM769 -202.5
q20 -23.5 20 -68.5q0 -38 -12.5 -87t-34.5 -94h-56q30 77 35 138h-4q-32 0 -51.5 19t-19.5 49t18.5 48.5t49.5 18.5q35 0 55 -23.5z" />
    <glyph glyph-name="Gdotaccent" unicode="&#x120;" horiz-adv-x="1311" 
d="M1149 720v-703q-91 -15 -163 -21.5t-151 -6.5q-360 0 -539.5 180t-180.5 569q-1 394 178 577t496 183q158 0 330 -46v-84q-90 26 -169.5 37t-159.5 11q-278 0 -430 -158.5t-151 -518.5q0 -237 69.5 -384t206.5 -215t348 -68q133 0 229 17v631h87zM665 1702q-20 19 -20 50
t20 50.5t52 19.5q33 0 53 -19t20 -51q0 -31 -20 -50t-53 -19q-32 0 -52 19z" />
    <glyph glyph-name="uni1E20" unicode="&#x1e20;" horiz-adv-x="1311" 
d="M1149 720v-703q-91 -15 -163 -21.5t-151 -6.5q-360 0 -539.5 180t-180.5 569q-1 394 178 577t496 183q158 0 330 -46v-84q-90 26 -169.5 37t-159.5 11q-278 0 -430 -158.5t-151 -518.5q0 -237 69.5 -384t206.5 -215t348 -68q133 0 229 17v631h87zM439 1717v70h556v-70
h-556z" />
    <glyph glyph-name="H" unicode="H" horiz-adv-x="1408" 
d="M185 0v1480h89v-678h860v678h89v-1480h-89v719h-860v-719h-89z" />
    <glyph glyph-name="Hbar" unicode="&#x126;" horiz-adv-x="1408" 
d="M1406 1179v-71h-183v-1108h-89v719h-860v-719h-89v1108h-183v71h183v301h89v-301h860v301h89v-301h183zM1134 802v306h-860v-306h860z" />
    <glyph glyph-name="uni1E2A" unicode="&#x1e2a;" horiz-adv-x="1408" 
d="M185 0v1480h89v-678h860v678h89v-1480h-89v719h-860v-719h-89zM492 -337.5q-75 65.5 -78 178.5h69q5 -87 58.5 -132t164.5 -45t163.5 45t55.5 132h69q-2 -114 -75.5 -179t-212.5 -65t-214 65.5z" />
    <glyph glyph-name="Hcircumflex" unicode="&#x124;" horiz-adv-x="1408" 
d="M185 0v1480h89v-678h860v678h89v-1480h-89v719h-860v-719h-89zM991 1614h-94l-193 225l-193 -225h-94l242 275h91z" />
    <glyph glyph-name="uni1E24" unicode="&#x1e24;" horiz-adv-x="1408" 
d="M185 0v1480h89v-678h860v678h89v-1480h-89v719h-860v-719h-89zM652 -300q-20 19 -20 50q0 32 20 51.5t52 19.5q33 0 53 -19.5t20 -51.5q0 -31 -20 -50t-53 -19q-32 0 -52 19z" />
    <glyph glyph-name="I" unicode="I" horiz-adv-x="459" 
d="M185 0v1480h89v-1480h-89z" />
    <glyph glyph-name="Iacute" unicode="&#xcd;" horiz-adv-x="459" 
d="M185 0v1480h89v-1480h-89zM189 1614l176 275h99l-193 -275h-82z" />
    <glyph glyph-name="Ibreve" unicode="&#x12c;" horiz-adv-x="459" 
d="M185 0v1480h89v-1480h-89zM24 1689q-74 63 -84 173h69q12 -86 63.5 -128t159.5 -42t158.5 42t60.5 128h69q-9 -112 -81 -174t-207 -62q-134 0 -208 63z" />
    <glyph glyph-name="Icircumflex" unicode="&#xce;" horiz-adv-x="459" 
d="M185 0v1480h89v-1480h-89zM517 1614h-94l-193 225l-193 -225h-94l242 275h91z" />
    <glyph glyph-name="uni0208" unicode="&#x208;" horiz-adv-x="459" 
d="M185 0v1480h89v-1480h-89zM41 1614l-132 275h83l124 -275h-75zM345 1614l-132 275h83l124 -275h-75z" />
    <glyph glyph-name="Idieresis" unicode="&#xcf;" horiz-adv-x="459" 
d="M185 0v1480h89v-1480h-89zM-44.5 1702q-19.5 19 -19.5 50t19.5 50.5t51.5 19.5t51.5 -19.5t19.5 -50.5t-19.5 -50t-51.5 -19t-51.5 19zM402 1702q-19 19 -19 50q0 32 19 51t51 19t51.5 -19t19.5 -51q0 -31 -19.5 -50t-51.5 -19t-51 19z" />
    <glyph glyph-name="uni1E2E" unicode="&#x1e2e;" horiz-adv-x="459" 
d="M185 0v1480h89v-1480h-89zM188 1890l175 232h103l-193 -232h-85zM-44.5 1702q-19.5 19 -19.5 50t19.5 50.5t51.5 19.5t51.5 -19.5t19.5 -50.5t-19.5 -50t-51.5 -19t-51.5 19zM402 1702q-19 19 -19 50q0 32 19 51t51 19t51.5 -19t19.5 -51q0 -31 -19.5 -50t-51.5 -19
t-51 19z" />
    <glyph glyph-name="Idotaccent" unicode="&#x130;" horiz-adv-x="459" 
d="M185 0v1480h89v-1480h-89zM178 1702q-20 19 -20 50t20 50.5t52 19.5q33 0 53 -19t20 -51q0 -31 -20 -50t-53 -19q-32 0 -52 19z" />
    <glyph glyph-name="uni1ECA" unicode="&#x1eca;" horiz-adv-x="459" 
d="M185 0v1480h89v-1480h-89zM178 -300q-20 19 -20 50q0 32 20 51.5t52 19.5q33 0 53 -19.5t20 -51.5q0 -31 -20 -50t-53 -19q-32 0 -52 19z" />
    <glyph glyph-name="Igrave" unicode="&#xcc;" horiz-adv-x="459" 
d="M185 0v1480h89v-1480h-89zM189 1614l-193 275h100l175 -275h-82z" />
    <glyph glyph-name="uni1EC8" unicode="&#x1ec8;" horiz-adv-x="459" 
d="M185 0v1480h89v-1480h-89zM209.5 1662.5q14.5 19.5 33.5 30.5t50 25q35 14 52 26.5t17 34.5q0 25 -26.5 38.5t-93.5 13.5q-52 0 -99 -8.5t-97 -27.5v60q81 35 198 35q93 0 139.5 -29.5t46.5 -78.5q0 -39 -23 -59.5t-67 -39.5q-37 -17 -54.5 -30.5t-20.5 -38.5h-71
q1 29 15.5 48.5z" />
    <glyph glyph-name="uni020A" unicode="&#x20a;" horiz-adv-x="459" 
d="M185 0v1480h89v-1480h-89zM22 1815q72 62 206 62q135 0 209 -63t83 -173h-69q-12 86 -63.5 128t-159.5 42t-158.5 -42t-60.5 -128h-69q10 112 82 174z" />
    <glyph glyph-name="Imacron" unicode="&#x12a;" horiz-adv-x="459" 
d="M185 0v1480h89v-1480h-89zM-48 1717v70h556v-70h-556z" />
    <glyph glyph-name="Iogonek" unicode="&#x12e;" horiz-adv-x="459" 
d="M303 -336q39 9 90 31v-60q-85 -38 -169 -38q-103 0 -159 44.5t-56 127.5q0 70 41.5 130.5t134.5 117.5v1463h89v-1480q-110 -57 -154 -110.5t-44 -116.5q0 -58 37.5 -88t111.5 -30q39 0 78 9z" />
    <glyph glyph-name="Itilde" unicode="&#x128;" horiz-adv-x="459" 
d="M185 0v1480h89v-1480h-89zM301 1701.5q-36 10.5 -85 30.5q-45 18 -73.5 26.5t-58.5 8.5q-50 0 -87.5 -17t-71.5 -54v76q56 62 159 62q40 0 76 -10.5t85 -30.5q45 -18 73.5 -26.5t58.5 -8.5q49 0 87 17t72 54v-76q-57 -62 -159 -62q-40 0 -76 10.5z" />
    <glyph glyph-name="J" unicode="J" horiz-adv-x="459" 
d="M-3 -298q100 137 144.5 273t44.5 312v1193h88v-1223q-8 -177 -56.5 -314t-158.5 -284z" />
    <glyph glyph-name="Jcircumflex" unicode="&#x134;" horiz-adv-x="459" 
d="M-3 -298q100 137 144.5 273t44.5 312v1193h88v-1223q-8 -177 -56.5 -314t-158.5 -284zM517 1614h-94l-193 225l-193 -225h-94l242 275h91z" />
    <glyph glyph-name="K" unicode="K" horiz-adv-x="1195" 
d="M1101 0l-580 719h-247v-719h-89v1480h89v-678h251l537 678h104l-572 -718l614 -762h-107z" />
    <glyph glyph-name="Kcommaaccent" unicode="&#x136;" horiz-adv-x="1195" 
d="M1101 0l-580 719h-247v-719h-89v1480h89v-678h251l537 678h104l-572 -718l614 -762h-107zM674 -202.5q20 -23.5 20 -68.5q0 -38 -12.5 -87t-34.5 -94h-56q30 77 35 138h-4q-32 0 -51.5 19t-19.5 49t18.5 48.5t49.5 18.5q35 0 55 -23.5z" />
    <glyph glyph-name="L" unicode="L" horiz-adv-x="1037" 
d="M185 0v1480h89v-1398h750v-82h-839z" />
    <glyph glyph-name="uni01C7" unicode="&#x1c7;" horiz-adv-x="1496" 
d="M185 0v1480h89v-1398h750v-82h-839zM1034 -298q100 137 144.5 273t44.5 312v1193h88v-1223q-8 -177 -56.5 -314t-158.5 -284z" />
    <glyph glyph-name="Lacute" unicode="&#x139;" horiz-adv-x="1037" 
d="M185 0v1480h89v-1398h750v-82h-839zM189 1614l176 275h99l-193 -275h-82z" />
    <glyph glyph-name="Lcaron" unicode="&#x13d;" horiz-adv-x="1037" 
d="M185 0v1480h89v-1398h750v-82h-839zM669.5 1350.5q3.5 114.5 3.5 265.5h76q0 -293 -38 -476h-57q12 96 15.5 210.5z" />
    <glyph glyph-name="Lcommaaccent" unicode="&#x13b;" horiz-adv-x="1037" 
d="M185 0v1480h89v-1398h750v-82h-839zM658 -202.5q20 -23.5 20 -68.5q0 -38 -12.5 -87t-34.5 -94h-56q30 77 35 138h-4q-32 0 -51.5 19t-19.5 49t18.5 48.5t49.5 18.5q35 0 55 -23.5z" />
    <glyph glyph-name="Ldot" unicode="&#x13f;" horiz-adv-x="1037" 
d="M185 0v1480h89v-1398h750v-82h-839zM685 729q-20 19 -20 51q0 33 20 53t53 20t53 -20t20 -53q0 -32 -20 -51t-53 -19t-53 19z" />
    <glyph glyph-name="uni1E36" unicode="&#x1e36;" horiz-adv-x="1037" 
d="M185 0v1480h89v-1398h750v-82h-839zM554 -300q-20 19 -20 50q0 32 20 51.5t52 19.5q33 0 53 -19.5t20 -51.5q0 -31 -20 -50t-53 -19q-32 0 -52 19z" />
    <glyph glyph-name="uni01C8" unicode="&#x1c8;" horiz-adv-x="1457" 
d="M185 0v1480h89v-1398h750v-82h-839zM1015 -418q100 138 144 273.5t44 311.5v914h88v-907q0 -191 -50.5 -337t-164.5 -298zM1194.5 1376q-19.5 19 -19.5 52q0 32 19.5 52t52.5 20t53 -20t20 -52q0 -33 -20 -52t-53 -19t-52.5 19z" />
    <glyph glyph-name="uni1E3A" unicode="&#x1e3a;" horiz-adv-x="1037" 
d="M185 0v1480h89v-1398h750v-82h-839zM328 -285v70h556v-70h-556z" />
    <glyph glyph-name="Lslash" unicode="&#x141;" horiz-adv-x="1037" 
d="M274 82h750v-82h-839v690l-144 -121l-44 56l188 158v697h89v-622l275 231l44 -56l-319 -268v-683z" />
    <glyph glyph-name="M" unicode="M" horiz-adv-x="1707" 
d="M1417 1480h100v-1480h-85v1322l-533 -1121h-91l-534 1117v-1318h-85v1480h101l565 -1191z" />
    <glyph glyph-name="uni1E42" unicode="&#x1e42;" horiz-adv-x="1707" 
d="M1417 1480h100v-1480h-85v1322l-533 -1121h-91l-534 1117v-1318h-85v1480h101l565 -1191zM803 -300q-20 19 -20 50q0 32 20 51.5t52 19.5q33 0 53 -19.5t20 -51.5q0 -31 -20 -50t-53 -19q-32 0 -52 19z" />
    <glyph glyph-name="N" unicode="N" horiz-adv-x="1436" 
d="M1166 1480h85v-1480h-95l-885 1342v-1342h-86v1480h95l886 -1342v1342z" />
    <glyph glyph-name="uni01CA" unicode="&#x1ca;" horiz-adv-x="1895" 
d="M1166 1480h85v-1480h-95l-885 1342v-1342h-86v1480h95l886 -1342v1342zM1433 -298q100 137 144.5 273t44.5 312v1193h88v-1223q-8 -177 -56.5 -314t-158.5 -284z" />
    <glyph glyph-name="Nacute" unicode="&#x143;" horiz-adv-x="1436" 
d="M1166 1480h85v-1480h-95l-885 1342v-1342h-86v1480h95l886 -1342v1342zM678 1614l176 275h99l-193 -275h-82z" />
    <glyph glyph-name="Ncaron" unicode="&#x147;" horiz-adv-x="1436" 
d="M1166 1480h85v-1480h-95l-885 1342v-1342h-86v1480h95l886 -1342v1342zM912 1889h94l-241 -275h-91l-242 275h94l193 -225z" />
    <glyph glyph-name="Ncommaaccent" unicode="&#x145;" horiz-adv-x="1436" 
d="M1166 1480h85v-1480h-95l-885 1342v-1342h-86v1480h95l886 -1342v1342zM771 -202.5q20 -23.5 20 -68.5q0 -38 -12.5 -87t-34.5 -94h-56q30 77 35 138h-4q-32 0 -51.5 19t-19.5 49t18.5 48.5t49.5 18.5q35 0 55 -23.5z" />
    <glyph glyph-name="uni1E44" unicode="&#x1e44;" horiz-adv-x="1436" 
d="M1166 1480h85v-1480h-95l-885 1342v-1342h-86v1480h95l886 -1342v1342zM667 1702q-20 19 -20 50t20 50.5t52 19.5q33 0 53 -19t20 -51q0 -31 -20 -50t-53 -19q-32 0 -52 19z" />
    <glyph glyph-name="uni1E46" unicode="&#x1e46;" horiz-adv-x="1436" 
d="M1166 1480h85v-1480h-95l-885 1342v-1342h-86v1480h95l886 -1342v1342zM667 -300q-20 19 -20 50q0 32 20 51.5t52 19.5q33 0 53 -19.5t20 -51.5q0 -31 -20 -50t-53 -19q-32 0 -52 19z" />
    <glyph glyph-name="Eng" unicode="&#x14a;" horiz-adv-x="1436" 
d="M1251 1480v-1303q0 -193 -50.5 -339.5t-164.5 -298.5l-62 43q76 103 119.5 203.5t60.5 214.5l-883 1340v-1340h-86v1480h95l886 -1342v29v1313h85z" />
    <glyph glyph-name="uni01CB" unicode="&#x1cb;" horiz-adv-x="1856" 
d="M1166 1480h85v-1480h-95l-885 1342v-1342h-86v1480h95l886 -1342v1342zM1414 -418q100 138 144 273.5t44 311.5v914h88v-907q0 -191 -50.5 -337t-164.5 -298zM1593.5 1376q-19.5 19 -19.5 52q0 32 19.5 52t52.5 20t53 -20t20 -52q0 -33 -20 -52t-53 -19t-52.5 19z" />
    <glyph glyph-name="uni1E48" unicode="&#x1e48;" horiz-adv-x="1436" 
d="M1166 1480h85v-1480h-95l-885 1342v-1342h-86v1480h95l886 -1342v1342zM441 -285v70h556v-70h-556z" />
    <glyph glyph-name="Ntilde" unicode="&#xd1;" horiz-adv-x="1436" 
d="M1166 1480h85v-1480h-95l-885 1342v-1342h-86v1480h95l886 -1342v1342zM790 1701.5q-36 10.5 -85 30.5q-45 18 -73.5 26.5t-58.5 8.5q-50 0 -87.5 -17t-71.5 -54v76q56 62 159 62q40 0 76 -10.5t85 -30.5q45 -18 73.5 -26.5t58.5 -8.5q49 0 87 17t72 54v-76
q-57 -62 -159 -62q-40 0 -76 10.5z" />
    <glyph glyph-name="O" unicode="O" horiz-adv-x="1383" 
d="M267 165.5q-152 183.5 -152 574.5t153 574.5t424 183.5q272 0 424 -183.5t152 -574.5t-153 -574.5t-423 -183.5q-273 0 -425 183.5zM1048.5 222q126.5 157 126.5 514q0 362 -126.5 520.5t-356.5 158.5q-231 0 -357.5 -157t-126.5 -514q0 -362 126.5 -520.5t357.5 -158.5
q230 0 356.5 157z" />
    <glyph glyph-name="Oacute" unicode="&#xd3;" horiz-adv-x="1383" 
d="M267 165.5q-152 183.5 -152 574.5t153 574.5t424 183.5q272 0 424 -183.5t152 -574.5t-153 -574.5t-423 -183.5q-273 0 -425 183.5zM1048.5 222q126.5 157 126.5 514q0 362 -126.5 520.5t-356.5 158.5q-231 0 -357.5 -157t-126.5 -514q0 -362 126.5 -520.5t357.5 -158.5
q230 0 356.5 157zM651 1614l176 275h99l-193 -275h-82z" />
    <glyph glyph-name="Obreve" unicode="&#x14e;" horiz-adv-x="1383" 
d="M267 165.5q-152 183.5 -152 574.5t153 574.5t424 183.5q272 0 424 -183.5t152 -574.5t-153 -574.5t-423 -183.5q-273 0 -425 183.5zM1048.5 222q126.5 157 126.5 514q0 362 -126.5 520.5t-356.5 158.5q-231 0 -357.5 -157t-126.5 -514q0 -362 126.5 -520.5t357.5 -158.5
q230 0 356.5 157zM486 1689q-74 63 -84 173h69q12 -86 63.5 -128t159.5 -42t158.5 42t60.5 128h69q-9 -112 -81 -174t-207 -62q-134 0 -208 63z" />
    <glyph glyph-name="Ocircumflex" unicode="&#xd4;" horiz-adv-x="1383" 
d="M267 165.5q-152 183.5 -152 574.5t153 574.5t424 183.5q272 0 424 -183.5t152 -574.5t-153 -574.5t-423 -183.5q-273 0 -425 183.5zM1048.5 222q126.5 157 126.5 514q0 362 -126.5 520.5t-356.5 158.5q-231 0 -357.5 -157t-126.5 -514q0 -362 126.5 -520.5t357.5 -158.5
q230 0 356.5 157zM979 1614h-94l-193 225l-193 -225h-94l242 275h91z" />
    <glyph glyph-name="uni1ED0" unicode="&#x1ed0;" horiz-adv-x="1383" 
d="M267 165.5q-152 183.5 -152 574.5t153 574.5t424 183.5q272 0 424 -183.5t152 -574.5t-153 -574.5t-423 -183.5q-273 0 -425 183.5zM1048.5 222q126.5 157 126.5 514q0 362 -126.5 520.5t-356.5 158.5q-231 0 -357.5 -157t-126.5 -514q0 -362 126.5 -520.5t357.5 -158.5
q230 0 356.5 157zM1080 2064h90l-188 -270h-73zM647 1886h91l241 -272h-94l-193 224l-193 -224h-94z" />
    <glyph glyph-name="uni1ED8" unicode="&#x1ed8;" horiz-adv-x="1383" 
d="M267 165.5q-152 183.5 -152 574.5t153 574.5t424 183.5q272 0 424 -183.5t152 -574.5t-153 -574.5t-423 -183.5q-273 0 -425 183.5zM1048.5 222q126.5 157 126.5 514q0 362 -126.5 520.5t-356.5 158.5q-231 0 -357.5 -157t-126.5 -514q0 -362 126.5 -520.5t357.5 -158.5
q230 0 356.5 157zM640 -300q-20 19 -20 50q0 32 20 51.5t52 19.5q33 0 53 -19.5t20 -51.5q0 -31 -20 -50t-53 -19q-32 0 -52 19zM979 1614h-94l-193 225l-193 -225h-94l242 275h91z" />
    <glyph glyph-name="uni1ED2" unicode="&#x1ed2;" horiz-adv-x="1383" 
d="M267 165.5q-152 183.5 -152 574.5t153 574.5t424 183.5q272 0 424 -183.5t152 -574.5t-153 -574.5t-423 -183.5q-273 0 -425 183.5zM1048.5 222q126.5 157 126.5 514q0 362 -126.5 520.5t-356.5 158.5q-231 0 -357.5 -157t-126.5 -514q0 -362 126.5 -520.5t357.5 -158.5
q230 0 356.5 157zM1003 1794h-73l-188 270h90zM647 1886h91l241 -272h-94l-193 224l-193 -224h-94z" />
    <glyph glyph-name="uni1ED4" unicode="&#x1ed4;" horiz-adv-x="1383" 
d="M267 165.5q-152 183.5 -152 574.5t153 574.5t424 183.5q272 0 424 -183.5t152 -574.5t-153 -574.5t-423 -183.5q-273 0 -425 183.5zM1048.5 222q126.5 157 126.5 514q0 362 -126.5 520.5t-356.5 158.5q-231 0 -357.5 -157t-126.5 -514q0 -362 126.5 -520.5t357.5 -158.5
q230 0 356.5 157zM1098.5 2038q46.5 -29 46.5 -78q0 -39 -23 -59t-67 -39q-37 -17 -54.5 -30.5t-20.5 -37.5h-71q1 28 15.5 47.5t33.5 30.5t50 25q35 14 52 26.5t17 34.5q0 25 -26.5 38t-93.5 13q-53 0 -100 -8.5t-97 -27.5v59q83 35 199 35q93 0 139.5 -29zM647 1886h91
l241 -272h-94l-193 224l-193 -224h-94z" />
    <glyph glyph-name="uni1ED6" unicode="&#x1ed6;" horiz-adv-x="1383" 
d="M267 165.5q-152 183.5 -152 574.5t153 574.5t424 183.5q272 0 424 -183.5t152 -574.5t-153 -574.5t-423 -183.5q-273 0 -425 183.5zM1048.5 222q126.5 157 126.5 514q0 362 -126.5 520.5t-356.5 158.5q-231 0 -357.5 -157t-126.5 -514q0 -362 126.5 -520.5t357.5 -158.5
q230 0 356.5 157zM908 2012.5q37 17.5 71 53.5v-73q-56 -61 -153 -61q-36 0 -69.5 10.5t-79.5 30.5q-45 18 -69.5 26t-49.5 8q-45 0 -81.5 -17.5t-71.5 -53.5v73q58 61 153 61q37 0 70.5 -10.5t79.5 -30.5q43 -18 68 -26t50 -8q45 0 82 17.5zM647 1886h91l241 -272h-94
l-193 224l-193 -224h-94z" />
    <glyph glyph-name="uni020C" unicode="&#x20c;" horiz-adv-x="1383" 
d="M267 165.5q-152 183.5 -152 574.5t153 574.5t424 183.5q272 0 424 -183.5t152 -574.5t-153 -574.5t-423 -183.5q-273 0 -425 183.5zM1048.5 222q126.5 157 126.5 514q0 362 -126.5 520.5t-356.5 158.5q-231 0 -357.5 -157t-126.5 -514q0 -362 126.5 -520.5t357.5 -158.5
q230 0 356.5 157zM503 1614l-132 275h83l124 -275h-75zM807 1614l-132 275h83l124 -275h-75z" />
    <glyph glyph-name="Odieresis" unicode="&#xd6;" horiz-adv-x="1383" 
d="M267 165.5q-152 183.5 -152 574.5t153 574.5t424 183.5q272 0 424 -183.5t152 -574.5t-153 -574.5t-423 -183.5q-273 0 -425 183.5zM1048.5 222q126.5 157 126.5 514q0 362 -126.5 520.5t-356.5 158.5q-231 0 -357.5 -157t-126.5 -514q0 -362 126.5 -520.5t357.5 -158.5
q230 0 356.5 157zM417.5 1702q-19.5 19 -19.5 50t19.5 50.5t51.5 19.5t51.5 -19.5t19.5 -50.5t-19.5 -50t-51.5 -19t-51.5 19zM864 1702q-19 19 -19 50q0 32 19 51t51 19t51.5 -19t19.5 -51q0 -31 -19.5 -50t-51.5 -19t-51 19z" />
    <glyph glyph-name="uni022A" unicode="&#x22a;" horiz-adv-x="1383" 
d="M267 165.5q-152 183.5 -152 574.5t153 574.5t424 183.5q272 0 424 -183.5t152 -574.5t-153 -574.5t-423 -183.5q-273 0 -425 183.5zM1048.5 222q126.5 157 126.5 514q0 362 -126.5 520.5t-356.5 158.5q-231 0 -357.5 -157t-126.5 -514q0 -362 126.5 -520.5t357.5 -158.5
q230 0 356.5 157zM417.5 1702q-19.5 19 -19.5 50t19.5 50.5t51.5 19.5t51.5 -19.5t19.5 -50.5t-19.5 -50t-51.5 -19t-51.5 19zM864 1702q-19 19 -19 50q0 32 19 51t51 19t51.5 -19t19.5 -51q0 -31 -19.5 -50t-51.5 -19t-51 19zM414 1955v70h556v-70h-556z" />
    <glyph glyph-name="uni0230" unicode="&#x230;" horiz-adv-x="1383" 
d="M267 165.5q-152 183.5 -152 574.5t153 574.5t424 183.5q272 0 424 -183.5t152 -574.5t-153 -574.5t-423 -183.5q-273 0 -425 183.5zM1048.5 222q126.5 157 126.5 514q0 362 -126.5 520.5t-356.5 158.5q-231 0 -357.5 -157t-126.5 -514q0 -362 126.5 -520.5t357.5 -158.5
q230 0 356.5 157zM640 1702q-20 19 -20 50t20 50.5t52 19.5q33 0 53 -19t20 -51q0 -31 -20 -50t-53 -19q-32 0 -52 19zM414 1955v70h556v-70h-556z" />
    <glyph glyph-name="uni1ECC" unicode="&#x1ecc;" horiz-adv-x="1383" 
d="M267 165.5q-152 183.5 -152 574.5t153 574.5t424 183.5q272 0 424 -183.5t152 -574.5t-153 -574.5t-423 -183.5q-273 0 -425 183.5zM1048.5 222q126.5 157 126.5 514q0 362 -126.5 520.5t-356.5 158.5q-231 0 -357.5 -157t-126.5 -514q0 -362 126.5 -520.5t357.5 -158.5
q230 0 356.5 157zM640 -300q-20 19 -20 50q0 32 20 51.5t52 19.5q33 0 53 -19.5t20 -51.5q0 -31 -20 -50t-53 -19q-32 0 -52 19z" />
    <glyph glyph-name="Ograve" unicode="&#xd2;" horiz-adv-x="1383" 
d="M267 165.5q-152 183.5 -152 574.5t153 574.5t424 183.5q272 0 424 -183.5t152 -574.5t-153 -574.5t-423 -183.5q-273 0 -425 183.5zM1048.5 222q126.5 157 126.5 514q0 362 -126.5 520.5t-356.5 158.5q-231 0 -357.5 -157t-126.5 -514q0 -362 126.5 -520.5t357.5 -158.5
q230 0 356.5 157zM651 1614l-193 275h100l175 -275h-82z" />
    <glyph glyph-name="uni1ECE" unicode="&#x1ece;" horiz-adv-x="1383" 
d="M267 165.5q-152 183.5 -152 574.5t153 574.5t424 183.5q272 0 424 -183.5t152 -574.5t-153 -574.5t-423 -183.5q-273 0 -425 183.5zM1048.5 222q126.5 157 126.5 514q0 362 -126.5 520.5t-356.5 158.5q-231 0 -357.5 -157t-126.5 -514q0 -362 126.5 -520.5t357.5 -158.5
q230 0 356.5 157zM671.5 1662.5q14.5 19.5 33.5 30.5t50 25q35 14 52 26.5t17 34.5q0 25 -26.5 38.5t-93.5 13.5q-52 0 -99 -8.5t-97 -27.5v60q81 35 198 35q93 0 139.5 -29.5t46.5 -78.5q0 -39 -23 -59.5t-67 -39.5q-37 -17 -54.5 -30.5t-20.5 -38.5h-71q1 29 15.5 48.5z
" />
    <glyph glyph-name="Ohorn" unicode="&#x1a0;" horiz-adv-x="1383" 
d="M1205.5 1154q62.5 -164 62.5 -414q0 -394 -152 -576t-424 -182t-424.5 183.5t-152.5 574.5t153 574.5t424 183.5q57 0 149 -12q94 -12 152 -12q93 0 145.5 40t52.5 120q0 38 -6 69.5t-18 72.5h77q13 -37 19 -69.5t6 -75.5q0 -102 -64 -162t-179 -67q117 -84 179.5 -248z
M1048.5 222q126.5 157 126.5 514q0 362 -126.5 520.5t-356.5 158.5q-231 0 -357.5 -157t-126.5 -514q0 -362 126.5 -520.5t357.5 -158.5q230 0 356.5 157z" />
    <glyph glyph-name="uni1EDA" unicode="&#x1eda;" horiz-adv-x="1383" 
d="M1205.5 1154q62.5 -164 62.5 -414q0 -394 -152 -576t-424 -182t-424.5 183.5t-152.5 574.5t153 574.5t424 183.5q57 0 149 -12q94 -12 152 -12q93 0 145.5 40t52.5 120q0 38 -6 69.5t-18 72.5h77q13 -37 19 -69.5t6 -75.5q0 -102 -64 -162t-179 -67q117 -84 179.5 -248z
M1048.5 222q126.5 157 126.5 514q0 362 -126.5 520.5t-356.5 158.5q-231 0 -357.5 -157t-126.5 -514q0 -362 126.5 -520.5t357.5 -158.5q230 0 356.5 157zM651 1614l176 275h99l-193 -275h-82z" />
    <glyph glyph-name="uni1EE2" unicode="&#x1ee2;" horiz-adv-x="1383" 
d="M1205.5 1154q62.5 -164 62.5 -414q0 -394 -152 -576t-424 -182t-424.5 183.5t-152.5 574.5t153 574.5t424 183.5q57 0 149 -12q94 -12 152 -12q93 0 145.5 40t52.5 120q0 38 -6 69.5t-18 72.5h77q13 -37 19 -69.5t6 -75.5q0 -102 -64 -162t-179 -67q117 -84 179.5 -248z
M1048.5 222q126.5 157 126.5 514q0 362 -126.5 520.5t-356.5 158.5q-231 0 -357.5 -157t-126.5 -514q0 -362 126.5 -520.5t357.5 -158.5q230 0 356.5 157zM640 -300q-20 19 -20 50q0 32 20 51.5t52 19.5q33 0 53 -19.5t20 -51.5q0 -31 -20 -50t-53 -19q-32 0 -52 19z" />
    <glyph glyph-name="uni1EDC" unicode="&#x1edc;" horiz-adv-x="1383" 
d="M1205.5 1154q62.5 -164 62.5 -414q0 -394 -152 -576t-424 -182t-424.5 183.5t-152.5 574.5t153 574.5t424 183.5q57 0 149 -12q94 -12 152 -12q93 0 145.5 40t52.5 120q0 38 -6 69.5t-18 72.5h77q13 -37 19 -69.5t6 -75.5q0 -102 -64 -162t-179 -67q117 -84 179.5 -248z
M1048.5 222q126.5 157 126.5 514q0 362 -126.5 520.5t-356.5 158.5q-231 0 -357.5 -157t-126.5 -514q0 -362 126.5 -520.5t357.5 -158.5q230 0 356.5 157zM651 1614l-193 275h100l175 -275h-82z" />
    <glyph glyph-name="uni1EDE" unicode="&#x1ede;" horiz-adv-x="1383" 
d="M1205.5 1154q62.5 -164 62.5 -414q0 -394 -152 -576t-424 -182t-424.5 183.5t-152.5 574.5t153 574.5t424 183.5q57 0 149 -12q94 -12 152 -12q93 0 145.5 40t52.5 120q0 38 -6 69.5t-18 72.5h77q13 -37 19 -69.5t6 -75.5q0 -102 -64 -162t-179 -67q117 -84 179.5 -248z
M1048.5 222q126.5 157 126.5 514q0 362 -126.5 520.5t-356.5 158.5q-231 0 -357.5 -157t-126.5 -514q0 -362 126.5 -520.5t357.5 -158.5q230 0 356.5 157zM671.5 1662.5q14.5 19.5 33.5 30.5t50 25q35 14 52 26.5t17 34.5q0 25 -26.5 38.5t-93.5 13.5q-52 0 -99 -8.5
t-97 -27.5v60q81 35 198 35q93 0 139.5 -29.5t46.5 -78.5q0 -39 -23 -59.5t-67 -39.5q-37 -17 -54.5 -30.5t-20.5 -38.5h-71q1 29 15.5 48.5z" />
    <glyph glyph-name="uni1EE0" unicode="&#x1ee0;" horiz-adv-x="1383" 
d="M459 1750q-37 -17 -71 -54v76q56 62 158 62q40 0 75 -10.5t85 -30.5q45 -18 73.5 -26.5t58.5 -8.5q49 0 86.5 17t71.5 54v-76q-56 -62 -159 -62q-39 0 -75 10.5t-85 30.5q-42 17 -71.5 26t-59.5 9q-50 0 -87 -17zM1205.5 1154q62.5 -164 62.5 -414q0 -394 -152 -576
t-424 -182t-424.5 183.5t-152.5 574.5t153 574.5t424 183.5q57 0 149 -12q94 -12 152 -12q93 0 145.5 40t52.5 120q0 38 -6 69.5t-18 72.5h77q13 -37 19 -69.5t6 -75.5q0 -102 -64 -162t-179 -67q117 -84 179.5 -248zM1048.5 222q126.5 157 126.5 514q0 362 -126.5 520.5
t-356.5 158.5q-231 0 -357.5 -157t-126.5 -514q0 -362 126.5 -520.5t357.5 -158.5q230 0 356.5 157z" />
    <glyph glyph-name="Ohungarumlaut" unicode="&#x150;" horiz-adv-x="1383" 
d="M267 165.5q-152 183.5 -152 574.5t153 574.5t424 183.5q272 0 424 -183.5t152 -574.5t-153 -574.5t-423 -183.5q-273 0 -425 183.5zM1048.5 222q126.5 157 126.5 514q0 362 -126.5 520.5t-356.5 158.5q-231 0 -357.5 -157t-126.5 -514q0 -362 126.5 -520.5t357.5 -158.5
q230 0 356.5 157zM503 1614l124 275h83l-132 -275h-75zM807 1614l124 275h83l-132 -275h-75z" />
    <glyph glyph-name="uni020E" unicode="&#x20e;" horiz-adv-x="1383" 
d="M267 165.5q-152 183.5 -152 574.5t153 574.5t424 183.5q272 0 424 -183.5t152 -574.5t-153 -574.5t-423 -183.5q-273 0 -425 183.5zM1048.5 222q126.5 157 126.5 514q0 362 -126.5 520.5t-356.5 158.5q-231 0 -357.5 -157t-126.5 -514q0 -362 126.5 -520.5t357.5 -158.5
q230 0 356.5 157zM484 1815q72 62 206 62q135 0 209 -63t83 -173h-69q-12 86 -63.5 128t-159.5 42t-158.5 -42t-60.5 -128h-69q10 112 82 174z" />
    <glyph glyph-name="Omacron" unicode="&#x14c;" horiz-adv-x="1383" 
d="M267 165.5q-152 183.5 -152 574.5t153 574.5t424 183.5q272 0 424 -183.5t152 -574.5t-153 -574.5t-423 -183.5q-273 0 -425 183.5zM1048.5 222q126.5 157 126.5 514q0 362 -126.5 520.5t-356.5 158.5q-231 0 -357.5 -157t-126.5 -514q0 -362 126.5 -520.5t357.5 -158.5
q230 0 356.5 157zM414 1717v70h556v-70h-556z" />
    <glyph glyph-name="uni1E52" unicode="&#x1e52;" horiz-adv-x="1383" 
d="M267 165.5q-152 183.5 -152 574.5t153 574.5t424 183.5q272 0 424 -183.5t152 -574.5t-153 -574.5t-423 -183.5q-273 0 -425 183.5zM1048.5 222q126.5 157 126.5 514q0 362 -126.5 520.5t-356.5 158.5q-231 0 -357.5 -157t-126.5 -514q0 -362 126.5 -520.5t357.5 -158.5
q230 0 356.5 157zM650 1890l175 232h103l-193 -232h-85zM414 1717v70h556v-70h-556z" />
    <glyph glyph-name="uni1E50" unicode="&#x1e50;" horiz-adv-x="1383" 
d="M267 165.5q-152 183.5 -152 574.5t153 574.5t424 183.5q272 0 424 -183.5t152 -574.5t-153 -574.5t-423 -183.5q-273 0 -425 183.5zM1048.5 222q126.5 157 126.5 514q0 362 -126.5 520.5t-356.5 158.5q-231 0 -357.5 -157t-126.5 -514q0 -362 126.5 -520.5t357.5 -158.5
q230 0 356.5 157zM650 1890l-193 232h102l176 -232h-85zM414 1717v70h556v-70h-556z" />
    <glyph glyph-name="uni01EA" unicode="&#x1ea;" horiz-adv-x="1383" 
d="M714.5 -95.5q-56.5 -60.5 -56.5 -131.5q0 -58 37.5 -88t111.5 -30q39 0 78 9t90 31v-60q-85 -38 -169 -38q-104 0 -160 45t-56 127q0 62 31 115t101 98h-27q-274 0 -427 183.5t-153 574.5t153 574.5t424 183.5t423.5 -182t152.5 -576q0 -589 -361 -725
q-136 -50 -192.5 -110.5zM1048.5 222q126.5 157 126.5 514q0 362 -126.5 520.5t-356.5 158.5q-231 0 -357.5 -157t-126.5 -514q0 -362 126.5 -520.5t357.5 -158.5q230 0 356.5 157z" />
    <glyph glyph-name="Oslash" unicode="&#xd8;" horiz-adv-x="1383" 
d="M1268 740q0 -391 -153 -574.5t-423 -183.5q-254 0 -397 152l-111 -153l-58 42l122 168q-133 191 -133 549q0 391 153 574.5t424 183.5q252 0 396 -151l111 152l58 -42l-122 -168q133 -191 133 -549zM305 269l730 1004q-118 142 -343 142q-231 0 -357.5 -157t-126.5 -514
q0 -308 97 -475zM1048.5 222q126.5 157 126.5 514q0 308 -97 475l-730 -1004q120 -142 344 -142q230 0 356.5 157z" />
    <glyph glyph-name="Oslashacute" unicode="&#x1fe;" horiz-adv-x="1383" 
d="M1268 740q0 -391 -153 -574.5t-423 -183.5q-254 0 -397 152l-111 -153l-58 42l122 168q-133 191 -133 549q0 391 153 574.5t424 183.5q252 0 396 -151l111 152l58 -42l-122 -168q133 -191 133 -549zM305 269l730 1004q-118 142 -343 142q-231 0 -357.5 -157t-126.5 -514
q0 -308 97 -475zM1048.5 222q126.5 157 126.5 514q0 308 -97 475l-730 -1004q120 -142 344 -142q230 0 356.5 157zM647 1614l176 275h99l-193 -275h-82z" />
    <glyph glyph-name="Otilde" unicode="&#xd5;" horiz-adv-x="1383" 
d="M267 165.5q-152 183.5 -152 574.5t153 574.5t424 183.5q272 0 424 -183.5t152 -574.5t-153 -574.5t-423 -183.5q-273 0 -425 183.5zM1048.5 222q126.5 157 126.5 514q0 362 -126.5 520.5t-356.5 158.5q-231 0 -357.5 -157t-126.5 -514q0 -362 126.5 -520.5t357.5 -158.5
q230 0 356.5 157zM763 1701.5q-36 10.5 -85 30.5q-45 18 -73.5 26.5t-58.5 8.5q-50 0 -87.5 -17t-71.5 -54v76q56 62 159 62q40 0 76 -10.5t85 -30.5q45 -18 73.5 -26.5t58.5 -8.5q49 0 87 17t72 54v-76q-57 -62 -159 -62q-40 0 -76 10.5z" />
    <glyph glyph-name="uni1E4C" unicode="&#x1e4c;" horiz-adv-x="1383" 
d="M267 165.5q-152 183.5 -152 574.5t153 574.5t424 183.5q272 0 424 -183.5t152 -574.5t-153 -574.5t-423 -183.5q-273 0 -425 183.5zM1048.5 222q126.5 157 126.5 514q0 362 -126.5 520.5t-356.5 158.5q-231 0 -357.5 -157t-126.5 -514q0 -362 126.5 -520.5t357.5 -158.5
q230 0 356.5 157zM650 1890l175 232h103l-193 -232h-85zM763 1701.5q-36 10.5 -85 30.5q-45 18 -73.5 26.5t-58.5 8.5q-50 0 -87.5 -17t-71.5 -54v76q56 62 159 62q40 0 76 -10.5t85 -30.5q45 -18 73.5 -26.5t58.5 -8.5q49 0 87 17t72 54v-76q-57 -62 -159 -62
q-40 0 -76 10.5z" />
    <glyph glyph-name="uni1E4E" unicode="&#x1e4e;" horiz-adv-x="1383" 
d="M267 165.5q-152 183.5 -152 574.5t153 574.5t424 183.5q272 0 424 -183.5t152 -574.5t-153 -574.5t-423 -183.5q-273 0 -425 183.5zM1048.5 222q126.5 157 126.5 514q0 362 -126.5 520.5t-356.5 158.5q-231 0 -357.5 -157t-126.5 -514q0 -362 126.5 -520.5t357.5 -158.5
q230 0 356.5 157zM763 1701.5q-36 10.5 -85 30.5q-45 18 -73.5 26.5t-58.5 8.5q-50 0 -87.5 -17t-71.5 -54v76q56 62 159 62q40 0 76 -10.5t85 -30.5q45 -18 73.5 -26.5t58.5 -8.5q49 0 87 17t72 54v-76q-57 -62 -159 -62q-40 0 -76 10.5zM417.5 1940q-19.5 19 -19.5 50
t19.5 50.5t51.5 19.5t51.5 -19.5t19.5 -50.5t-19.5 -50t-51.5 -19t-51.5 19zM864 1940q-19 19 -19 50q0 32 19 51t51 19t51.5 -19t19.5 -51q0 -31 -19.5 -50t-51.5 -19t-51 19z" />
    <glyph glyph-name="uni022C" unicode="&#x22c;" horiz-adv-x="1383" 
d="M267 165.5q-152 183.5 -152 574.5t153 574.5t424 183.5q272 0 424 -183.5t152 -574.5t-153 -574.5t-423 -183.5q-273 0 -425 183.5zM1048.5 222q126.5 157 126.5 514q0 362 -126.5 520.5t-356.5 158.5q-231 0 -357.5 -157t-126.5 -514q0 -362 126.5 -520.5t357.5 -158.5
q230 0 356.5 157zM763 1701.5q-36 10.5 -85 30.5q-45 18 -73.5 26.5t-58.5 8.5q-50 0 -87.5 -17t-71.5 -54v76q56 62 159 62q40 0 76 -10.5t85 -30.5q45 -18 73.5 -26.5t58.5 -8.5q49 0 87 17t72 54v-76q-57 -62 -159 -62q-40 0 -76 10.5zM414 1955v70h556v-70h-556z" />
    <glyph glyph-name="OE" unicode="&#x152;" horiz-adv-x="1959" 
d="M1888 82v-82h-762q-33 0 -127 -4q-110 -6 -173 -6q-352 0 -531.5 183.5t-179.5 566.5q0 380 176 567t519 187q63 0 171 -8q96 -6 133 -6h764v-82h-739v-597h644v-81h-644v-638h749zM1051 1398q-124 14 -242 14q-303 0 -452 -163t-149 -509q0 -347 152 -507.5t460 -160.5
q144 0 231 10v1316z" />
    <glyph glyph-name="P" unicode="P" horiz-adv-x="1195" 
d="M185 1460q179 34 349 34q280 0 422 -120t142 -370q0 -244 -147.5 -368.5t-458.5 -124.5q-108 0 -218 10v-521h-89v1460zM884 691.5q122 100.5 122 309.5q0 214 -115 313.5t-354 99.5q-134 0 -263 -21v-788q99 -14 221 -14q267 0 389 100.5z" />
    <glyph glyph-name="Thorn" unicode="&#xde;" horiz-adv-x="1205" 
d="M185 1481h89v-250q128 21 261 21q279 0 421 -120t142 -371q0 -244 -147.5 -368.5t-458.5 -124.5q-112 0 -218 11v-279h-89v1481zM884 449.5q122 100.5 122 308.5q0 215 -115 314t-354 99q-143 0 -263 -21v-788q103 -13 221 -13q267 0 389 100.5z" />
    <glyph glyph-name="Q" unicode="Q" horiz-adv-x="1383" 
d="M1124 176q-144 -191 -423 -188q208 -70 541 -98l-14 -81q-434 46 -673 148t-339.5 286.5t-100.5 495.5q0 391 153 575t424 184t423.5 -182t152.5 -576q0 -373 -144 -564zM334.5 223q126.5 -158 357.5 -158q230 0 356.5 157t126.5 514q0 362 -126.5 520.5t-356.5 158.5
q-231 0 -357.5 -157t-126.5 -514q0 -363 126.5 -521z" />
    <glyph glyph-name="R" unicode="R" horiz-adv-x="1275" 
d="M1105 0l-500 646q-44 -4 -104 -4q-106 0 -228 10v-652h-88v1460q89 16 175 25t189 9q281 0 415.5 -102t134.5 -318q3 -353 -400 -418l511 -656h-105zM793 760q113 38 166 115t53 196q0 123 -47.5 198t-149 110t-267.5 35q-82 0 -144 -5.5t-131 -17.5v-660q59 -4 111 -6.5
t115 -2.5q181 0 294 38z" />
    <glyph glyph-name="Racute" unicode="&#x154;" horiz-adv-x="1275" 
d="M1105 0l-500 646q-44 -4 -104 -4q-106 0 -228 10v-652h-88v1460q89 16 175 25t189 9q281 0 415.5 -102t134.5 -318q3 -353 -400 -418l511 -656h-105zM793 760q113 38 166 115t53 196q0 123 -47.5 198t-149 110t-267.5 35q-82 0 -144 -5.5t-131 -17.5v-660q59 -4 111 -6.5
t115 -2.5q181 0 294 38zM567 1614l176 275h99l-193 -275h-82z" />
    <glyph glyph-name="Rcaron" unicode="&#x158;" horiz-adv-x="1275" 
d="M1105 0l-500 646q-44 -4 -104 -4q-106 0 -228 10v-652h-88v1460q89 16 175 25t189 9q281 0 415.5 -102t134.5 -318q3 -353 -400 -418l511 -656h-105zM793 760q113 38 166 115t53 196q0 123 -47.5 198t-149 110t-267.5 35q-82 0 -144 -5.5t-131 -17.5v-660q59 -4 111 -6.5
t115 -2.5q181 0 294 38zM801 1889h94l-241 -275h-91l-242 275h94l193 -225z" />
    <glyph glyph-name="Rcommaaccent" unicode="&#x156;" horiz-adv-x="1275" 
d="M1105 0l-500 646q-44 -4 -104 -4q-106 0 -228 10v-652h-88v1460q89 16 175 25t189 9q281 0 415.5 -102t134.5 -318q3 -353 -400 -418l511 -656h-105zM793 760q113 38 166 115t53 196q0 123 -47.5 198t-149 110t-267.5 35q-82 0 -144 -5.5t-131 -17.5v-660q59 -4 111 -6.5
t115 -2.5q181 0 294 38zM717 -202.5q20 -23.5 20 -68.5q0 -38 -12.5 -87t-34.5 -94h-56q30 77 35 138h-4q-32 0 -51.5 19t-19.5 49t18.5 48.5t49.5 18.5q35 0 55 -23.5z" />
    <glyph glyph-name="uni0210" unicode="&#x210;" horiz-adv-x="1275" 
d="M1105 0l-500 646q-44 -4 -104 -4q-106 0 -228 10v-652h-88v1460q89 16 175 25t189 9q281 0 415.5 -102t134.5 -318q3 -353 -400 -418l511 -656h-105zM793 760q113 38 166 115t53 196q0 123 -47.5 198t-149 110t-267.5 35q-82 0 -144 -5.5t-131 -17.5v-660q59 -4 111 -6.5
t115 -2.5q181 0 294 38zM419 1614l-132 275h83l124 -275h-75zM723 1614l-132 275h83l124 -275h-75z" />
    <glyph glyph-name="uni1E5A" unicode="&#x1e5a;" horiz-adv-x="1275" 
d="M1105 0l-500 646q-44 -4 -104 -4q-106 0 -228 10v-652h-88v1460q89 16 175 25t189 9q281 0 415.5 -102t134.5 -318q3 -353 -400 -418l511 -656h-105zM793 760q113 38 166 115t53 196q0 123 -47.5 198t-149 110t-267.5 35q-82 0 -144 -5.5t-131 -17.5v-660q59 -4 111 -6.5
t115 -2.5q181 0 294 38zM613 -300q-20 19 -20 50q0 32 20 51.5t52 19.5q33 0 53 -19.5t20 -51.5q0 -31 -20 -50t-53 -19q-32 0 -52 19z" />
    <glyph glyph-name="uni0212" unicode="&#x212;" horiz-adv-x="1275" 
d="M1105 0l-500 646q-44 -4 -104 -4q-106 0 -228 10v-652h-88v1460q89 16 175 25t189 9q281 0 415.5 -102t134.5 -318q3 -353 -400 -418l511 -656h-105zM793 760q113 38 166 115t53 196q0 123 -47.5 198t-149 110t-267.5 35q-82 0 -144 -5.5t-131 -17.5v-660q59 -4 111 -6.5
t115 -2.5q181 0 294 38zM400 1815q72 62 206 62q135 0 209 -63t83 -173h-69q-12 86 -63.5 128t-159.5 42t-158.5 -42t-60.5 -128h-69q10 112 82 174z" />
    <glyph glyph-name="uni1E5E" unicode="&#x1e5e;" horiz-adv-x="1275" 
d="M1105 0l-500 646q-44 -4 -104 -4q-106 0 -228 10v-652h-88v1460q89 16 175 25t189 9q281 0 415.5 -102t134.5 -318q3 -353 -400 -418l511 -656h-105zM793 760q113 38 166 115t53 196q0 123 -47.5 198t-149 110t-267.5 35q-82 0 -144 -5.5t-131 -17.5v-660q59 -4 111 -6.5
t115 -2.5q181 0 294 38zM387 -285v70h556v-70h-556z" />
    <glyph glyph-name="S" unicode="S" horiz-adv-x="1021" 
d="M270.5 -3.5q-89.5 14.5 -170.5 42.5v84q174 -59 347 -59q199 0 299.5 80t100.5 236q0 88 -33.5 147t-104.5 99t-191 71l-66 17q-188 48 -278.5 143t-90.5 250q0 121 55 209t164 135t268 47q80 0 161 -11.5t148 -33.5v-83q-149 46 -311 46q-196 0 -294.5 -78t-98.5 -226
q0 -87 30.5 -145t97.5 -98t181 -70l66 -17q202 -52 295.5 -147t93.5 -250q0 -195 -129 -299t-367 -104q-83 0 -172.5 14.5z" />
    <glyph glyph-name="Sacute" unicode="&#x15a;" horiz-adv-x="1021" 
d="M270.5 -3.5q-89.5 14.5 -170.5 42.5v84q174 -59 347 -59q199 0 299.5 80t100.5 236q0 88 -33.5 147t-104.5 99t-191 71l-66 17q-188 48 -278.5 143t-90.5 250q0 121 55 209t164 135t268 47q80 0 161 -11.5t148 -33.5v-83q-149 46 -311 46q-196 0 -294.5 -78t-98.5 -226
q0 -87 30.5 -145t97.5 -98t181 -70l66 -17q202 -52 295.5 -147t93.5 -250q0 -195 -129 -299t-367 -104q-83 0 -172.5 14.5zM477 1614l176 275h99l-193 -275h-82z" />
    <glyph glyph-name="uni1E64" unicode="&#x1e64;" horiz-adv-x="1021" 
d="M270.5 -3.5q-89.5 14.5 -170.5 42.5v84q174 -59 347 -59q199 0 299.5 80t100.5 236q0 88 -33.5 147t-104.5 99t-191 71l-66 17q-188 48 -278.5 143t-90.5 250q0 121 55 209t164 135t268 47q80 0 161 -11.5t148 -33.5v-83q-149 46 -311 46q-196 0 -294.5 -78t-98.5 -226
q0 -87 30.5 -145t97.5 -98t181 -70l66 -17q202 -52 295.5 -147t93.5 -250q0 -195 -129 -299t-367 -104q-83 0 -172.5 14.5zM413 1867q-19 18 -19 48q0 31 19.5 50t50.5 19t50 -19t19 -50q0 -30 -19 -48t-50 -18q-32 0 -51 18zM477 1614l176 275h99l-193 -275h-82z" />
    <glyph glyph-name="Scaron" unicode="&#x160;" horiz-adv-x="1021" 
d="M270.5 -3.5q-89.5 14.5 -170.5 42.5v84q174 -59 347 -59q199 0 299.5 80t100.5 236q0 88 -33.5 147t-104.5 99t-191 71l-66 17q-188 48 -278.5 143t-90.5 250q0 121 55 209t164 135t268 47q80 0 161 -11.5t148 -33.5v-83q-149 46 -311 46q-196 0 -294.5 -78t-98.5 -226
q0 -87 30.5 -145t97.5 -98t181 -70l66 -17q202 -52 295.5 -147t93.5 -250q0 -195 -129 -299t-367 -104q-83 0 -172.5 14.5zM711 1889h94l-241 -275h-91l-242 275h94l193 -225z" />
    <glyph glyph-name="uni1E66" unicode="&#x1e66;" horiz-adv-x="1021" 
d="M270.5 -3.5q-89.5 14.5 -170.5 42.5v84q174 -59 347 -59q199 0 299.5 80t100.5 236q0 88 -33.5 147t-104.5 99t-191 71l-66 17q-188 48 -278.5 143t-90.5 250q0 121 55 209t164 135t268 47q80 0 161 -11.5t148 -33.5v-83q-149 46 -311 46q-196 0 -294.5 -78t-98.5 -226
q0 -87 30.5 -145t97.5 -98t181 -70l66 -17q202 -52 295.5 -147t93.5 -250q0 -195 -129 -299t-367 -104q-83 0 -172.5 14.5zM467.5 1909.5q-19.5 18.5 -19.5 48.5q0 31 19.5 49.5t50.5 18.5q32 0 51 -18.5t19 -49.5t-19 -49t-51 -18q-31 0 -50.5 18.5zM711 1889h94l-241 -275
h-91l-242 275h94l193 -225z" />
    <glyph glyph-name="Scedilla" unicode="&#x15e;" horiz-adv-x="1021" 
d="M838.5 112q-100.5 -102 -289.5 -124v-98q82 -4 128.5 -41.5t46.5 -104.5q0 -72 -52.5 -109.5t-144.5 -37.5q-49 0 -98 9.5t-90 28.5v61q53 -23 97.5 -32.5t89.5 -9.5q64 0 98.5 22.5t34.5 68.5q0 90 -135 90h-39v148q-14 -1 -42 -1q-83 0 -172.5 14.5t-170.5 42.5v84
q174 -59 347 -59q199 0 299.5 80t100.5 236q0 88 -33.5 147t-104.5 99t-191 71l-66 17q-188 48 -278.5 143t-90.5 250q0 121 55 209t164 135t268 47q80 0 161 -11.5t148 -33.5v-83q-149 46 -311 46q-196 0 -294.5 -78t-98.5 -226q0 -87 30.5 -145t97.5 -98t181 -70l66 -17
q202 -52 295.5 -147t93.5 -250q0 -171 -100.5 -273z" />
    <glyph glyph-name="Scircumflex" unicode="&#x15c;" horiz-adv-x="1021" 
d="M270.5 -3.5q-89.5 14.5 -170.5 42.5v84q174 -59 347 -59q199 0 299.5 80t100.5 236q0 88 -33.5 147t-104.5 99t-191 71l-66 17q-188 48 -278.5 143t-90.5 250q0 121 55 209t164 135t268 47q80 0 161 -11.5t148 -33.5v-83q-149 46 -311 46q-196 0 -294.5 -78t-98.5 -226
q0 -87 30.5 -145t97.5 -98t181 -70l66 -17q202 -52 295.5 -147t93.5 -250q0 -195 -129 -299t-367 -104q-83 0 -172.5 14.5zM805 1614h-94l-193 225l-193 -225h-94l242 275h91z" />
    <glyph glyph-name="Scommaaccent" unicode="&#x218;" horiz-adv-x="1021" 
d="M270.5 -3.5q-89.5 14.5 -170.5 42.5v84q174 -59 347 -59q199 0 299.5 80t100.5 236q0 88 -33.5 147t-104.5 99t-191 71l-66 17q-188 48 -278.5 143t-90.5 250q0 121 55 209t164 135t268 47q80 0 161 -11.5t148 -33.5v-83q-149 46 -311 46q-196 0 -294.5 -78t-98.5 -226
q0 -87 30.5 -145t97.5 -98t181 -70l66 -17q202 -52 295.5 -147t93.5 -250q0 -195 -129 -299t-367 -104q-83 0 -172.5 14.5zM570 -202.5q20 -23.5 20 -68.5q0 -38 -12.5 -87t-34.5 -94h-56q30 77 35 138h-4q-32 0 -51.5 19t-19.5 49t18.5 48.5t49.5 18.5q35 0 55 -23.5z" />
    <glyph glyph-name="uni1E60" unicode="&#x1e60;" horiz-adv-x="1021" 
d="M270.5 -3.5q-89.5 14.5 -170.5 42.5v84q174 -59 347 -59q199 0 299.5 80t100.5 236q0 88 -33.5 147t-104.5 99t-191 71l-66 17q-188 48 -278.5 143t-90.5 250q0 121 55 209t164 135t268 47q80 0 161 -11.5t148 -33.5v-83q-149 46 -311 46q-196 0 -294.5 -78t-98.5 -226
q0 -87 30.5 -145t97.5 -98t181 -70l66 -17q202 -52 295.5 -147t93.5 -250q0 -195 -129 -299t-367 -104q-83 0 -172.5 14.5zM466 1702q-20 19 -20 50t20 50.5t52 19.5q33 0 53 -19t20 -51q0 -31 -20 -50t-53 -19q-32 0 -52 19z" />
    <glyph glyph-name="uni1E62" unicode="&#x1e62;" horiz-adv-x="1021" 
d="M270.5 -3.5q-89.5 14.5 -170.5 42.5v84q174 -59 347 -59q199 0 299.5 80t100.5 236q0 88 -33.5 147t-104.5 99t-191 71l-66 17q-188 48 -278.5 143t-90.5 250q0 121 55 209t164 135t268 47q80 0 161 -11.5t148 -33.5v-83q-149 46 -311 46q-196 0 -294.5 -78t-98.5 -226
q0 -87 30.5 -145t97.5 -98t181 -70l66 -17q202 -52 295.5 -147t93.5 -250q0 -195 -129 -299t-367 -104q-83 0 -172.5 14.5zM466 -300q-20 19 -20 50q0 32 20 51.5t52 19.5q33 0 53 -19.5t20 -51.5q0 -31 -20 -50t-53 -19q-32 0 -52 19z" />
    <glyph glyph-name="uni1E68" unicode="&#x1e68;" horiz-adv-x="1021" 
d="M270.5 -3.5q-89.5 14.5 -170.5 42.5v84q174 -59 347 -59q199 0 299.5 80t100.5 236q0 88 -33.5 147t-104.5 99t-191 71l-66 17q-188 48 -278.5 143t-90.5 250q0 121 55 209t164 135t268 47q80 0 161 -11.5t148 -33.5v-83q-149 46 -311 46q-196 0 -294.5 -78t-98.5 -226
q0 -87 30.5 -145t97.5 -98t181 -70l66 -17q202 -52 295.5 -147t93.5 -250q0 -195 -129 -299t-367 -104q-83 0 -172.5 14.5zM466 -300q-20 19 -20 50q0 32 20 51.5t52 19.5q33 0 53 -19.5t20 -51.5q0 -31 -20 -50t-53 -19q-32 0 -52 19zM466 1702q-20 19 -20 50t20 50.5
t52 19.5q33 0 53 -19t20 -51q0 -31 -20 -50t-53 -19q-32 0 -52 19z" />
    <glyph glyph-name="uni1E9E" unicode="&#x1e9e;" horiz-adv-x="1638" 
d="M1462 635q93 -95 93 -250q0 -195 -128 -299t-366 -104q-83 0 -172 14.5t-170 42.5v84q174 -59 345 -59q199 0 299.5 80t100.5 236q0 88 -33.5 147t-104.5 99t-191 71l-65 17q-187 49 -277.5 144t-90.5 249q0 194 135 296q-65 14 -140 14q-221 0 -322 -110t-101 -346v-961
h-89v948q0 284 124 417t388 133q143 0 242 -40q105 40 249 40q79 0 160 -11.5t148 -33.5v-83q-149 46 -310 46q-196 0 -294.5 -78t-98.5 -226q0 -87 30.5 -145t97.5 -98t181 -70l66 -17q201 -52 294 -147z" />
    <glyph glyph-name="uni018F" unicode="&#x18f;" horiz-adv-x="1384" 
d="M1088.5 1317q179.5 -181 179.5 -579q0 -393 -152 -574.5t-425 -181.5q-279 0 -432.5 180t-153.5 568v55h1070q-6 232 -77.5 371t-204.5 200t-333 61q-92 0 -191 -12t-189 -37v83q178 47 384 47q345 0 524.5 -181zM1044 213.5q126 149.5 132 491.5h-978q6 -343 131.5 -492
t361.5 -149q227 0 353 149.5z" />
    <glyph glyph-name="T" unicode="T" horiz-adv-x="1126" 
d="M519 0v1398h-505v82h1098v-82h-505v-1398h-88z" />
    <glyph glyph-name="Tbar" unicode="&#x166;" horiz-adv-x="1126" 
d="M1112 1398h-505v-568h336v-72h-336v-758h-88v758h-335v72h335v568h-505v82h1098v-82z" />
    <glyph glyph-name="Tcaron" unicode="&#x164;" horiz-adv-x="1126" 
d="M519 0v1398h-505v82h1098v-82h-505v-1398h-88zM756 1889h94l-241 -275h-91l-242 275h94l193 -225z" />
    <glyph glyph-name="uni0162" unicode="&#x162;" horiz-adv-x="1126" 
d="M594 0v-110q82 -4 128.5 -41.5t46.5 -104.5q0 -72 -52.5 -109.5t-144.5 -37.5q-49 0 -98 9.5t-90 28.5v61q53 -23 97.5 -32.5t89.5 -9.5q64 0 98.5 22.5t34.5 68.5q0 90 -135 90h-39v165h-11v1398h-505v82h1098v-82h-505v-1398h-13z" />
    <glyph glyph-name="uni021A" unicode="&#x21a;" horiz-adv-x="1126" 
d="M519 0v1398h-505v82h1098v-82h-505v-1398h-88zM615 -202.5q20 -23.5 20 -68.5q0 -38 -12.5 -87t-34.5 -94h-56q30 77 35 138h-4q-32 0 -51.5 19t-19.5 49t18.5 48.5t49.5 18.5q35 0 55 -23.5z" />
    <glyph glyph-name="uni1E6C" unicode="&#x1e6c;" horiz-adv-x="1126" 
d="M519 0v1398h-505v82h1098v-82h-505v-1398h-88zM511 -300q-20 19 -20 50q0 32 20 51.5t52 19.5q33 0 53 -19.5t20 -51.5q0 -31 -20 -50t-53 -19q-32 0 -52 19z" />
    <glyph glyph-name="uni1E6E" unicode="&#x1e6e;" horiz-adv-x="1126" 
d="M519 0v1398h-505v82h1098v-82h-505v-1398h-88zM285 -285v70h556v-70h-556z" />
    <glyph glyph-name="U" unicode="U" horiz-adv-x="1382" 
d="M401 41q-113 59 -168 181t-55 314v944h88v-956q0 -160 44.5 -261t138.5 -150t243 -49t243 49t138.5 150t44.5 261v956h86v-944q0 -192 -54.5 -314t-167.5 -181t-290 -59q-178 0 -291 59z" />
    <glyph glyph-name="Uacute" unicode="&#xda;" horiz-adv-x="1382" 
d="M401 41q-113 59 -168 181t-55 314v944h88v-956q0 -160 44.5 -261t138.5 -150t243 -49t243 49t138.5 150t44.5 261v956h86v-944q0 -192 -54.5 -314t-167.5 -181t-290 -59q-178 0 -291 59zM651 1614l176 275h99l-193 -275h-82z" />
    <glyph glyph-name="Ubreve" unicode="&#x16c;" horiz-adv-x="1382" 
d="M401 41q-113 59 -168 181t-55 314v944h88v-956q0 -160 44.5 -261t138.5 -150t243 -49t243 49t138.5 150t44.5 261v956h86v-944q0 -192 -54.5 -314t-167.5 -181t-290 -59q-178 0 -291 59zM486 1689q-74 63 -84 173h69q12 -86 63.5 -128t159.5 -42t158.5 42t60.5 128h69
q-9 -112 -81 -174t-207 -62q-134 0 -208 63z" />
    <glyph glyph-name="Ucircumflex" unicode="&#xdb;" horiz-adv-x="1382" 
d="M401 41q-113 59 -168 181t-55 314v944h88v-956q0 -160 44.5 -261t138.5 -150t243 -49t243 49t138.5 150t44.5 261v956h86v-944q0 -192 -54.5 -314t-167.5 -181t-290 -59q-178 0 -291 59zM979 1614h-94l-193 225l-193 -225h-94l242 275h91z" />
    <glyph glyph-name="uni0214" unicode="&#x214;" horiz-adv-x="1382" 
d="M401 41q-113 59 -168 181t-55 314v944h88v-956q0 -160 44.5 -261t138.5 -150t243 -49t243 49t138.5 150t44.5 261v956h86v-944q0 -192 -54.5 -314t-167.5 -181t-290 -59q-178 0 -291 59zM503 1614l-132 275h83l124 -275h-75zM807 1614l-132 275h83l124 -275h-75z" />
    <glyph glyph-name="Udieresis" unicode="&#xdc;" horiz-adv-x="1382" 
d="M401 41q-113 59 -168 181t-55 314v944h88v-956q0 -160 44.5 -261t138.5 -150t243 -49t243 49t138.5 150t44.5 261v956h86v-944q0 -192 -54.5 -314t-167.5 -181t-290 -59q-178 0 -291 59zM417.5 1702q-19.5 19 -19.5 50t19.5 50.5t51.5 19.5t51.5 -19.5t19.5 -50.5
t-19.5 -50t-51.5 -19t-51.5 19zM864 1702q-19 19 -19 50q0 32 19 51t51 19t51.5 -19t19.5 -51q0 -31 -19.5 -50t-51.5 -19t-51 19z" />
    <glyph glyph-name="uni1EE4" unicode="&#x1ee4;" horiz-adv-x="1382" 
d="M401 41q-113 59 -168 181t-55 314v944h88v-956q0 -160 44.5 -261t138.5 -150t243 -49t243 49t138.5 150t44.5 261v956h86v-944q0 -192 -54.5 -314t-167.5 -181t-290 -59q-178 0 -291 59zM640 -300q-20 19 -20 50q0 32 20 51.5t52 19.5q33 0 53 -19.5t20 -51.5
q0 -31 -20 -50t-53 -19q-32 0 -52 19z" />
    <glyph glyph-name="Ugrave" unicode="&#xd9;" horiz-adv-x="1382" 
d="M401 41q-113 59 -168 181t-55 314v944h88v-956q0 -160 44.5 -261t138.5 -150t243 -49t243 49t138.5 150t44.5 261v956h86v-944q0 -192 -54.5 -314t-167.5 -181t-290 -59q-178 0 -291 59zM651 1614l-193 275h100l175 -275h-82z" />
    <glyph glyph-name="uni1EE6" unicode="&#x1ee6;" horiz-adv-x="1382" 
d="M401 41q-113 59 -168 181t-55 314v944h88v-956q0 -160 44.5 -261t138.5 -150t243 -49t243 49t138.5 150t44.5 261v956h86v-944q0 -192 -54.5 -314t-167.5 -181t-290 -59q-178 0 -291 59zM671.5 1662.5q14.5 19.5 33.5 30.5t50 25q35 14 52 26.5t17 34.5q0 25 -26.5 38.5
t-93.5 13.5q-52 0 -99 -8.5t-97 -27.5v60q81 35 198 35q93 0 139.5 -29.5t46.5 -78.5q0 -39 -23 -59.5t-67 -39.5q-37 -17 -54.5 -30.5t-20.5 -38.5h-71q1 29 15.5 48.5z" />
    <glyph glyph-name="Uhorn" unicode="&#x1af;" horiz-adv-x="1382" 
d="M401 41q-113 59 -168 181t-55 314v944h88v-956q0 -160 44.5 -261t138.5 -150t243 -49t243 49t138.5 150t44.5 261v956h39q94 0 146 37.5t52 116.5q0 38 -6 70t-19 72h78q13 -37 19 -69.5t6 -75.5q0 -99 -61 -156t-168 -63v-876q0 -192 -54.5 -314t-167.5 -181t-290 -59
q-178 0 -291 59z" />
    <glyph glyph-name="uni1EE8" unicode="&#x1ee8;" horiz-adv-x="1382" 
d="M401 41q-113 59 -168 181t-55 314v944h88v-956q0 -160 44.5 -261t138.5 -150t243 -49t243 49t138.5 150t44.5 261v956h39q94 0 146 37.5t52 116.5q0 38 -6 70t-19 72h78q13 -37 19 -69.5t6 -75.5q0 -99 -61 -156t-168 -63v-876q0 -192 -54.5 -314t-167.5 -181t-290 -59
q-178 0 -291 59zM651 1614l176 275h99l-193 -275h-82z" />
    <glyph glyph-name="uni1EF0" unicode="&#x1ef0;" horiz-adv-x="1382" 
d="M401 41q-113 59 -168 181t-55 314v944h88v-956q0 -160 44.5 -261t138.5 -150t243 -49t243 49t138.5 150t44.5 261v956h39q94 0 146 37.5t52 116.5q0 38 -6 70t-19 72h78q13 -37 19 -69.5t6 -75.5q0 -99 -61 -156t-168 -63v-876q0 -192 -54.5 -314t-167.5 -181t-290 -59
q-178 0 -291 59zM640 -300q-20 19 -20 50q0 32 20 51.5t52 19.5q33 0 53 -19.5t20 -51.5q0 -31 -20 -50t-53 -19q-32 0 -52 19z" />
    <glyph glyph-name="uni1EEA" unicode="&#x1eea;" horiz-adv-x="1382" 
d="M401 41q-113 59 -168 181t-55 314v944h88v-956q0 -160 44.5 -261t138.5 -150t243 -49t243 49t138.5 150t44.5 261v956h39q94 0 146 37.5t52 116.5q0 38 -6 70t-19 72h78q13 -37 19 -69.5t6 -75.5q0 -99 -61 -156t-168 -63v-876q0 -192 -54.5 -314t-167.5 -181t-290 -59
q-178 0 -291 59zM651 1614l-193 275h100l175 -275h-82z" />
    <glyph glyph-name="uni1EEC" unicode="&#x1eec;" horiz-adv-x="1382" 
d="M401 41q-113 59 -168 181t-55 314v944h88v-956q0 -160 44.5 -261t138.5 -150t243 -49t243 49t138.5 150t44.5 261v956h39q94 0 146 37.5t52 116.5q0 38 -6 70t-19 72h78q13 -37 19 -69.5t6 -75.5q0 -99 -61 -156t-168 -63v-876q0 -192 -54.5 -314t-167.5 -181t-290 -59
q-178 0 -291 59zM671.5 1662.5q14.5 19.5 33.5 30.5t50 25q35 14 52 26.5t17 34.5q0 25 -26.5 38.5t-93.5 13.5q-52 0 -99 -8.5t-97 -27.5v60q81 35 198 35q93 0 139.5 -29.5t46.5 -78.5q0 -39 -23 -59.5t-67 -39.5q-37 -17 -54.5 -30.5t-20.5 -38.5h-71q1 29 15.5 48.5z
" />
    <glyph glyph-name="uni1EEE" unicode="&#x1eee;" horiz-adv-x="1382" 
d="M401 41q-113 59 -168 181t-55 314v944h88v-956q0 -160 44.5 -261t138.5 -150t243 -49t243 49t138.5 150t44.5 261v956h39q94 0 146 37.5t52 116.5q0 38 -6 70t-19 72h78q13 -37 19 -69.5t6 -75.5q0 -99 -61 -156t-168 -63v-876q0 -192 -54.5 -314t-167.5 -181t-290 -59
q-178 0 -291 59zM763 1701.5q-36 10.5 -85 30.5q-45 18 -73.5 26.5t-58.5 8.5q-50 0 -87.5 -17t-71.5 -54v76q56 62 159 62q40 0 76 -10.5t85 -30.5q45 -18 73.5 -26.5t58.5 -8.5q49 0 87 17t72 54v-76q-57 -62 -159 -62q-40 0 -76 10.5z" />
    <glyph glyph-name="Uhungarumlaut" unicode="&#x170;" horiz-adv-x="1382" 
d="M401 41q-113 59 -168 181t-55 314v944h88v-956q0 -160 44.5 -261t138.5 -150t243 -49t243 49t138.5 150t44.5 261v956h86v-944q0 -192 -54.5 -314t-167.5 -181t-290 -59q-178 0 -291 59zM503 1614l124 275h83l-132 -275h-75zM807 1614l124 275h83l-132 -275h-75z" />
    <glyph glyph-name="uni0216" unicode="&#x216;" horiz-adv-x="1382" 
d="M401 41q-113 59 -168 181t-55 314v944h88v-956q0 -160 44.5 -261t138.5 -150t243 -49t243 49t138.5 150t44.5 261v956h86v-944q0 -192 -54.5 -314t-167.5 -181t-290 -59q-178 0 -291 59zM484 1815q72 62 206 62q135 0 209 -63t83 -173h-69q-12 86 -63.5 128t-159.5 42
t-158.5 -42t-60.5 -128h-69q10 112 82 174z" />
    <glyph glyph-name="Umacron" unicode="&#x16a;" horiz-adv-x="1382" 
d="M401 41q-113 59 -168 181t-55 314v944h88v-956q0 -160 44.5 -261t138.5 -150t243 -49t243 49t138.5 150t44.5 261v956h86v-944q0 -192 -54.5 -314t-167.5 -181t-290 -59q-178 0 -291 59zM414 1717v70h556v-70h-556z" />
    <glyph glyph-name="uni1E7A" unicode="&#x1e7a;" horiz-adv-x="1382" 
d="M401 41q-113 59 -168 181t-55 314v944h88v-956q0 -160 44.5 -261t138.5 -150t243 -49t243 49t138.5 150t44.5 261v956h86v-944q0 -192 -54.5 -314t-167.5 -181t-290 -59q-178 0 -291 59zM414 1717v70h556v-70h-556zM417.5 1940q-19.5 19 -19.5 50t19.5 50.5t51.5 19.5
t51.5 -19.5t19.5 -50.5t-19.5 -50t-51.5 -19t-51.5 19zM864 1940q-19 19 -19 50q0 32 19 51t51 19t51.5 -19t19.5 -51q0 -31 -19.5 -50t-51.5 -19t-51 19z" />
    <glyph glyph-name="Uogonek" unicode="&#x172;" horiz-adv-x="1382" 
d="M1204 1480v-944q0 -221 -74 -352t-237 -178q-257 -75 -257 -229q0 -120 149 -120q39 0 78 9t90 31v-60q-84 -39 -168 -39q-105 0 -160 45.5t-55 130.5q0 61 31.5 114.5t99.5 93.5h-9q-178 0 -291 59t-168 181t-55 314v944h88v-956q0 -160 44.5 -261t138.5 -150t243 -49
t243 49t138.5 150t44.5 261v956h86z" />
    <glyph glyph-name="Uring" unicode="&#x16e;" horiz-adv-x="1382" 
d="M401 41q-113 59 -168 181t-55 314v944h88v-956q0 -160 44.5 -261t138.5 -150t243 -49t243 49t138.5 150t44.5 261v956h86v-944q0 -192 -54.5 -314t-167.5 -181t-290 -59q-178 0 -291 59zM596.5 1633q-42.5 24 -66.5 66.5t-24 95.5t24 95.5t66.5 66.5t95.5 24t96 -24
t67 -66.5t24 -95.5t-24 -95.5t-67 -66.5t-96 -24t-95.5 24zM784 1701q35 35 35 94t-35 94t-92 35q-56 0 -91.5 -35t-35.5 -94t35.5 -94t91.5 -35q57 0 92 35z" />
    <glyph glyph-name="Utilde" unicode="&#x168;" horiz-adv-x="1382" 
d="M401 41q-113 59 -168 181t-55 314v944h88v-956q0 -160 44.5 -261t138.5 -150t243 -49t243 49t138.5 150t44.5 261v956h86v-944q0 -192 -54.5 -314t-167.5 -181t-290 -59q-178 0 -291 59zM763 1701.5q-36 10.5 -85 30.5q-45 18 -73.5 26.5t-58.5 8.5q-50 0 -87.5 -17
t-71.5 -54v76q56 62 159 62q40 0 76 -10.5t85 -30.5q45 -18 73.5 -26.5t58.5 -8.5q49 0 87 17t72 54v-76q-57 -62 -159 -62q-40 0 -76 10.5z" />
    <glyph glyph-name="uni1E78" unicode="&#x1e78;" horiz-adv-x="1382" 
d="M401 41q-113 59 -168 181t-55 314v944h88v-956q0 -160 44.5 -261t138.5 -150t243 -49t243 49t138.5 150t44.5 261v956h86v-944q0 -192 -54.5 -314t-167.5 -181t-290 -59q-178 0 -291 59zM650 1890l175 232h103l-193 -232h-85zM763 1701.5q-36 10.5 -85 30.5
q-45 18 -73.5 26.5t-58.5 8.5q-50 0 -87.5 -17t-71.5 -54v76q56 62 159 62q40 0 76 -10.5t85 -30.5q45 -18 73.5 -26.5t58.5 -8.5q49 0 87 17t72 54v-76q-57 -62 -159 -62q-40 0 -76 10.5z" />
    <glyph glyph-name="V" unicode="V" horiz-adv-x="1260" 
d="M1154 1480h91l-552 -1480h-125l-552 1480h96l521 -1406z" />
    <glyph glyph-name="W" unicode="W" horiz-adv-x="2041" 
d="M1886 1480h88l-428 -1480h-120l-405 1382l-406 -1382h-120l-429 1480h93l399 -1394l406 1394h115l406 -1396z" />
    <glyph glyph-name="Wacute" unicode="&#x1e82;" horiz-adv-x="2041" 
d="M1886 1480h88l-428 -1480h-120l-405 1382l-406 -1382h-120l-429 1480h93l399 -1394l406 1394h115l406 -1396zM981 1614l176 275h99l-193 -275h-82z" />
    <glyph glyph-name="Wcircumflex" unicode="&#x174;" horiz-adv-x="2041" 
d="M1886 1480h88l-428 -1480h-120l-405 1382l-406 -1382h-120l-429 1480h93l399 -1394l406 1394h115l406 -1396zM1309 1614h-94l-193 225l-193 -225h-94l242 275h91z" />
    <glyph glyph-name="Wdieresis" unicode="&#x1e84;" horiz-adv-x="2041" 
d="M1886 1480h88l-428 -1480h-120l-405 1382l-406 -1382h-120l-429 1480h93l399 -1394l406 1394h115l406 -1396zM747.5 1702q-19.5 19 -19.5 50t19.5 50.5t51.5 19.5t51.5 -19.5t19.5 -50.5t-19.5 -50t-51.5 -19t-51.5 19zM1194 1702q-19 19 -19 50q0 32 19 51t51 19
t51.5 -19t19.5 -51q0 -31 -19.5 -50t-51.5 -19t-51 19z" />
    <glyph glyph-name="Wgrave" unicode="&#x1e80;" horiz-adv-x="2041" 
d="M1886 1480h88l-428 -1480h-120l-405 1382l-406 -1382h-120l-429 1480h93l399 -1394l406 1394h115l406 -1396zM981 1614l-193 275h100l175 -275h-82z" />
    <glyph glyph-name="X" unicode="X" horiz-adv-x="1234" 
d="M670 750l533 -750h-107l-480 675l-481 -675h-105l533 749l-521 731h107l468 -658l470 658h104z" />
    <glyph glyph-name="Y" unicode="Y" horiz-adv-x="1126" 
d="M1139 1480l-532 -806v-674h-88v674l-541 806h104l482 -722l476 722h99z" />
    <glyph glyph-name="Yacute" unicode="&#xdd;" horiz-adv-x="1126" 
d="M1139 1480l-532 -806v-674h-88v674l-541 806h104l482 -722l476 722h99zM522 1614l176 275h99l-193 -275h-82z" />
    <glyph glyph-name="Ycircumflex" unicode="&#x176;" horiz-adv-x="1126" 
d="M1139 1480l-532 -806v-674h-88v674l-541 806h104l482 -722l476 722h99zM850 1614h-94l-193 225l-193 -225h-94l242 275h91z" />
    <glyph glyph-name="Ydieresis" unicode="&#x178;" horiz-adv-x="1126" 
d="M1139 1480l-532 -806v-674h-88v674l-541 806h104l482 -722l476 722h99zM288.5 1702q-19.5 19 -19.5 50t19.5 50.5t51.5 19.5t51.5 -19.5t19.5 -50.5t-19.5 -50t-51.5 -19t-51.5 19zM735 1702q-19 19 -19 50q0 32 19 51t51 19t51.5 -19t19.5 -51q0 -31 -19.5 -50
t-51.5 -19t-51 19z" />
    <glyph glyph-name="uni1E8E" unicode="&#x1e8e;" horiz-adv-x="1126" 
d="M1139 1480l-532 -806v-674h-88v674l-541 806h104l482 -722l476 722h99zM511 1702q-20 19 -20 50t20 50.5t52 19.5q33 0 53 -19t20 -51q0 -31 -20 -50t-53 -19q-32 0 -52 19z" />
    <glyph glyph-name="uni1EF4" unicode="&#x1ef4;" horiz-adv-x="1126" 
d="M1139 1480l-532 -806v-674h-88v674l-541 806h104l482 -722l476 722h99zM511 -300q-20 19 -20 50q0 32 20 51.5t52 19.5q33 0 53 -19.5t20 -51.5q0 -31 -20 -50t-53 -19q-32 0 -52 19z" />
    <glyph glyph-name="Ygrave" unicode="&#x1ef2;" horiz-adv-x="1126" 
d="M1139 1480l-532 -806v-674h-88v674l-541 806h104l482 -722l476 722h99zM522 1614l-193 275h100l175 -275h-82z" />
    <glyph glyph-name="uni1EF6" unicode="&#x1ef6;" horiz-adv-x="1126" 
d="M1139 1480l-532 -806v-674h-88v674l-541 806h104l482 -722l476 722h99zM542.5 1662.5q14.5 19.5 33.5 30.5t50 25q35 14 52 26.5t17 34.5q0 25 -26.5 38.5t-93.5 13.5q-52 0 -99 -8.5t-97 -27.5v60q81 35 198 35q93 0 139.5 -29.5t46.5 -78.5q0 -39 -23 -59.5t-67 -39.5
q-37 -17 -54.5 -30.5t-20.5 -38.5h-71q1 29 15.5 48.5z" />
    <glyph glyph-name="uni0232" unicode="&#x232;" horiz-adv-x="1126" 
d="M1139 1480l-532 -806v-674h-88v674l-541 806h104l482 -722l476 722h99zM285 1717v70h556v-70h-556z" />
    <glyph glyph-name="uni1EF8" unicode="&#x1ef8;" horiz-adv-x="1126" 
d="M1139 1480l-532 -806v-674h-88v674l-541 806h104l482 -722l476 722h99zM634 1701.5q-36 10.5 -85 30.5q-45 18 -73.5 26.5t-58.5 8.5q-50 0 -87.5 -17t-71.5 -54v76q56 62 159 62q40 0 76 -10.5t85 -30.5q45 -18 73.5 -26.5t58.5 -8.5q49 0 87 17t72 54v-76
q-57 -62 -159 -62q-40 0 -76 10.5z" />
    <glyph glyph-name="Z" unicode="Z" horiz-adv-x="1114" 
d="M183 81h868v-81h-988v51l856 1348h-845v81h965v-51z" />
    <glyph glyph-name="Zacute" unicode="&#x179;" horiz-adv-x="1114" 
d="M183 81h868v-81h-988v51l856 1348h-845v81h965v-51zM516 1614l176 275h99l-193 -275h-82z" />
    <glyph glyph-name="Zcaron" unicode="&#x17d;" horiz-adv-x="1114" 
d="M183 81h868v-81h-988v51l856 1348h-845v81h965v-51zM750 1889h94l-241 -275h-91l-242 275h94l193 -225z" />
    <glyph glyph-name="Zdotaccent" unicode="&#x17b;" horiz-adv-x="1114" 
d="M183 81h868v-81h-988v51l856 1348h-845v81h965v-51zM505 1702q-20 19 -20 50t20 50.5t52 19.5q33 0 53 -19t20 -51q0 -31 -20 -50t-53 -19q-32 0 -52 19z" />
    <glyph glyph-name="uni1E92" unicode="&#x1e92;" horiz-adv-x="1114" 
d="M183 81h868v-81h-988v51l856 1348h-845v81h965v-51zM505 -300q-20 19 -20 50q0 32 20 51.5t52 19.5q33 0 53 -19.5t20 -51.5q0 -31 -20 -50t-53 -19q-32 0 -52 19z" />
    <glyph glyph-name="Iacute_J.loclNLD" horiz-adv-x="918" 
d="M185 0v1480h89v-1480h-89zM189 1614l176 275h99l-193 -275h-82zM456 -298q100 137 144.5 273t44.5 312v1193h88v-1223q-8 -177 -56.5 -314t-158.5 -284zM648 1614l176 275h99l-193 -275h-82z" />
    <glyph glyph-name="a" unicode="a" horiz-adv-x="990" 
d="M669.5 1063q82.5 -34 125.5 -112.5t43 -212.5v-738h-77l-7 127h-8q-56 -68 -141 -105.5t-183 -37.5q-148 0 -233 75t-85 210q0 138 88.5 213.5t278.5 96.5l279 33v128q0 107 -33.5 167.5t-97 85t-163.5 24.5q-66 0 -142 -12t-149 -38v81q62 23 142 36t154 13
q126 0 208.5 -34zM604.5 101.5q82.5 39.5 145.5 122.5v313l-278 -32q-144 -16 -209 -71.5t-65 -156.5q0 -106 59 -160.5t176 -54.5q89 0 171.5 39.5z" />
    <glyph glyph-name="aacute" unicode="&#xe1;" horiz-adv-x="990" 
d="M669.5 1063q82.5 -34 125.5 -112.5t43 -212.5v-738h-77l-7 127h-8q-56 -68 -141 -105.5t-183 -37.5q-148 0 -233 75t-85 210q0 138 88.5 213.5t278.5 96.5l279 33v128q0 107 -33.5 167.5t-97 85t-163.5 24.5q-66 0 -142 -12t-149 -38v81q62 23 142 36t154 13
q126 0 208.5 -34zM604.5 101.5q82.5 39.5 145.5 122.5v313l-278 -32q-144 -16 -209 -71.5t-65 -156.5q0 -106 59 -160.5t176 -54.5q89 0 171.5 39.5zM450 1262l210 354h99l-227 -354h-82z" />
    <glyph glyph-name="abreve" unicode="&#x103;" horiz-adv-x="990" 
d="M669.5 1063q82.5 -34 125.5 -112.5t43 -212.5v-738h-77l-7 127h-8q-56 -68 -141 -105.5t-183 -37.5q-148 0 -233 75t-85 210q0 138 88.5 213.5t278.5 96.5l279 33v128q0 107 -33.5 167.5t-97 85t-163.5 24.5q-66 0 -142 -12t-149 -38v81q62 23 142 36t154 13
q126 0 208.5 -34zM604.5 101.5q82.5 39.5 145.5 122.5v313l-278 -32q-144 -16 -209 -71.5t-65 -156.5q0 -106 59 -160.5t176 -54.5q89 0 171.5 39.5zM298 1356q-71 83 -77 232h69q8 -124 57 -186.5t146 -62.5t145.5 62.5t54.5 186.5h68q-5 -151 -74.5 -233t-193.5 -82
t-195 83z" />
    <glyph glyph-name="uni1EAF" unicode="&#x1eaf;" horiz-adv-x="990" 
d="M669.5 1063q82.5 -34 125.5 -112.5t43 -212.5v-738h-77l-7 127h-8q-56 -68 -141 -105.5t-183 -37.5q-148 0 -233 75t-85 210q0 138 88.5 213.5t278.5 96.5l279 33v128q0 107 -33.5 167.5t-97 85t-163.5 24.5q-66 0 -142 -12t-149 -38v81q62 23 142 36t154 13
q126 0 208.5 -34zM604.5 101.5q82.5 39.5 145.5 122.5v313l-278 -32q-144 -16 -209 -71.5t-65 -156.5q0 -106 59 -160.5t176 -54.5q89 0 171.5 39.5zM453 1596l175 272h95l-193 -272h-77zM297 1356q-71 82 -77 230h69q8 -123 57.5 -185.5t146.5 -62.5t145.5 62.5t54.5 185.5
h69q-6 -149 -75.5 -230.5t-193.5 -81.5q-125 0 -196 82z" />
    <glyph glyph-name="uni1EB7" unicode="&#x1eb7;" horiz-adv-x="990" 
d="M669.5 1063q82.5 -34 125.5 -112.5t43 -212.5v-738h-77l-7 127h-8q-56 -68 -141 -105.5t-183 -37.5q-148 0 -233 75t-85 210q0 138 88.5 213.5t278.5 96.5l279 33v128q0 107 -33.5 167.5t-97 85t-163.5 24.5q-66 0 -142 -12t-149 -38v81q62 23 142 36t154 13
q126 0 208.5 -34zM604.5 101.5q82.5 39.5 145.5 122.5v313l-278 -32q-144 -16 -209 -71.5t-65 -156.5q0 -106 59 -160.5t176 -54.5q89 0 171.5 39.5zM452.5 -302q-19.5 19 -19.5 51t19.5 52t51.5 20t51.5 -20t19.5 -52t-19.5 -51t-51.5 -19t-51.5 19zM298 1356
q-71 83 -77 232h69q8 -124 57 -186.5t146 -62.5t145.5 62.5t54.5 186.5h68q-5 -151 -74.5 -233t-193.5 -82t-195 83z" />
    <glyph glyph-name="uni1EB1" unicode="&#x1eb1;" horiz-adv-x="990" 
d="M669.5 1063q82.5 -34 125.5 -112.5t43 -212.5v-738h-77l-7 127h-8q-56 -68 -141 -105.5t-183 -37.5q-148 0 -233 75t-85 210q0 138 88.5 213.5t278.5 96.5l279 33v128q0 107 -33.5 167.5t-97 85t-163.5 24.5q-66 0 -142 -12t-149 -38v81q62 23 142 36t154 13
q126 0 208.5 -34zM604.5 101.5q82.5 39.5 145.5 122.5v313l-278 -32q-144 -16 -209 -71.5t-65 -156.5q0 -106 59 -160.5t176 -54.5q89 0 171.5 39.5zM453 1596l-193 272h94l176 -272h-77zM297 1356q-71 82 -77 230h69q8 -123 57.5 -185.5t146.5 -62.5t145.5 62.5t54.5 185.5
h69q-6 -149 -75.5 -230.5t-193.5 -81.5q-125 0 -196 82z" />
    <glyph glyph-name="uni1EB3" unicode="&#x1eb3;" horiz-adv-x="990" 
d="M669.5 1063q82.5 -34 125.5 -112.5t43 -212.5v-738h-77l-7 127h-8q-56 -68 -141 -105.5t-183 -37.5q-148 0 -233 75t-85 210q0 138 88.5 213.5t278.5 96.5l279 33v128q0 107 -33.5 167.5t-97 85t-163.5 24.5q-66 0 -142 -12t-149 -38v81q62 23 142 36t154 13
q126 0 208.5 -34zM604.5 101.5q82.5 39.5 145.5 122.5v313l-278 -32q-144 -16 -209 -71.5t-65 -156.5q0 -106 59 -160.5t176 -54.5q89 0 171.5 39.5zM470.5 1643.5q14.5 19.5 33.5 30.5t50 25q35 14 52 26.5t17 34.5q0 25 -26.5 38t-93.5 13q-53 0 -100 -8.5t-96 -27.5v59
q81 35 198 35q93 0 139.5 -29t46.5 -78q0 -39 -23 -59t-67 -39q-37 -17 -54.5 -30.5t-20.5 -37.5h-71q1 28 15.5 47.5zM297 1356q-71 82 -77 230h69q8 -123 57.5 -185.5t146.5 -62.5t145.5 62.5t54.5 185.5h69q-6 -149 -75.5 -230.5t-193.5 -81.5q-125 0 -196 82z" />
    <glyph glyph-name="uni1EB5" unicode="&#x1eb5;" horiz-adv-x="990" 
d="M669.5 1063q82.5 -34 125.5 -112.5t43 -212.5v-738h-77l-7 127h-8q-56 -68 -141 -105.5t-183 -37.5q-148 0 -233 75t-85 210q0 138 88.5 213.5t278.5 96.5l279 33v128q0 107 -33.5 167.5t-97 85t-163.5 24.5q-66 0 -142 -12t-149 -38v81q62 23 142 36t154 13
q126 0 208.5 -34zM604.5 101.5q82.5 39.5 145.5 122.5v313l-278 -32q-144 -16 -209 -71.5t-65 -156.5q0 -106 59 -160.5t176 -54.5q89 0 171.5 39.5zM558 1681.5q-33 10.5 -81 30.5q-40 17 -68 26t-55 9q-46 0 -83 -17.5t-71 -53.5v75q58 61 154 61q36 0 69 -10t83 -30
q40 -17 68 -26t55 -9q46 0 83 17t70 53v-74q-56 -62 -154 -62q-37 0 -70 10.5zM297 1356q-71 82 -77 230h69q8 -123 57.5 -185.5t146.5 -62.5t145.5 62.5t54.5 185.5h69q-6 -149 -75.5 -230.5t-193.5 -81.5q-125 0 -196 82z" />
    <glyph glyph-name="acircumflex" unicode="&#xe2;" horiz-adv-x="990" 
d="M669.5 1063q82.5 -34 125.5 -112.5t43 -212.5v-738h-77l-7 127h-8q-56 -68 -141 -105.5t-183 -37.5q-148 0 -233 75t-85 210q0 138 88.5 213.5t278.5 96.5l279 33v128q0 107 -33.5 167.5t-97 85t-163.5 24.5q-66 0 -142 -12t-149 -38v81q62 23 142 36t154 13
q126 0 208.5 -34zM604.5 101.5q82.5 39.5 145.5 122.5v313l-278 -32q-144 -16 -209 -71.5t-65 -156.5q0 -106 59 -160.5t176 -54.5q89 0 171.5 39.5zM756 1262h-84l-181 299l-181 -299h-83l219 354h91z" />
    <glyph glyph-name="uni1EA5" unicode="&#x1ea5;" horiz-adv-x="990" 
d="M669.5 1063q82.5 -34 125.5 -112.5t43 -212.5v-738h-77l-7 127h-8q-56 -68 -141 -105.5t-183 -37.5q-148 0 -233 75t-85 210q0 138 88.5 213.5t278.5 96.5l279 33v128q0 107 -33.5 167.5t-97 85t-163.5 24.5q-66 0 -142 -12t-149 -38v81q62 23 142 36t154 13
q126 0 208.5 -34zM604.5 101.5q82.5 39.5 145.5 122.5v313l-278 -32q-144 -16 -209 -71.5t-65 -156.5q0 -106 59 -160.5t176 -54.5q89 0 171.5 39.5zM870 1868h94l-193 -272h-76zM446 1616h91l219 -354h-84l-181 299l-181 -299h-83z" />
    <glyph glyph-name="uni1EAD" unicode="&#x1ead;" horiz-adv-x="990" 
d="M669.5 1063q82.5 -34 125.5 -112.5t43 -212.5v-738h-77l-7 127h-8q-56 -68 -141 -105.5t-183 -37.5q-148 0 -233 75t-85 210q0 138 88.5 213.5t278.5 96.5l279 33v128q0 107 -33.5 167.5t-97 85t-163.5 24.5q-66 0 -142 -12t-149 -38v81q62 23 142 36t154 13
q126 0 208.5 -34zM604.5 101.5q82.5 39.5 145.5 122.5v313l-278 -32q-144 -16 -209 -71.5t-65 -156.5q0 -106 59 -160.5t176 -54.5q89 0 171.5 39.5zM452.5 -302q-19.5 19 -19.5 51t19.5 52t51.5 20t51.5 -20t19.5 -52t-19.5 -51t-51.5 -19t-51.5 19zM756 1262h-84l-181 299
l-181 -299h-83l219 354h91z" />
    <glyph glyph-name="uni1EA7" unicode="&#x1ea7;" horiz-adv-x="990" 
d="M669.5 1063q82.5 -34 125.5 -112.5t43 -212.5v-738h-77l-7 127h-8q-56 -68 -141 -105.5t-183 -37.5q-148 0 -233 75t-85 210q0 138 88.5 213.5t278.5 96.5l279 33v128q0 107 -33.5 167.5t-97 85t-163.5 24.5q-66 0 -142 -12t-149 -38v81q62 23 142 36t154 13
q126 0 208.5 -34zM604.5 101.5q82.5 39.5 145.5 122.5v313l-278 -32q-144 -16 -209 -71.5t-65 -156.5q0 -106 59 -160.5t176 -54.5q89 0 171.5 39.5zM786 1596h-77l-193 272h94zM446 1616h91l219 -354h-84l-181 299l-181 -299h-83z" />
    <glyph glyph-name="uni1EA9" unicode="&#x1ea9;" horiz-adv-x="990" 
d="M669.5 1063q82.5 -34 125.5 -112.5t43 -212.5v-738h-77l-7 127h-8q-56 -68 -141 -105.5t-183 -37.5q-148 0 -233 75t-85 210q0 138 88.5 213.5t278.5 96.5l279 33v128q0 107 -33.5 167.5t-97 85t-163.5 24.5q-66 0 -142 -12t-149 -38v81q62 23 142 36t154 13
q126 0 208.5 -34zM604.5 101.5q82.5 39.5 145.5 122.5v313l-278 -32q-144 -16 -209 -71.5t-65 -156.5q0 -106 59 -160.5t176 -54.5q89 0 171.5 39.5zM875 1840q46 -29 46 -78q0 -27 -12.5 -45t-29.5 -28.5t-47 -24.5q-36 -16 -54 -29.5t-21 -38.5h-70q2 41 27.5 62t71.5 41
q36 16 52 28t16 33q0 25 -26.5 38t-92.5 13q-53 0 -99.5 -8t-96.5 -27v58q81 35 197 35q93 0 139 -29zM446 1616h91l219 -354h-84l-181 299l-181 -299h-83z" />
    <glyph glyph-name="uni1EAB" unicode="&#x1eab;" horiz-adv-x="990" 
d="M669.5 1063q82.5 -34 125.5 -112.5t43 -212.5v-738h-77l-7 127h-8q-56 -68 -141 -105.5t-183 -37.5q-148 0 -233 75t-85 210q0 138 88.5 213.5t278.5 96.5l279 33v128q0 107 -33.5 167.5t-97 85t-163.5 24.5q-66 0 -142 -12t-149 -38v81q62 23 142 36t154 13
q126 0 208.5 -34zM604.5 101.5q82.5 39.5 145.5 122.5v313l-278 -32q-144 -16 -209 -71.5t-65 -156.5q0 -106 59 -160.5t176 -54.5q89 0 171.5 39.5zM711 1754q37 17 70 53v-74q-56 -62 -153 -62q-37 0 -71 10.5t-81 30.5q-41 18 -68 26.5t-54 8.5q-46 0 -82.5 -17
t-70.5 -54v75q58 61 153 61q36 0 69 -10t83 -30q40 -17 68 -26t55 -9q45 0 82 17zM446 1612h91l220 -350h-84l-182 297l-182 -297h-84z" />
    <glyph glyph-name="uni0201" unicode="&#x201;" horiz-adv-x="990" 
d="M669.5 1063q82.5 -34 125.5 -112.5t43 -212.5v-738h-77l-7 127h-8q-56 -68 -141 -105.5t-183 -37.5q-148 0 -233 75t-85 210q0 138 88.5 213.5t278.5 96.5l279 33v128q0 107 -33.5 167.5t-97 85t-163.5 24.5q-66 0 -142 -12t-149 -38v81q62 23 142 36t154 13
q126 0 208.5 -34zM604.5 101.5q82.5 39.5 145.5 122.5v313l-278 -32q-144 -16 -209 -71.5t-65 -156.5q0 -106 59 -160.5t176 -54.5q89 0 171.5 39.5zM302 1262l-144 354h85l134 -354h-75zM606 1262l-144 354h85l134 -354h-75z" />
    <glyph glyph-name="adieresis" unicode="&#xe4;" horiz-adv-x="990" 
d="M669.5 1063q82.5 -34 125.5 -112.5t43 -212.5v-738h-77l-7 127h-8q-56 -68 -141 -105.5t-183 -37.5q-148 0 -233 75t-85 210q0 138 88.5 213.5t278.5 96.5l279 33v128q0 107 -33.5 167.5t-97 85t-163.5 24.5q-66 0 -142 -12t-149 -38v81q62 23 142 36t154 13
q126 0 208.5 -34zM604.5 101.5q82.5 39.5 145.5 122.5v313l-278 -32q-144 -16 -209 -71.5t-65 -156.5q0 -106 59 -160.5t176 -54.5q89 0 171.5 39.5zM236.5 1371q-19.5 19 -19.5 51t19.5 52t51.5 20q31 0 50.5 -20t19.5 -52t-19.5 -51t-50.5 -19q-32 0 -51.5 19zM643.5 1371
q-19.5 19 -19.5 51t19.5 52t51.5 20t51.5 -20t19.5 -52t-19.5 -51t-51.5 -19t-51.5 19z" />
    <glyph glyph-name="uni1EA1" unicode="&#x1ea1;" horiz-adv-x="990" 
d="M669.5 1063q82.5 -34 125.5 -112.5t43 -212.5v-738h-77l-7 127h-8q-56 -68 -141 -105.5t-183 -37.5q-148 0 -233 75t-85 210q0 138 88.5 213.5t278.5 96.5l279 33v128q0 107 -33.5 167.5t-97 85t-163.5 24.5q-66 0 -142 -12t-149 -38v81q62 23 142 36t154 13
q126 0 208.5 -34zM604.5 101.5q82.5 39.5 145.5 122.5v313l-278 -32q-144 -16 -209 -71.5t-65 -156.5q0 -106 59 -160.5t176 -54.5q89 0 171.5 39.5zM452.5 -302q-19.5 19 -19.5 51t19.5 52t51.5 20t51.5 -20t19.5 -52t-19.5 -51t-51.5 -19t-51.5 19z" />
    <glyph glyph-name="agrave" unicode="&#xe0;" horiz-adv-x="990" 
d="M669.5 1063q82.5 -34 125.5 -112.5t43 -212.5v-738h-77l-7 127h-8q-56 -68 -141 -105.5t-183 -37.5q-148 0 -233 75t-85 210q0 138 88.5 213.5t278.5 96.5l279 33v128q0 107 -33.5 167.5t-97 85t-163.5 24.5q-66 0 -142 -12t-149 -38v81q62 23 142 36t154 13
q126 0 208.5 -34zM604.5 101.5q82.5 39.5 145.5 122.5v313l-278 -32q-144 -16 -209 -71.5t-65 -156.5q0 -106 59 -160.5t176 -54.5q89 0 171.5 39.5zM450 1262l-226 354h99l209 -354h-82z" />
    <glyph glyph-name="uni1EA3" unicode="&#x1ea3;" horiz-adv-x="990" 
d="M669.5 1063q82.5 -34 125.5 -112.5t43 -212.5v-738h-77l-7 127h-8q-56 -68 -141 -105.5t-183 -37.5q-148 0 -233 75t-85 210q0 138 88.5 213.5t278.5 96.5l279 33v128q0 107 -33.5 167.5t-97 85t-163.5 24.5q-66 0 -142 -12t-149 -38v81q62 23 142 36t154 13
q126 0 208.5 -34zM604.5 101.5q82.5 39.5 145.5 122.5v313l-278 -32q-144 -16 -209 -71.5t-65 -156.5q0 -106 59 -160.5t176 -54.5q89 0 171.5 39.5zM471 1326.5q14 26.5 32.5 43.5t48.5 38q34 24 49.5 41.5t15.5 42.5q0 38 -30.5 56.5t-95.5 18.5q-38 0 -80 -6t-74 -18v61
q31 11 72 17.5t80 6.5q99 0 147 -34.5t48 -99.5q0 -31 -11 -53.5t-26.5 -36.5t-43.5 -34q-37 -26 -56.5 -48.5t-20.5 -59.5h-70q1 38 15 64.5z" />
    <glyph glyph-name="uni0203" unicode="&#x203;" horiz-adv-x="990" 
d="M669.5 1063q82.5 -34 125.5 -112.5t43 -212.5v-738h-77l-7 127h-8q-56 -68 -141 -105.5t-183 -37.5q-148 0 -233 75t-85 210q0 138 88.5 213.5t278.5 96.5l279 33v128q0 107 -33.5 167.5t-97 85t-163.5 24.5q-66 0 -142 -12t-149 -38v81q62 23 142 36t154 13
q126 0 208.5 -34zM604.5 101.5q82.5 39.5 145.5 122.5v313l-278 -32q-144 -16 -209 -71.5t-65 -156.5q0 -106 59 -160.5t176 -54.5q89 0 171.5 39.5zM296 1523.5q69 81.5 193 81.5q125 0 196 -82.5t76 -232.5h-68q-15 248 -204 248q-95 0 -144 -62.5t-55 -185.5h-69
q6 152 75 233.5z" />
    <glyph glyph-name="amacron" unicode="&#x101;" horiz-adv-x="990" 
d="M669.5 1063q82.5 -34 125.5 -112.5t43 -212.5v-738h-77l-7 127h-8q-56 -68 -141 -105.5t-183 -37.5q-148 0 -233 75t-85 210q0 138 88.5 213.5t278.5 96.5l279 33v128q0 107 -33.5 167.5t-97 85t-163.5 24.5q-66 0 -142 -12t-149 -38v81q62 23 142 36t154 13
q126 0 208.5 -34zM604.5 101.5q82.5 39.5 145.5 122.5v313l-278 -32q-144 -16 -209 -71.5t-65 -156.5q0 -106 59 -160.5t176 -54.5q89 0 171.5 39.5zM202 1388v70h578v-70h-578z" />
    <glyph glyph-name="aogonek" unicode="&#x105;" horiz-adv-x="990" 
d="M940 -301v-62q-32 -19 -72.5 -29.5t-79.5 -10.5q-91 0 -143 46t-52 126q0 71 40 132t127 119l-6 107h-8q-56 -68 -141 -105.5t-183 -37.5q-148 0 -233 75t-85 210q0 138 88.5 213.5t278.5 96.5l279 33v128q0 107 -33.5 167.5t-97 85t-163.5 24.5q-66 0 -142 -12t-149 -38
v81q62 23 142 36t154 13q126 0 208.5 -34t125.5 -112.5t43 -212.5v-738q-95 -56 -136.5 -109.5t-41.5 -117.5q0 -56 34 -87t95 -31q78 0 151 44zM604.5 101.5q82.5 39.5 145.5 122.5v313l-278 -32q-144 -16 -209 -71.5t-65 -156.5q0 -106 59 -160.5t176 -54.5
q89 0 171.5 39.5z" />
    <glyph glyph-name="aring" unicode="&#xe5;" horiz-adv-x="990" 
d="M669.5 1063q82.5 -34 125.5 -112.5t43 -212.5v-738h-77l-7 127h-8q-56 -68 -141 -105.5t-183 -37.5q-148 0 -233 75t-85 210q0 138 88.5 213.5t278.5 96.5l279 33v128q0 107 -33.5 167.5t-97 85t-163.5 24.5q-66 0 -142 -12t-149 -38v81q62 23 142 36t154 13
q126 0 208.5 -34zM604.5 101.5q82.5 39.5 145.5 122.5v313l-278 -32q-144 -16 -209 -71.5t-65 -156.5q0 -106 59 -160.5t176 -54.5q89 0 171.5 39.5zM395.5 1281q-42.5 24 -66.5 66.5t-24 95.5t24 95.5t66.5 66.5t95.5 24t96 -24t67 -66.5t24 -95.5t-24 -95.5t-67 -66.5
t-96 -24t-95.5 24zM583 1349q35 35 35 94q0 60 -35 95t-92 35q-56 0 -91.5 -35t-35.5 -95q0 -59 35.5 -94t91.5 -35q57 0 92 35z" />
    <glyph glyph-name="aringacute" unicode="&#x1fb;" horiz-adv-x="990" 
d="M669.5 1063q82.5 -34 125.5 -112.5t43 -212.5v-738h-77l-7 127h-8q-56 -68 -141 -105.5t-183 -37.5q-148 0 -233 75t-85 210q0 138 88.5 213.5t278.5 96.5l279 33v128q0 107 -33.5 167.5t-97 85t-163.5 24.5q-66 0 -142 -12t-149 -38v81q62 23 142 36t154 13
q126 0 208.5 -34zM604.5 101.5q82.5 39.5 145.5 122.5v313l-278 -32q-144 -16 -209 -71.5t-65 -156.5q0 -106 59 -160.5t176 -54.5q89 0 171.5 39.5zM633 1568q45 -51 45 -125q0 -53 -24 -95.5t-67 -66.5t-96 -24t-95.5 24t-66.5 66.5t-24 95.5t24 95.5t66.5 66.5t95.5 24
q52 0 93 -23l145 174h91zM583 1349q35 35 35 94q0 60 -35 95t-92 35q-56 0 -91.5 -35t-35.5 -95q0 -59 35.5 -94t91.5 -35q57 0 92 35z" />
    <glyph glyph-name="atilde" unicode="&#xe3;" horiz-adv-x="990" 
d="M669.5 1063q82.5 -34 125.5 -112.5t43 -212.5v-738h-77l-7 127h-8q-56 -68 -141 -105.5t-183 -37.5q-148 0 -233 75t-85 210q0 138 88.5 213.5t278.5 96.5l279 33v128q0 107 -33.5 167.5t-97 85t-163.5 24.5q-66 0 -142 -12t-149 -38v81q62 23 142 36t154 13
q126 0 208.5 -34zM604.5 101.5q82.5 39.5 145.5 122.5v313l-278 -32q-144 -16 -209 -71.5t-65 -156.5q0 -106 59 -160.5t176 -54.5q89 0 171.5 39.5zM558.5 1382.5q-32.5 10.5 -82.5 31.5q-38 18 -66 27t-55 9q-45 0 -82 -17.5t-71 -54.5v77q57 62 153 62q37 0 71 -11
t80 -31q41 -18 68 -26.5t54 -8.5q45 0 82 17.5t70 54.5v-77q-57 -63 -153 -63q-36 0 -68.5 10.5z" />
    <glyph glyph-name="ae" unicode="&#xe6;" horiz-adv-x="1627" 
d="M1539 506h-701q5 -237 101 -340.5t285 -103.5q113 0 264 48v-82q-141 -46 -271 -46q-144 0 -244 51t-155 158q-85 -113 -183 -160t-209 -47q-98 0 -170.5 33.5t-112 97.5t-39.5 154q0 145 96 228.5t302 83.5h248v162q0 106 -33.5 166t-97 84t-163.5 24q-66 0 -142 -12
t-149 -38v81q62 23 141.5 36t153.5 13q149 0 236.5 -50.5t116.5 -168.5q93 220 336 220q188 0 289 -135.5t101 -420.5v-36zM922 917.5q-80 -103.5 -84 -336.5h612q-5 236 -82 338t-221 102q-145 0 -225 -103.5zM626.5 111.5q91.5 49.5 158.5 161.5q-31 99 -35 233h-250
q-302 0 -302 -230q0 -104 60.5 -159t176.5 -55q100 0 191.5 49.5z" />
    <glyph glyph-name="aeacute" unicode="&#x1fd;" horiz-adv-x="1627" 
d="M1539 506h-701q5 -237 101 -340.5t285 -103.5q113 0 264 48v-82q-141 -46 -271 -46q-144 0 -244 51t-155 158q-85 -113 -183 -160t-209 -47q-98 0 -170.5 33.5t-112 97.5t-39.5 154q0 145 96 228.5t302 83.5h248v162q0 106 -33.5 166t-97 84t-163.5 24q-66 0 -142 -12
t-149 -38v81q62 23 141.5 36t153.5 13q149 0 236.5 -50.5t116.5 -168.5q93 220 336 220q188 0 289 -135.5t101 -420.5v-36zM922 917.5q-80 -103.5 -84 -336.5h612q-5 236 -82 338t-221 102q-145 0 -225 -103.5zM626.5 111.5q91.5 49.5 158.5 161.5q-31 99 -35 233h-250
q-302 0 -302 -230q0 -104 60.5 -159t176.5 -55q100 0 191.5 49.5zM753 1262l210 354h99l-227 -354h-82z" />
    <glyph glyph-name="b" unicode="b" horiz-adv-x="1084" 
d="M308.5 -7q-76.5 11 -142.5 32v1591h88v-649h7q52 59 131.5 94.5t175.5 35.5q186 0 298.5 -127t112.5 -409q0 -579 -518 -579q-76 0 -152.5 11zM782 179.5q105 117.5 105 371.5q0 255 -88 360t-244 105q-90 0 -169.5 -39t-131.5 -115v-771q42 -13 98 -21t115 -8
q210 0 315 117.5z" />
    <glyph glyph-name="c" unicode="c" horiz-adv-x="837" 
d="M217 116q-112 134 -112 424q0 292 121.5 424.5t363.5 132.5q115 0 212 -28v-83q-107 30 -207 30q-137 0 -224 -46t-130.5 -149.5t-43.5 -276.5q0 -175 40.5 -281t119.5 -153t199 -47q109 0 246 48v-83q-128 -46 -256 -46q-217 0 -329 134z" />
    <glyph glyph-name="cacute" unicode="&#x107;" horiz-adv-x="837" 
d="M217 116q-112 134 -112 424q0 292 121.5 424.5t363.5 132.5q115 0 212 -28v-83q-107 30 -207 30q-137 0 -224 -46t-130.5 -149.5t-43.5 -276.5q0 -175 40.5 -281t119.5 -153t199 -47q109 0 246 48v-83q-128 -46 -256 -46q-217 0 -329 134zM462 1262l210 354h99l-227 -354
h-82z" />
    <glyph glyph-name="ccaron" unicode="&#x10d;" horiz-adv-x="837" 
d="M217 116q-112 134 -112 424q0 292 121.5 424.5t363.5 132.5q115 0 212 -28v-83q-107 30 -207 30q-137 0 -224 -46t-130.5 -149.5t-43.5 -276.5q0 -175 40.5 -281t119.5 -153t199 -47q109 0 246 48v-83q-128 -46 -256 -46q-217 0 -329 134zM688 1616h84l-223 -354h-91
l-223 354h83l185 -301z" />
    <glyph glyph-name="ccedilla" unicode="&#xe7;" horiz-adv-x="837" 
d="M371 970q-87 -46 -130.5 -149.5t-43.5 -276.5q0 -175 40.5 -281t119.5 -153t199 -47q109 0 246 48v-83q-128 -46 -256 -46h-10v-94q73 -6 112.5 -43.5t39.5 -101.5q0 -68 -48 -107t-134 -39q-44 0 -89 9.5t-76 26.5v62q78 -41 166 -41q117 0 117 90q0 47 -30 69t-89 22
h-33v151q-181 21 -274 155t-93 399q0 292 121.5 424.5t363.5 132.5q115 0 212 -28v-83q-107 30 -207 30q-137 0 -224 -46z" />
    <glyph glyph-name="uni1E09" unicode="&#x1e09;" horiz-adv-x="837" 
d="M771 1616l-227 -354h-82l210 354h99zM371 970q-87 -46 -130.5 -149.5t-43.5 -276.5q0 -175 40.5 -281t119.5 -153t199 -47q109 0 246 48v-83q-128 -46 -256 -46h-10v-94q73 -6 112.5 -43.5t39.5 -101.5q0 -68 -48 -107t-134 -39q-44 0 -89 9.5t-76 26.5v62
q78 -41 166 -41q117 0 117 90q0 47 -30 69t-89 22h-33v151q-181 21 -274 155t-93 399q0 292 121.5 424.5t363.5 132.5q115 0 212 -28v-83q-107 30 -207 30q-137 0 -224 -46z" />
    <glyph glyph-name="ccircumflex" unicode="&#x109;" horiz-adv-x="837" 
d="M217 116q-112 134 -112 424q0 292 121.5 424.5t363.5 132.5q115 0 212 -28v-83q-107 30 -207 30q-137 0 -224 -46t-130.5 -149.5t-43.5 -276.5q0 -175 40.5 -281t119.5 -153t199 -47q109 0 246 48v-83q-128 -46 -256 -46q-217 0 -329 134zM768 1262h-84l-181 299
l-181 -299h-83l219 354h91z" />
    <glyph glyph-name="cdotaccent" unicode="&#x10b;" horiz-adv-x="837" 
d="M217 116q-112 134 -112 424q0 292 121.5 424.5t363.5 132.5q115 0 212 -28v-83q-107 30 -207 30q-137 0 -224 -46t-130.5 -149.5t-43.5 -276.5q0 -175 40.5 -281t119.5 -153t199 -47q109 0 246 48v-83q-128 -46 -256 -46q-217 0 -329 134zM450.5 1370q-19.5 19 -19.5 52
q0 32 19.5 52t52.5 20t53 -20t20 -52q0 -33 -20 -52t-53 -19t-52.5 19z" />
    <glyph glyph-name="d" unicode="d" horiz-adv-x="1084" 
d="M218.5 110.5q-113.5 128.5 -113.5 408.5q0 578 525 578q101 0 200 -17v536h88v-1616h-77l-7 119h-9q-51 -62 -129.5 -99.5t-172.5 -37.5q-191 0 -304.5 128.5zM699.5 103.5q78.5 40.5 130.5 121.5v770q-42 10 -96.5 16t-106.5 6q-217 0 -323.5 -117t-106.5 -372
q0 -254 88 -359.5t248 -105.5q88 0 166.5 40.5z" />
    <glyph glyph-name="eth" unicode="&#xf0;" horiz-adv-x="1069" 
d="M899 963.5q64 -196.5 64 -390.5q0 -300 -113 -445.5t-313 -145.5q-205 0 -318.5 135t-113.5 423q0 286 113 421.5t314 135.5q80 0 147.5 -24t120.5 -80q-63 177 -164 319l-424 -69l-11 67l388 63q-105 131 -253 243h117q119 -86 227 -228l250 41l11 -67l-218 -36
q112 -166 176 -362.5zM784.5 176.5q88.5 114.5 88.5 360.5q0 259 -87 369.5t-251 110.5t-251 -109.5t-87 -364.5q0 -259 87.5 -370t252.5 -111q159 0 247.5 114.5z" />
    <glyph glyph-name="dcaron" unicode="&#x10f;" horiz-adv-x="1084" 
d="M218.5 110.5q-113.5 128.5 -113.5 408.5q0 578 525 578q101 0 200 -17v536h88v-1616h-77l-7 119h-9q-51 -62 -129.5 -99.5t-172.5 -37.5q-191 0 -304.5 128.5zM699.5 103.5q78.5 40.5 130.5 121.5v770q-42 10 -96.5 16t-106.5 6q-217 0 -323.5 -117t-106.5 -372
q0 -254 88 -359.5t248 -105.5q88 0 166.5 40.5zM1036 1616h76q0 -253 -38 -436h-57q19 158 19 436z" />
    <glyph glyph-name="dcroat" unicode="&#x111;" horiz-adv-x="1084" 
d="M1073 1320h-155v-1320h-77l-7 119h-9q-51 -62 -129.5 -99.5t-172.5 -37.5q-191 0 -304.5 128.5t-113.5 408.5q0 578 525 578q101 0 200 -17v240h-362v72h362v224h88v-224h155v-72zM830 995q-42 10 -96.5 16t-106.5 6q-217 0 -323.5 -117t-106.5 -372q0 -254 88 -359.5
t248 -105.5q88 0 166.5 40.5t130.5 121.5v770z" />
    <glyph glyph-name="uni1E0D" unicode="&#x1e0d;" horiz-adv-x="1084" 
d="M218.5 110.5q-113.5 128.5 -113.5 408.5q0 578 525 578q101 0 200 -17v536h88v-1616h-77l-7 119h-9q-51 -62 -129.5 -99.5t-172.5 -37.5q-191 0 -304.5 128.5zM699.5 103.5q78.5 40.5 130.5 121.5v770q-42 10 -96.5 16t-106.5 6q-217 0 -323.5 -117t-106.5 -372
q0 -254 88 -359.5t248 -105.5q88 0 166.5 40.5zM488.5 -302q-19.5 19 -19.5 51t19.5 52t51.5 20t51.5 -20t19.5 -52t-19.5 -51t-51.5 -19t-51.5 19z" />
    <glyph glyph-name="uni1E0F" unicode="&#x1e0f;" horiz-adv-x="1084" 
d="M218.5 110.5q-113.5 128.5 -113.5 408.5q0 578 525 578q101 0 200 -17v536h88v-1616h-77l-7 119h-9q-51 -62 -129.5 -99.5t-172.5 -37.5q-191 0 -304.5 128.5zM699.5 103.5q78.5 40.5 130.5 121.5v770q-42 10 -96.5 16t-106.5 6q-217 0 -323.5 -117t-106.5 -372
q0 -254 88 -359.5t248 -105.5q88 0 166.5 40.5zM283 -286v69h515v-69h-515z" />
    <glyph glyph-name="uni01F3" unicode="&#x1f3;" horiz-adv-x="1960" 
d="M218.5 110.5q-113.5 128.5 -113.5 408.5q0 578 525 578q101 0 200 -17v536h88v-1616h-77l-7 119h-9q-51 -62 -129.5 -99.5t-172.5 -37.5q-191 0 -304.5 128.5zM699.5 103.5q78.5 40.5 130.5 121.5v770q-42 10 -96.5 16t-106.5 6q-217 0 -323.5 -117t-106.5 -372
q0 -254 88 -359.5t248 -105.5q88 0 166.5 40.5zM1263 79h641v-79h-759v53l630 949h-618v79h735v-53z" />
    <glyph glyph-name="uni01C6" unicode="&#x1c6;" horiz-adv-x="1960" 
d="M218.5 110.5q-113.5 128.5 -113.5 408.5q0 578 525 578q101 0 200 -17v536h88v-1616h-77l-7 119h-9q-51 -62 -129.5 -99.5t-172.5 -37.5q-191 0 -304.5 128.5zM699.5 103.5q78.5 40.5 130.5 121.5v770q-42 10 -96.5 16t-106.5 6q-217 0 -323.5 -117t-106.5 -372
q0 -254 88 -359.5t248 -105.5q88 0 166.5 40.5zM1263 79h641v-79h-759v53l630 949h-618v79h735v-53zM1710 1616h84l-223 -354h-91l-223 354h83l185 -301z" />
    <glyph glyph-name="e" unicode="e" horiz-adv-x="994" 
d="M906 506h-709q5 -237 102 -340.5t288 -103.5q113 0 268 48v-82q-144 -46 -275 -46q-235 0 -355 133.5t-120 425.5q0 282 108 419t300 137q190 0 291.5 -135.5t101.5 -421.5v-34zM282.5 917q-81.5 -103 -85.5 -336h620q-4 234 -81.5 336.5t-223.5 102.5
q-148 0 -229.5 -103z" />
    <glyph glyph-name="eacute" unicode="&#xe9;" horiz-adv-x="994" 
d="M906 506h-709q5 -237 102 -340.5t288 -103.5q113 0 268 48v-82q-144 -46 -275 -46q-235 0 -355 133.5t-120 425.5q0 282 108 419t300 137q190 0 291.5 -135.5t101.5 -421.5v-34zM282.5 917q-81.5 -103 -85.5 -336h620q-4 234 -81.5 336.5t-223.5 102.5
q-148 0 -229.5 -103zM472 1262l210 354h99l-227 -354h-82z" />
    <glyph glyph-name="ebreve" unicode="&#x115;" horiz-adv-x="994" 
d="M906 506h-709q5 -237 102 -340.5t288 -103.5q113 0 268 48v-82q-144 -46 -275 -46q-235 0 -355 133.5t-120 425.5q0 282 108 419t300 137q190 0 291.5 -135.5t101.5 -421.5v-34zM282.5 917q-81.5 -103 -85.5 -336h620q-4 234 -81.5 336.5t-223.5 102.5
q-148 0 -229.5 -103zM320 1356q-71 83 -77 232h69q8 -124 57 -186.5t146 -62.5t145.5 62.5t54.5 186.5h68q-5 -151 -74.5 -233t-193.5 -82t-195 83z" />
    <glyph glyph-name="ecaron" unicode="&#x11b;" horiz-adv-x="994" 
d="M906 506h-709q5 -237 102 -340.5t288 -103.5q113 0 268 48v-82q-144 -46 -275 -46q-235 0 -355 133.5t-120 425.5q0 282 108 419t300 137q190 0 291.5 -135.5t101.5 -421.5v-34zM282.5 917q-81.5 -103 -85.5 -336h620q-4 234 -81.5 336.5t-223.5 102.5
q-148 0 -229.5 -103zM698 1616h84l-223 -354h-91l-223 354h83l185 -301z" />
    <glyph glyph-name="uni1E1D" unicode="&#x1e1d;" horiz-adv-x="994" 
d="M320 1356q-71 83 -77 232h69q8 -124 57 -186.5t146 -62.5t145.5 62.5t54.5 186.5h68q-5 -151 -74.5 -233t-193.5 -82t-195 83zM906 506h-709q5 -237 102 -340.5t288 -103.5q113 0 268 48v-82q-144 -46 -275 -46q-22 0 -32 1v-95q73 -6 112.5 -43.5t39.5 -101.5
q0 -68 -48 -107t-134 -39q-44 0 -89 9.5t-76 26.5v62q78 -41 166 -41q117 0 117 90q0 47 -30 69t-89 22h-33v153q-188 25 -283.5 158.5t-95.5 394.5q0 282 108 419t300 137q190 0 291.5 -135.5t101.5 -421.5v-34zM282.5 917q-81.5 -103 -85.5 -336h620q-4 234 -81.5 336.5
t-223.5 102.5q-148 0 -229.5 -103z" />
    <glyph glyph-name="ecircumflex" unicode="&#xea;" horiz-adv-x="994" 
d="M906 506h-709q5 -237 102 -340.5t288 -103.5q113 0 268 48v-82q-144 -46 -275 -46q-235 0 -355 133.5t-120 425.5q0 282 108 419t300 137q190 0 291.5 -135.5t101.5 -421.5v-34zM282.5 917q-81.5 -103 -85.5 -336h620q-4 234 -81.5 336.5t-223.5 102.5
q-148 0 -229.5 -103zM778 1262h-84l-181 299l-181 -299h-83l219 354h91z" />
    <glyph glyph-name="uni1EBF" unicode="&#x1ebf;" horiz-adv-x="994" 
d="M906 506h-709q5 -237 102 -340.5t288 -103.5q113 0 268 48v-82q-144 -46 -275 -46q-235 0 -355 133.5t-120 425.5q0 282 108 419t300 137q190 0 291.5 -135.5t101.5 -421.5v-34zM282.5 917q-81.5 -103 -85.5 -336h620q-4 234 -81.5 336.5t-223.5 102.5
q-148 0 -229.5 -103zM892 1868h94l-193 -272h-76zM468 1616h91l219 -354h-84l-181 299l-181 -299h-83z" />
    <glyph glyph-name="uni1EC7" unicode="&#x1ec7;" horiz-adv-x="994" 
d="M906 506h-709q5 -237 102 -340.5t288 -103.5q113 0 268 48v-82q-144 -46 -275 -46q-235 0 -355 133.5t-120 425.5q0 282 108 419t300 137q190 0 291.5 -135.5t101.5 -421.5v-34zM282.5 917q-81.5 -103 -85.5 -336h620q-4 234 -81.5 336.5t-223.5 102.5
q-148 0 -229.5 -103zM461.5 -302q-19.5 19 -19.5 51t19.5 52t51.5 20t51.5 -20t19.5 -52t-19.5 -51t-51.5 -19t-51.5 19zM778 1262h-84l-181 299l-181 -299h-83l219 354h91z" />
    <glyph glyph-name="uni1EC1" unicode="&#x1ec1;" horiz-adv-x="994" 
d="M906 506h-709q5 -237 102 -340.5t288 -103.5q113 0 268 48v-82q-144 -46 -275 -46q-235 0 -355 133.5t-120 425.5q0 282 108 419t300 137q190 0 291.5 -135.5t101.5 -421.5v-34zM282.5 917q-81.5 -103 -85.5 -336h620q-4 234 -81.5 336.5t-223.5 102.5
q-148 0 -229.5 -103zM808 1596h-77l-193 272h94zM468 1616h91l219 -354h-84l-181 299l-181 -299h-83z" />
    <glyph glyph-name="uni1EC3" unicode="&#x1ec3;" horiz-adv-x="994" 
d="M906 506h-709q5 -237 102 -340.5t288 -103.5q113 0 268 48v-82q-144 -46 -275 -46q-235 0 -355 133.5t-120 425.5q0 282 108 419t300 137q190 0 291.5 -135.5t101.5 -421.5v-34zM282.5 917q-81.5 -103 -85.5 -336h620q-4 234 -81.5 336.5t-223.5 102.5
q-148 0 -229.5 -103zM897 1840q46 -29 46 -78q0 -27 -12.5 -45t-29.5 -28.5t-47 -24.5q-36 -16 -54 -29.5t-21 -38.5h-70q2 41 27.5 62t71.5 41q36 16 52 28t16 33q0 25 -26.5 38t-92.5 13q-53 0 -99.5 -8t-96.5 -27v58q81 35 197 35q93 0 139 -29zM468 1616h91l219 -354
h-84l-181 299l-181 -299h-83z" />
    <glyph glyph-name="uni1EC5" unicode="&#x1ec5;" horiz-adv-x="994" 
d="M906 506h-709q5 -237 102 -340.5t288 -103.5q113 0 268 48v-82q-144 -46 -275 -46q-235 0 -355 133.5t-120 425.5q0 282 108 419t300 137q190 0 291.5 -135.5t101.5 -421.5v-34zM282.5 917q-81.5 -103 -85.5 -336h620q-4 234 -81.5 336.5t-223.5 102.5
q-148 0 -229.5 -103zM733 1754q37 17 70 53v-74q-56 -62 -153 -62q-37 0 -71 10.5t-81 30.5q-41 18 -68 26.5t-54 8.5q-46 0 -82.5 -17t-70.5 -54v75q58 61 153 61q36 0 69 -10t83 -30q40 -17 68 -26t55 -9q45 0 82 17zM468 1612h91l220 -350h-84l-182 297l-182 -297h-84z
" />
    <glyph glyph-name="uni0205" unicode="&#x205;" horiz-adv-x="994" 
d="M906 506h-709q5 -237 102 -340.5t288 -103.5q113 0 268 48v-82q-144 -46 -275 -46q-235 0 -355 133.5t-120 425.5q0 282 108 419t300 137q190 0 291.5 -135.5t101.5 -421.5v-34zM282.5 917q-81.5 -103 -85.5 -336h620q-4 234 -81.5 336.5t-223.5 102.5
q-148 0 -229.5 -103zM324 1262l-144 354h85l134 -354h-75zM628 1262l-144 354h85l134 -354h-75z" />
    <glyph glyph-name="edieresis" unicode="&#xeb;" horiz-adv-x="994" 
d="M906 506h-709q5 -237 102 -340.5t288 -103.5q113 0 268 48v-82q-144 -46 -275 -46q-235 0 -355 133.5t-120 425.5q0 282 108 419t300 137q190 0 291.5 -135.5t101.5 -421.5v-34zM282.5 917q-81.5 -103 -85.5 -336h620q-4 234 -81.5 336.5t-223.5 102.5
q-148 0 -229.5 -103zM258.5 1371q-19.5 19 -19.5 51t19.5 52t51.5 20q31 0 50.5 -20t19.5 -52t-19.5 -51t-50.5 -19q-32 0 -51.5 19zM665.5 1371q-19.5 19 -19.5 51t19.5 52t51.5 20t51.5 -20t19.5 -52t-19.5 -51t-51.5 -19t-51.5 19z" />
    <glyph glyph-name="edotaccent" unicode="&#x117;" horiz-adv-x="994" 
d="M906 506h-709q5 -237 102 -340.5t288 -103.5q113 0 268 48v-82q-144 -46 -275 -46q-235 0 -355 133.5t-120 425.5q0 282 108 419t300 137q190 0 291.5 -135.5t101.5 -421.5v-34zM282.5 917q-81.5 -103 -85.5 -336h620q-4 234 -81.5 336.5t-223.5 102.5
q-148 0 -229.5 -103zM460.5 1370q-19.5 19 -19.5 52q0 32 19.5 52t52.5 20t53 -20t20 -52q0 -33 -20 -52t-53 -19t-52.5 19z" />
    <glyph glyph-name="uni1EB9" unicode="&#x1eb9;" horiz-adv-x="994" 
d="M906 506h-709q5 -237 102 -340.5t288 -103.5q113 0 268 48v-82q-144 -46 -275 -46q-235 0 -355 133.5t-120 425.5q0 282 108 419t300 137q190 0 291.5 -135.5t101.5 -421.5v-34zM282.5 917q-81.5 -103 -85.5 -336h620q-4 234 -81.5 336.5t-223.5 102.5
q-148 0 -229.5 -103zM461.5 -302q-19.5 19 -19.5 51t19.5 52t51.5 20t51.5 -20t19.5 -52t-19.5 -51t-51.5 -19t-51.5 19z" />
    <glyph glyph-name="egrave" unicode="&#xe8;" horiz-adv-x="994" 
d="M906 506h-709q5 -237 102 -340.5t288 -103.5q113 0 268 48v-82q-144 -46 -275 -46q-235 0 -355 133.5t-120 425.5q0 282 108 419t300 137q190 0 291.5 -135.5t101.5 -421.5v-34zM282.5 917q-81.5 -103 -85.5 -336h620q-4 234 -81.5 336.5t-223.5 102.5
q-148 0 -229.5 -103zM472 1262l-226 354h99l209 -354h-82z" />
    <glyph glyph-name="uni1EBB" unicode="&#x1ebb;" horiz-adv-x="994" 
d="M906 506h-709q5 -237 102 -340.5t288 -103.5q113 0 268 48v-82q-144 -46 -275 -46q-235 0 -355 133.5t-120 425.5q0 282 108 419t300 137q190 0 291.5 -135.5t101.5 -421.5v-34zM282.5 917q-81.5 -103 -85.5 -336h620q-4 234 -81.5 336.5t-223.5 102.5
q-148 0 -229.5 -103zM493 1326.5q14 26.5 32.5 43.5t48.5 38q34 24 49.5 41.5t15.5 42.5q0 38 -30.5 56.5t-95.5 18.5q-38 0 -80 -6t-74 -18v61q31 11 72 17.5t80 6.5q99 0 147 -34.5t48 -99.5q0 -31 -11 -53.5t-26.5 -36.5t-43.5 -34q-37 -26 -56.5 -48.5t-20.5 -59.5h-70
q1 38 15 64.5z" />
    <glyph glyph-name="uni0207" unicode="&#x207;" horiz-adv-x="994" 
d="M906 506h-709q5 -237 102 -340.5t288 -103.5q113 0 268 48v-82q-144 -46 -275 -46q-235 0 -355 133.5t-120 425.5q0 282 108 419t300 137q190 0 291.5 -135.5t101.5 -421.5v-34zM282.5 917q-81.5 -103 -85.5 -336h620q-4 234 -81.5 336.5t-223.5 102.5
q-148 0 -229.5 -103zM318 1523.5q69 81.5 193 81.5q125 0 196 -82.5t76 -232.5h-68q-15 248 -204 248q-95 0 -144 -62.5t-55 -185.5h-69q6 152 75 233.5z" />
    <glyph glyph-name="emacron" unicode="&#x113;" horiz-adv-x="994" 
d="M906 506h-709q5 -237 102 -340.5t288 -103.5q113 0 268 48v-82q-144 -46 -275 -46q-235 0 -355 133.5t-120 425.5q0 282 108 419t300 137q190 0 291.5 -135.5t101.5 -421.5v-34zM282.5 917q-81.5 -103 -85.5 -336h620q-4 234 -81.5 336.5t-223.5 102.5
q-148 0 -229.5 -103zM224 1388v70h578v-70h-578z" />
    <glyph glyph-name="uni1E17" unicode="&#x1e17;" horiz-adv-x="994" 
d="M906 506h-709q5 -237 102 -340.5t288 -103.5q113 0 268 48v-82q-144 -46 -275 -46q-235 0 -355 133.5t-120 425.5q0 282 108 419t300 137q190 0 291.5 -135.5t101.5 -421.5v-34zM282.5 917q-81.5 -103 -85.5 -336h620q-4 234 -81.5 336.5t-223.5 102.5
q-148 0 -229.5 -103zM224 1388v70h578v-70h-578zM472 1601l176 275h99l-193 -275h-82z" />
    <glyph glyph-name="uni1E15" unicode="&#x1e15;" horiz-adv-x="994" 
d="M906 506h-709q5 -237 102 -340.5t288 -103.5q113 0 268 48v-82q-144 -46 -275 -46q-235 0 -355 133.5t-120 425.5q0 282 108 419t300 137q190 0 291.5 -135.5t101.5 -421.5v-34zM282.5 917q-81.5 -103 -85.5 -336h620q-4 234 -81.5 336.5t-223.5 102.5
q-148 0 -229.5 -103zM224 1388v70h578v-70h-578zM472 1601l-193 275h100l175 -275h-82z" />
    <glyph glyph-name="eogonek" unicode="&#x119;" horiz-adv-x="994" 
d="M906 506h-709q5 -237 102 -340.5t288 -103.5q113 0 268 48v-82q-281 -91 -281 -254q0 -57 34.5 -88t95.5 -31q78 0 151 44v-62q-32 -19 -72.5 -29.5t-79.5 -10.5q-91 0 -143 46t-52 126q0 64 32.5 119t95.5 96q-38 -2 -56 -2q-235 0 -355 133.5t-120 425.5q0 282 108 419
t300 137q190 0 291.5 -135.5t101.5 -421.5v-34zM282.5 917q-81.5 -103 -85.5 -337h620q-4 234 -81.5 337t-223.5 103q-148 0 -229.5 -103z" />
    <glyph glyph-name="uni1EBD" unicode="&#x1ebd;" horiz-adv-x="994" 
d="M906 506h-709q5 -237 102 -340.5t288 -103.5q113 0 268 48v-82q-144 -46 -275 -46q-235 0 -355 133.5t-120 425.5q0 282 108 419t300 137q190 0 291.5 -135.5t101.5 -421.5v-34zM282.5 917q-81.5 -103 -85.5 -336h620q-4 234 -81.5 336.5t-223.5 102.5
q-148 0 -229.5 -103zM580.5 1382.5q-32.5 10.5 -82.5 31.5q-38 18 -66 27t-55 9q-45 0 -82 -17.5t-71 -54.5v77q57 62 153 62q37 0 71 -11t80 -31q41 -18 68 -26.5t54 -8.5q45 0 82 17.5t70 54.5v-77q-57 -63 -153 -63q-36 0 -68.5 10.5z" />
    <glyph glyph-name="uni0259" unicode="&#x259;" horiz-adv-x="994" 
d="M769 965.5q120 -133.5 120 -425.5q0 -282 -108 -419t-300 -137q-190 0 -291.5 135.5t-101.5 421.5v34h709q-5 237 -102 340.5t-288 103.5q-114 0 -268 -48v82q144 46 275 46q235 0 355 -133.5zM711.5 164q81.5 103 85.5 336h-620q4 -234 81.5 -336.5t223.5 -102.5
q148 0 229.5 103z" />
    <glyph glyph-name="f" unicode="f" horiz-adv-x="678" 
d="M384 1492.5q-64 -62.5 -64 -205.5v-206h365v-79h-365v-1002h-88v1002h-216v79h216v202q0 353 351 353q74 0 141 -12v-83q-73 14 -141 14q-135 0 -199 -62.5z" />
    <glyph glyph-name="g" unicode="g" horiz-adv-x="1084" 
d="M317 -446.5q-82 13.5 -146 36.5v83q155 -53 297 -53q125 0 204.5 36t118.5 118t39 219v120h-7q-53 -59 -132 -94.5t-176 -35.5q-185 0 -297.5 127t-112.5 409q0 292 131.5 435t386.5 143q75 0 152 -11.5t143 -31.5v-1052q0 -244 -110.5 -353t-337.5 -109q-71 0 -153 13.5
zM697.5 103q80.5 39 132.5 115v773q-43 12 -99 19t-114 7q-210 0 -315 -117.5t-105 -371.5t88 -359t244 -105q88 0 168.5 39z" />
    <glyph glyph-name="uni01F5" unicode="&#x1f5;" horiz-adv-x="1084" 
d="M317 -446.5q-82 13.5 -146 36.5v83q155 -53 297 -53q125 0 204.5 36t118.5 118t39 219v120h-7q-53 -59 -132 -94.5t-176 -35.5q-185 0 -297.5 127t-112.5 409q0 292 131.5 435t386.5 143q75 0 152 -11.5t143 -31.5v-1052q0 -244 -110.5 -353t-337.5 -109q-71 0 -153 13.5
zM697.5 103q80.5 39 132.5 115v773q-43 12 -99 19t-114 7q-210 0 -315 -117.5t-105 -371.5t88 -359t244 -105q88 0 168.5 39zM519 1262l210 354h99l-227 -354h-82z" />
    <glyph glyph-name="gbreve" unicode="&#x11f;" horiz-adv-x="1084" 
d="M317 -446.5q-82 13.5 -146 36.5v83q155 -53 297 -53q125 0 204.5 36t118.5 118t39 219v120h-7q-53 -59 -132 -94.5t-176 -35.5q-185 0 -297.5 127t-112.5 409q0 292 131.5 435t386.5 143q75 0 152 -11.5t143 -31.5v-1052q0 -244 -110.5 -353t-337.5 -109q-71 0 -153 13.5
zM697.5 103q80.5 39 132.5 115v773q-43 12 -99 19t-114 7q-210 0 -315 -117.5t-105 -371.5t88 -359t244 -105q88 0 168.5 39zM367 1356q-71 83 -77 232h69q8 -124 57 -186.5t146 -62.5t145.5 62.5t54.5 186.5h68q-5 -151 -74.5 -233t-193.5 -82t-195 83z" />
    <glyph glyph-name="gcaron" unicode="&#x1e7;" horiz-adv-x="1084" 
d="M317 -446.5q-82 13.5 -146 36.5v83q155 -53 297 -53q125 0 204.5 36t118.5 118t39 219v120h-7q-53 -59 -132 -94.5t-176 -35.5q-185 0 -297.5 127t-112.5 409q0 292 131.5 435t386.5 143q75 0 152 -11.5t143 -31.5v-1052q0 -244 -110.5 -353t-337.5 -109q-71 0 -153 13.5
zM697.5 103q80.5 39 132.5 115v773q-43 12 -99 19t-114 7q-210 0 -315 -117.5t-105 -371.5t88 -359t244 -105q88 0 168.5 39zM745 1616h84l-223 -354h-91l-223 354h83l185 -301z" />
    <glyph glyph-name="gcircumflex" unicode="&#x11d;" horiz-adv-x="1084" 
d="M317 -446.5q-82 13.5 -146 36.5v83q155 -53 297 -53q125 0 204.5 36t118.5 118t39 219v120h-7q-53 -59 -132 -94.5t-176 -35.5q-185 0 -297.5 127t-112.5 409q0 292 131.5 435t386.5 143q75 0 152 -11.5t143 -31.5v-1052q0 -244 -110.5 -353t-337.5 -109q-71 0 -153 13.5
zM697.5 103q80.5 39 132.5 115v773q-43 12 -99 19t-114 7q-210 0 -315 -117.5t-105 -371.5t88 -359t244 -105q88 0 168.5 39zM825 1262h-84l-181 299l-181 -299h-83l219 354h91z" />
    <glyph glyph-name="gcommaaccent" unicode="&#x123;" horiz-adv-x="1084" 
d="M317 -446.5q-82 13.5 -146 36.5v83q155 -53 297 -53q125 0 204.5 36t118.5 118t39 219v120h-7q-53 -59 -132 -94.5t-176 -35.5q-185 0 -297.5 127t-112.5 409q0 292 131.5 435t386.5 143q75 0 152 -11.5t143 -31.5v-1052q0 -244 -110.5 -353t-337.5 -109q-71 0 -153 13.5
zM697.5 103q80.5 39 132.5 115v773q-43 12 -99 19t-114 7q-210 0 -315 -117.5t-105 -371.5t88 -359t244 -105q88 0 168.5 39zM612.5 1467q19.5 -19 19.5 -49q0 -29 -18.5 -47.5t-49.5 -18.5q-36 0 -55.5 23t-19.5 68q0 40 12 88t35 93h56q-30 -77 -35 -138h3q33 0 52.5 -19z
" />
    <glyph glyph-name="gdotaccent" unicode="&#x121;" horiz-adv-x="1084" 
d="M317 -446.5q-82 13.5 -146 36.5v83q155 -53 297 -53q125 0 204.5 36t118.5 118t39 219v120h-7q-53 -59 -132 -94.5t-176 -35.5q-185 0 -297.5 127t-112.5 409q0 292 131.5 435t386.5 143q75 0 152 -11.5t143 -31.5v-1052q0 -244 -110.5 -353t-337.5 -109q-71 0 -153 13.5
zM697.5 103q80.5 39 132.5 115v773q-43 12 -99 19t-114 7q-210 0 -315 -117.5t-105 -371.5t88 -359t244 -105q88 0 168.5 39zM507.5 1370q-19.5 19 -19.5 52q0 32 19.5 52t52.5 20t53 -20t20 -52q0 -33 -20 -52t-53 -19t-52.5 19z" />
    <glyph glyph-name="uni1E21" unicode="&#x1e21;" horiz-adv-x="1084" 
d="M317 -446.5q-82 13.5 -146 36.5v83q155 -53 297 -53q125 0 204.5 36t118.5 118t39 219v120h-7q-53 -59 -132 -94.5t-176 -35.5q-185 0 -297.5 127t-112.5 409q0 292 131.5 435t386.5 143q75 0 152 -11.5t143 -31.5v-1052q0 -244 -110.5 -353t-337.5 -109q-71 0 -153 13.5
zM697.5 103q80.5 39 132.5 115v773q-43 12 -99 19t-114 7q-210 0 -315 -117.5t-105 -371.5t88 -359t244 -105q88 0 168.5 39zM271 1388v70h578v-70h-578z" />
    <glyph glyph-name="h" unicode="h" horiz-adv-x="1098" 
d="M166 1616h88v-661h7q69 70 158.5 106t190.5 36q335 0 335 -362v-735h-88v734q0 150 -67.5 214.5t-191.5 64.5q-95 0 -188 -41.5t-156 -127.5v-844h-88v1616z" />
    <glyph glyph-name="hbar" unicode="&#x127;" horiz-adv-x="1098" 
d="M945 735v-735h-88v734q0 150 -67.5 214.5t-191.5 64.5q-95 0 -188 -41.5t-156 -127.5v-844h-88v1320h-155v72h155v224h88v-224h362v-72h-362v-365h7q69 70 158.5 106t190.5 36q335 0 335 -362z" />
    <glyph glyph-name="uni1E2B" unicode="&#x1e2b;" horiz-adv-x="1098" 
d="M166 1616h88v-661h7q69 70 158.5 106t190.5 36q335 0 335 -362v-735h-88v734q0 150 -67.5 214.5t-191.5 64.5q-95 0 -188 -41.5t-156 -127.5v-844h-88v1616zM413 -374.5q-61 30.5 -93.5 86t-33.5 129.5h69q9 -178 203 -178t200 178h68q-2 -114 -71.5 -180t-196.5 -66
q-84 0 -145 30.5z" />
    <glyph glyph-name="hcircumflex" unicode="&#x125;" horiz-adv-x="1098" 
d="M166 1616h88v-661h7q69 70 158.5 106t190.5 36q335 0 335 -362v-735h-88v734q0 150 -67.5 214.5t-191.5 64.5q-95 0 -188 -41.5t-156 -127.5v-844h-88v1616zM843 1710h-94l-193 225l-193 -225h-94l242 275h91z" />
    <glyph glyph-name="uni1E25" unicode="&#x1e25;" horiz-adv-x="1098" 
d="M166 1616h88v-661h7q69 70 158.5 106t190.5 36q335 0 335 -362v-735h-88v734q0 150 -67.5 214.5t-191.5 64.5q-95 0 -188 -41.5t-156 -127.5v-844h-88v1616zM504.5 -302q-19.5 19 -19.5 51t19.5 52t51.5 20t51.5 -20t19.5 -52t-19.5 -51t-51.5 -19t-51.5 19z" />
    <glyph glyph-name="i" unicode="i" horiz-adv-x="420" 
d="M166 0v1081h88v-1081h-88zM157.5 1370q-19.5 19 -19.5 52q0 32 19.5 52t52.5 20t53 -20t20 -52q0 -33 -20 -52t-53 -19t-52.5 19z" />
    <glyph glyph-name="dotlessi" unicode="&#x131;" horiz-adv-x="420" 
d="M166 0v1081h88v-1081h-88z" />
    <glyph glyph-name="iacute" unicode="&#xed;" horiz-adv-x="420" 
d="M166 0v1081h88v-1081h-88zM169 1262l210 354h99l-227 -354h-82z" />
    <glyph glyph-name="ibreve" unicode="&#x12d;" horiz-adv-x="420" 
d="M166 0v1081h88v-1081h-88zM17 1356q-71 83 -77 232h69q8 -124 57 -186.5t146 -62.5t145.5 62.5t54.5 186.5h68q-5 -151 -74.5 -233t-193.5 -82t-195 83z" />
    <glyph glyph-name="icircumflex" unicode="&#xee;" horiz-adv-x="420" 
d="M166 0v1081h88v-1081h-88zM475 1262h-84l-181 299l-181 -299h-83l219 354h91z" />
    <glyph glyph-name="uni0209" unicode="&#x209;" horiz-adv-x="420" 
d="M166 0v1081h88v-1081h-88zM21 1262l-144 354h85l134 -354h-75zM325 1262l-144 354h85l134 -354h-75z" />
    <glyph glyph-name="idieresis" unicode="&#xef;" horiz-adv-x="420" 
d="M166 0v1081h88v-1081h-88zM-44.5 1371q-19.5 19 -19.5 51t19.5 52t51.5 20q31 0 50.5 -20t19.5 -52t-19.5 -51t-50.5 -19q-32 0 -51.5 19zM362.5 1371q-19.5 19 -19.5 51t19.5 52t51.5 20t51.5 -20t19.5 -52t-19.5 -51t-51.5 -19t-51.5 19z" />
    <glyph glyph-name="uni1E2F" unicode="&#x1e2f;" horiz-adv-x="420" 
d="M166 0v1081h88v-1081h-88zM-44.5 1371q-19.5 19 -19.5 51t19.5 52t51.5 20q31 0 50.5 -20t19.5 -52t-19.5 -51t-50.5 -19q-32 0 -51.5 19zM362.5 1371q-19.5 19 -19.5 51t19.5 52t51.5 20t51.5 -20t19.5 -52t-19.5 -51t-51.5 -19t-51.5 19zM177 1620l176 275h99
l-193 -275h-82z" />
    <glyph glyph-name="i.loclTRK" horiz-adv-x="420" 
d="M166 0v1081h88v-1081h-88zM157.5 1370q-19.5 19 -19.5 52q0 32 19.5 52t52.5 20t53 -20t20 -52q0 -33 -20 -52t-53 -19t-52.5 19z" />
    <glyph glyph-name="uni1ECB" unicode="&#x1ecb;" horiz-adv-x="420" 
d="M166 0v1081h88v-1081h-88zM157.5 1370q-19.5 19 -19.5 52q0 32 19.5 52t52.5 20t53 -20t20 -52q0 -33 -20 -52t-53 -19t-52.5 19zM158.5 -302q-19.5 19 -19.5 51t19.5 52t51.5 20t51.5 -20t19.5 -52t-19.5 -51t-51.5 -19t-51.5 19z" />
    <glyph glyph-name="igrave" unicode="&#xec;" horiz-adv-x="420" 
d="M166 0v1081h88v-1081h-88zM169 1262l-226 354h99l209 -354h-82z" />
    <glyph glyph-name="uni1EC9" unicode="&#x1ec9;" horiz-adv-x="420" 
d="M166 0v1081h88v-1081h-88zM190 1326.5q14 26.5 32.5 43.5t48.5 38q34 24 49.5 41.5t15.5 42.5q0 38 -30.5 56.5t-95.5 18.5q-38 0 -80 -6t-74 -18v61q31 11 72 17.5t80 6.5q99 0 147 -34.5t48 -99.5q0 -31 -11 -53.5t-26.5 -36.5t-43.5 -34q-37 -26 -56.5 -48.5
t-20.5 -59.5h-70q1 38 15 64.5z" />
    <glyph glyph-name="uni020B" unicode="&#x20b;" horiz-adv-x="420" 
d="M166 0v1081h88v-1081h-88zM15 1523.5q69 81.5 193 81.5q125 0 196 -82.5t76 -232.5h-68q-15 248 -204 248q-95 0 -144 -62.5t-55 -185.5h-69q6 152 75 233.5z" />
    <glyph glyph-name="imacron" unicode="&#x12b;" horiz-adv-x="420" 
d="M166 0v1081h88v-1081h-88zM-79 1388v70h578v-70h-578z" />
    <glyph glyph-name="iogonek" unicode="&#x12f;" horiz-adv-x="420" 
d="M157.5 1370q-19.5 19 -19.5 52q0 32 19.5 52t52.5 20t53 -20t20 -52q0 -33 -20 -52t-53 -19t-52.5 19zM356 -301v-62q-32 -19 -72.5 -29.5t-79.5 -10.5q-91 0 -143 46t-52 126q0 69 38 128.5t119 115.5v1068h88v-1081q-95 -56 -136.5 -109.5t-41.5 -117.5q0 -56 34 -87
t95 -31q78 0 151 44z" />
    <glyph glyph-name="itilde" unicode="&#x129;" horiz-adv-x="420" 
d="M166 0v1081h88v-1081h-88zM277.5 1382.5q-32.5 10.5 -82.5 31.5q-38 18 -66 27t-55 9q-45 0 -82 -17.5t-71 -54.5v77q57 62 153 62q37 0 71 -11t80 -31q41 -18 68 -26.5t54 -8.5q45 0 82 17.5t70 54.5v-77q-57 -63 -153 -63q-36 0 -68.5 10.5z" />
    <glyph glyph-name="j" unicode="j" horiz-adv-x="420" 
d="M-22 -418q100 138 144 273.5t44 311.5v914h88v-907q0 -191 -50.5 -337t-164.5 -298zM157.5 1376q-19.5 19 -19.5 52q0 32 19.5 52t52.5 20t53 -20t20 -52q0 -33 -20 -52t-53 -19t-52.5 19z" />
    <glyph glyph-name="uni0237" unicode="&#x237;" horiz-adv-x="420" 
d="M-22 -418q100 138 144 273.5t44 311.5v914h88v-907q0 -191 -50.5 -337t-164.5 -298z" />
    <glyph glyph-name="jcircumflex" unicode="&#x135;" horiz-adv-x="420" 
d="M-22 -418q100 138 144 273.5t44 311.5v914h88v-907q0 -191 -50.5 -337t-164.5 -298zM475 1268h-84l-181 299l-181 -299h-83l219 354h91z" />
    <glyph glyph-name="k" unicode="k" horiz-adv-x="975" 
d="M885 0l-425 513h-206v-513h-88v1616h88v-1024h205l395 489h105l-424 -527l456 -554h-106z" />
    <glyph glyph-name="kcommaaccent" unicode="&#x137;" horiz-adv-x="975" 
d="M885 0l-425 513h-206v-513h-88v1616h88v-1024h205l395 489h105l-424 -527l456 -554h-106zM579 -202.5q20 -23.5 20 -68.5q0 -38 -12.5 -87t-34.5 -94h-56q30 77 35 138h-4q-32 0 -51.5 19t-19.5 49t18.5 48.5t49.5 18.5q35 0 55 -23.5z" />
    <glyph glyph-name="kgreenlandic" unicode="&#x138;" horiz-adv-x="975" 
d="M885 0l-425 513h-206v-513h-88v1081h88v-489h205l395 489h105l-424 -527l456 -554h-106z" />
    <glyph glyph-name="l" unicode="l" horiz-adv-x="420" 
d="M166 0v1616h88v-1616h-88z" />
    <glyph glyph-name="lacute" unicode="&#x13a;" horiz-adv-x="420" 
d="M166 0v1616h88v-1616h-88zM169 1710l176 275h99l-193 -275h-82z" />
    <glyph glyph-name="lcaron" unicode="&#x13e;" horiz-adv-x="420" 
d="M166 0v1616h88v-1616h-88zM372 1616h76q0 -253 -38 -436h-57q19 158 19 436z" />
    <glyph glyph-name="lcommaaccent" unicode="&#x13c;" horiz-adv-x="420" 
d="M166 0v1616h88v-1616h-88zM262 -202.5q20 -23.5 20 -68.5q0 -38 -12.5 -87t-34.5 -94h-56q30 77 35 138h-4q-32 0 -51.5 19t-19.5 49t18.5 48.5t49.5 18.5q35 0 55 -23.5z" />
    <glyph glyph-name="ldot" unicode="&#x140;" horiz-adv-x="444" 
d="M166 0v1616h88v-1616h-88zM369 741q-20 19 -20 51q0 33 20 52.5t53 19.5t52.5 -19.5t19.5 -52.5q0 -32 -19.5 -51t-52.5 -19t-53 19z" />
    <glyph glyph-name="uni1E37" unicode="&#x1e37;" horiz-adv-x="420" 
d="M166 0v1616h88v-1616h-88zM158.5 -302q-19.5 19 -19.5 51t19.5 52t51.5 20t51.5 -20t19.5 -52t-19.5 -51t-51.5 -19t-51.5 19z" />
    <glyph glyph-name="uni01C9" unicode="&#x1c9;" horiz-adv-x="840" 
d="M166 0v1616h88v-1616h-88zM398 -418q100 138 144 273.5t44 311.5v914h88v-907q0 -191 -50.5 -337t-164.5 -298zM577.5 1376q-19.5 19 -19.5 52q0 32 19.5 52t52.5 20t53 -20t20 -52q0 -33 -20 -52t-53 -19t-52.5 19z" />
    <glyph glyph-name="uni1E3B" unicode="&#x1e3b;" horiz-adv-x="420" 
d="M166 0v1616h88v-1616h-88zM-47 -286v69h515v-69h-515z" />
    <glyph glyph-name="lslash" unicode="&#x142;" horiz-adv-x="420" 
d="M416 839l-162 -135v-704h-88v631l-116 -97l-44 55l160 133v894h88v-820l118 98z" />
    <glyph glyph-name="m" unicode="m" horiz-adv-x="1645" 
d="M1410 1011q83 -86 83 -277v-734h-88v732q0 151 -62 217t-172 66q-80 0 -162.5 -40.5t-140.5 -130.5q8 -51 8 -109v-735h-87v732q0 151 -60 217t-169 66q-83 0 -165.5 -43t-140.5 -133v-839h-88v1081h76l7 -128h9q63 71 144.5 107.5t172.5 36.5q200 0 268 -163
q73 86 161.5 124.5t178.5 38.5q144 0 227 -86z" />
    <glyph glyph-name="uni1E43" unicode="&#x1e43;" horiz-adv-x="1645" 
d="M1410 1011q83 -86 83 -277v-734h-88v732q0 151 -62 217t-172 66q-80 0 -162.5 -40.5t-140.5 -130.5q8 -51 8 -109v-735h-87v732q0 151 -60 217t-169 66q-83 0 -165.5 -43t-140.5 -133v-839h-88v1081h76l7 -128h9q63 71 144.5 107.5t172.5 36.5q200 0 268 -163
q73 86 161.5 124.5t178.5 38.5q144 0 227 -86zM781.5 -302q-19.5 19 -19.5 51t19.5 52t51.5 20t51.5 -20t19.5 -52t-19.5 -51t-51.5 -19t-51.5 19z" />
    <glyph glyph-name="n" unicode="n" horiz-adv-x="1098" 
d="M166 1081h76l7 -128h9q69 70 159 107t190 37q338 0 338 -363v-734h-88v732q0 151 -67 217t-192 66q-92 0 -186 -41t-158 -129v-845h-88v1081z" />
    <glyph glyph-name="nacute" unicode="&#x144;" horiz-adv-x="1098" 
d="M166 1081h76l7 -128h9q69 70 159 107t190 37q338 0 338 -363v-734h-88v732q0 151 -67 217t-192 66q-92 0 -186 -41t-158 -129v-845h-88v1081zM515 1262l210 354h99l-227 -354h-82z" />
    <glyph glyph-name="napostrophe" unicode="&#x149;" horiz-adv-x="1098" 
d="M166 1081h76l7 -128h9q69 70 159 107t190 37q338 0 338 -363v-734h-88v732q0 151 -67 217t-192 66q-92 0 -186 -41t-158 -129v-845h-88v1081zM136.5 1601q19.5 -23 19.5 -68q0 -39 -12.5 -88t-34.5 -93h-56q30 77 35 138h-3q-33 0 -52.5 19t-19.5 49q0 29 18.5 47.5
t49.5 18.5q36 0 55.5 -23z" />
    <glyph glyph-name="ncaron" unicode="&#x148;" horiz-adv-x="1098" 
d="M166 1081h76l7 -128h9q69 70 159 107t190 37q338 0 338 -363v-734h-88v732q0 151 -67 217t-192 66q-92 0 -186 -41t-158 -129v-845h-88v1081zM741 1616h84l-223 -354h-91l-223 354h83l185 -301z" />
    <glyph glyph-name="ncommaaccent" unicode="&#x146;" horiz-adv-x="1098" 
d="M166 1081h76l7 -128h9q69 70 159 107t190 37q338 0 338 -363v-734h-88v732q0 151 -67 217t-192 66q-92 0 -186 -41t-158 -129v-845h-88v1081zM608 -202.5q20 -23.5 20 -68.5q0 -38 -12.5 -87t-34.5 -94h-56q30 77 35 138h-4q-32 0 -51.5 19t-19.5 49t18.5 48.5t49.5 18.5
q35 0 55 -23.5z" />
    <glyph glyph-name="uni1E45" unicode="&#x1e45;" horiz-adv-x="1098" 
d="M166 1081h76l7 -128h9q69 70 159 107t190 37q338 0 338 -363v-734h-88v732q0 151 -67 217t-192 66q-92 0 -186 -41t-158 -129v-845h-88v1081zM503.5 1370q-19.5 19 -19.5 52q0 32 19.5 52t52.5 20t53 -20t20 -52q0 -33 -20 -52t-53 -19t-52.5 19z" />
    <glyph glyph-name="uni1E47" unicode="&#x1e47;" horiz-adv-x="1098" 
d="M166 1081h76l7 -128h9q69 70 159 107t190 37q338 0 338 -363v-734h-88v732q0 151 -67 217t-192 66q-92 0 -186 -41t-158 -129v-845h-88v1081zM504.5 -302q-19.5 19 -19.5 51t19.5 52t51.5 20t51.5 -20t19.5 -52t-19.5 -51t-51.5 -19t-51.5 19z" />
    <glyph glyph-name="eng" unicode="&#x14b;" horiz-adv-x="1098" 
d="M669 -418q100 137 144 272.5t44 312.5v567q0 150 -67.5 215.5t-191.5 65.5q-95 0 -188 -42t-156 -129v-844h-88v1081h76l7 -128h9q69 72 159 108t191 36q337 0 337 -362v-598q-8 -178 -56 -314.5t-158 -283.5z" />
    <glyph glyph-name="uni01CC" unicode="&#x1cc;" horiz-adv-x="1518" 
d="M166 1081h76l7 -128h9q69 70 159 107t190 37q338 0 338 -363v-734h-88v732q0 151 -67 217t-192 66q-92 0 -186 -41t-158 -129v-845h-88v1081zM1076 -418q100 138 144 273.5t44 311.5v914h88v-907q0 -191 -50.5 -337t-164.5 -298zM1255.5 1376q-19.5 19 -19.5 52
q0 32 19.5 52t52.5 20t53 -20t20 -52q0 -33 -20 -52t-53 -19t-52.5 19z" />
    <glyph glyph-name="uni1E49" unicode="&#x1e49;" horiz-adv-x="1098" 
d="M166 1081h76l7 -128h9q69 70 159 107t190 37q338 0 338 -363v-734h-88v732q0 151 -67 217t-192 66q-92 0 -186 -41t-158 -129v-845h-88v1081zM299 -286v69h515v-69h-515z" />
    <glyph glyph-name="ntilde" unicode="&#xf1;" horiz-adv-x="1098" 
d="M166 1081h76l7 -128h9q69 70 159 107t190 37q338 0 338 -363v-734h-88v732q0 151 -67 217t-192 66q-92 0 -186 -41t-158 -129v-845h-88v1081zM623.5 1382.5q-32.5 10.5 -82.5 31.5q-38 18 -66 27t-55 9q-45 0 -82 -17.5t-71 -54.5v77q57 62 153 62q37 0 71 -11t80 -31
q41 -18 68 -26.5t54 -8.5q45 0 82 17.5t70 54.5v-77q-57 -63 -153 -63q-36 0 -68.5 10.5z" />
    <glyph glyph-name="o" unicode="o" horiz-adv-x="1069" 
d="M218.5 117q-113.5 135 -113.5 423q0 286 113.5 421.5t316.5 135.5t316.5 -134.5t113.5 -422.5q0 -285 -114 -421.5t-316 -136.5q-203 0 -316.5 135zM785.5 172.5q87.5 110.5 87.5 364.5q0 259 -87 369.5t-251 110.5t-251 -109.5t-87 -364.5q0 -259 87 -370t251 -111
q163 0 250.5 110.5z" />
    <glyph glyph-name="oacute" unicode="&#xf3;" horiz-adv-x="1069" 
d="M218.5 117q-113.5 135 -113.5 423q0 286 113.5 421.5t316.5 135.5t316.5 -134.5t113.5 -422.5q0 -285 -114 -421.5t-316 -136.5q-203 0 -316.5 135zM785.5 172.5q87.5 110.5 87.5 364.5q0 259 -87 369.5t-251 110.5t-251 -109.5t-87 -364.5q0 -259 87 -370t251 -111
q163 0 250.5 110.5zM494 1262l210 354h99l-227 -354h-82z" />
    <glyph glyph-name="obreve" unicode="&#x14f;" horiz-adv-x="1069" 
d="M218.5 117q-113.5 135 -113.5 423q0 286 113.5 421.5t316.5 135.5t316.5 -134.5t113.5 -422.5q0 -285 -114 -421.5t-316 -136.5q-203 0 -316.5 135zM785.5 172.5q87.5 110.5 87.5 364.5q0 259 -87 369.5t-251 110.5t-251 -109.5t-87 -364.5q0 -259 87 -370t251 -111
q163 0 250.5 110.5zM342 1356q-71 83 -77 232h69q8 -124 57 -186.5t146 -62.5t145.5 62.5t54.5 186.5h68q-5 -151 -74.5 -233t-193.5 -82t-195 83z" />
    <glyph glyph-name="ocircumflex" unicode="&#xf4;" horiz-adv-x="1069" 
d="M218.5 117q-113.5 135 -113.5 423q0 286 113.5 421.5t316.5 135.5t316.5 -134.5t113.5 -422.5q0 -285 -114 -421.5t-316 -136.5q-203 0 -316.5 135zM785.5 172.5q87.5 110.5 87.5 364.5q0 259 -87 369.5t-251 110.5t-251 -109.5t-87 -364.5q0 -259 87 -370t251 -111
q163 0 250.5 110.5zM800 1262h-84l-181 299l-181 -299h-83l219 354h91z" />
    <glyph glyph-name="uni1ED1" unicode="&#x1ed1;" horiz-adv-x="1069" 
d="M218.5 117q-113.5 135 -113.5 423q0 286 113.5 421.5t316.5 135.5t316.5 -134.5t113.5 -422.5q0 -285 -114 -421.5t-316 -136.5q-203 0 -316.5 135zM785.5 172.5q87.5 110.5 87.5 364.5q0 259 -87 369.5t-251 110.5t-251 -109.5t-87 -364.5q0 -259 87 -370t251 -111
q163 0 250.5 110.5zM914 1868h94l-193 -272h-76zM490 1616h91l219 -354h-84l-181 299l-181 -299h-83z" />
    <glyph glyph-name="uni1ED9" unicode="&#x1ed9;" horiz-adv-x="1069" 
d="M218.5 117q-113.5 135 -113.5 423q0 286 113.5 421.5t316.5 135.5t316.5 -134.5t113.5 -422.5q0 -285 -114 -421.5t-316 -136.5q-203 0 -316.5 135zM785.5 172.5q87.5 110.5 87.5 364.5q0 259 -87 369.5t-251 110.5t-251 -109.5t-87 -364.5q0 -259 87 -370t251 -111
q163 0 250.5 110.5zM483.5 -302q-19.5 19 -19.5 51t19.5 52t51.5 20t51.5 -20t19.5 -52t-19.5 -51t-51.5 -19t-51.5 19zM800 1262h-84l-181 299l-181 -299h-83l219 354h91z" />
    <glyph glyph-name="uni1ED3" unicode="&#x1ed3;" horiz-adv-x="1069" 
d="M218.5 117q-113.5 135 -113.5 423q0 286 113.5 421.5t316.5 135.5t316.5 -134.5t113.5 -422.5q0 -285 -114 -421.5t-316 -136.5q-203 0 -316.5 135zM785.5 172.5q87.5 110.5 87.5 364.5q0 259 -87 369.5t-251 110.5t-251 -109.5t-87 -364.5q0 -259 87 -370t251 -111
q163 0 250.5 110.5zM830 1596h-77l-193 272h94zM490 1616h91l219 -354h-84l-181 299l-181 -299h-83z" />
    <glyph glyph-name="uni1ED5" unicode="&#x1ed5;" horiz-adv-x="1069" 
d="M218.5 117q-113.5 135 -113.5 423q0 286 113.5 421.5t316.5 135.5t316.5 -134.5t113.5 -422.5q0 -285 -114 -421.5t-316 -136.5q-203 0 -316.5 135zM785.5 172.5q87.5 110.5 87.5 364.5q0 259 -87 369.5t-251 110.5t-251 -109.5t-87 -364.5q0 -259 87 -370t251 -111
q163 0 250.5 110.5zM919 1840q46 -29 46 -78q0 -27 -12.5 -45t-29.5 -28.5t-47 -24.5q-36 -16 -54 -29.5t-21 -38.5h-70q2 41 27.5 62t71.5 41q36 16 52 28t16 33q0 25 -26.5 38t-92.5 13q-53 0 -99.5 -8t-96.5 -27v58q81 35 197 35q93 0 139 -29zM490 1616h91l219 -354h-84
l-181 299l-181 -299h-83z" />
    <glyph glyph-name="uni1ED7" unicode="&#x1ed7;" horiz-adv-x="1069" 
d="M218.5 117q-113.5 135 -113.5 423q0 286 113.5 421.5t316.5 135.5t316.5 -134.5t113.5 -422.5q0 -285 -114 -421.5t-316 -136.5q-203 0 -316.5 135zM785.5 172.5q87.5 110.5 87.5 364.5q0 259 -87 369.5t-251 110.5t-251 -109.5t-87 -364.5q0 -259 87 -370t251 -111
q163 0 250.5 110.5zM755 1754q37 17 70 53v-74q-56 -62 -153 -62q-37 0 -71 10.5t-81 30.5q-41 18 -68 26.5t-54 8.5q-46 0 -82.5 -17t-70.5 -54v75q58 61 153 61q36 0 69 -10t83 -30q40 -17 68 -26t55 -9q45 0 82 17zM490 1612h91l220 -350h-84l-182 297l-182 -297h-84z
" />
    <glyph glyph-name="uni020D" unicode="&#x20d;" horiz-adv-x="1069" 
d="M218.5 117q-113.5 135 -113.5 423q0 286 113.5 421.5t316.5 135.5t316.5 -134.5t113.5 -422.5q0 -285 -114 -421.5t-316 -136.5q-203 0 -316.5 135zM785.5 172.5q87.5 110.5 87.5 364.5q0 259 -87 369.5t-251 110.5t-251 -109.5t-87 -364.5q0 -259 87 -370t251 -111
q163 0 250.5 110.5zM346 1262l-144 354h85l134 -354h-75zM650 1262l-144 354h85l134 -354h-75z" />
    <glyph glyph-name="odieresis" unicode="&#xf6;" horiz-adv-x="1069" 
d="M218.5 117q-113.5 135 -113.5 423q0 286 113.5 421.5t316.5 135.5t316.5 -134.5t113.5 -422.5q0 -285 -114 -421.5t-316 -136.5q-203 0 -316.5 135zM785.5 172.5q87.5 110.5 87.5 364.5q0 259 -87 369.5t-251 110.5t-251 -109.5t-87 -364.5q0 -259 87 -370t251 -111
q163 0 250.5 110.5zM280.5 1371q-19.5 19 -19.5 51t19.5 52t51.5 20q31 0 50.5 -20t19.5 -52t-19.5 -51t-50.5 -19q-32 0 -51.5 19zM687.5 1371q-19.5 19 -19.5 51t19.5 52t51.5 20t51.5 -20t19.5 -52t-19.5 -51t-51.5 -19t-51.5 19z" />
    <glyph glyph-name="uni022B" unicode="&#x22b;" horiz-adv-x="1069" 
d="M218.5 117q-113.5 135 -113.5 423q0 286 113.5 421.5t316.5 135.5t316.5 -134.5t113.5 -422.5q0 -285 -114 -421.5t-316 -136.5q-203 0 -316.5 135zM785.5 172.5q87.5 110.5 87.5 364.5q0 259 -87 369.5t-251 110.5t-251 -109.5t-87 -364.5q0 -259 87 -370t251 -111
q163 0 250.5 110.5zM280.5 1371q-19.5 19 -19.5 51t19.5 52t51.5 20q31 0 50.5 -20t19.5 -52t-19.5 -51t-50.5 -19q-32 0 -51.5 19zM687.5 1371q-19.5 19 -19.5 51t19.5 52t51.5 20t51.5 -20t19.5 -52t-19.5 -51t-51.5 -19t-51.5 19zM246 1661v70h578v-70h-578z" />
    <glyph glyph-name="uni0231" unicode="&#x231;" horiz-adv-x="1069" 
d="M218.5 117q-113.5 135 -113.5 423q0 286 113.5 421.5t316.5 135.5t316.5 -134.5t113.5 -422.5q0 -285 -114 -421.5t-316 -136.5q-203 0 -316.5 135zM785.5 172.5q87.5 110.5 87.5 364.5q0 259 -87 369.5t-251 110.5t-251 -109.5t-87 -364.5q0 -259 87 -370t251 -111
q163 0 250.5 110.5zM482.5 1370q-19.5 19 -19.5 52q0 32 19.5 52t52.5 20t53 -20t20 -52q0 -33 -20 -52t-53 -19t-52.5 19zM246 1661v70h578v-70h-578z" />
    <glyph glyph-name="uni1ECD" unicode="&#x1ecd;" horiz-adv-x="1069" 
d="M218.5 117q-113.5 135 -113.5 423q0 286 113.5 421.5t316.5 135.5t316.5 -134.5t113.5 -422.5q0 -285 -114 -421.5t-316 -136.5q-203 0 -316.5 135zM785.5 172.5q87.5 110.5 87.5 364.5q0 259 -87 369.5t-251 110.5t-251 -109.5t-87 -364.5q0 -259 87 -370t251 -111
q163 0 250.5 110.5zM483.5 -302q-19.5 19 -19.5 51t19.5 52t51.5 20t51.5 -20t19.5 -52t-19.5 -51t-51.5 -19t-51.5 19z" />
    <glyph glyph-name="ograve" unicode="&#xf2;" horiz-adv-x="1069" 
d="M218.5 117q-113.5 135 -113.5 423q0 286 113.5 421.5t316.5 135.5t316.5 -134.5t113.5 -422.5q0 -285 -114 -421.5t-316 -136.5q-203 0 -316.5 135zM785.5 172.5q87.5 110.5 87.5 364.5q0 259 -87 369.5t-251 110.5t-251 -109.5t-87 -364.5q0 -259 87 -370t251 -111
q163 0 250.5 110.5zM494 1262l-226 354h99l209 -354h-82z" />
    <glyph glyph-name="uni1ECF" unicode="&#x1ecf;" horiz-adv-x="1069" 
d="M218.5 117q-113.5 135 -113.5 423q0 286 113.5 421.5t316.5 135.5t316.5 -134.5t113.5 -422.5q0 -285 -114 -421.5t-316 -136.5q-203 0 -316.5 135zM785.5 172.5q87.5 110.5 87.5 364.5q0 259 -87 369.5t-251 110.5t-251 -109.5t-87 -364.5q0 -259 87 -370t251 -111
q163 0 250.5 110.5zM515 1326.5q14 26.5 32.5 43.5t48.5 38q34 24 49.5 41.5t15.5 42.5q0 38 -30.5 56.5t-95.5 18.5q-38 0 -80 -6t-74 -18v61q31 11 72 17.5t80 6.5q99 0 147 -34.5t48 -99.5q0 -31 -11 -53.5t-26.5 -36.5t-43.5 -34q-37 -26 -56.5 -48.5t-20.5 -59.5h-70
q1 38 15 64.5z" />
    <glyph glyph-name="ohorn" unicode="&#x1a1;" horiz-adv-x="1069" 
d="M922 833.5q43 -118.5 43 -293.5q0 -285 -114 -421.5t-316 -136.5q-203 0 -316.5 135t-113.5 423q0 286 113.5 421.5t316.5 135.5q28 0 108 -5q52 -4 69 -4q93 0 145 41t52 125q0 39 -6 71.5t-18 70.5h77q13 -37 19 -69.5t6 -75.5q0 -96 -51.5 -155.5t-143.5 -75.5
q87 -68 130 -186.5zM785.5 172.5q87.5 110.5 87.5 364.5q0 259 -87 369.5t-251 110.5t-251 -109.5t-87 -364.5q0 -259 87 -370t251 -111q163 0 250.5 110.5z" />
    <glyph glyph-name="uni1EDB" unicode="&#x1edb;" horiz-adv-x="1069" 
d="M797 1616l-226 -354h-81l209 354h98zM922 833.5q43 -118.5 43 -293.5q0 -285 -114 -421.5t-316 -136.5q-203 0 -316.5 135t-113.5 423q0 286 113.5 421.5t316.5 135.5q28 0 108 -5q52 -4 69 -4q93 0 145 41t52 125q0 39 -6 71.5t-18 70.5h77q13 -37 19 -69.5t6 -75.5
q0 -96 -51.5 -155.5t-143.5 -75.5q87 -68 130 -186.5zM785.5 172.5q87.5 110.5 87.5 364.5q0 259 -87 369.5t-251 110.5t-251 -109.5t-87 -364.5q0 -259 87 -370t251 -111q163 0 250.5 110.5z" />
    <glyph glyph-name="uni1EE3" unicode="&#x1ee3;" horiz-adv-x="1069" 
d="M922 833.5q43 -118.5 43 -293.5q0 -285 -114 -421.5t-316 -136.5q-203 0 -316.5 135t-113.5 423q0 286 113.5 421.5t316.5 135.5q28 0 108 -5q52 -4 69 -4q93 0 145 41t52 125q0 39 -6 71.5t-18 70.5h77q13 -37 19 -69.5t6 -75.5q0 -96 -51.5 -155.5t-143.5 -75.5
q87 -68 130 -186.5zM785.5 172.5q87.5 110.5 87.5 364.5q0 259 -87 369.5t-251 110.5t-251 -109.5t-87 -364.5q0 -259 87 -370t251 -111q163 0 250.5 110.5zM480.5 -302q-19.5 19 -19.5 51t19.5 52t51.5 20t51.5 -20t19.5 -52t-19.5 -51t-51.5 -19t-51.5 19z" />
    <glyph glyph-name="uni1EDD" unicode="&#x1edd;" horiz-adv-x="1069" 
d="M922 833.5q43 -118.5 43 -293.5q0 -285 -114 -421.5t-316 -136.5q-203 0 -316.5 135t-113.5 423q0 286 113.5 421.5t316.5 135.5q28 0 108 -5q52 -4 69 -4q93 0 145 41t52 125q0 39 -6 71.5t-18 70.5h77q13 -37 19 -69.5t6 -75.5q0 -96 -51.5 -155.5t-143.5 -75.5
q87 -68 130 -186.5zM785.5 172.5q87.5 110.5 87.5 364.5q0 259 -87 369.5t-251 110.5t-251 -109.5t-87 -364.5q0 -259 87 -370t251 -111q163 0 250.5 110.5zM490 1262l-226 354h99l209 -354h-82z" />
    <glyph glyph-name="uni1EDF" unicode="&#x1edf;" horiz-adv-x="1069" 
d="M922 833.5q43 -118.5 43 -293.5q0 -285 -114 -421.5t-316 -136.5q-203 0 -316.5 135t-113.5 423q0 286 113.5 421.5t316.5 135.5q28 0 108 -5q52 -4 69 -4q93 0 145 41t52 125q0 39 -6 71.5t-18 70.5h77q13 -37 19 -69.5t6 -75.5q0 -96 -51.5 -155.5t-143.5 -75.5
q87 -68 130 -186.5zM785.5 172.5q87.5 110.5 87.5 364.5q0 259 -87 369.5t-251 110.5t-251 -109.5t-87 -364.5q0 -259 87 -370t251 -111q163 0 250.5 110.5zM511 1326.5q14 26.5 32.5 43.5t48.5 38q34 24 49.5 41.5t15.5 42.5q0 38 -30.5 56.5t-95.5 18.5q-38 0 -80 -6
t-74 -18v61q31 11 72 17.5t80 6.5q99 0 147 -34.5t48 -99.5q0 -31 -11 -53.5t-26.5 -36.5t-43.5 -34q-37 -26 -56.5 -48.5t-20.5 -59.5h-70q1 38 15 64.5z" />
    <glyph glyph-name="uni1EE1" unicode="&#x1ee1;" horiz-adv-x="1069" 
d="M313 1432.5q-37 -17.5 -70 -54.5v77q56 62 152 62q37 0 71.5 -11t78.5 -31q42 -18 68 -26.5t53 -8.5q45 0 81.5 17.5t69.5 54.5v-77q-27 -30 -66 -46.5t-86 -16.5q-36 0 -69 10.5t-81 31.5q-40 18 -67 27t-54 9q-44 0 -81 -17.5zM922 833.5q43 -118.5 43 -293.5
q0 -285 -114 -421.5t-316 -136.5q-203 0 -316.5 135t-113.5 423q0 286 113.5 421.5t316.5 135.5q28 0 108 -5q52 -4 69 -4q93 0 145 41t52 125q0 39 -6 71.5t-18 70.5h77q13 -37 19 -69.5t6 -75.5q0 -96 -51.5 -155.5t-143.5 -75.5q87 -68 130 -186.5zM785.5 172.5
q87.5 110.5 87.5 364.5q0 259 -87 369.5t-251 110.5t-251 -109.5t-87 -364.5q0 -259 87 -370t251 -111q163 0 250.5 110.5z" />
    <glyph glyph-name="ohungarumlaut" unicode="&#x151;" horiz-adv-x="1069" 
d="M218.5 117q-113.5 135 -113.5 423q0 286 113.5 421.5t316.5 135.5t316.5 -134.5t113.5 -422.5q0 -285 -114 -421.5t-316 -136.5q-203 0 -316.5 135zM785.5 172.5q87.5 110.5 87.5 364.5q0 259 -87 369.5t-251 110.5t-251 -109.5t-87 -364.5q0 -259 87 -370t251 -111
q163 0 250.5 110.5zM349 1262l135 354h81l-144 -354h-72zM650 1262l135 354h81l-144 -354h-72z" />
    <glyph glyph-name="uni020F" unicode="&#x20f;" horiz-adv-x="1069" 
d="M218.5 117q-113.5 135 -113.5 423q0 286 113.5 421.5t316.5 135.5t316.5 -134.5t113.5 -422.5q0 -285 -114 -421.5t-316 -136.5q-203 0 -316.5 135zM785.5 172.5q87.5 110.5 87.5 364.5q0 259 -87 369.5t-251 110.5t-251 -109.5t-87 -364.5q0 -259 87 -370t251 -111
q163 0 250.5 110.5zM340 1523.5q69 81.5 193 81.5q125 0 196 -82.5t76 -232.5h-68q-15 248 -204 248q-95 0 -144 -62.5t-55 -185.5h-69q6 152 75 233.5z" />
    <glyph glyph-name="omacron" unicode="&#x14d;" horiz-adv-x="1069" 
d="M218.5 117q-113.5 135 -113.5 423q0 286 113.5 421.5t316.5 135.5t316.5 -134.5t113.5 -422.5q0 -285 -114 -421.5t-316 -136.5q-203 0 -316.5 135zM785.5 172.5q87.5 110.5 87.5 364.5q0 259 -87 369.5t-251 110.5t-251 -109.5t-87 -364.5q0 -259 87 -370t251 -111
q163 0 250.5 110.5zM246 1388v70h578v-70h-578z" />
    <glyph glyph-name="uni1E53" unicode="&#x1e53;" horiz-adv-x="1069" 
d="M218.5 117q-113.5 135 -113.5 423q0 286 113.5 421.5t316.5 135.5t316.5 -134.5t113.5 -422.5q0 -285 -114 -421.5t-316 -136.5q-203 0 -316.5 135zM785.5 172.5q87.5 110.5 87.5 364.5q0 259 -87 369.5t-251 110.5t-251 -109.5t-87 -364.5q0 -259 87 -370t251 -111
q163 0 250.5 110.5zM246 1388v70h578v-70h-578zM494 1601l176 275h99l-193 -275h-82z" />
    <glyph glyph-name="uni1E51" unicode="&#x1e51;" horiz-adv-x="1069" 
d="M218.5 117q-113.5 135 -113.5 423q0 286 113.5 421.5t316.5 135.5t316.5 -134.5t113.5 -422.5q0 -285 -114 -421.5t-316 -136.5q-203 0 -316.5 135zM785.5 172.5q87.5 110.5 87.5 364.5q0 259 -87 369.5t-251 110.5t-251 -109.5t-87 -364.5q0 -259 87 -370t251 -111
q163 0 250.5 110.5zM246 1388v70h578v-70h-578zM494 1601l-193 275h100l175 -275h-82z" />
    <glyph glyph-name="uni01EB" unicode="&#x1eb;" horiz-adv-x="1069" 
d="M505 -97q-51 -61 -51 -129q0 -57 34.5 -88t94.5 -31q70 0 133 33l18 -53q-70 -38 -152 -38q-89 0 -142 45.5t-53 126.5q0 63 31 117.5t95 96.5q-194 8 -301 143t-107 414q0 286 113.5 421.5t316.5 135.5t316.5 -134.5t113.5 -422.5q0 -450 -290 -539q-119 -37 -170 -98z
M284 173q87 -111 251 -111q163 0 250.5 110.5t87.5 364.5q0 259 -87 369.5t-251 110.5t-251 -109.5t-87 -364.5q0 -259 87 -370z" />
    <glyph glyph-name="oslash" unicode="&#xf8;" horiz-adv-x="1069" 
d="M965 540q0 -285 -114 -421.5t-316 -136.5q-177 0 -283 99l-71 -100l-57 41l81 113q-100 141 -100 405q0 286 113.5 421.5t316.5 135.5q177 0 282 -98l71 101l58 -40l-81 -115q100 -139 100 -405zM283.5 908q-87.5 -110 -87.5 -365q0 -212 63 -332l509 717q-80 90 -233 90
q-164 0 -251.5 -110zM786 171.5q87 110.5 87 365.5q0 216 -63 333l-509 -718q81 -91 234 -91q164 0 251 110.5z" />
    <glyph glyph-name="oslashacute" unicode="&#x1ff;" horiz-adv-x="1069" 
d="M965 540q0 -285 -114 -421.5t-316 -136.5q-177 0 -283 99l-71 -100l-57 41l81 113q-100 141 -100 405q0 286 113.5 421.5t316.5 135.5q177 0 282 -98l71 101l58 -40l-81 -115q100 -139 100 -405zM283.5 908q-87.5 -110 -87.5 -365q0 -212 63 -332l509 717q-80 90 -233 90
q-164 0 -251.5 -110zM786 171.5q87 110.5 87 365.5q0 216 -63 333l-509 -718q81 -91 234 -91q164 0 251 110.5zM488 1262l210 354h99l-227 -354h-82z" />
    <glyph glyph-name="otilde" unicode="&#xf5;" horiz-adv-x="1069" 
d="M218.5 117q-113.5 135 -113.5 423q0 286 113.5 421.5t316.5 135.5t316.5 -134.5t113.5 -422.5q0 -285 -114 -421.5t-316 -136.5q-203 0 -316.5 135zM785.5 172.5q87.5 110.5 87.5 364.5q0 259 -87 369.5t-251 110.5t-251 -109.5t-87 -364.5q0 -259 87 -370t251 -111
q163 0 250.5 110.5zM602.5 1382.5q-32.5 10.5 -82.5 31.5q-38 18 -66 27t-55 9q-45 0 -82 -17.5t-71 -54.5v77q57 62 153 62q37 0 71 -11t80 -31q41 -18 68 -26.5t54 -8.5q45 0 82 17.5t70 54.5v-77q-57 -63 -153 -63q-36 0 -68.5 10.5z" />
    <glyph glyph-name="uni1E4D" unicode="&#x1e4d;" horiz-adv-x="1069" 
d="M218.5 117q-113.5 135 -113.5 423q0 286 113.5 421.5t316.5 135.5t316.5 -134.5t113.5 -422.5q0 -285 -114 -421.5t-316 -136.5q-203 0 -316.5 135zM785.5 172.5q87.5 110.5 87.5 364.5q0 259 -87 369.5t-251 110.5t-251 -109.5t-87 -364.5q0 -259 87 -370t251 -111
q163 0 250.5 110.5zM602.5 1382.5q-32.5 10.5 -82.5 31.5q-38 18 -66 27t-55 9q-45 0 -82 -17.5t-71 -54.5v77q57 62 153 62q37 0 71 -11t80 -31q41 -18 68 -26.5t54 -8.5q45 0 82 17.5t70 54.5v-77q-57 -63 -153 -63q-36 0 -68.5 10.5zM502 1620l176 275h99l-193 -275h-82z
" />
    <glyph glyph-name="uni1E4F" unicode="&#x1e4f;" horiz-adv-x="1069" 
d="M218.5 117q-113.5 135 -113.5 423q0 286 113.5 421.5t316.5 135.5t316.5 -134.5t113.5 -422.5q0 -285 -114 -421.5t-316 -136.5q-203 0 -316.5 135zM785.5 172.5q87.5 110.5 87.5 364.5q0 259 -87 369.5t-251 110.5t-251 -109.5t-87 -364.5q0 -259 87 -370t251 -111
q163 0 250.5 110.5zM602.5 1382.5q-32.5 10.5 -82.5 31.5q-38 18 -66 27t-55 9q-45 0 -82 -17.5t-71 -54.5v77q57 62 153 62q37 0 71 -11t80 -31q41 -18 68 -26.5t54 -8.5q45 0 82 17.5t70 54.5v-77q-57 -63 -153 -63q-36 0 -68.5 10.5zM280.5 1644q-19.5 19 -19.5 51
t19.5 52t51.5 20q31 0 50.5 -20t19.5 -52t-19.5 -51t-50.5 -19q-32 0 -51.5 19zM687.5 1644q-19.5 19 -19.5 51t19.5 52t51.5 20t51.5 -20t19.5 -52t-19.5 -51t-51.5 -19t-51.5 19z" />
    <glyph glyph-name="uni022D" unicode="&#x22d;" horiz-adv-x="1069" 
d="M218.5 117q-113.5 135 -113.5 423q0 286 113.5 421.5t316.5 135.5t316.5 -134.5t113.5 -422.5q0 -285 -114 -421.5t-316 -136.5q-203 0 -316.5 135zM785.5 172.5q87.5 110.5 87.5 364.5q0 259 -87 369.5t-251 110.5t-251 -109.5t-87 -364.5q0 -259 87 -370t251 -111
q163 0 250.5 110.5zM602.5 1382.5q-32.5 10.5 -82.5 31.5q-38 18 -66 27t-55 9q-45 0 -82 -17.5t-71 -54.5v77q57 62 153 62q37 0 71 -11t80 -31q41 -18 68 -26.5t54 -8.5q45 0 82 17.5t70 54.5v-77q-57 -63 -153 -63q-36 0 -68.5 10.5zM246 1661v70h578v-70h-578z" />
    <glyph glyph-name="oe" unicode="&#x153;" horiz-adv-x="1746" 
d="M1658 506h-701q5 -236 101.5 -340t284.5 -104q114 0 264 48v-82q-139 -46 -271 -46q-166 0 -272.5 68t-154.5 212q-45 -143 -142 -211.5t-237 -68.5q-200 0 -312.5 135.5t-112.5 422.5q0 286 112.5 421.5t312.5 135.5q142 0 239 -68.5t142 -212.5q40 143 131.5 212.5
t225.5 69.5q188 0 289 -135.5t101 -420.5v-36zM1041 917.5q-80 -103.5 -84 -336.5h612q-5 236 -81.5 338t-220.5 102q-146 0 -226 -103.5zM778.5 172.5q86.5 110.5 86.5 364.5q0 259 -86 369.5t-248 110.5q-161 0 -247.5 -109.5t-86.5 -364.5q0 -258 86.5 -369.5
t247.5 -111.5t247.5 110.5z" />
    <glyph glyph-name="p" unicode="p" horiz-adv-x="1084" 
d="M166 1081h77l8 -121h7q51 63 129.5 100t173.5 37q189 0 303.5 -127t114.5 -409q0 -294 -132.5 -436.5t-393.5 -142.5q-83 0 -199 16v-438h-88v1521zM780.5 179q106.5 117 106.5 372t-89 360t-247 105q-88 0 -166.5 -40.5t-130.5 -121.5v-770q41 -10 96 -16t106 -6
q218 0 324.5 117z" />
    <glyph glyph-name="thorn" unicode="&#xfe;" horiz-adv-x="1084" 
d="M166 1616h88v-651h7q53 61 132 96.5t176 35.5q185 0 297.5 -127t112.5 -409q0 -294 -132.5 -436.5t-393.5 -142.5q-83 0 -199 16v-438h-88v2056zM780.5 179q106.5 117 106.5 372t-88.5 360t-243.5 105q-89 0 -169 -40t-132 -119v-773q41 -10 96 -16t106 -6
q218 0 324.5 117z" />
    <glyph glyph-name="q" unicode="q" horiz-adv-x="1084" 
d="M830 112h-7q-53 -59 -132 -94.5t-176 -35.5q-185 0 -297.5 127t-112.5 409q0 579 518 579q75 0 152 -11.5t143 -31.5v-1494h-88v552zM697.5 102q80.5 39 132.5 115v774q-43 12 -99 19t-114 7q-210 0 -315 -117.5t-105 -371.5t88.5 -359.5t243.5 -105.5q88 0 168.5 39z
" />
    <glyph glyph-name="r" unicode="r" horiz-adv-x="684" 
d="M166 1081h76l7 -147h9q58 74 147 115t182 41q46 0 84 -7v-86q-35 5 -87 5q-90 0 -182 -45t-148 -130v-827h-88v1081z" />
    <glyph glyph-name="racute" unicode="&#x155;" horiz-adv-x="684" 
d="M166 1081h76l7 -147h9q58 74 147 115t182 41q46 0 84 -7v-86q-35 5 -87 5q-90 0 -182 -45t-148 -130v-827h-88v1081zM365 1262l210 354h99l-227 -354h-82z" />
    <glyph glyph-name="rcaron" unicode="&#x159;" horiz-adv-x="684" 
d="M166 1081h76l7 -147h9q58 74 147 115t182 41q46 0 84 -7v-86q-35 5 -87 5q-90 0 -182 -45t-148 -130v-827h-88v1081zM591 1616h84l-223 -354h-91l-223 354h83l185 -301z" />
    <glyph glyph-name="rcommaaccent" unicode="&#x157;" horiz-adv-x="684" 
d="M166 1081h76l7 -147h9q58 74 147 115t182 41q46 0 84 -7v-86q-35 5 -87 5q-90 0 -182 -45t-148 -130v-827h-88v1081zM262 -202.5q20 -23.5 20 -68.5q0 -38 -12.5 -87t-34.5 -94h-56q30 77 35 138h-4q-32 0 -51.5 19t-19.5 49t18.5 48.5t49.5 18.5q35 0 55 -23.5z" />
    <glyph glyph-name="uni0211" unicode="&#x211;" horiz-adv-x="684" 
d="M166 1081h76l7 -147h9q58 74 147 115t182 41q46 0 84 -7v-86q-35 5 -87 5q-90 0 -182 -45t-148 -130v-827h-88v1081zM217 1262l-144 354h85l134 -354h-75zM521 1262l-144 354h85l134 -354h-75z" />
    <glyph glyph-name="uni1E5B" unicode="&#x1e5b;" horiz-adv-x="684" 
d="M166 1081h76l7 -147h9q58 74 147 115t182 41q46 0 84 -7v-86q-35 5 -87 5q-90 0 -182 -45t-148 -130v-827h-88v1081zM158.5 -302q-19.5 19 -19.5 51t19.5 52t51.5 20t51.5 -20t19.5 -52t-19.5 -51t-51.5 -19t-51.5 19z" />
    <glyph glyph-name="uni0213" unicode="&#x213;" horiz-adv-x="684" 
d="M166 1081h76l7 -147h9q58 74 147 115t182 41q46 0 84 -7v-86q-35 5 -87 5q-90 0 -182 -45t-148 -130v-827h-88v1081zM211 1523.5q69 81.5 193 81.5q125 0 196 -82.5t76 -232.5h-68q-15 248 -204 248q-95 0 -144 -62.5t-55 -185.5h-69q6 152 75 233.5z" />
    <glyph glyph-name="uni1E5F" unicode="&#x1e5f;" horiz-adv-x="684" 
d="M166 1081h76l7 -147h9q58 74 147 115t182 41q46 0 84 -7v-86q-35 5 -87 5q-90 0 -182 -45t-148 -130v-827h-88v1081zM-47 -286v69h515v-69h-515z" />
    <glyph glyph-name="s" unicode="s" horiz-adv-x="866" 
d="M118 23v82q78 -24 144 -34t136 -10q153 0 227 55.5t74 161.5q0 89 -45.5 136.5t-152.5 71.5l-133 28q-142 32 -204.5 102t-62.5 184q0 87 43 154t131 105t217 38q125 0 240 -30v-82q-66 18 -121 25.5t-118 7.5q-156 0 -229.5 -59t-73.5 -156q0 -82 44 -132t147 -72
l132 -28q149 -34 212 -102.5t63 -184.5q0 -143 -100 -222.5t-292 -79.5q-151 0 -278 41z" />
    <glyph glyph-name="sacute" unicode="&#x15b;" horiz-adv-x="866" 
d="M118 23v82q78 -24 144 -34t136 -10q153 0 227 55.5t74 161.5q0 89 -45.5 136.5t-152.5 71.5l-133 28q-142 32 -204.5 102t-62.5 184q0 87 43 154t131 105t217 38q125 0 240 -30v-82q-66 18 -121 25.5t-118 7.5q-156 0 -229.5 -59t-73.5 -156q0 -82 44 -132t147 -72
l132 -28q149 -34 212 -102.5t63 -184.5q0 -143 -100 -222.5t-292 -79.5q-151 0 -278 41zM398 1262l210 354h99l-227 -354h-82z" />
    <glyph glyph-name="uni1E65" unicode="&#x1e65;" horiz-adv-x="866" 
d="M118 23v82q78 -24 144 -34t136 -10q153 0 227 55.5t74 161.5q0 89 -45.5 136.5t-152.5 71.5l-133 28q-142 32 -204.5 102t-62.5 184q0 87 43 154t131 105t217 38q125 0 240 -30v-82q-66 18 -121 25.5t-118 7.5q-156 0 -229.5 -59t-73.5 -156q0 -82 44 -132t147 -72
l132 -28q149 -34 212 -102.5t63 -184.5q0 -143 -100 -222.5t-292 -79.5q-151 0 -278 41zM338.5 1594.5q-19.5 18.5 -19.5 48.5q0 31 19.5 49.5t50.5 18.5q32 0 51 -18.5t19 -49.5t-19 -49t-51 -18q-31 0 -50.5 18.5zM398 1262l210 354h99l-227 -354h-82z" />
    <glyph glyph-name="scaron" unicode="&#x161;" horiz-adv-x="866" 
d="M118 23v82q78 -24 144 -34t136 -10q153 0 227 55.5t74 161.5q0 89 -45.5 136.5t-152.5 71.5l-133 28q-142 32 -204.5 102t-62.5 184q0 87 43 154t131 105t217 38q125 0 240 -30v-82q-66 18 -121 25.5t-118 7.5q-156 0 -229.5 -59t-73.5 -156q0 -82 44 -132t147 -72
l132 -28q149 -34 212 -102.5t63 -184.5q0 -143 -100 -222.5t-292 -79.5q-151 0 -278 41zM624 1616h84l-223 -354h-91l-223 354h83l185 -301z" />
    <glyph glyph-name="uni1E67" unicode="&#x1e67;" horiz-adv-x="866" 
d="M118 23v82q78 -24 144 -34t136 -10q153 0 227 55.5t74 161.5q0 89 -45.5 136.5t-152.5 71.5l-133 28q-142 32 -204.5 102t-62.5 184q0 87 43 154t131 105t217 38q125 0 240 -30v-82q-66 18 -121 25.5t-118 7.5q-156 0 -229.5 -59t-73.5 -156q0 -82 44 -132t147 -72
l132 -28q149 -34 212 -102.5t63 -184.5q0 -143 -100 -222.5t-292 -79.5q-151 0 -278 41zM388.5 1634.5q-19.5 18.5 -19.5 48.5q0 31 19.5 50t50.5 19t50.5 -19t19.5 -50t-19 -49t-51 -18q-31 0 -50.5 18.5zM624 1616h84l-223 -354h-91l-223 354h83l185 -301z" />
    <glyph glyph-name="scedilla" unicode="&#x15f;" horiz-adv-x="866" 
d="M708 79.5q-80 -77.5 -234 -93.5v-98q73 -6 112.5 -43.5t39.5 -101.5q0 -68 -48 -107t-134 -39q-44 0 -89 9.5t-76 26.5v62q78 -41 166 -41q117 0 117 90q0 47 -30 69t-89 22h-33v147h-14q-151 0 -278 41v82q78 -24 144 -34t136 -10q153 0 227 55.5t74 161.5
q0 89 -45.5 136.5t-152.5 71.5l-133 28q-142 32 -204.5 102t-62.5 184q0 87 43 154t131 105t217 38q125 0 240 -30v-82q-66 18 -121 25.5t-118 7.5q-156 0 -229.5 -59t-73.5 -156q0 -82 44 -132t147 -72l132 -28q149 -34 212 -102.5t63 -184.5q0 -127 -80 -204.5z" />
    <glyph glyph-name="scircumflex" unicode="&#x15d;" horiz-adv-x="866" 
d="M118 23v82q78 -24 144 -34t136 -10q153 0 227 55.5t74 161.5q0 89 -45.5 136.5t-152.5 71.5l-133 28q-142 32 -204.5 102t-62.5 184q0 87 43 154t131 105t217 38q125 0 240 -30v-82q-66 18 -121 25.5t-118 7.5q-156 0 -229.5 -59t-73.5 -156q0 -82 44 -132t147 -72
l132 -28q149 -34 212 -102.5t63 -184.5q0 -143 -100 -222.5t-292 -79.5q-151 0 -278 41zM704 1262h-84l-181 299l-181 -299h-83l219 354h91z" />
    <glyph glyph-name="scommaaccent" unicode="&#x219;" horiz-adv-x="866" 
d="M118 23v82q78 -24 144 -34t136 -10q153 0 227 55.5t74 161.5q0 89 -45.5 136.5t-152.5 71.5l-133 28q-142 32 -204.5 102t-62.5 184q0 87 43 154t131 105t217 38q125 0 240 -30v-82q-66 18 -121 25.5t-118 7.5q-156 0 -229.5 -59t-73.5 -156q0 -82 44 -132t147 -72
l132 -28q149 -34 212 -102.5t63 -184.5q0 -143 -100 -222.5t-292 -79.5q-151 0 -278 41zM491 -202.5q20 -23.5 20 -68.5q0 -38 -12.5 -87t-34.5 -94h-56q30 77 35 138h-4q-32 0 -51.5 19t-19.5 49t18.5 48.5t49.5 18.5q35 0 55 -23.5z" />
    <glyph glyph-name="uni1E61" unicode="&#x1e61;" horiz-adv-x="866" 
d="M118 23v82q78 -24 144 -34t136 -10q153 0 227 55.5t74 161.5q0 89 -45.5 136.5t-152.5 71.5l-133 28q-142 32 -204.5 102t-62.5 184q0 87 43 154t131 105t217 38q125 0 240 -30v-82q-66 18 -121 25.5t-118 7.5q-156 0 -229.5 -59t-73.5 -156q0 -82 44 -132t147 -72
l132 -28q149 -34 212 -102.5t63 -184.5q0 -143 -100 -222.5t-292 -79.5q-151 0 -278 41zM386.5 1370q-19.5 19 -19.5 52q0 32 19.5 52t52.5 20t53 -20t20 -52q0 -33 -20 -52t-53 -19t-52.5 19z" />
    <glyph glyph-name="uni1E63" unicode="&#x1e63;" horiz-adv-x="866" 
d="M118 23v82q78 -24 144 -34t136 -10q153 0 227 55.5t74 161.5q0 89 -45.5 136.5t-152.5 71.5l-133 28q-142 32 -204.5 102t-62.5 184q0 87 43 154t131 105t217 38q125 0 240 -30v-82q-66 18 -121 25.5t-118 7.5q-156 0 -229.5 -59t-73.5 -156q0 -82 44 -132t147 -72
l132 -28q149 -34 212 -102.5t63 -184.5q0 -143 -100 -222.5t-292 -79.5q-151 0 -278 41zM387.5 -302q-19.5 19 -19.5 51t19.5 52t51.5 20t51.5 -20t19.5 -52t-19.5 -51t-51.5 -19t-51.5 19z" />
    <glyph glyph-name="uni1E69" unicode="&#x1e69;" horiz-adv-x="866" 
d="M118 23v82q78 -24 144 -34t136 -10q153 0 227 55.5t74 161.5q0 89 -45.5 136.5t-152.5 71.5l-133 28q-142 32 -204.5 102t-62.5 184q0 87 43 154t131 105t217 38q125 0 240 -30v-82q-66 18 -121 25.5t-118 7.5q-156 0 -229.5 -59t-73.5 -156q0 -82 44 -132t147 -72
l132 -28q149 -34 212 -102.5t63 -184.5q0 -143 -100 -222.5t-292 -79.5q-151 0 -278 41zM387.5 -302q-19.5 19 -19.5 51t19.5 52t51.5 20t51.5 -20t19.5 -52t-19.5 -51t-51.5 -19t-51.5 19zM386.5 1370q-19.5 19 -19.5 52q0 32 19.5 52t52.5 20t53 -20t20 -52q0 -33 -20 -52
t-53 -19t-52.5 19z" />
    <glyph glyph-name="germandbls" unicode="&#xdf;" horiz-adv-x="1310" 
d="M1169.5 468.5q62.5 -68.5 62.5 -184.5q0 -143 -99.5 -222.5t-291.5 -79.5q-153 0 -279 40v81q78 -23 144 -32.5t135 -9.5q154 0 228.5 55.5t74.5 161.5q0 89 -46 136.5t-153 71.5l-133 28q-142 32 -204.5 102t-62.5 182q0 87 43 154t130.5 105t216.5 38q49 0 87 -5
q9 57 9 113q0 188 -92 271.5t-251 83.5q-180 0 -274 -99.5t-94 -320.5v-1138h-88v1000h-216v81h216v62q0 248 118 370.5t337 122.5q124 0 219 -45.5t149 -143t54 -246.5q0 -47 -7.5 -103t-17.5 -95q-35 7 -67 11t-78 4q-157 0 -231 -59t-74 -156q0 -81 44.5 -131t146.5 -73
l133 -28q149 -34 211.5 -102.5z" />
    <glyph glyph-name="t" unicode="t" horiz-adv-x="706" 
d="M698 82v-83q-75 -17 -151 -17q-323 0 -323 335v685h-216v79h216l12 399h76v-399h365v-79h-365v-670q0 -144 61 -206t185 -62q64 0 140 18z" />
    <glyph glyph-name="tbar" unicode="&#x167;" horiz-adv-x="706" 
d="M698 82v-83q-75 -17 -151 -17q-323 0 -323 335v302h-156v71h156v312h-216v79h216l12 399h76v-399h365v-79h-365v-312h317v-71h-317v-287q0 -144 61 -206t185 -62q64 0 140 18z" />
    <glyph glyph-name="tcaron" unicode="&#x165;" horiz-adv-x="706" 
d="M698 82v-83q-75 -17 -151 -17q-323 0 -323 335v685h-216v79h216l12 399h76v-399h365v-79h-365v-670q0 -144 61 -206t185 -62q64 0 140 18zM508 1616h76q0 -253 -38 -436h-57q19 158 19 436z" />
    <glyph glyph-name="uni0163" unicode="&#x163;" horiz-adv-x="706" 
d="M496 -16v-96q73 -6 112.5 -43.5t39.5 -101.5q0 -68 -48 -107t-134 -39q-44 0 -89 9.5t-76 26.5v62q78 -41 166 -41q117 0 117 90q0 47 -30 69t-89 22h-33v160q-208 54 -208 322v685h-216v79h216l12 399h76v-399h365v-79h-365v-670q0 -144 61 -206t185 -62q64 0 140 18
v-83q-75 -17 -151 -17q-19 0 -51 2z" />
    <glyph glyph-name="uni021B" unicode="&#x21b;" horiz-adv-x="706" 
d="M698 82v-83q-75 -17 -151 -17q-323 0 -323 335v685h-216v79h216l12 399h76v-399h365v-79h-365v-670q0 -144 61 -206t185 -62q64 0 140 18zM513 -202.5q20 -23.5 20 -68.5q0 -38 -12.5 -87t-34.5 -94h-56q30 77 35 138h-4q-32 0 -51.5 19t-19.5 49t18.5 48.5t49.5 18.5
q35 0 55 -23.5z" />
    <glyph glyph-name="uni1E97" unicode="&#x1e97;" horiz-adv-x="706" 
d="M698 82v-83q-75 -17 -151 -17q-323 0 -323 335v685h-216v79h216l12 399h76v-399h365v-79h-365v-670q0 -144 61 -206t185 -62q64 0 140 18zM13.5 1653q-19.5 19 -19.5 51t19.5 52t51.5 20q31 0 50.5 -20t19.5 -52t-19.5 -51t-50.5 -19q-32 0 -51.5 19zM420.5 1653
q-19.5 19 -19.5 51t19.5 52t51.5 20t51.5 -20t19.5 -52t-19.5 -51t-51.5 -19t-51.5 19z" />
    <glyph glyph-name="uni1E6D" unicode="&#x1e6d;" horiz-adv-x="706" 
d="M698 82v-83q-75 -17 -151 -17q-323 0 -323 335v685h-216v79h216l12 399h76v-399h365v-79h-365v-670q0 -144 61 -206t185 -62q64 0 140 18zM409.5 -302q-19.5 19 -19.5 51t19.5 52t51.5 20t51.5 -20t19.5 -52t-19.5 -51t-51.5 -19t-51.5 19z" />
    <glyph glyph-name="uni1E6F" unicode="&#x1e6f;" horiz-adv-x="706" 
d="M698 82v-83q-75 -17 -151 -17q-323 0 -323 335v685h-216v79h216l12 399h76v-399h365v-79h-365v-670q0 -144 61 -206t185 -62q64 0 140 18zM204 -286v69h515v-69h-515z" />
    <glyph glyph-name="u" unicode="u" horiz-adv-x="1088" 
d="M241 67.5q-89 85.5 -89 277.5v736h88v-736q0 -149 67 -214.5t188 -65.5q92 0 184 41.5t155 127.5v847h88v-1081h-76l-8 123h-8q-69 -69 -158 -105t-186 -36q-156 0 -245 85.5z" />
    <glyph glyph-name="uacute" unicode="&#xfa;" horiz-adv-x="1088" 
d="M241 67.5q-89 85.5 -89 277.5v736h88v-736q0 -149 67 -214.5t188 -65.5q92 0 184 41.5t155 127.5v847h88v-1081h-76l-8 123h-8q-69 -69 -158 -105t-186 -36q-156 0 -245 85.5zM497 1262l210 354h99l-227 -354h-82z" />
    <glyph glyph-name="ubreve" unicode="&#x16d;" horiz-adv-x="1088" 
d="M241 67.5q-89 85.5 -89 277.5v736h88v-736q0 -149 67 -214.5t188 -65.5q92 0 184 41.5t155 127.5v847h88v-1081h-76l-8 123h-8q-69 -69 -158 -105t-186 -36q-156 0 -245 85.5zM345 1356q-71 83 -77 232h69q8 -124 57 -186.5t146 -62.5t145.5 62.5t54.5 186.5h68
q-5 -151 -74.5 -233t-193.5 -82t-195 83z" />
    <glyph glyph-name="ucircumflex" unicode="&#xfb;" horiz-adv-x="1088" 
d="M241 67.5q-89 85.5 -89 277.5v736h88v-736q0 -149 67 -214.5t188 -65.5q92 0 184 41.5t155 127.5v847h88v-1081h-76l-8 123h-8q-69 -69 -158 -105t-186 -36q-156 0 -245 85.5zM803 1262h-84l-181 299l-181 -299h-83l219 354h91z" />
    <glyph glyph-name="uni0215" unicode="&#x215;" horiz-adv-x="1088" 
d="M241 67.5q-89 85.5 -89 277.5v736h88v-736q0 -149 67 -214.5t188 -65.5q92 0 184 41.5t155 127.5v847h88v-1081h-76l-8 123h-8q-69 -69 -158 -105t-186 -36q-156 0 -245 85.5zM349 1262l-144 354h85l134 -354h-75zM653 1262l-144 354h85l134 -354h-75z" />
    <glyph glyph-name="udieresis" unicode="&#xfc;" horiz-adv-x="1088" 
d="M241 67.5q-89 85.5 -89 277.5v736h88v-736q0 -149 67 -214.5t188 -65.5q92 0 184 41.5t155 127.5v847h88v-1081h-76l-8 123h-8q-69 -69 -158 -105t-186 -36q-156 0 -245 85.5zM283.5 1371q-19.5 19 -19.5 51t19.5 52t51.5 20q31 0 50.5 -20t19.5 -52t-19.5 -51t-50.5 -19
q-32 0 -51.5 19zM690.5 1371q-19.5 19 -19.5 51t19.5 52t51.5 20t51.5 -20t19.5 -52t-19.5 -51t-51.5 -19t-51.5 19z" />
    <glyph glyph-name="uni1EE5" unicode="&#x1ee5;" horiz-adv-x="1088" 
d="M241 67.5q-89 85.5 -89 277.5v736h88v-736q0 -149 67 -214.5t188 -65.5q92 0 184 41.5t155 127.5v847h88v-1081h-76l-8 123h-8q-69 -69 -158 -105t-186 -36q-156 0 -245 85.5zM486.5 -302q-19.5 19 -19.5 51t19.5 52t51.5 20t51.5 -20t19.5 -52t-19.5 -51t-51.5 -19
t-51.5 19z" />
    <glyph glyph-name="ugrave" unicode="&#xf9;" horiz-adv-x="1088" 
d="M241 67.5q-89 85.5 -89 277.5v736h88v-736q0 -149 67 -214.5t188 -65.5q92 0 184 41.5t155 127.5v847h88v-1081h-76l-8 123h-8q-69 -69 -158 -105t-186 -36q-156 0 -245 85.5zM497 1262l-226 354h99l209 -354h-82z" />
    <glyph glyph-name="uni1EE7" unicode="&#x1ee7;" horiz-adv-x="1088" 
d="M241 67.5q-89 85.5 -89 277.5v736h88v-736q0 -149 67 -214.5t188 -65.5q92 0 184 41.5t155 127.5v847h88v-1081h-76l-8 123h-8q-69 -69 -158 -105t-186 -36q-156 0 -245 85.5zM518 1326.5q14 26.5 32.5 43.5t48.5 38q34 24 49.5 41.5t15.5 42.5q0 38 -30.5 56.5
t-95.5 18.5q-38 0 -80 -6t-74 -18v61q31 11 72 17.5t80 6.5q99 0 147 -34.5t48 -99.5q0 -31 -11 -53.5t-26.5 -36.5t-43.5 -34q-37 -26 -56.5 -48.5t-20.5 -59.5h-70q1 38 15 64.5z" />
    <glyph glyph-name="uhorn" unicode="&#x1b0;" horiz-adv-x="1109" 
d="M1088.5 1079.5q-60.5 -61.5 -166.5 -70.5v-1009h-76l-8 123h-8q-69 -69 -158 -105t-186 -36q-156 0 -245 85.5t-89 277.5v736h88v-736q0 -149 67 -214.5t188 -65.5q92 0 184 41.5t155 127.5v847h40q94 0 146 41t52 125q0 38 -6 70t-19 72h77q13 -37 19 -69.5t6 -75.5
q0 -103 -60.5 -164.5z" />
    <glyph glyph-name="uni1EE9" unicode="&#x1ee9;" horiz-adv-x="1109" 
d="M1088.5 1079.5q-60.5 -61.5 -166.5 -70.5v-1009h-76l-8 123h-8q-69 -69 -158 -105t-186 -36q-156 0 -245 85.5t-89 277.5v736h88v-736q0 -149 67 -214.5t188 -65.5q92 0 184 41.5t155 127.5v847h40q94 0 146 41t52 125q0 38 -6 70t-19 72h77q13 -37 19 -69.5t6 -75.5
q0 -103 -60.5 -164.5zM497 1262l210 354h99l-227 -354h-82z" />
    <glyph glyph-name="uni1EF1" unicode="&#x1ef1;" horiz-adv-x="1109" 
d="M1088.5 1079.5q-60.5 -61.5 -166.5 -70.5v-1009h-76l-8 123h-8q-69 -69 -158 -105t-186 -36q-156 0 -245 85.5t-89 277.5v736h88v-736q0 -149 67 -214.5t188 -65.5q92 0 184 41.5t155 127.5v847h40q94 0 146 41t52 125q0 38 -6 70t-19 72h77q13 -37 19 -69.5t6 -75.5
q0 -103 -60.5 -164.5zM486.5 -302q-19.5 19 -19.5 51t19.5 52t51.5 20t51.5 -20t19.5 -52t-19.5 -51t-51.5 -19t-51.5 19z" />
    <glyph glyph-name="uni1EEB" unicode="&#x1eeb;" horiz-adv-x="1109" 
d="M1088.5 1079.5q-60.5 -61.5 -166.5 -70.5v-1009h-76l-8 123h-8q-69 -69 -158 -105t-186 -36q-156 0 -245 85.5t-89 277.5v736h88v-736q0 -149 67 -214.5t188 -65.5q92 0 184 41.5t155 127.5v847h40q94 0 146 41t52 125q0 38 -6 70t-19 72h77q13 -37 19 -69.5t6 -75.5
q0 -103 -60.5 -164.5zM497 1262l-226 354h99l209 -354h-82z" />
    <glyph glyph-name="uni1EED" unicode="&#x1eed;" horiz-adv-x="1109" 
d="M1088.5 1079.5q-60.5 -61.5 -166.5 -70.5v-1009h-76l-8 123h-8q-69 -69 -158 -105t-186 -36q-156 0 -245 85.5t-89 277.5v736h88v-736q0 -149 67 -214.5t188 -65.5q92 0 184 41.5t155 127.5v847h40q94 0 146 41t52 125q0 38 -6 70t-19 72h77q13 -37 19 -69.5t6 -75.5
q0 -103 -60.5 -164.5zM518 1326.5q14 26.5 32.5 43.5t48.5 38q34 24 49.5 41.5t15.5 42.5q0 38 -30.5 56.5t-95.5 18.5q-38 0 -80 -6t-74 -18v61q31 11 72 17.5t80 6.5q99 0 147 -34.5t48 -99.5q0 -31 -11 -53.5t-26.5 -36.5t-43.5 -34q-37 -26 -56.5 -48.5t-20.5 -59.5h-70
q1 38 15 64.5z" />
    <glyph glyph-name="uni1EEF" unicode="&#x1eef;" horiz-adv-x="1109" 
d="M320.5 1432.5q-36.5 -17.5 -70.5 -54.5v77q56 62 152 62q37 0 71 -11t80 -31q40 -17 67 -26t54 -9q45 0 81.5 17.5t69.5 54.5v-77q-27 -30 -66 -46.5t-86 -16.5q-36 0 -69 10.5t-81 31.5q-39 18 -67 27t-54 9q-45 0 -81.5 -17.5zM1088.5 1079.5q-60.5 -61.5 -166.5 -70.5
v-1009h-76l-8 123h-8q-69 -69 -158 -105t-186 -36q-156 0 -245 85.5t-89 277.5v736h88v-736q0 -149 67 -214.5t188 -65.5q92 0 184 41.5t155 127.5v847h40q94 0 146 41t52 125q0 38 -6 70t-19 72h77q13 -37 19 -69.5t6 -75.5q0 -103 -60.5 -164.5z" />
    <glyph glyph-name="uhungarumlaut" unicode="&#x171;" horiz-adv-x="1088" 
d="M241 67.5q-89 85.5 -89 277.5v736h88v-736q0 -149 67 -214.5t188 -65.5q92 0 184 41.5t155 127.5v847h88v-1081h-76l-8 123h-8q-69 -69 -158 -105t-186 -36q-156 0 -245 85.5zM352 1262l135 354h81l-144 -354h-72zM653 1262l135 354h81l-144 -354h-72z" />
    <glyph glyph-name="uni0217" unicode="&#x217;" horiz-adv-x="1088" 
d="M241 67.5q-89 85.5 -89 277.5v736h88v-736q0 -149 67 -214.5t188 -65.5q92 0 184 41.5t155 127.5v847h88v-1081h-76l-8 123h-8q-69 -69 -158 -105t-186 -36q-156 0 -245 85.5zM343 1523.5q69 81.5 193 81.5q125 0 196 -82.5t76 -232.5h-68q-15 248 -204 248
q-95 0 -144 -62.5t-55 -185.5h-69q6 152 75 233.5z" />
    <glyph glyph-name="umacron" unicode="&#x16b;" horiz-adv-x="1088" 
d="M241 67.5q-89 85.5 -89 277.5v736h88v-736q0 -149 67 -214.5t188 -65.5q92 0 184 41.5t155 127.5v847h88v-1081h-76l-8 123h-8q-69 -69 -158 -105t-186 -36q-156 0 -245 85.5zM249 1388v70h578v-70h-578z" />
    <glyph glyph-name="uni1E7B" unicode="&#x1e7b;" horiz-adv-x="1088" 
d="M241 67.5q-89 85.5 -89 277.5v736h88v-736q0 -149 67 -214.5t188 -65.5q92 0 184 41.5t155 127.5v847h88v-1081h-76l-8 123h-8q-69 -69 -158 -105t-186 -36q-156 0 -245 85.5zM249 1388v70h578v-70h-578zM283.5 1644q-19.5 19 -19.5 51t19.5 52t51.5 20q31 0 50.5 -20
t19.5 -52t-19.5 -51t-50.5 -19q-32 0 -51.5 19zM690.5 1644q-19.5 19 -19.5 51t19.5 52t51.5 20t51.5 -20t19.5 -52t-19.5 -51t-51.5 -19t-51.5 19z" />
    <glyph glyph-name="uogonek" unicode="&#x173;" horiz-adv-x="1088" 
d="M1024 -301v-62q-32 -19 -72.5 -29.5t-79.5 -10.5q-91 0 -143 46t-52 126q0 71 40.5 132.5t127.5 118.5l-7 103h-8q-69 -69 -158 -105t-186 -36q-156 0 -245 85.5t-89 277.5v736h88v-736q0 -149 67 -214.5t188 -65.5q92 0 184 41.5t155 127.5v847h88v-1081
q-95 -56 -136.5 -109.5t-41.5 -117.5q0 -56 34 -87t95 -31q78 0 151 44z" />
    <glyph glyph-name="uring" unicode="&#x16f;" horiz-adv-x="1088" 
d="M241 67.5q-89 85.5 -89 277.5v736h88v-736q0 -149 67 -214.5t188 -65.5q92 0 184 41.5t155 127.5v847h88v-1081h-76l-8 123h-8q-69 -69 -158 -105t-186 -36q-156 0 -245 85.5zM442.5 1281q-42.5 24 -66.5 66.5t-24 95.5t24 95.5t66.5 66.5t95.5 24t96 -24t67 -66.5
t24 -95.5t-24 -95.5t-67 -66.5t-96 -24t-95.5 24zM630 1349q35 35 35 94q0 60 -35 95t-92 35q-56 0 -91.5 -35t-35.5 -95q0 -59 35.5 -94t91.5 -35q57 0 92 35z" />
    <glyph glyph-name="utilde" unicode="&#x169;" horiz-adv-x="1088" 
d="M241 67.5q-89 85.5 -89 277.5v736h88v-736q0 -149 67 -214.5t188 -65.5q92 0 184 41.5t155 127.5v847h88v-1081h-76l-8 123h-8q-69 -69 -158 -105t-186 -36q-156 0 -245 85.5zM605.5 1382.5q-32.5 10.5 -82.5 31.5q-38 18 -66 27t-55 9q-45 0 -82 -17.5t-71 -54.5v77
q57 62 153 62q37 0 71 -11t80 -31q41 -18 68 -26.5t54 -8.5q45 0 82 17.5t70 54.5v-77q-57 -63 -153 -63q-36 0 -68.5 10.5z" />
    <glyph glyph-name="uni1E79" unicode="&#x1e79;" horiz-adv-x="1088" 
d="M241 67.5q-89 85.5 -89 277.5v736h88v-736q0 -149 67 -214.5t188 -65.5q92 0 184 41.5t155 127.5v847h88v-1081h-76l-8 123h-8q-69 -69 -158 -105t-186 -36q-156 0 -245 85.5zM605.5 1382.5q-32.5 10.5 -82.5 31.5q-38 18 -66 27t-55 9q-45 0 -82 -17.5t-71 -54.5v77
q57 62 153 62q37 0 71 -11t80 -31q41 -18 68 -26.5t54 -8.5q45 0 82 17.5t70 54.5v-77q-57 -63 -153 -63q-36 0 -68.5 10.5zM505 1620l176 275h99l-193 -275h-82z" />
    <glyph glyph-name="v" unicode="v" horiz-adv-x="1008" 
d="M893 1081h92l-422 -1081h-118l-422 1081h96l387 -1003z" />
    <glyph glyph-name="w" unicode="w" horiz-adv-x="1639" 
d="M1482 1081h89l-327 -1081h-115l-309 988l-310 -988h-114l-328 1081h91l297 -993l308 993h114l308 -991z" />
    <glyph glyph-name="wacute" unicode="&#x1e83;" horiz-adv-x="1639" 
d="M1482 1081h89l-327 -1081h-115l-309 988l-310 -988h-114l-328 1081h91l297 -993l308 993h114l308 -991zM780 1262l210 354h99l-227 -354h-82z" />
    <glyph glyph-name="wcircumflex" unicode="&#x175;" horiz-adv-x="1639" 
d="M1482 1081h89l-327 -1081h-115l-309 988l-310 -988h-114l-328 1081h91l297 -993l308 993h114l308 -991zM1086 1262h-84l-181 299l-181 -299h-83l219 354h91z" />
    <glyph glyph-name="wdieresis" unicode="&#x1e85;" horiz-adv-x="1639" 
d="M1482 1081h89l-327 -1081h-115l-309 988l-310 -988h-114l-328 1081h91l297 -993l308 993h114l308 -991zM566.5 1371q-19.5 19 -19.5 51t19.5 52t51.5 20q31 0 50.5 -20t19.5 -52t-19.5 -51t-50.5 -19q-32 0 -51.5 19zM973.5 1371q-19.5 19 -19.5 51t19.5 52t51.5 20
t51.5 -20t19.5 -52t-19.5 -51t-51.5 -19t-51.5 19z" />
    <glyph glyph-name="wgrave" unicode="&#x1e81;" horiz-adv-x="1639" 
d="M1482 1081h89l-327 -1081h-115l-309 988l-310 -988h-114l-328 1081h91l297 -993l308 993h114l308 -991zM780 1262l-226 354h99l209 -354h-82z" />
    <glyph glyph-name="x" unicode="x" horiz-adv-x="956" 
d="M532 547l401 -547h-107l-349 477l-345 -477h-106l399 545l-392 536h107l340 -466l340 466h103z" />
    <glyph glyph-name="y" unicode="y" horiz-adv-x="1008" 
d="M893 1081h92l-594 -1521h-91l173 440h-28l-422 1081h96l386 -1008z" />
    <glyph glyph-name="yacute" unicode="&#xfd;" horiz-adv-x="1008" 
d="M893 1081h92l-594 -1521h-91l173 440h-28l-422 1081h96l386 -1008zM465 1262l210 354h99l-227 -354h-82z" />
    <glyph glyph-name="ycircumflex" unicode="&#x177;" horiz-adv-x="1008" 
d="M893 1081h92l-594 -1521h-91l173 440h-28l-422 1081h96l386 -1008zM771 1262h-84l-181 299l-181 -299h-83l219 354h91z" />
    <glyph glyph-name="ydieresis" unicode="&#xff;" horiz-adv-x="1008" 
d="M893 1081h92l-594 -1521h-91l173 440h-28l-422 1081h96l386 -1008zM251.5 1371q-19.5 19 -19.5 51t19.5 52t51.5 20q31 0 50.5 -20t19.5 -52t-19.5 -51t-50.5 -19q-32 0 -51.5 19zM658.5 1371q-19.5 19 -19.5 51t19.5 52t51.5 20t51.5 -20t19.5 -52t-19.5 -51t-51.5 -19
t-51.5 19z" />
    <glyph glyph-name="uni1E8F" unicode="&#x1e8f;" horiz-adv-x="1008" 
d="M893 1081h92l-594 -1521h-91l173 440h-28l-422 1081h96l386 -1008zM453.5 1370q-19.5 19 -19.5 52q0 32 19.5 52t52.5 20t53 -20t20 -52q0 -33 -20 -52t-53 -19t-52.5 19z" />
    <glyph glyph-name="uni1EF5" unicode="&#x1ef5;" horiz-adv-x="1008" 
d="M893 1081h92l-594 -1521h-91l173 440h-28l-422 1081h96l386 -1008zM691.5 -302q-19.5 19 -19.5 51t19.5 52t51.5 20t51.5 -20t19.5 -52t-19.5 -51t-51.5 -19t-51.5 19z" />
    <glyph glyph-name="ygrave" unicode="&#x1ef3;" horiz-adv-x="1008" 
d="M893 1081h92l-594 -1521h-91l173 440h-28l-422 1081h96l386 -1008zM465 1262l-226 354h99l209 -354h-82z" />
    <glyph glyph-name="uni1EF7" unicode="&#x1ef7;" horiz-adv-x="1008" 
d="M893 1081h92l-594 -1521h-91l173 440h-28l-422 1081h96l386 -1008zM486 1326.5q14 26.5 32.5 43.5t48.5 38q34 24 49.5 41.5t15.5 42.5q0 38 -30.5 56.5t-95.5 18.5q-38 0 -80 -6t-74 -18v61q31 11 72 17.5t80 6.5q99 0 147 -34.5t48 -99.5q0 -31 -11 -53.5t-26.5 -36.5
t-43.5 -34q-37 -26 -56.5 -48.5t-20.5 -59.5h-70q1 38 15 64.5z" />
    <glyph glyph-name="uni0233" unicode="&#x233;" horiz-adv-x="1008" 
d="M893 1081h92l-594 -1521h-91l173 440h-28l-422 1081h96l386 -1008zM217 1388v70h578v-70h-578z" />
    <glyph glyph-name="uni1EF9" unicode="&#x1ef9;" horiz-adv-x="1008" 
d="M893 1081h92l-594 -1521h-91l173 440h-28l-422 1081h96l386 -1008zM573.5 1382.5q-32.5 10.5 -82.5 31.5q-38 18 -66 27t-55 9q-45 0 -82 -17.5t-71 -54.5v77q57 62 153 62q37 0 71 -11t80 -31q41 -18 68 -26.5t54 -8.5q45 0 82 17.5t70 54.5v-77q-57 -63 -153 -63
q-36 0 -68.5 10.5z" />
    <glyph glyph-name="z" unicode="z" horiz-adv-x="876" 
d="M179 79h641v-79h-759v53l630 949h-618v79h735v-53z" />
    <glyph glyph-name="zacute" unicode="&#x17a;" horiz-adv-x="876" 
d="M179 79h641v-79h-759v53l630 949h-618v79h735v-53zM400 1262l210 354h99l-227 -354h-82z" />
    <glyph glyph-name="zcaron" unicode="&#x17e;" horiz-adv-x="876" 
d="M179 79h641v-79h-759v53l630 949h-618v79h735v-53zM626 1616h84l-223 -354h-91l-223 354h83l185 -301z" />
    <glyph glyph-name="zdotaccent" unicode="&#x17c;" horiz-adv-x="876" 
d="M179 79h641v-79h-759v53l630 949h-618v79h735v-53zM388.5 1370q-19.5 19 -19.5 52q0 32 19.5 52t52.5 20t53 -20t20 -52q0 -33 -20 -52t-53 -19t-52.5 19z" />
    <glyph glyph-name="uni1E93" unicode="&#x1e93;" horiz-adv-x="876" 
d="M179 79h641v-79h-759v53l630 949h-618v79h735v-53zM389.5 -302q-19.5 19 -19.5 51t19.5 52t51.5 20t51.5 -20t19.5 -52t-19.5 -51t-51.5 -19t-51.5 19z" />
    <glyph glyph-name="iacute_j.loclNLD" horiz-adv-x="840" 
d="M166 0v1081h88v-1081h-88zM169 1262l210 354h99l-227 -354h-82zM398 -418q100 138 144 273.5t44 311.5v914h88v-907q0 -191 -50.5 -337t-164.5 -298zM589 1268l210 354h99l-227 -354h-82z" />
    <glyph glyph-name="f_i" horiz-adv-x="1098" 
d="M319.5 1548q87.5 88 260.5 88q73 0 141 -12v-83q-73 14 -140 14q-134 0 -197.5 -62t-63.5 -205v-207h365v-79h-365v-1002h-88v1002h-216v79h216v203q0 176 87.5 264zM941 1474q20 -20 20 -52q0 -33 -20 -52t-53 -19t-52.5 19t-19.5 52q0 32 19.5 52t52.5 20t53 -20z
M844 0v1081h88v-1081h-88z" />
    <glyph glyph-name="f_l" horiz-adv-x="1098" 
d="M319.5 1548q87.5 88 260.5 88q73 0 141 -12v-83q-73 14 -140 14q-134 0 -197.5 -62t-63.5 -205v-207h365v-79h-365v-1002h-88v1002h-216v79h216v203q0 176 87.5 264zM844 1616h88v-1616h-88v1616z" />
    <glyph glyph-name="I_J.loclNLD" horiz-adv-x="918" 
d="M185 0v1480h89v-1480h-89zM456 -298q100 137 144.5 273t44.5 312v1193h88v-1223q-8 -177 -56.5 -314t-158.5 -284z" />
    <glyph glyph-name="i_j.loclNLD" horiz-adv-x="840" 
d="M166 0v1081h88v-1081h-88zM157.5 1370q-19.5 19 -19.5 52q0 32 19.5 52t52.5 20t53 -20t20 -52q0 -33 -20 -52t-53 -19t-52.5 19zM398 -418q100 138 144 273.5t44 311.5v914h88v-907q0 -191 -50.5 -337t-164.5 -298zM577.5 1376q-19.5 19 -19.5 52q0 32 19.5 52t52.5 20
t53 -20t20 -52q0 -33 -20 -52t-53 -19t-52.5 19z" />
    <glyph glyph-name="a.sc" horiz-adv-x="1134" 
d="M1004 0l-159 406h-559l-159 -406h-90l469 1190h120l471 -1190h-93zM317 484h497l-248 635z" />
    <glyph glyph-name="aacute.sc" horiz-adv-x="1134" 
d="M1004 0l-159 406h-559l-159 -406h-90l469 1190h120l471 -1190h-93zM317 484h497l-248 635zM527 1324l176 275h99l-193 -275h-82z" />
    <glyph glyph-name="abreve.sc" horiz-adv-x="1134" 
d="M1004 0l-159 406h-559l-159 -406h-90l469 1190h120l471 -1190h-93zM317 484h497l-248 635zM362 1399q-74 63 -84 173h69q12 -86 63.5 -128t159.5 -42t158.5 42t60.5 128h69q-9 -112 -81 -174t-207 -62q-134 0 -208 63z" />
    <glyph glyph-name="uni1EAF.sc" horiz-adv-x="1134" 
d="M1004 0l-159 406h-559l-159 -406h-90l469 1190h120l471 -1190h-93zM317 484h497l-248 635zM532 1555l171 251h90l-188 -251h-73zM361.5 1398q-72.5 62 -81.5 172h67q10 -86 61.5 -127.5t160.5 -41.5t159 41.5t63 127.5h66q-10 -110 -82.5 -172t-205.5 -62
q-135 0 -207.5 62z" />
    <glyph glyph-name="uni1EB7.sc" horiz-adv-x="1134" 
d="M1004 0l-159 406h-559l-159 -406h-90l469 1190h120l471 -1190h-93zM317 484h497l-248 635zM516 -300q-20 19 -20 50q0 32 20 51.5t52 19.5q33 0 53 -19.5t20 -51.5q0 -31 -20 -50t-53 -19q-32 0 -52 19zM362 1399q-74 63 -84 173h69q12 -86 63.5 -128t159.5 -42t158.5 42
t60.5 128h69q-9 -112 -81 -174t-207 -62q-134 0 -208 63z" />
    <glyph glyph-name="uni1EB1.sc" horiz-adv-x="1134" 
d="M1004 0l-159 406h-559l-159 -406h-90l469 1190h120l471 -1190h-93zM317 484h497l-248 635zM532 1555l-188 251h90l171 -251h-73zM360.5 1397.5q-71.5 61.5 -80.5 172.5h66q11 -86 61.5 -127.5t159.5 -41.5t160 41.5t63 127.5h67q-10 -110 -83.5 -172t-206.5 -62
q-135 0 -206.5 61.5z" />
    <glyph glyph-name="uni1EB3.sc" horiz-adv-x="1134" 
d="M1004 0l-159 406h-559l-159 -406h-90l469 1190h120l471 -1190h-93zM317 484h497l-248 635zM547.5 1602.5q14.5 19.5 33.5 30.5t50 25q35 14 52 26.5t17 34.5q0 25 -26.5 38t-93.5 13q-52 0 -99 -8.5t-97 -27.5v59q81 35 198 35q93 0 139.5 -29t46.5 -78q0 -39 -23 -59
t-67 -39q-37 -17 -54.5 -30.5t-20.5 -37.5h-71q1 28 15.5 47.5zM360.5 1397.5q-71.5 61.5 -80.5 172.5h67q10 -86 60.5 -127.5t158.5 -41.5q109 0 161 41.5t64 127.5h66q-10 -110 -83.5 -172t-207.5 -62t-205.5 61.5z" />
    <glyph glyph-name="uni1EB5.sc" horiz-adv-x="1134" 
d="M1004 0l-159 406h-559l-159 -406h-90l469 1190h120l471 -1190h-93zM317 484h497l-248 635zM634 1652.5q-33 10.5 -81 30.5q-42 17 -68 25.5t-52 8.5q-45 0 -82 -17.5t-71 -53.5v73q58 61 154 61q36 0 69.5 -10.5t79.5 -30.5q45 -18 69.5 -26t50.5 -8q45 0 82.5 17.5
t71.5 53.5v-73q-58 -61 -154 -61q-36 0 -69 10.5zM360.5 1397.5q-71.5 61.5 -80.5 172.5h67q10 -86 60.5 -127.5t158.5 -41.5q109 0 160.5 41.5t63.5 127.5h67q-10 -110 -83.5 -172t-207.5 -62t-205.5 61.5z" />
    <glyph glyph-name="acircumflex.sc" horiz-adv-x="1134" 
d="M1004 0l-159 406h-559l-159 -406h-90l469 1190h120l471 -1190h-93zM317 484h497l-248 635zM855 1324h-94l-193 225l-193 -225h-94l242 275h91z" />
    <glyph glyph-name="uni1EA5.sc" horiz-adv-x="1134" 
d="M1004 0l-159 406h-559l-159 -406h-90l469 1190h120l471 -1190h-93zM317 484h497l-248 635zM956 1774h90l-188 -270h-73zM523 1596h91l241 -272h-94l-193 224l-193 -224h-94z" />
    <glyph glyph-name="uni1EAD.sc" horiz-adv-x="1134" 
d="M1004 0l-159 406h-559l-159 -406h-90l469 1190h120l471 -1190h-93zM317 484h497l-248 635zM516 -300q-20 19 -20 50q0 32 20 51.5t52 19.5q33 0 53 -19.5t20 -51.5q0 -31 -20 -50t-53 -19q-32 0 -52 19zM855 1324h-94l-193 225l-193 -225h-94l242 275h91z" />
    <glyph glyph-name="uni1EA7.sc" horiz-adv-x="1134" 
d="M1004 0l-159 406h-559l-159 -406h-90l469 1190h120l471 -1190h-93zM317 484h497l-248 635zM879 1504h-73l-188 270h90zM523 1596h91l241 -272h-94l-193 224l-193 -224h-94z" />
    <glyph glyph-name="uni1EA9.sc" horiz-adv-x="1134" 
d="M1004 0l-159 406h-559l-159 -406h-90l469 1190h120l471 -1190h-93zM317 484h497l-248 635zM974.5 1748q46.5 -29 46.5 -78q0 -39 -23 -59t-67 -39q-37 -17 -54.5 -30.5t-20.5 -37.5h-71q1 28 15.5 47.5t33.5 30.5t50 25q35 14 52 26.5t17 34.5q0 25 -26.5 38t-93.5 13
q-53 0 -100 -8.5t-97 -27.5v59q83 35 199 35q93 0 139.5 -29zM523 1596h91l241 -272h-94l-193 224l-193 -224h-94z" />
    <glyph glyph-name="uni1EAB.sc" horiz-adv-x="1134" 
d="M1004 0l-159 406h-559l-159 -406h-90l469 1190h120l471 -1190h-93zM317 484h497l-248 635zM784 1722.5q37 17.5 71 53.5v-73q-56 -61 -153 -61q-36 0 -69.5 10.5t-79.5 30.5q-45 18 -69.5 26t-49.5 8q-45 0 -81.5 -17.5t-71.5 -53.5v73q58 61 153 61q37 0 70.5 -10.5
t79.5 -30.5q43 -18 68 -26t50 -8q45 0 82 17.5zM523 1596h91l241 -272h-94l-193 224l-193 -224h-94z" />
    <glyph glyph-name="uni0201.sc" horiz-adv-x="1134" 
d="M1004 0l-159 406h-559l-159 -406h-90l469 1190h120l471 -1190h-93zM317 484h497l-248 635zM379 1324l-132 275h83l124 -275h-75zM683 1324l-132 275h83l124 -275h-75z" />
    <glyph glyph-name="adieresis.sc" horiz-adv-x="1134" 
d="M1004 0l-159 406h-559l-159 -406h-90l469 1190h120l471 -1190h-93zM317 484h497l-248 635zM293.5 1412q-19.5 19 -19.5 50t19.5 50.5t51.5 19.5t51.5 -19.5t19.5 -50.5t-19.5 -50t-51.5 -19t-51.5 19zM740 1412q-19 19 -19 50q0 32 19.5 51t50.5 19q32 0 51.5 -19
t19.5 -51q0 -31 -19.5 -50t-51.5 -19t-51 19z" />
    <glyph glyph-name="uni1EA1.sc" horiz-adv-x="1134" 
d="M1004 0l-159 406h-559l-159 -406h-90l469 1190h120l471 -1190h-93zM317 484h497l-248 635zM516 -300q-20 19 -20 50q0 32 20 51.5t52 19.5q33 0 53 -19.5t20 -51.5q0 -31 -20 -50t-53 -19q-32 0 -52 19z" />
    <glyph glyph-name="agrave.sc" horiz-adv-x="1134" 
d="M1004 0l-159 406h-559l-159 -406h-90l469 1190h120l471 -1190h-93zM317 484h497l-248 635zM527 1324l-193 275h100l175 -275h-82z" />
    <glyph glyph-name="uni1EA3.sc" horiz-adv-x="1134" 
d="M1004 0l-159 406h-559l-159 -406h-90l469 1190h120l471 -1190h-93zM317 484h497l-248 635zM547.5 1372.5q14.5 19.5 33.5 30.5t50 25q35 14 52 26.5t17 34.5q0 25 -26.5 38.5t-93.5 13.5q-52 0 -99 -8.5t-97 -27.5v60q81 35 198 35q93 0 139.5 -29.5t46.5 -78.5
q0 -39 -23 -59.5t-67 -39.5q-37 -17 -54.5 -30.5t-20.5 -38.5h-71q1 29 15.5 48.5z" />
    <glyph glyph-name="uni0203.sc" horiz-adv-x="1134" 
d="M1004 0l-159 406h-559l-159 -406h-90l469 1190h120l471 -1190h-93zM317 484h497l-248 635zM360 1525q72 62 206 62q135 0 209 -63t83 -173h-69q-12 86 -63.5 128t-159.5 42t-158.5 -42t-60.5 -128h-69q10 112 82 174z" />
    <glyph glyph-name="amacron.sc" horiz-adv-x="1134" 
d="M1004 0l-159 406h-559l-159 -406h-90l469 1190h120l471 -1190h-93zM317 484h497l-248 635zM290 1427v70h556v-70h-556z" />
    <glyph glyph-name="aogonek.sc" horiz-adv-x="1134" 
d="M1126 -336q39 9 90 31v-60q-85 -38 -169 -38q-103 0 -159 44.5t-56 127.5q0 69 39.5 128.5t127.5 114.5l-154 394h-559l-159 -406h-90l469 1190h120l471 -1190q-110 -57 -154 -110.5t-44 -116.5q0 -58 37.5 -88t111.5 -30q39 0 78 9zM317 484h497l-248 635z" />
    <glyph glyph-name="aring.sc" horiz-adv-x="1134" 
d="M1004 0l-159 406h-559l-159 -406h-90l469 1190h120l471 -1190h-93zM317 484h497l-248 635zM472.5 1343q-42.5 24 -66.5 66.5t-24 95.5t24 95.5t66.5 66.5t95.5 24t96 -24t67 -66.5t24 -95.5t-24 -95.5t-67 -66.5t-96 -24t-95.5 24zM660 1411q35 35 35 94t-35 94t-92 35
q-56 0 -91.5 -35t-35.5 -94t35.5 -94t91.5 -35q57 0 92 35z" />
    <glyph glyph-name="aringacute.sc" horiz-adv-x="1134" 
d="M1004 0l-159 406h-559l-159 -406h-90l469 1190h120l471 -1190h-93zM317 484h497l-248 635zM716 1624q39 -50 39 -118q0 -53 -24 -95.5t-67 -66.5t-96 -24t-95.5 24t-66.5 66.5t-24 95.5t24 95.5t66.5 66.5t95.5 24q56 0 100 -27l135 136h93zM660 1411q35 35 35 95
q0 59 -35 94t-92 35q-56 0 -91.5 -35t-35.5 -94q0 -60 35.5 -95t91.5 -35q57 0 92 35z" />
    <glyph glyph-name="atilde.sc" horiz-adv-x="1134" 
d="M1004 0l-159 406h-559l-159 -406h-90l469 1190h120l471 -1190h-93zM317 484h497l-248 635zM639 1411.5q-36 10.5 -85 30.5q-45 18 -73.5 26.5t-58.5 8.5q-50 0 -87.5 -17t-71.5 -54v76q56 62 159 62q40 0 76 -10.5t85 -30.5q45 -18 73.5 -26.5t58.5 -8.5q49 0 87 17
t72 54v-76q-57 -62 -159 -62q-40 0 -76 10.5z" />
    <glyph glyph-name="ae.sc" horiz-adv-x="1547" 
d="M880 78h595v-78h-677l-28 406h-480l-162 -406h-91l478 1190h952v-78h-660l33 -463h544v-77h-539zM322 484h442l-44 628h-147z" />
    <glyph glyph-name="aeacute.sc" horiz-adv-x="1547" 
d="M880 78h595v-78h-677l-28 406h-480l-162 -406h-91l478 1190h952v-78h-660l33 -463h544v-77h-539zM322 484h442l-44 628h-147zM720 1324l176 275h99l-193 -275h-82z" />
    <glyph glyph-name="b.sc" horiz-adv-x="1097" 
d="M949 516.5q67 -76.5 67 -196.5q0 -165 -126 -247t-404 -82q-149 0 -299 17v1164q149 30 326 30q243 0 354.5 -77t111.5 -236q0 -102 -55.5 -175t-172.5 -97q131 -24 198 -100.5zM275 1109v-459h271q188 0 267.5 59.5t79.5 176.5q0 86 -38 139t-120 77.5t-218 24.5
q-132 0 -242 -18zM751.5 93.5q95.5 28.5 137 84.5t41.5 145q0 126 -87 188.5t-273 62.5h-295v-497q91 -12 220 -12q161 0 256.5 28.5z" />
    <glyph glyph-name="c.sc" horiz-adv-x="968" 
d="M246.5 128q-141.5 142 -141.5 466q0 610 555 610q149 0 273 -35v-83q-132 37 -273 37q-152 0 -253.5 -52t-154.5 -168.5t-53 -306.5q0 -196 53.5 -313t152.5 -166.5t245 -49.5q72 0 138.5 11t144.5 36v-83q-133 -45 -287 -45q-258 0 -399.5 142z" />
    <glyph glyph-name="cacute.sc" horiz-adv-x="968" 
d="M246.5 128q-141.5 142 -141.5 466q0 610 555 610q149 0 273 -35v-83q-132 37 -273 37q-152 0 -253.5 -52t-154.5 -168.5t-53 -306.5q0 -196 53.5 -313t152.5 -166.5t245 -49.5q72 0 138.5 11t144.5 36v-83q-133 -45 -287 -45q-258 0 -399.5 142zM552 1324l176 275h99
l-193 -275h-82z" />
    <glyph glyph-name="ccaron.sc" horiz-adv-x="968" 
d="M246.5 128q-141.5 142 -141.5 466q0 610 555 610q149 0 273 -35v-83q-132 37 -273 37q-152 0 -253.5 -52t-154.5 -168.5t-53 -306.5q0 -196 53.5 -313t152.5 -166.5t245 -49.5q72 0 138.5 11t144.5 36v-83q-133 -45 -287 -45q-258 0 -399.5 142zM786 1599h94l-241 -275
h-91l-242 275h94l193 -225z" />
    <glyph glyph-name="ccedilla.sc" horiz-adv-x="968" 
d="M406.5 1071q-101.5 -52 -154.5 -168.5t-53 -306.5q0 -196 53.5 -313t152.5 -166.5t245 -49.5q72 0 138.5 11t144.5 36v-83q-133 -45 -287 -45h-10v-96q82 -4 128.5 -41.5t46.5 -104.5q0 -72 -52.5 -109.5t-144.5 -37.5q-49 0 -98 9.5t-90 28.5v61q53 -23 97.5 -32.5
t89.5 -9.5q64 0 98.5 22.5t34.5 68.5q0 90 -135 90h-39v154q-224 18 -345.5 162t-121.5 443q0 610 555 610q149 0 273 -35v-83q-132 37 -273 37q-152 0 -253.5 -52z" />
    <glyph glyph-name="uni1E09.sc" horiz-adv-x="968" 
d="M827 1599l-193 -275h-82l176 275h99zM406.5 1071q-101.5 -52 -154.5 -168.5t-53 -306.5q0 -196 53.5 -313t152.5 -166.5t245 -49.5q72 0 138.5 11t144.5 36v-83q-133 -45 -287 -45h-10v-96q82 -4 128.5 -41.5t46.5 -104.5q0 -72 -52.5 -109.5t-144.5 -37.5q-49 0 -98 9.5
t-90 28.5v61q53 -23 97.5 -32.5t89.5 -9.5q64 0 98.5 22.5t34.5 68.5q0 90 -135 90h-39v154q-224 18 -345.5 162t-121.5 443q0 610 555 610q149 0 273 -35v-83q-132 37 -273 37q-152 0 -253.5 -52z" />
    <glyph glyph-name="ccircumflex.sc" horiz-adv-x="968" 
d="M246.5 128q-141.5 142 -141.5 466q0 610 555 610q149 0 273 -35v-83q-132 37 -273 37q-152 0 -253.5 -52t-154.5 -168.5t-53 -306.5q0 -196 53.5 -313t152.5 -166.5t245 -49.5q72 0 138.5 11t144.5 36v-83q-133 -45 -287 -45q-258 0 -399.5 142zM880 1324h-94l-193 225
l-193 -225h-94l242 275h91z" />
    <glyph glyph-name="cdotaccent.sc" horiz-adv-x="968" 
d="M246.5 128q-141.5 142 -141.5 466q0 610 555 610q149 0 273 -35v-83q-132 37 -273 37q-152 0 -253.5 -52t-154.5 -168.5t-53 -306.5q0 -196 53.5 -313t152.5 -166.5t245 -49.5q72 0 138.5 11t144.5 36v-83q-133 -45 -287 -45q-258 0 -399.5 142zM541 1412q-20 19 -20 50
t20 50.5t52 19.5q33 0 53 -19t20 -51q0 -31 -20 -50t-53 -19q-32 0 -52 19z" />
    <glyph glyph-name="d.sc" horiz-adv-x="1205" 
d="M187 8v1165q148 29 304 29q303 0 456 -150.5t153 -457.5q0 -309 -158.5 -455.5t-474.5 -146.5q-144 0 -280 16zM878 195.5q130 125.5 130 399.5q0 273 -127 401t-389 128q-111 0 -216 -19v-1023q83 -12 206 -12q266 0 396 125.5z" />
    <glyph glyph-name="eth.sc" horiz-adv-x="1205" 
d="M947 1051.5q153 -150.5 153 -457.5q0 -309 -158.5 -455.5t-474.5 -146.5q-144 0 -280 16v567h-183v67h183v531q148 29 304 29q303 0 456 -150.5zM878 195.5q130 125.5 130 399.5q0 273 -127 401t-389 128q-111 0 -216 -19v-463h298v-67h-298v-493q83 -12 206 -12
q266 0 396 125.5z" />
    <glyph glyph-name="dcaron.sc" horiz-adv-x="1205" 
d="M187 8v1165q148 29 304 29q303 0 456 -150.5t153 -457.5q0 -309 -158.5 -455.5t-474.5 -146.5q-144 0 -280 16zM878 195.5q130 125.5 130 399.5q0 273 -127 401t-389 128q-111 0 -216 -19v-1023q83 -12 206 -12q266 0 396 125.5zM754 1599h94l-241 -275h-91l-242 275h94
l193 -225z" />
    <glyph glyph-name="dcroat.sc" horiz-adv-x="1205" 
d="M947 1051.5q153 -150.5 153 -457.5q0 -309 -158.5 -455.5t-474.5 -146.5q-144 0 -280 16v567h-183v67h183v531q148 29 304 29q303 0 456 -150.5zM878 195.5q130 125.5 130 399.5q0 273 -127 401t-389 128q-111 0 -216 -19v-463h298v-67h-298v-493q83 -12 206 -12
q266 0 396 125.5z" />
    <glyph glyph-name="uni1E0D.sc" horiz-adv-x="1205" 
d="M187 8v1165q148 29 304 29q303 0 456 -150.5t153 -457.5q0 -309 -158.5 -455.5t-474.5 -146.5q-144 0 -280 16zM878 195.5q130 125.5 130 399.5q0 273 -127 401t-389 128q-111 0 -216 -19v-1023q83 -12 206 -12q266 0 396 125.5zM510 -300q-20 19 -20 50q0 32 20 51.5
t52 19.5q33 0 53 -19.5t20 -51.5q0 -31 -20 -50t-53 -19q-32 0 -52 19z" />
    <glyph glyph-name="uni1E0F.sc" horiz-adv-x="1205" 
d="M187 8v1165q148 29 304 29q303 0 456 -150.5t153 -457.5q0 -309 -158.5 -455.5t-474.5 -146.5q-144 0 -280 16zM878 195.5q130 125.5 130 399.5q0 273 -127 401t-389 128q-111 0 -216 -19v-1023q83 -12 206 -12q266 0 396 125.5zM284 -285v70h556v-70h-556z" />
    <glyph glyph-name="uni01F3.sc" horiz-adv-x="2137" 
d="M187 8v1165q148 29 304 29q303 0 456 -150.5t153 -457.5q0 -309 -158.5 -455.5t-474.5 -146.5q-144 0 -280 16zM878 195.5q130 125.5 130 399.5q0 273 -127 401t-389 128q-111 0 -216 -19v-1023q83 -12 206 -12q266 0 396 125.5zM1337 79h735v-79h-851v51l723 1060h-714
v79h832v-51z" />
    <glyph glyph-name="uni01C6.sc" horiz-adv-x="2137" 
d="M187 8v1165q148 29 304 29q303 0 456 -150.5t153 -457.5q0 -309 -158.5 -455.5t-474.5 -146.5q-144 0 -280 16zM878 195.5q130 125.5 130 399.5q0 273 -127 401t-389 128q-111 0 -216 -19v-1023q83 -12 206 -12q266 0 396 125.5zM1337 79h735v-79h-851v51l723 1060h-714
v79h832v-51zM1839 1599h94l-241 -275h-91l-242 275h94l193 -225z" />
    <glyph glyph-name="e.sc" horiz-adv-x="1012" 
d="M275 78h665v-78h-753v1190h744v-78h-656v-463h574v-77h-574v-494z" />
    <glyph glyph-name="eacute.sc" horiz-adv-x="1012" 
d="M275 78h665v-78h-753v1190h744v-78h-656v-463h574v-77h-574v-494zM536 1324l176 275h99l-193 -275h-82z" />
    <glyph glyph-name="ebreve.sc" horiz-adv-x="1012" 
d="M275 78h665v-78h-753v1190h744v-78h-656v-463h574v-77h-574v-494zM371 1399q-74 63 -84 173h69q12 -86 63.5 -128t159.5 -42t158.5 42t60.5 128h69q-9 -112 -81 -174t-207 -62q-134 0 -208 63z" />
    <glyph glyph-name="ecaron.sc" horiz-adv-x="1012" 
d="M275 78h665v-78h-753v1190h744v-78h-656v-463h574v-77h-574v-494zM770 1599h94l-241 -275h-91l-242 275h94l193 -225z" />
    <glyph glyph-name="uni1E1D.sc" horiz-adv-x="1012" 
d="M371 1399q-74 63 -84 173h69q12 -86 63.5 -128t159.5 -42t158.5 42t60.5 128h69q-9 -112 -81 -174t-207 -62q-134 0 -208 63zM610 0v-110q82 -4 128.5 -41.5t46.5 -104.5q0 -72 -52.5 -109.5t-144.5 -37.5q-49 0 -98 9.5t-90 28.5v61q53 -23 97.5 -32.5t89.5 -9.5
q64 0 98.5 22.5t34.5 68.5q0 90 -135 90h-39v165h-359v1190h744v-78h-656v-463h574v-77h-574v-494h665v-78h-330z" />
    <glyph glyph-name="ecircumflex.sc" horiz-adv-x="1012" 
d="M275 78h665v-78h-753v1190h744v-78h-656v-463h574v-77h-574v-494zM864 1324h-94l-193 225l-193 -225h-94l242 275h91z" />
    <glyph glyph-name="uni1EBF.sc" horiz-adv-x="1012" 
d="M275 78h665v-78h-753v1190h744v-78h-656v-463h574v-77h-574v-494zM965 1774h90l-188 -270h-73zM532 1596h91l241 -272h-94l-193 224l-193 -224h-94z" />
    <glyph glyph-name="uni1EC7.sc" horiz-adv-x="1012" 
d="M275 78h665v-78h-753v1190h744v-78h-656v-463h574v-77h-574v-494zM527 -300q-20 19 -20 50q0 32 20 51.5t52 19.5q33 0 53 -19.5t20 -51.5q0 -31 -20 -50t-53 -19q-32 0 -52 19zM864 1324h-94l-193 225l-193 -225h-94l242 275h91z" />
    <glyph glyph-name="uni1EC1.sc" horiz-adv-x="1012" 
d="M275 78h665v-78h-753v1190h744v-78h-656v-463h574v-77h-574v-494zM888 1504h-73l-188 270h90zM532 1596h91l241 -272h-94l-193 224l-193 -224h-94z" />
    <glyph glyph-name="uni1EC3.sc" horiz-adv-x="1012" 
d="M275 78h665v-78h-753v1190h744v-78h-656v-463h574v-77h-574v-494zM983.5 1748q46.5 -29 46.5 -78q0 -39 -23 -59t-67 -39q-37 -17 -54.5 -30.5t-20.5 -37.5h-71q1 28 15.5 47.5t33.5 30.5t50 25q35 14 52 26.5t17 34.5q0 25 -26.5 38t-93.5 13q-53 0 -100 -8.5t-97 -27.5
v59q83 35 199 35q93 0 139.5 -29zM532 1596h91l241 -272h-94l-193 224l-193 -224h-94z" />
    <glyph glyph-name="uni1EC5.sc" horiz-adv-x="1012" 
d="M275 78h665v-78h-753v1190h744v-78h-656v-463h574v-77h-574v-494zM793 1722.5q37 17.5 71 53.5v-73q-56 -61 -153 -61q-36 0 -69.5 10.5t-79.5 30.5q-45 18 -69.5 26t-49.5 8q-45 0 -81.5 -17.5t-71.5 -53.5v73q58 61 153 61q37 0 70.5 -10.5t79.5 -30.5q43 -18 68 -26
t50 -8q45 0 82 17.5zM532 1596h91l241 -272h-94l-193 224l-193 -224h-94z" />
    <glyph glyph-name="uni0205.sc" horiz-adv-x="1012" 
d="M275 78h665v-78h-753v1190h744v-78h-656v-463h574v-77h-574v-494zM388 1324l-132 275h83l124 -275h-75zM692 1324l-132 275h83l124 -275h-75z" />
    <glyph glyph-name="edieresis.sc" horiz-adv-x="1012" 
d="M275 78h665v-78h-753v1190h744v-78h-656v-463h574v-77h-574v-494zM302.5 1412q-19.5 19 -19.5 50t19.5 50.5t51.5 19.5t51.5 -19.5t19.5 -50.5t-19.5 -50t-51.5 -19t-51.5 19zM749 1412q-19 19 -19 50q0 32 19.5 51t50.5 19q32 0 51.5 -19t19.5 -51q0 -31 -19.5 -50
t-51.5 -19t-51 19z" />
    <glyph glyph-name="edotaccent.sc" horiz-adv-x="1012" 
d="M275 78h665v-78h-753v1190h744v-78h-656v-463h574v-77h-574v-494zM525 1412q-20 19 -20 50t20 50.5t52 19.5q33 0 53 -19t20 -51q0 -31 -20 -50t-53 -19q-32 0 -52 19z" />
    <glyph glyph-name="uni1EB9.sc" horiz-adv-x="1012" 
d="M275 78h665v-78h-753v1190h744v-78h-656v-463h574v-77h-574v-494zM527 -300q-20 19 -20 50q0 32 20 51.5t52 19.5q33 0 53 -19.5t20 -51.5q0 -31 -20 -50t-53 -19q-32 0 -52 19z" />
    <glyph glyph-name="egrave.sc" horiz-adv-x="1012" 
d="M275 78h665v-78h-753v1190h744v-78h-656v-463h574v-77h-574v-494zM536 1324l-193 275h100l175 -275h-82z" />
    <glyph glyph-name="uni1EBB.sc" horiz-adv-x="1012" 
d="M275 78h665v-78h-753v1190h744v-78h-656v-463h574v-77h-574v-494zM556.5 1372.5q14.5 19.5 33.5 30.5t50 25q35 14 52 26.5t17 34.5q0 25 -26.5 38.5t-93.5 13.5q-52 0 -99 -8.5t-97 -27.5v60q81 35 198 35q93 0 139.5 -29.5t46.5 -78.5q0 -39 -23 -59.5t-67 -39.5
q-37 -17 -54.5 -30.5t-20.5 -38.5h-71q1 29 15.5 48.5z" />
    <glyph glyph-name="uni0207.sc" horiz-adv-x="1012" 
d="M275 78h665v-78h-753v1190h744v-78h-656v-463h574v-77h-574v-494zM369 1525q72 62 206 62q135 0 209 -63t83 -173h-69q-12 86 -63.5 128t-159.5 42t-158.5 -42t-60.5 -128h-69q10 112 82 174z" />
    <glyph glyph-name="emacron.sc" horiz-adv-x="1012" 
d="M275 78h665v-78h-753v1190h744v-78h-656v-463h574v-77h-574v-494zM299 1427v70h556v-70h-556z" />
    <glyph glyph-name="uni1E17.sc" horiz-adv-x="1012" 
d="M275 78h665v-78h-753v1190h744v-78h-656v-463h574v-77h-574v-494zM535 1600l175 232h103l-193 -232h-85zM299 1427v70h556v-70h-556z" />
    <glyph glyph-name="uni1E15.sc" horiz-adv-x="1012" 
d="M275 78h665v-78h-753v1190h744v-78h-656v-463h574v-77h-574v-494zM535 1600l-193 232h102l176 -232h-85zM299 1427v70h556v-70h-556z" />
    <glyph glyph-name="eogonek.sc" horiz-adv-x="1012" 
d="M899 -336q39 9 90 31v-60q-85 -38 -169 -38q-103 0 -159 44.5t-56 127.5q0 66 35 122t114 109h-567v1190h744v-78h-656v-463h574v-77h-574v-494h665v-78h-70q-110 -57 -154 -110.5t-44 -116.5q0 -58 37.5 -88t111.5 -30q39 0 78 9z" />
    <glyph glyph-name="uni1EBD.sc" horiz-adv-x="1012" 
d="M275 78h665v-78h-753v1190h744v-78h-656v-463h574v-77h-574v-494zM648 1411.5q-36 10.5 -85 30.5q-45 18 -73.5 26.5t-58.5 8.5q-50 0 -87.5 -17t-71.5 -54v76q56 62 159 62q40 0 76 -10.5t85 -30.5q45 -18 73.5 -26.5t58.5 -8.5q49 0 87 17t72 54v-76q-57 -62 -159 -62
q-40 0 -76 10.5z" />
    <glyph glyph-name="uni0259.sc" horiz-adv-x="1206" 
d="M945.5 1058q155.5 -146 155.5 -468q0 -311 -132.5 -457.5t-366.5 -146.5q-240 0 -373.5 146t-133.5 457v46h914q-6 180 -67 288t-173 155.5t-281 47.5q-80 0 -165.5 -10t-162.5 -31v82q152 37 331 37q299 0 454.5 -146zM898.5 178.5q105.5 115.5 111.5 380.5h-822
q6 -265 111.5 -380.5t302.5 -115.5q191 0 296.5 115.5z" />
    <glyph glyph-name="f.sc" horiz-adv-x="973" 
d="M922 1112h-646v-467h565v-78h-565v-567h-89v1190h735v-78z" />
    <glyph glyph-name="g.sc" horiz-adv-x="1161" 
d="M998 578v-564q-139 -23 -271 -23q-312 0 -467 146.5t-155 459.5t155 460t429 147q148 0 283 -36v-83q-143 40 -280 40q-237 0 -365.5 -124t-128.5 -404q0 -186 58 -302.5t174 -171t294 -54.5q107 0 188 14v495h86z" />
    <glyph glyph-name="uni01F5.sc" horiz-adv-x="1161" 
d="M998 578v-564q-139 -23 -271 -23q-312 0 -467 146.5t-155 459.5t155 460t429 147q148 0 283 -36v-83q-143 40 -280 40q-237 0 -365.5 -124t-128.5 -404q0 -186 58 -302.5t174 -171t294 -54.5q107 0 188 14v495h86zM585 1324l176 275h99l-193 -275h-82z" />
    <glyph glyph-name="gbreve.sc" horiz-adv-x="1161" 
d="M998 578v-564q-139 -23 -271 -23q-312 0 -467 146.5t-155 459.5t155 460t429 147q148 0 283 -36v-83q-143 40 -280 40q-237 0 -365.5 -124t-128.5 -404q0 -186 58 -302.5t174 -171t294 -54.5q107 0 188 14v495h86zM420 1399q-74 63 -84 173h69q12 -86 63.5 -128
t159.5 -42t158.5 42t60.5 128h69q-9 -112 -81 -174t-207 -62q-134 0 -208 63z" />
    <glyph glyph-name="gcaron.sc" horiz-adv-x="1161" 
d="M998 578v-564q-139 -23 -271 -23q-312 0 -467 146.5t-155 459.5t155 460t429 147q148 0 283 -36v-83q-143 40 -280 40q-237 0 -365.5 -124t-128.5 -404q0 -186 58 -302.5t174 -171t294 -54.5q107 0 188 14v495h86zM819 1599h94l-241 -275h-91l-242 275h94l193 -225z" />
    <glyph glyph-name="gcircumflex.sc" horiz-adv-x="1161" 
d="M998 578v-564q-139 -23 -271 -23q-312 0 -467 146.5t-155 459.5t155 460t429 147q148 0 283 -36v-83q-143 40 -280 40q-237 0 -365.5 -124t-128.5 -404q0 -186 58 -302.5t174 -171t294 -54.5q107 0 188 14v495h86zM913 1324h-94l-193 225l-193 -225h-94l242 275h91z" />
    <glyph glyph-name="gcommaaccent.sc" horiz-adv-x="1161" 
d="M998 578v-564q-139 -23 -271 -23q-312 0 -467 146.5t-155 459.5t155 460t429 147q148 0 283 -36v-83q-143 40 -280 40q-237 0 -365.5 -124t-128.5 -404q0 -186 58 -302.5t174 -171t294 -54.5q107 0 188 14v495h86zM678 -202.5q20 -23.5 20 -68.5q0 -38 -12.5 -87
t-34.5 -94h-56q30 77 35 138h-4q-32 0 -51.5 19t-19.5 49t18.5 48.5t49.5 18.5q35 0 55 -23.5z" />
    <glyph glyph-name="gdotaccent.sc" horiz-adv-x="1161" 
d="M998 578v-564q-139 -23 -271 -23q-312 0 -467 146.5t-155 459.5t155 460t429 147q148 0 283 -36v-83q-143 40 -280 40q-237 0 -365.5 -124t-128.5 -404q0 -186 58 -302.5t174 -171t294 -54.5q107 0 188 14v495h86zM574 1412q-20 19 -20 50t20 50.5t52 19.5q33 0 53 -19
t20 -51q0 -31 -20 -50t-53 -19q-32 0 -52 19z" />
    <glyph glyph-name="uni1E21.sc" horiz-adv-x="1161" 
d="M998 578v-564q-139 -23 -271 -23q-312 0 -467 146.5t-155 459.5t155 460t429 147q148 0 283 -36v-83q-143 40 -280 40q-237 0 -365.5 -124t-128.5 -404q0 -186 58 -302.5t174 -171t294 -54.5q107 0 188 14v495h86zM348 1427v70h556v-70h-556z" />
    <glyph glyph-name="h.sc" horiz-adv-x="1272" 
d="M187 0v1190h89v-538h720v538h89v-1190h-89v572h-720v-572h-89z" />
    <glyph glyph-name="hbar.sc" horiz-adv-x="1272" 
d="M1268 956v-65h-183v-891h-89v572h-720v-572h-89v891h-182v65h182v234h89v-234h720v234h89v-234h183zM996 652v239h-720v-239h720z" />
    <glyph glyph-name="uni1E2B.sc" horiz-adv-x="1272" 
d="M187 0v1190h89v-538h720v538h89v-1190h-89v572h-720v-572h-89zM424 -337.5q-75 65.5 -78 178.5h69q5 -87 58.5 -132t164.5 -45t163.5 45t55.5 132h69q-2 -114 -75.5 -179t-212.5 -65t-214 65.5z" />
    <glyph glyph-name="hcircumflex.sc" horiz-adv-x="1272" 
d="M187 0v1190h89v-538h720v538h89v-1190h-89v572h-720v-572h-89zM923 1324h-94l-193 225l-193 -225h-94l242 275h91z" />
    <glyph glyph-name="uni1E25.sc" horiz-adv-x="1272" 
d="M187 0v1190h89v-538h720v538h89v-1190h-89v572h-720v-572h-89zM584 -300q-20 19 -20 50q0 32 20 51.5t52 19.5q33 0 53 -19.5t20 -51.5q0 -31 -20 -50t-53 -19q-32 0 -52 19z" />
    <glyph glyph-name="i.sc" horiz-adv-x="463" 
d="M187 0v1190h89v-1190h-89z" />
    <glyph glyph-name="iacute.sc" horiz-adv-x="463" 
d="M187 0v1190h89v-1190h-89zM191 1324l176 275h99l-193 -275h-82z" />
    <glyph glyph-name="iacute_j.loclNLD.sc" horiz-adv-x="926" 
d="M187 0v1190h89v-1190h-89zM191 1324l176 275h99l-193 -275h-82zM491 -232q85 108 122 215t37 248v959h89v-980q-7 -143 -49 -254.5t-138 -230.5zM653 1324l176 275h99l-193 -275h-82z" />
    <glyph glyph-name="ibreve.sc" horiz-adv-x="463" 
d="M187 0v1190h89v-1190h-89zM26 1399q-74 63 -84 173h69q12 -86 63.5 -128t159.5 -42t158.5 42t60.5 128h69q-9 -112 -81 -174t-207 -62q-134 0 -208 63z" />
    <glyph glyph-name="icircumflex.sc" horiz-adv-x="463" 
d="M187 0v1190h89v-1190h-89zM519 1324h-94l-193 225l-193 -225h-94l242 275h91z" />
    <glyph glyph-name="uni0209.sc" horiz-adv-x="463" 
d="M187 0v1190h89v-1190h-89zM43 1324l-132 275h83l124 -275h-75zM347 1324l-132 275h83l124 -275h-75z" />
    <glyph glyph-name="idieresis.sc" horiz-adv-x="463" 
d="M187 0v1190h89v-1190h-89zM-42.5 1412q-19.5 19 -19.5 50t19.5 50.5t51.5 19.5t51.5 -19.5t19.5 -50.5t-19.5 -50t-51.5 -19t-51.5 19zM404 1412q-19 19 -19 50q0 32 19.5 51t50.5 19q32 0 51.5 -19t19.5 -51q0 -31 -19.5 -50t-51.5 -19t-51 19z" />
    <glyph glyph-name="uni1E2F.sc" horiz-adv-x="463" 
d="M187 0v1190h89v-1190h-89zM190 1600l175 232h103l-193 -232h-85zM-42.5 1412q-19.5 19 -19.5 50t19.5 50.5t51.5 19.5t51.5 -19.5t19.5 -50.5t-19.5 -50t-51.5 -19t-51.5 19zM404 1412q-19 19 -19 50q0 32 19.5 51t50.5 19q32 0 51.5 -19t19.5 -51q0 -31 -19.5 -50
t-51.5 -19t-51 19z" />
    <glyph glyph-name="i.sc.loclTRK" horiz-adv-x="463" 
d="M187 0v1190h89v-1190h-89zM180 1412q-20 19 -20 50t20 50.5t52 19.5q33 0 53 -19t20 -51q0 -31 -20 -50t-53 -19q-32 0 -52 19z" />
    <glyph glyph-name="uni1ECB.sc" horiz-adv-x="463" 
d="M187 0v1190h89v-1190h-89zM180 -300q-20 19 -20 50q0 32 20 51.5t52 19.5q33 0 53 -19.5t20 -51.5q0 -31 -20 -50t-53 -19q-32 0 -52 19z" />
    <glyph glyph-name="igrave.sc" horiz-adv-x="463" 
d="M187 0v1190h89v-1190h-89zM191 1324l-193 275h100l175 -275h-82z" />
    </font>
</defs>
</svg>
